%TF.GenerationSoftware,KiCad,Pcbnew,9.0.4-9.0.4-0~ubuntu24.04.1*%
%TF.CreationDate,2025-10-07T16:15:30-04:00*%
%TF.ProjectId,Transfer_Switch_Quad,5472616e-7366-4657-925f-537769746368,rev?*%
%TF.SameCoordinates,Original*%
%TF.FileFunction,Copper,L2,Bot*%
%TF.FilePolarity,Positive*%
%FSLAX46Y46*%
G04 Gerber Fmt 4.6, Leading zero omitted, Abs format (unit mm)*
G04 Created by KiCad (PCBNEW 9.0.4-9.0.4-0~ubuntu24.04.1) date 2025-10-07 16:15:30*
%MOMM*%
%LPD*%
G01*
G04 APERTURE LIST*
G04 Aperture macros list*
%AMRoundRect*
0 Rectangle with rounded corners*
0 $1 Rounding radius*
0 $2 $3 $4 $5 $6 $7 $8 $9 X,Y pos of 4 corners*
0 Add a 4 corners polygon primitive as box body*
4,1,4,$2,$3,$4,$5,$6,$7,$8,$9,$2,$3,0*
0 Add four circle primitives for the rounded corners*
1,1,$1+$1,$2,$3*
1,1,$1+$1,$4,$5*
1,1,$1+$1,$6,$7*
1,1,$1+$1,$8,$9*
0 Add four rect primitives between the rounded corners*
20,1,$1+$1,$2,$3,$4,$5,0*
20,1,$1+$1,$4,$5,$6,$7,0*
20,1,$1+$1,$6,$7,$8,$9,0*
20,1,$1+$1,$8,$9,$2,$3,0*%
G04 Aperture macros list end*
%TA.AperFunction,ComponentPad*%
%ADD10C,2.000000*%
%TD*%
%TA.AperFunction,ComponentPad*%
%ADD11R,2.000000X2.000000*%
%TD*%
%TA.AperFunction,ComponentPad*%
%ADD12C,6.500000*%
%TD*%
%TA.AperFunction,ComponentPad*%
%ADD13C,1.000000*%
%TD*%
%TA.AperFunction,ComponentPad*%
%ADD14RoundRect,0.250000X-0.750000X0.750000X-0.750000X-0.750000X0.750000X-0.750000X0.750000X0.750000X0*%
%TD*%
%TA.AperFunction,ViaPad*%
%ADD15C,2.600000*%
%TD*%
%TA.AperFunction,ViaPad*%
%ADD16C,1.000000*%
%TD*%
%TA.AperFunction,Conductor*%
%ADD17C,2.600000*%
%TD*%
G04 APERTURE END LIST*
D10*
%TO.P,K13,11*%
%TO.N,Net-(J10-In)*%
X70736669Y-111302998D03*
X70736669Y-103802998D03*
%TO.P,K13,12*%
%TO.N,Net-(K13-Pad12)*%
X65736669Y-111302998D03*
X65736669Y-103802998D03*
%TO.P,K13,14*%
%TO.N,Net-(K13-Pad14)*%
X75736669Y-111302998D03*
X75736669Y-103802998D03*
D11*
%TO.P,K13,A1*%
%TO.N,/RLY1*%
X50736669Y-111302998D03*
D10*
%TO.P,K13,A2*%
%TO.N,GND*%
X50736669Y-103802998D03*
%TD*%
%TO.P,K15,11*%
%TO.N,Net-(J9-In)*%
X112150000Y-118950000D03*
X104650000Y-118950000D03*
%TO.P,K15,12*%
%TO.N,Net-(K15-Pad12)*%
X112150000Y-123950000D03*
X104650000Y-123950000D03*
%TO.P,K15,14*%
%TO.N,Net-(K10-Pad11)*%
X112150000Y-113950000D03*
X104650000Y-113950000D03*
D11*
%TO.P,K15,A1*%
%TO.N,/RLY4*%
X112150000Y-138950000D03*
D10*
%TO.P,K15,A2*%
%TO.N,GND*%
X104650000Y-138950000D03*
%TD*%
%TO.P,K16,11*%
%TO.N,Net-(J6-In)*%
X78500000Y-68875000D03*
X86000000Y-68875000D03*
%TO.P,K16,12*%
%TO.N,Net-(K16-Pad12)*%
X78500000Y-63875000D03*
X86000000Y-63875000D03*
%TO.P,K16,14*%
%TO.N,Net-(K12-Pad11)*%
X78500000Y-73875000D03*
X86000000Y-73875000D03*
D11*
%TO.P,K16,A1*%
%TO.N,/RLY2*%
X78500000Y-48875000D03*
D10*
%TO.P,K16,A2*%
%TO.N,GND*%
X86000000Y-48875000D03*
%TD*%
%TO.P,K14,11*%
%TO.N,Net-(J7-In)*%
X119925000Y-77216000D03*
X119925000Y-84716000D03*
%TO.P,K14,12*%
%TO.N,Net-(K14-Pad12)*%
X124925000Y-77216000D03*
X124925000Y-84716000D03*
%TO.P,K14,14*%
%TO.N,Net-(K11-Pad11)*%
X114925000Y-77216000D03*
X114925000Y-84716000D03*
D11*
%TO.P,K14,A1*%
%TO.N,/RLY3*%
X139925000Y-77216000D03*
D10*
%TO.P,K14,A2*%
%TO.N,GND*%
X139925000Y-84716000D03*
%TD*%
%TO.P,K10,11*%
%TO.N,Net-(K10-Pad11)*%
X98950000Y-113925000D03*
X91450000Y-113925000D03*
%TO.P,K10,12*%
%TO.N,GND*%
X98950000Y-118925000D03*
X91450000Y-118925000D03*
%TO.P,K10,14*%
%TO.N,Net-(J8-In)*%
X98950000Y-108925000D03*
X91450000Y-108925000D03*
D11*
%TO.P,K10,A1*%
%TO.N,/RLY4*%
X98950000Y-133925000D03*
D10*
%TO.P,K10,A2*%
%TO.N,GND*%
X91450000Y-133925000D03*
%TD*%
%TO.P,K11,11*%
%TO.N,Net-(K11-Pad11)*%
X114950000Y-90544000D03*
X114950000Y-98044000D03*
%TO.P,K11,12*%
%TO.N,GND*%
X119950000Y-90544000D03*
X119950000Y-98044000D03*
%TO.P,K11,14*%
%TO.N,Net-(J8-In)*%
X109950000Y-90544000D03*
X109950000Y-98044000D03*
D11*
%TO.P,K11,A1*%
%TO.N,/RLY3*%
X134950000Y-90544000D03*
D10*
%TO.P,K11,A2*%
%TO.N,GND*%
X134950000Y-98044000D03*
%TD*%
D12*
%TO.P,J8,1,In*%
%TO.N,Net-(J8-In)*%
X95285700Y-94295100D03*
%TO.P,J8,2,Ext*%
%TO.N,GND*%
X104310700Y-85270100D03*
X86310700Y-85270100D03*
D13*
X98710700Y-85970100D03*
X91810700Y-85970100D03*
X103610700Y-90770100D03*
X86885700Y-90970100D03*
X103710700Y-97570100D03*
X86985700Y-97770100D03*
X91710700Y-102470100D03*
X98710700Y-102570100D03*
D12*
X104310700Y-103270100D03*
X86310700Y-103270100D03*
%TD*%
D10*
%TO.P,K12,11*%
%TO.N,Net-(K12-Pad11)*%
X91675000Y-73875000D03*
X99175000Y-73875000D03*
%TO.P,K12,12*%
%TO.N,GND*%
X91675000Y-68875000D03*
X99175000Y-68875000D03*
%TO.P,K12,14*%
%TO.N,Net-(J8-In)*%
X91675000Y-78875000D03*
X99175000Y-78875000D03*
D11*
%TO.P,K12,A1*%
%TO.N,/RLY2*%
X91675000Y-53875000D03*
D10*
%TO.P,K12,A2*%
%TO.N,GND*%
X99175000Y-53875000D03*
%TD*%
%TO.P,K9,11*%
%TO.N,Net-(K13-Pad14)*%
X75700000Y-97700000D03*
X75700000Y-90200000D03*
%TO.P,K9,12*%
%TO.N,GND*%
X70700000Y-97700000D03*
X70700000Y-90200000D03*
%TO.P,K9,14*%
%TO.N,Net-(J8-In)*%
X80700000Y-97700000D03*
X80700000Y-90200000D03*
D11*
%TO.P,K9,A1*%
%TO.N,/RLY1*%
X55700000Y-97700000D03*
D10*
%TO.P,K9,A2*%
%TO.N,GND*%
X55700000Y-90200000D03*
%TD*%
D12*
%TO.P,J9,1,In*%
%TO.N,Net-(J9-In)*%
X129287200Y-118740600D03*
%TO.P,J9,2,Ext*%
%TO.N,GND*%
X120312200Y-127765600D03*
X138312200Y-127765600D03*
D13*
X125812200Y-127065600D03*
X132712200Y-127065600D03*
X137612200Y-122265600D03*
X120887200Y-122065600D03*
X137712200Y-115465600D03*
X120987200Y-115265600D03*
X125712200Y-110565600D03*
X132712200Y-110465600D03*
D12*
X120312200Y-109765600D03*
X138312200Y-109765600D03*
%TD*%
%TO.P,J7,1,In*%
%TO.N,Net-(J7-In)*%
X120285700Y-61240600D03*
%TO.P,J7,2,Ext*%
%TO.N,GND*%
X111310700Y-70265600D03*
X129310700Y-70265600D03*
D13*
X116810700Y-69565600D03*
X123710700Y-69565600D03*
X128610700Y-64765600D03*
X111885700Y-64565600D03*
X128710700Y-57965600D03*
X111985700Y-57765600D03*
X116710700Y-53065600D03*
X123710700Y-52965600D03*
D12*
X111310700Y-52265600D03*
X129310700Y-52265600D03*
%TD*%
%TO.P,J10,1,In*%
%TO.N,Net-(J10-In)*%
X70787600Y-127250200D03*
%TO.P,J10,2,Ext*%
%TO.N,GND*%
X61812600Y-136275200D03*
X79812600Y-136275200D03*
D13*
X67312600Y-135575200D03*
X74212600Y-135575200D03*
X79112600Y-130775200D03*
X62387600Y-130575200D03*
X79212600Y-123975200D03*
X62487600Y-123775200D03*
X67212600Y-119075200D03*
X74212600Y-118975200D03*
D12*
X61812600Y-118275200D03*
X79812600Y-118275200D03*
%TD*%
%TO.P,J6,1,In*%
%TO.N,Net-(J6-In)*%
X62785700Y-69250200D03*
%TO.P,J6,2,Ext*%
%TO.N,GND*%
X53810700Y-78275200D03*
X71810700Y-78275200D03*
D13*
X59310700Y-77575200D03*
X66210700Y-77575200D03*
X71110700Y-72775200D03*
X54385700Y-72575200D03*
X71210700Y-65975200D03*
X54485700Y-65775200D03*
X59210700Y-61075200D03*
X66210700Y-60975200D03*
D12*
X53810700Y-60275200D03*
X71810700Y-60275200D03*
%TD*%
D14*
%TO.P,J1,1,Pin_1*%
%TO.N,/RLY1*%
X51050000Y-128025000D03*
D10*
%TO.P,J1,2,Pin_2*%
%TO.N,/RLY2*%
X51050000Y-130565000D03*
%TO.P,J1,3,Pin_3*%
%TO.N,/RLY3*%
X51050000Y-133104999D03*
%TO.P,J1,4,Pin_4*%
%TO.N,/RLY4*%
X51050000Y-135645000D03*
%TO.P,J1,5,Pin_5*%
%TO.N,GND*%
X51050000Y-138185000D03*
%TD*%
D15*
%TO.N,GND*%
X105985000Y-58010000D03*
X47875000Y-46850000D03*
X51825000Y-121825000D03*
X56460571Y-55109125D03*
X131318000Y-134366000D03*
X104140000Y-68834000D03*
X116900000Y-113950000D03*
X112200000Y-108900000D03*
X132334000Y-81534000D03*
X61200000Y-55175000D03*
X51816000Y-114808000D03*
X140140000Y-65786000D03*
X79600000Y-53050000D03*
X110000000Y-103378000D03*
X51054000Y-88900000D03*
X75692000Y-85344000D03*
X142400000Y-47050000D03*
X135855000Y-104045000D03*
X110000000Y-80150000D03*
X129540000Y-84836000D03*
D16*
X57250000Y-133150000D03*
D15*
X104140000Y-73914000D03*
X65750000Y-97725000D03*
X104648000Y-128270000D03*
X82295585Y-55904415D03*
X126045000Y-104125000D03*
X84970000Y-124112002D03*
X51400000Y-68550000D03*
X98975000Y-123800000D03*
X138430000Y-134366000D03*
X104140000Y-63754000D03*
X135636000Y-78232000D03*
X80750000Y-85344000D03*
X134620000Y-138684000D03*
X67310000Y-49276000D03*
X86400000Y-118950000D03*
X80772000Y-111252000D03*
D16*
X57250000Y-128050000D03*
D15*
X80772000Y-106912998D03*
X105865000Y-52990000D03*
X67266000Y-53594000D03*
X114950000Y-103378000D03*
X70612000Y-85344000D03*
X130835000Y-104165000D03*
X55822309Y-121874894D03*
X78486000Y-78994000D03*
X135900000Y-54350000D03*
X140090000Y-72184000D03*
X135950000Y-59550000D03*
X105885000Y-47940000D03*
X124975000Y-98044000D03*
X91475000Y-123925000D03*
X139650000Y-119100000D03*
X86400000Y-113900000D03*
X141900000Y-141500000D03*
X65786000Y-85344000D03*
X84910000Y-133952002D03*
D16*
X57274999Y-135638023D03*
D15*
X85825000Y-58400000D03*
X124900000Y-90678000D03*
X84930000Y-128902002D03*
X120000000Y-103378000D03*
X104140000Y-78994000D03*
X60275000Y-103800000D03*
D16*
X57299999Y-130650000D03*
D15*
X110000000Y-84000000D03*
X110000000Y-76500000D03*
X123996000Y-134366000D03*
X86350000Y-108912002D03*
X61214000Y-49276000D03*
X104700000Y-109000000D03*
X98044000Y-48375000D03*
X116840000Y-123952000D03*
X120300000Y-47575000D03*
X70625000Y-138650000D03*
X57025000Y-106600000D03*
X91700000Y-63900000D03*
X139446000Y-97282000D03*
X107950000Y-131572000D03*
X110998000Y-134243000D03*
X135890000Y-65234000D03*
X116840000Y-138684000D03*
X86106000Y-78994000D03*
X74422000Y-49276000D03*
X135780000Y-49330000D03*
X82296000Y-78994000D03*
X51625000Y-55125000D03*
X99225000Y-63900000D03*
X123952000Y-138684000D03*
X48250000Y-142000000D03*
X108500000Y-108900000D03*
X65750000Y-90225000D03*
X54275000Y-109625000D03*
X80772000Y-102362000D03*
%TD*%
D17*
%TO.N,Net-(J8-In)*%
X95285700Y-94295100D02*
X95215600Y-94225000D01*
X95215600Y-94225000D02*
X80700000Y-94225000D01*
X95425000Y-108293671D02*
X95425000Y-78900000D01*
X98950000Y-108925000D02*
X91450000Y-108925000D01*
X91675000Y-78875000D02*
X99050000Y-78875000D01*
X80700000Y-90200000D02*
X80700000Y-97700000D01*
X109950000Y-90544000D02*
X109950000Y-98044000D01*
X95860831Y-108729502D02*
X95425000Y-108293671D01*
X95285700Y-94295100D02*
X109950000Y-94295100D01*
%TO.N,Net-(K12-Pad11)*%
X78500000Y-73875000D02*
X86000000Y-73875000D01*
X86000000Y-73875000D02*
X99175000Y-73875000D01*
%TO.N,Net-(K11-Pad11)*%
X114925000Y-77216000D02*
X114925000Y-78367584D01*
X114950000Y-78392584D02*
X114950000Y-98044000D01*
X114925000Y-78367584D02*
X114950000Y-78392584D01*
%TO.N,Net-(K10-Pad11)*%
X104650000Y-113950000D02*
X112150000Y-113950000D01*
X104625000Y-113925000D02*
X104650000Y-113950000D01*
X91534004Y-113925000D02*
X104625000Y-113925000D01*
%TO.N,Net-(J10-In)*%
X70736669Y-127567999D02*
X70736669Y-111552998D01*
X70736669Y-111302998D02*
X70736669Y-103802998D01*
%TO.N,Net-(K13-Pad14)*%
X75700000Y-97700000D02*
X75700000Y-90200000D01*
X75700000Y-97875000D02*
X75700000Y-97700000D01*
X75736669Y-97911669D02*
X75700000Y-97875000D01*
X75736669Y-111302998D02*
X75736669Y-97911669D01*
%TO.N,Net-(J6-In)*%
X85975000Y-68900000D02*
X63034999Y-68900000D01*
X86000000Y-68875000D02*
X85975000Y-68900000D01*
%TO.N,Net-(J7-In)*%
X120285700Y-61443000D02*
X119925000Y-61803700D01*
X119925000Y-61803700D02*
X119925000Y-84716000D01*
%TO.N,Net-(J9-In)*%
X104650000Y-118950000D02*
X129250000Y-118950000D01*
X129250000Y-118950000D02*
X129275000Y-118925000D01*
%TD*%
%TA.AperFunction,Conductor*%
%TO.N,GND*%
G36*
X144755860Y-44785789D02*
G01*
X144801620Y-44838589D01*
X144812831Y-44890111D01*
X144812831Y-143642502D01*
X144793146Y-143709541D01*
X144740342Y-143755296D01*
X144688831Y-143766502D01*
X45937134Y-143766502D01*
X45870095Y-143746817D01*
X45824340Y-143694013D01*
X45813134Y-143642504D01*
X45813066Y-140125401D01*
X45813051Y-139360401D01*
X45813026Y-138062077D01*
X45812816Y-127224983D01*
X49549500Y-127224983D01*
X49549500Y-128825001D01*
X49549501Y-128825018D01*
X49560000Y-128927796D01*
X49560001Y-128927799D01*
X49615185Y-129094331D01*
X49615186Y-129094334D01*
X49707288Y-129243656D01*
X49831344Y-129367712D01*
X49873102Y-129393468D01*
X49879656Y-129397511D01*
X49926381Y-129449459D01*
X49937604Y-129518421D01*
X49909760Y-129582504D01*
X49908615Y-129583759D01*
X49908647Y-129583786D01*
X49905485Y-129587487D01*
X49905483Y-129587490D01*
X49845862Y-129669550D01*
X49766657Y-129778566D01*
X49659433Y-129989003D01*
X49586446Y-130213631D01*
X49549500Y-130446902D01*
X49549500Y-130683097D01*
X49586446Y-130916368D01*
X49659433Y-131140996D01*
X49744443Y-131307835D01*
X49766657Y-131351433D01*
X49905483Y-131542510D01*
X50072490Y-131709517D01*
X50107126Y-131734682D01*
X50149791Y-131790011D01*
X50155770Y-131859625D01*
X50123164Y-131921420D01*
X50107127Y-131935316D01*
X50072490Y-131960481D01*
X49905485Y-132127486D01*
X49905485Y-132127487D01*
X49905483Y-132127489D01*
X49845862Y-132209549D01*
X49766657Y-132318565D01*
X49659433Y-132529002D01*
X49586446Y-132753630D01*
X49549500Y-132986901D01*
X49549500Y-133223096D01*
X49586446Y-133456367D01*
X49659433Y-133680995D01*
X49751141Y-133860981D01*
X49766657Y-133891432D01*
X49905483Y-134082509D01*
X50072490Y-134249516D01*
X50107124Y-134274679D01*
X50107127Y-134274681D01*
X50149792Y-134330012D01*
X50155771Y-134399625D01*
X50123165Y-134461420D01*
X50107129Y-134475315D01*
X50072493Y-134500480D01*
X50072487Y-134500485D01*
X49905485Y-134667487D01*
X49905485Y-134667488D01*
X49905483Y-134667490D01*
X49873745Y-134711174D01*
X49766657Y-134858566D01*
X49659433Y-135069003D01*
X49586446Y-135293631D01*
X49549500Y-135526902D01*
X49549500Y-135763097D01*
X49586446Y-135996368D01*
X49659433Y-136220996D01*
X49766657Y-136431433D01*
X49905483Y-136622510D01*
X50072490Y-136789517D01*
X50131716Y-136832547D01*
X50174381Y-136887875D01*
X50182448Y-136942593D01*
X50180893Y-136962340D01*
X50838941Y-137620387D01*
X50818409Y-137625889D01*
X50681592Y-137704881D01*
X50569881Y-137816592D01*
X50490889Y-137953409D01*
X50485387Y-137973941D01*
X49827340Y-137315894D01*
X49767084Y-137398830D01*
X49659897Y-137609197D01*
X49586934Y-137833752D01*
X49550000Y-138066947D01*
X49550000Y-138303052D01*
X49586934Y-138536247D01*
X49659897Y-138760802D01*
X49767087Y-138971174D01*
X49827338Y-139054104D01*
X49827340Y-139054105D01*
X50485387Y-138396058D01*
X50490889Y-138416591D01*
X50569881Y-138553408D01*
X50681592Y-138665119D01*
X50818409Y-138744111D01*
X50838940Y-138749612D01*
X50180893Y-139407658D01*
X50263828Y-139467914D01*
X50474197Y-139575102D01*
X50698752Y-139648065D01*
X50698751Y-139648065D01*
X50931948Y-139685000D01*
X51168052Y-139685000D01*
X51401247Y-139648065D01*
X51625802Y-139575102D01*
X51836163Y-139467918D01*
X51836169Y-139467914D01*
X51919104Y-139407658D01*
X51919105Y-139407658D01*
X51261058Y-138749612D01*
X51281591Y-138744111D01*
X51418408Y-138665119D01*
X51530119Y-138553408D01*
X51609111Y-138416591D01*
X51614612Y-138396059D01*
X52272658Y-139054105D01*
X52272658Y-139054104D01*
X52332914Y-138971169D01*
X52332918Y-138971163D01*
X52403853Y-138831947D01*
X103150000Y-138831947D01*
X103150000Y-139068052D01*
X103186934Y-139301247D01*
X103259897Y-139525802D01*
X103367087Y-139736174D01*
X103427338Y-139819104D01*
X103427340Y-139819105D01*
X104048958Y-139197487D01*
X104073978Y-139257890D01*
X104145112Y-139364351D01*
X104235649Y-139454888D01*
X104342110Y-139526022D01*
X104402511Y-139551041D01*
X103780893Y-140172658D01*
X103863828Y-140232914D01*
X104074197Y-140340102D01*
X104298752Y-140413065D01*
X104298751Y-140413065D01*
X104531948Y-140450000D01*
X104768052Y-140450000D01*
X105001247Y-140413065D01*
X105225802Y-140340102D01*
X105436163Y-140232918D01*
X105436169Y-140232914D01*
X105519104Y-140172658D01*
X105519105Y-140172658D01*
X104897488Y-139551041D01*
X104957890Y-139526022D01*
X105064351Y-139454888D01*
X105154888Y-139364351D01*
X105226022Y-139257890D01*
X105251041Y-139197488D01*
X105872658Y-139819105D01*
X105872658Y-139819104D01*
X105932914Y-139736169D01*
X105932918Y-139736163D01*
X106040102Y-139525802D01*
X106113065Y-139301247D01*
X106150000Y-139068052D01*
X106150000Y-138831947D01*
X106113065Y-138598752D01*
X106040102Y-138374197D01*
X105932914Y-138163828D01*
X105872658Y-138080894D01*
X105872658Y-138080893D01*
X105251041Y-138702511D01*
X105226022Y-138642110D01*
X105154888Y-138535649D01*
X105064351Y-138445112D01*
X104957890Y-138373978D01*
X104897488Y-138348958D01*
X105344311Y-137902135D01*
X110649500Y-137902135D01*
X110649500Y-139997870D01*
X110649501Y-139997876D01*
X110655908Y-140057483D01*
X110706202Y-140192328D01*
X110706206Y-140192335D01*
X110792452Y-140307544D01*
X110792455Y-140307547D01*
X110907664Y-140393793D01*
X110907671Y-140393797D01*
X111042517Y-140444091D01*
X111042516Y-140444091D01*
X111049444Y-140444835D01*
X111102127Y-140450500D01*
X113197872Y-140450499D01*
X113257483Y-140444091D01*
X113392331Y-140393796D01*
X113507546Y-140307546D01*
X113593796Y-140192331D01*
X113644091Y-140057483D01*
X113650500Y-139997873D01*
X113650499Y-137902128D01*
X113644091Y-137842517D01*
X113640821Y-137833751D01*
X113593797Y-137707671D01*
X113593793Y-137707664D01*
X113507547Y-137592455D01*
X113507544Y-137592452D01*
X113392335Y-137506206D01*
X113392328Y-137506202D01*
X113257482Y-137455908D01*
X113257483Y-137455908D01*
X113197883Y-137449501D01*
X113197881Y-137449500D01*
X113197873Y-137449500D01*
X113197864Y-137449500D01*
X111102129Y-137449500D01*
X111102123Y-137449501D01*
X111042516Y-137455908D01*
X110907671Y-137506202D01*
X110907664Y-137506206D01*
X110792455Y-137592452D01*
X110792452Y-137592455D01*
X110706206Y-137707664D01*
X110706202Y-137707671D01*
X110655908Y-137842517D01*
X110649501Y-137902116D01*
X110649501Y-137902123D01*
X110649500Y-137902135D01*
X105344311Y-137902135D01*
X105435321Y-137811125D01*
X105519105Y-137727340D01*
X105519104Y-137727338D01*
X105436174Y-137667087D01*
X105225802Y-137559897D01*
X105001247Y-137486934D01*
X105001248Y-137486934D01*
X104768052Y-137450000D01*
X104531948Y-137450000D01*
X104298752Y-137486934D01*
X104074197Y-137559897D01*
X103863830Y-137667084D01*
X103780894Y-137727340D01*
X104402512Y-138348958D01*
X104342110Y-138373978D01*
X104235649Y-138445112D01*
X104145112Y-138535649D01*
X104073978Y-138642110D01*
X104048958Y-138702512D01*
X103427340Y-138080894D01*
X103367084Y-138163830D01*
X103259897Y-138374197D01*
X103186934Y-138598752D01*
X103150000Y-138831947D01*
X52403853Y-138831947D01*
X52435019Y-138770780D01*
X52440102Y-138760802D01*
X52513065Y-138536247D01*
X52550000Y-138303052D01*
X52550000Y-138066947D01*
X52513065Y-137833751D01*
X52506296Y-137812917D01*
X52440102Y-137609197D01*
X52332914Y-137398828D01*
X52272658Y-137315894D01*
X52272658Y-137315893D01*
X51614612Y-137973940D01*
X51609111Y-137953409D01*
X51530119Y-137816592D01*
X51418408Y-137704881D01*
X51281591Y-137625889D01*
X51261059Y-137620387D01*
X51919105Y-136962340D01*
X51917551Y-136942594D01*
X51931915Y-136874216D01*
X51968284Y-136832547D01*
X52027510Y-136789517D01*
X52194517Y-136622510D01*
X52333343Y-136431433D01*
X52440568Y-136220992D01*
X52513553Y-135996368D01*
X52550500Y-135763097D01*
X52550500Y-135526902D01*
X52513553Y-135293631D01*
X52463218Y-135138718D01*
X52440566Y-135069003D01*
X52333342Y-134858566D01*
X52286508Y-134794105D01*
X52194517Y-134667490D01*
X52027510Y-134500483D01*
X51992871Y-134475316D01*
X51950206Y-134419986D01*
X51944228Y-134350372D01*
X51976835Y-134288578D01*
X51992873Y-134274681D01*
X52027510Y-134249516D01*
X52194517Y-134082509D01*
X52333343Y-133891432D01*
X52376390Y-133806947D01*
X89950000Y-133806947D01*
X89950000Y-134043052D01*
X89986934Y-134276247D01*
X90059897Y-134500802D01*
X90167087Y-134711174D01*
X90227338Y-134794104D01*
X90227340Y-134794105D01*
X90848958Y-134172487D01*
X90873978Y-134232890D01*
X90945112Y-134339351D01*
X91035649Y-134429888D01*
X91142110Y-134501022D01*
X91202511Y-134526041D01*
X90580893Y-135147658D01*
X90663828Y-135207914D01*
X90874197Y-135315102D01*
X91098752Y-135388065D01*
X91098751Y-135388065D01*
X91331948Y-135425000D01*
X91568052Y-135425000D01*
X91801247Y-135388065D01*
X92025802Y-135315102D01*
X92236163Y-135207918D01*
X92236169Y-135207914D01*
X92319104Y-135147658D01*
X92319105Y-135147658D01*
X91697488Y-134526041D01*
X91757890Y-134501022D01*
X91864351Y-134429888D01*
X91954888Y-134339351D01*
X92026022Y-134232890D01*
X92051041Y-134172488D01*
X92672658Y-134794105D01*
X92672658Y-134794104D01*
X92732914Y-134711169D01*
X92732918Y-134711163D01*
X92840102Y-134500802D01*
X92913065Y-134276247D01*
X92950000Y-134043052D01*
X92950000Y-133806947D01*
X92913065Y-133573752D01*
X92840102Y-133349197D01*
X92732914Y-133138828D01*
X92672658Y-133055894D01*
X92672658Y-133055893D01*
X92051041Y-133677511D01*
X92026022Y-133617110D01*
X91954888Y-133510649D01*
X91864351Y-133420112D01*
X91757890Y-133348978D01*
X91697488Y-133323958D01*
X92144311Y-132877135D01*
X97449500Y-132877135D01*
X97449500Y-134972870D01*
X97449501Y-134972876D01*
X97455908Y-135032483D01*
X97506202Y-135167328D01*
X97506206Y-135167335D01*
X97592452Y-135282544D01*
X97592455Y-135282547D01*
X97707664Y-135368793D01*
X97707671Y-135368797D01*
X97842517Y-135419091D01*
X97842516Y-135419091D01*
X97849444Y-135419835D01*
X97902127Y-135425500D01*
X99997872Y-135425499D01*
X100057483Y-135419091D01*
X100192331Y-135368796D01*
X100307546Y-135282546D01*
X100393796Y-135167331D01*
X100444091Y-135032483D01*
X100450500Y-134972873D01*
X100450499Y-132877128D01*
X100444091Y-132817517D01*
X100425994Y-132768997D01*
X100393797Y-132682671D01*
X100393793Y-132682664D01*
X100307547Y-132567455D01*
X100307544Y-132567452D01*
X100192335Y-132481206D01*
X100192328Y-132481202D01*
X100057482Y-132430908D01*
X100057483Y-132430908D01*
X99997883Y-132424501D01*
X99997881Y-132424500D01*
X99997873Y-132424500D01*
X99997864Y-132424500D01*
X97902129Y-132424500D01*
X97902123Y-132424501D01*
X97842516Y-132430908D01*
X97707671Y-132481202D01*
X97707664Y-132481206D01*
X97592455Y-132567452D01*
X97592452Y-132567455D01*
X97506206Y-132682664D01*
X97506202Y-132682671D01*
X97455908Y-132817517D01*
X97449501Y-132877116D01*
X97449501Y-132877123D01*
X97449500Y-132877135D01*
X92144311Y-132877135D01*
X92235321Y-132786125D01*
X92319105Y-132702340D01*
X92319104Y-132702338D01*
X92236174Y-132642087D01*
X92025802Y-132534897D01*
X91801247Y-132461934D01*
X91801248Y-132461934D01*
X91568052Y-132425000D01*
X91331948Y-132425000D01*
X91098752Y-132461934D01*
X90874197Y-132534897D01*
X90663830Y-132642084D01*
X90580894Y-132702340D01*
X91202512Y-133323958D01*
X91142110Y-133348978D01*
X91035649Y-133420112D01*
X90945112Y-133510649D01*
X90873978Y-133617110D01*
X90848958Y-133677512D01*
X90227340Y-133055894D01*
X90167084Y-133138830D01*
X90059897Y-133349197D01*
X89986934Y-133573752D01*
X89950000Y-133806947D01*
X52376390Y-133806947D01*
X52412844Y-133735402D01*
X52440564Y-133681000D01*
X52440566Y-133680995D01*
X52440568Y-133680991D01*
X52513553Y-133456367D01*
X52530562Y-133348978D01*
X52550500Y-133223096D01*
X52550500Y-132986901D01*
X52515987Y-132768997D01*
X52515272Y-132764487D01*
X52513553Y-132753631D01*
X52440568Y-132529007D01*
X52440566Y-132529004D01*
X52440566Y-132529002D01*
X52333342Y-132318565D01*
X52194517Y-132127489D01*
X52027510Y-131960482D01*
X51992872Y-131935316D01*
X51950208Y-131879986D01*
X51944229Y-131810373D01*
X51976835Y-131748578D01*
X51992869Y-131734684D01*
X52027510Y-131709517D01*
X52194517Y-131542510D01*
X52333343Y-131351433D01*
X52440568Y-131140992D01*
X52513553Y-130916368D01*
X52550500Y-130683097D01*
X52550500Y-130446902D01*
X52513553Y-130213631D01*
X52440566Y-129989003D01*
X52384002Y-129877991D01*
X52333343Y-129778567D01*
X52194517Y-129587490D01*
X52194508Y-129587481D01*
X52191353Y-129583786D01*
X52193134Y-129582264D01*
X52164273Y-129529408D01*
X52169257Y-129459716D01*
X52211129Y-129403783D01*
X52220334Y-129397516D01*
X52268656Y-129367712D01*
X52392712Y-129243656D01*
X52484814Y-129094334D01*
X52539999Y-128927797D01*
X52550500Y-128825009D01*
X52550499Y-127224992D01*
X52539999Y-127122203D01*
X52539997Y-127122196D01*
X52532950Y-127100928D01*
X52532946Y-127100918D01*
X52526174Y-127080483D01*
X52520916Y-127064615D01*
X66537100Y-127064615D01*
X66537100Y-127435784D01*
X66569449Y-127805532D01*
X66633900Y-128171047D01*
X66633903Y-128171060D01*
X66729962Y-128529561D01*
X66856906Y-128878340D01*
X67013764Y-129214722D01*
X67013772Y-129214738D01*
X67144214Y-129440670D01*
X67199350Y-129536168D01*
X67199354Y-129536174D01*
X67199361Y-129536185D01*
X67412239Y-129840206D01*
X67537095Y-129989003D01*
X67650817Y-130124532D01*
X67913268Y-130386983D01*
X67984677Y-130446902D01*
X68197593Y-130625560D01*
X68501614Y-130838438D01*
X68501621Y-130838442D01*
X68501632Y-130838450D01*
X68823068Y-131024031D01*
X68823077Y-131024035D01*
X69159459Y-131180893D01*
X69420166Y-131275782D01*
X69508232Y-131307835D01*
X69508233Y-131307835D01*
X69508238Y-131307837D01*
X69620867Y-131338015D01*
X69866747Y-131403899D01*
X70232270Y-131468351D01*
X70602017Y-131500699D01*
X70602018Y-131500700D01*
X70602019Y-131500700D01*
X70973182Y-131500700D01*
X70973182Y-131500699D01*
X71342930Y-131468351D01*
X71708453Y-131403899D01*
X72066968Y-131307835D01*
X72415745Y-131180891D01*
X72752132Y-131024031D01*
X73073568Y-130838450D01*
X73377605Y-130625561D01*
X73661932Y-130386983D01*
X73924383Y-130124532D01*
X74162961Y-129840205D01*
X74375850Y-129536168D01*
X74561431Y-129214732D01*
X74718291Y-128878345D01*
X74845235Y-128529568D01*
X74941299Y-128171053D01*
X75005751Y-127805530D01*
X75038100Y-127435781D01*
X75038100Y-127064619D01*
X75005751Y-126694870D01*
X74941299Y-126329347D01*
X74845235Y-125970832D01*
X74800673Y-125848398D01*
X74718293Y-125622059D01*
X74561435Y-125285677D01*
X74561427Y-125285661D01*
X74433337Y-125063803D01*
X74375850Y-124964232D01*
X74375842Y-124964221D01*
X74375838Y-124964214D01*
X74162960Y-124660193D01*
X73924380Y-124375865D01*
X73661940Y-124113425D01*
X73661932Y-124113417D01*
X73419280Y-123909808D01*
X73377611Y-123874843D01*
X73297676Y-123818872D01*
X102649500Y-123818872D01*
X102649500Y-124081127D01*
X102676123Y-124283339D01*
X102683730Y-124341116D01*
X102693041Y-124375865D01*
X102751602Y-124594418D01*
X102751605Y-124594428D01*
X102851953Y-124836690D01*
X102851958Y-124836700D01*
X102983075Y-125063803D01*
X103142718Y-125271851D01*
X103142726Y-125271860D01*
X103328140Y-125457274D01*
X103328148Y-125457281D01*
X103536196Y-125616924D01*
X103763299Y-125748041D01*
X103763309Y-125748046D01*
X104005571Y-125848394D01*
X104005581Y-125848398D01*
X104258884Y-125916270D01*
X104518880Y-125950500D01*
X104518887Y-125950500D01*
X104781113Y-125950500D01*
X104781120Y-125950500D01*
X105041116Y-125916270D01*
X105294419Y-125848398D01*
X105536697Y-125748043D01*
X105763803Y-125616924D01*
X105971851Y-125457282D01*
X105971855Y-125457277D01*
X105971860Y-125457274D01*
X106157274Y-125271860D01*
X106157277Y-125271855D01*
X106157282Y-125271851D01*
X106316924Y-125063803D01*
X106448043Y-124836697D01*
X106548398Y-124594419D01*
X106616270Y-124341116D01*
X106650500Y-124081120D01*
X106650500Y-123818880D01*
X106650499Y-123818872D01*
X110149500Y-123818872D01*
X110149500Y-124081127D01*
X110176123Y-124283339D01*
X110183730Y-124341116D01*
X110193041Y-124375865D01*
X110251602Y-124594418D01*
X110251605Y-124594428D01*
X110351953Y-124836690D01*
X110351958Y-124836700D01*
X110483075Y-125063803D01*
X110642718Y-125271851D01*
X110642726Y-125271860D01*
X110828140Y-125457274D01*
X110828148Y-125457281D01*
X111036196Y-125616924D01*
X111263299Y-125748041D01*
X111263309Y-125748046D01*
X111505571Y-125848394D01*
X111505581Y-125848398D01*
X111758884Y-125916270D01*
X112018880Y-125950500D01*
X112018887Y-125950500D01*
X112281113Y-125950500D01*
X112281120Y-125950500D01*
X112541116Y-125916270D01*
X112794419Y-125848398D01*
X113036697Y-125748043D01*
X113263803Y-125616924D01*
X113471851Y-125457282D01*
X113471855Y-125457277D01*
X113471860Y-125457274D01*
X113657274Y-125271860D01*
X113657277Y-125271855D01*
X113657282Y-125271851D01*
X113816924Y-125063803D01*
X113948043Y-124836697D01*
X114048398Y-124594419D01*
X114116270Y-124341116D01*
X114150500Y-124081120D01*
X114150500Y-123818880D01*
X114116270Y-123558884D01*
X114048398Y-123305581D01*
X114048394Y-123305571D01*
X113948046Y-123063309D01*
X113948041Y-123063299D01*
X113816924Y-122836196D01*
X113657281Y-122628148D01*
X113657274Y-122628140D01*
X113471860Y-122442726D01*
X113471851Y-122442718D01*
X113263803Y-122283075D01*
X113036700Y-122151958D01*
X113036690Y-122151953D01*
X112794428Y-122051605D01*
X112794421Y-122051603D01*
X112794419Y-122051602D01*
X112541116Y-121983730D01*
X112483339Y-121976123D01*
X112281127Y-121949500D01*
X112281120Y-121949500D01*
X112018880Y-121949500D01*
X112018872Y-121949500D01*
X111787772Y-121979926D01*
X111758884Y-121983730D01*
X111505581Y-122051602D01*
X111505571Y-122051605D01*
X111263309Y-122151953D01*
X111263299Y-122151958D01*
X111036196Y-122283075D01*
X110828148Y-122442718D01*
X110642718Y-122628148D01*
X110483075Y-122836196D01*
X110351958Y-123063299D01*
X110351953Y-123063309D01*
X110251605Y-123305571D01*
X110251602Y-123305581D01*
X110183730Y-123558885D01*
X110149500Y-123818872D01*
X106650499Y-123818872D01*
X106616270Y-123558884D01*
X106548398Y-123305581D01*
X106548394Y-123305571D01*
X106448046Y-123063309D01*
X106448041Y-123063299D01*
X106316924Y-122836196D01*
X106157281Y-122628148D01*
X106157274Y-122628140D01*
X105971860Y-122442726D01*
X105971851Y-122442718D01*
X105763803Y-122283075D01*
X105536700Y-122151958D01*
X105536690Y-122151953D01*
X105294428Y-122051605D01*
X105294421Y-122051603D01*
X105294419Y-122051602D01*
X105041116Y-121983730D01*
X104983339Y-121976123D01*
X104781127Y-121949500D01*
X104781120Y-121949500D01*
X104518880Y-121949500D01*
X104518872Y-121949500D01*
X104287772Y-121979926D01*
X104258884Y-121983730D01*
X104005581Y-122051602D01*
X104005571Y-122051605D01*
X103763309Y-122151953D01*
X103763299Y-122151958D01*
X103536196Y-122283075D01*
X103328148Y-122442718D01*
X103142718Y-122628148D01*
X102983075Y-122836196D01*
X102851958Y-123063299D01*
X102851953Y-123063309D01*
X102751605Y-123305571D01*
X102751602Y-123305581D01*
X102683730Y-123558885D01*
X102649500Y-123818872D01*
X73297676Y-123818872D01*
X73090045Y-123673487D01*
X73046421Y-123618910D01*
X73037169Y-123571912D01*
X73037169Y-118806947D01*
X89950000Y-118806947D01*
X89950000Y-119043052D01*
X89986934Y-119276247D01*
X90059897Y-119500802D01*
X90167087Y-119711174D01*
X90227338Y-119794104D01*
X90227340Y-119794105D01*
X90848958Y-119172487D01*
X90873978Y-119232890D01*
X90945112Y-119339351D01*
X91035649Y-119429888D01*
X91142110Y-119501022D01*
X91202511Y-119526041D01*
X90580893Y-120147658D01*
X90663828Y-120207914D01*
X90874197Y-120315102D01*
X91098752Y-120388065D01*
X91098751Y-120388065D01*
X91331948Y-120425000D01*
X91568052Y-120425000D01*
X91801247Y-120388065D01*
X92025802Y-120315102D01*
X92236163Y-120207918D01*
X92236169Y-120207914D01*
X92319104Y-120147658D01*
X92319105Y-120147658D01*
X91697488Y-119526041D01*
X91757890Y-119501022D01*
X91864351Y-119429888D01*
X91954888Y-119339351D01*
X92026022Y-119232890D01*
X92051041Y-119172488D01*
X92672658Y-119794105D01*
X92672658Y-119794104D01*
X92732914Y-119711169D01*
X92732918Y-119711163D01*
X92840102Y-119500802D01*
X92913065Y-119276247D01*
X92950000Y-119043052D01*
X92950000Y-118806947D01*
X97450000Y-118806947D01*
X97450000Y-119043052D01*
X97486934Y-119276247D01*
X97559897Y-119500802D01*
X97667087Y-119711174D01*
X97727338Y-119794104D01*
X97727340Y-119794105D01*
X98348958Y-119172487D01*
X98373978Y-119232890D01*
X98445112Y-119339351D01*
X98535649Y-119429888D01*
X98642110Y-119501022D01*
X98702511Y-119526041D01*
X98080893Y-120147658D01*
X98163828Y-120207914D01*
X98374197Y-120315102D01*
X98598752Y-120388065D01*
X98598751Y-120388065D01*
X98831948Y-120425000D01*
X99068052Y-120425000D01*
X99301247Y-120388065D01*
X99525802Y-120315102D01*
X99736163Y-120207918D01*
X99736169Y-120207914D01*
X99819104Y-120147658D01*
X99819105Y-120147658D01*
X99197488Y-119526041D01*
X99257890Y-119501022D01*
X99364351Y-119429888D01*
X99454888Y-119339351D01*
X99526022Y-119232890D01*
X99551041Y-119172488D01*
X100172658Y-119794105D01*
X100172658Y-119794104D01*
X100232914Y-119711169D01*
X100232918Y-119711163D01*
X100340102Y-119500802D01*
X100413065Y-119276247D01*
X100450000Y-119043052D01*
X100450000Y-118806954D01*
X100449999Y-118806941D01*
X100448777Y-118799223D01*
X102349500Y-118799223D01*
X102349500Y-119100776D01*
X102349501Y-119100793D01*
X102388861Y-119399766D01*
X102466913Y-119691060D01*
X102582314Y-119969661D01*
X102582318Y-119969671D01*
X102733099Y-120230831D01*
X102916679Y-120470078D01*
X102916685Y-120470085D01*
X103129914Y-120683314D01*
X103129921Y-120683320D01*
X103369168Y-120866900D01*
X103630328Y-121017681D01*
X103630329Y-121017681D01*
X103630332Y-121017683D01*
X103816072Y-121094619D01*
X103908939Y-121133086D01*
X103908940Y-121133086D01*
X103908942Y-121133087D01*
X104200232Y-121211138D01*
X104499217Y-121250500D01*
X125791199Y-121250500D01*
X125858238Y-121270185D01*
X125892773Y-121303376D01*
X125908690Y-121326107D01*
X125911841Y-121330608D01*
X126058921Y-121505891D01*
X126150417Y-121614932D01*
X126412868Y-121877383D01*
X126498814Y-121949500D01*
X126697193Y-122115960D01*
X127001214Y-122328838D01*
X127001221Y-122328842D01*
X127001232Y-122328850D01*
X127322668Y-122514431D01*
X127322677Y-122514435D01*
X127659059Y-122671293D01*
X127919766Y-122766182D01*
X128007832Y-122798235D01*
X128007833Y-122798235D01*
X128007838Y-122798237D01*
X128120467Y-122828415D01*
X128366347Y-122894299D01*
X128731870Y-122958751D01*
X129101617Y-122991099D01*
X129101618Y-122991100D01*
X129101619Y-122991100D01*
X129472782Y-122991100D01*
X129472782Y-122991099D01*
X129842530Y-122958751D01*
X130208053Y-122894299D01*
X130566568Y-122798235D01*
X130915345Y-122671291D01*
X131251732Y-122514431D01*
X131573168Y-122328850D01*
X131877205Y-122115961D01*
X132161532Y-121877383D01*
X132423983Y-121614932D01*
X132662561Y-121330605D01*
X132875450Y-121026568D01*
X133061031Y-120705132D01*
X133217891Y-120368745D01*
X133344835Y-120019968D01*
X133440899Y-119661453D01*
X133505351Y-119295930D01*
X133537700Y-118926181D01*
X133537700Y-118555019D01*
X133505351Y-118185270D01*
X133440899Y-117819747D01*
X133344835Y-117461232D01*
X133312782Y-117373166D01*
X133217893Y-117112459D01*
X133061035Y-116776077D01*
X133061027Y-116776061D01*
X133049377Y-116755883D01*
X132875450Y-116454632D01*
X132875442Y-116454621D01*
X132875438Y-116454614D01*
X132662560Y-116150593D01*
X132423980Y-115866265D01*
X132161534Y-115603819D01*
X131877206Y-115365239D01*
X131573185Y-115152361D01*
X131573174Y-115152354D01*
X131573168Y-115152350D01*
X131477670Y-115097214D01*
X131251738Y-114966772D01*
X131251722Y-114966764D01*
X130915340Y-114809906D01*
X130566561Y-114682962D01*
X130208060Y-114586903D01*
X130208063Y-114586903D01*
X130208053Y-114586901D01*
X130156446Y-114577801D01*
X129842532Y-114522449D01*
X129472784Y-114490100D01*
X129472781Y-114490100D01*
X129101619Y-114490100D01*
X129101615Y-114490100D01*
X128731867Y-114522449D01*
X128366352Y-114586900D01*
X128366349Y-114586900D01*
X128366347Y-114586901D01*
X128366342Y-114586902D01*
X128366339Y-114586903D01*
X128007838Y-114682962D01*
X127659059Y-114809906D01*
X127322677Y-114966764D01*
X127322661Y-114966772D01*
X127001240Y-115152345D01*
X127001214Y-115152361D01*
X126697193Y-115365239D01*
X126412865Y-115603819D01*
X126150419Y-115866265D01*
X125911839Y-116150593D01*
X125698961Y-116454614D01*
X125698945Y-116454640D01*
X125622239Y-116587500D01*
X125571672Y-116635716D01*
X125514852Y-116649500D01*
X104499217Y-116649500D01*
X104499211Y-116649500D01*
X104499206Y-116649501D01*
X104200233Y-116688861D01*
X103908939Y-116766913D01*
X103630338Y-116882314D01*
X103630328Y-116882318D01*
X103369168Y-117033099D01*
X103129921Y-117216679D01*
X103129914Y-117216685D01*
X102916685Y-117429914D01*
X102916679Y-117429921D01*
X102733099Y-117669168D01*
X102582318Y-117930328D01*
X102582314Y-117930338D01*
X102466913Y-118208939D01*
X102388861Y-118500233D01*
X102349501Y-118799206D01*
X102349500Y-118799223D01*
X100448777Y-118799223D01*
X100413065Y-118573752D01*
X100340102Y-118349197D01*
X100232914Y-118138828D01*
X100172658Y-118055894D01*
X100172658Y-118055893D01*
X99551041Y-118677511D01*
X99526022Y-118617110D01*
X99454888Y-118510649D01*
X99364351Y-118420112D01*
X99257890Y-118348978D01*
X99197488Y-118323958D01*
X99819105Y-117702340D01*
X99819104Y-117702338D01*
X99736174Y-117642087D01*
X99525802Y-117534897D01*
X99301247Y-117461934D01*
X99301248Y-117461934D01*
X99068052Y-117425000D01*
X98831948Y-117425000D01*
X98598752Y-117461934D01*
X98374197Y-117534897D01*
X98163830Y-117642084D01*
X98080894Y-117702340D01*
X98702512Y-118323958D01*
X98642110Y-118348978D01*
X98535649Y-118420112D01*
X98445112Y-118510649D01*
X98373978Y-118617110D01*
X98348958Y-118677512D01*
X97727340Y-118055894D01*
X97667084Y-118138830D01*
X97559897Y-118349197D01*
X97486934Y-118573752D01*
X97450000Y-118806947D01*
X92950000Y-118806947D01*
X92913065Y-118573752D01*
X92840102Y-118349197D01*
X92732914Y-118138828D01*
X92672658Y-118055894D01*
X92672658Y-118055893D01*
X92051041Y-118677511D01*
X92026022Y-118617110D01*
X91954888Y-118510649D01*
X91864351Y-118420112D01*
X91757890Y-118348978D01*
X91697488Y-118323958D01*
X92319105Y-117702340D01*
X92319104Y-117702339D01*
X92236174Y-117642087D01*
X92025802Y-117534897D01*
X91801247Y-117461934D01*
X91801248Y-117461934D01*
X91568052Y-117425000D01*
X91331948Y-117425000D01*
X91098752Y-117461934D01*
X90874197Y-117534897D01*
X90663830Y-117642084D01*
X90580894Y-117702340D01*
X91202512Y-118323958D01*
X91142110Y-118348978D01*
X91035649Y-118420112D01*
X90945112Y-118510649D01*
X90873978Y-118617110D01*
X90848958Y-118677512D01*
X90227340Y-118055894D01*
X90167084Y-118138830D01*
X90059897Y-118349197D01*
X89986934Y-118573752D01*
X89950000Y-118806947D01*
X73037169Y-118806947D01*
X73037169Y-113774223D01*
X89233504Y-113774223D01*
X89233504Y-114075776D01*
X89233505Y-114075793D01*
X89272865Y-114374766D01*
X89350917Y-114666060D01*
X89466318Y-114944661D01*
X89466322Y-114944671D01*
X89617103Y-115205831D01*
X89800683Y-115445078D01*
X89800689Y-115445085D01*
X90013918Y-115658314D01*
X90013925Y-115658320D01*
X90253172Y-115841900D01*
X90514332Y-115992681D01*
X90514333Y-115992681D01*
X90514336Y-115992683D01*
X90700076Y-116069619D01*
X90792943Y-116108086D01*
X90792944Y-116108086D01*
X90792946Y-116108087D01*
X91084236Y-116186138D01*
X91383221Y-116225500D01*
X104301197Y-116225500D01*
X104317382Y-116226561D01*
X104499217Y-116250500D01*
X104499224Y-116250500D01*
X112300776Y-116250500D01*
X112300783Y-116250500D01*
X112599768Y-116211138D01*
X112891058Y-116133087D01*
X113169668Y-116017683D01*
X113430832Y-115866900D01*
X113670080Y-115683319D01*
X113883319Y-115470080D01*
X114066900Y-115230832D01*
X114217683Y-114969668D01*
X114333087Y-114691058D01*
X114411138Y-114399768D01*
X114450500Y-114100783D01*
X114450500Y-113799217D01*
X114411138Y-113500232D01*
X114333087Y-113208942D01*
X114329961Y-113201396D01*
X114261581Y-113036312D01*
X114217683Y-112930332D01*
X114203249Y-112905332D01*
X114066900Y-112669168D01*
X113883320Y-112429921D01*
X113883314Y-112429914D01*
X113670085Y-112216685D01*
X113670078Y-112216679D01*
X113430831Y-112033099D01*
X113169671Y-111882318D01*
X113169661Y-111882314D01*
X112891060Y-111766913D01*
X112599766Y-111688861D01*
X112300793Y-111649501D01*
X112300788Y-111649500D01*
X112300783Y-111649500D01*
X112300776Y-111649500D01*
X104973803Y-111649500D01*
X104957618Y-111648439D01*
X104775792Y-111624501D01*
X104775789Y-111624500D01*
X104775783Y-111624500D01*
X91383221Y-111624500D01*
X91383215Y-111624500D01*
X91383210Y-111624501D01*
X91084237Y-111663861D01*
X90792943Y-111741913D01*
X90514342Y-111857314D01*
X90514332Y-111857318D01*
X90253172Y-112008099D01*
X90013925Y-112191679D01*
X90013918Y-112191685D01*
X89800689Y-112404914D01*
X89800683Y-112404921D01*
X89617103Y-112644168D01*
X89466322Y-112905328D01*
X89466318Y-112905338D01*
X89350917Y-113183939D01*
X89272865Y-113475233D01*
X89233505Y-113774206D01*
X89233504Y-113774223D01*
X73037169Y-113774223D01*
X73037169Y-103652221D01*
X73037169Y-103652215D01*
X72997807Y-103353230D01*
X72919756Y-103061940D01*
X72804352Y-102783330D01*
X72687153Y-102580336D01*
X72653569Y-102522166D01*
X72469989Y-102282919D01*
X72469983Y-102282912D01*
X72256754Y-102069683D01*
X72256747Y-102069677D01*
X72017500Y-101886097D01*
X71756340Y-101735316D01*
X71756330Y-101735312D01*
X71477729Y-101619911D01*
X71186435Y-101541859D01*
X70887462Y-101502499D01*
X70887457Y-101502498D01*
X70887452Y-101502498D01*
X70585886Y-101502498D01*
X70585880Y-101502498D01*
X70585875Y-101502499D01*
X70286902Y-101541859D01*
X69995608Y-101619911D01*
X69717007Y-101735312D01*
X69716997Y-101735316D01*
X69455837Y-101886097D01*
X69216590Y-102069677D01*
X69216583Y-102069683D01*
X69003354Y-102282912D01*
X69003348Y-102282919D01*
X68819768Y-102522166D01*
X68668987Y-102783326D01*
X68668983Y-102783336D01*
X68553582Y-103061937D01*
X68475530Y-103353231D01*
X68436170Y-103652204D01*
X68436169Y-103652221D01*
X68436169Y-123643236D01*
X68416484Y-123710275D01*
X68383293Y-123744811D01*
X68197588Y-123874843D01*
X67913265Y-124113419D01*
X67650819Y-124375865D01*
X67412239Y-124660193D01*
X67199361Y-124964214D01*
X67199345Y-124964240D01*
X67013772Y-125285661D01*
X67013764Y-125285677D01*
X66856906Y-125622059D01*
X66729962Y-125970838D01*
X66633903Y-126329339D01*
X66633900Y-126329352D01*
X66569449Y-126694867D01*
X66537100Y-127064615D01*
X52520916Y-127064615D01*
X52484814Y-126955666D01*
X52392712Y-126806344D01*
X52268656Y-126682288D01*
X52119334Y-126590186D01*
X51952797Y-126535001D01*
X51952795Y-126535000D01*
X51850010Y-126524500D01*
X50249998Y-126524500D01*
X50249981Y-126524501D01*
X50147203Y-126535000D01*
X50147200Y-126535001D01*
X49980668Y-126590185D01*
X49980663Y-126590187D01*
X49831342Y-126682289D01*
X49707289Y-126806342D01*
X49615187Y-126955663D01*
X49615186Y-126955666D01*
X49560001Y-127122203D01*
X49560001Y-127122204D01*
X49560000Y-127122204D01*
X49549500Y-127224983D01*
X45812816Y-127224983D01*
X45812816Y-127221836D01*
X45812487Y-110255133D01*
X49236169Y-110255133D01*
X49236169Y-112350868D01*
X49236170Y-112350874D01*
X49242577Y-112410481D01*
X49292871Y-112545326D01*
X49292875Y-112545333D01*
X49379121Y-112660542D01*
X49379124Y-112660545D01*
X49494333Y-112746791D01*
X49494340Y-112746795D01*
X49629186Y-112797089D01*
X49629185Y-112797089D01*
X49636113Y-112797833D01*
X49688796Y-112803498D01*
X51784541Y-112803497D01*
X51844152Y-112797089D01*
X51979000Y-112746794D01*
X52094215Y-112660544D01*
X52180465Y-112545329D01*
X52230760Y-112410481D01*
X52237169Y-112350871D01*
X52237168Y-111171870D01*
X63736169Y-111171870D01*
X63736169Y-111434125D01*
X63761234Y-111624500D01*
X63770399Y-111694114D01*
X63820827Y-111882314D01*
X63838271Y-111947416D01*
X63838274Y-111947426D01*
X63938622Y-112189688D01*
X63938627Y-112189698D01*
X64069744Y-112416801D01*
X64229387Y-112624849D01*
X64229395Y-112624858D01*
X64414809Y-112810272D01*
X64414817Y-112810279D01*
X64622865Y-112969922D01*
X64849968Y-113101039D01*
X64849978Y-113101044D01*
X65050105Y-113183939D01*
X65092250Y-113201396D01*
X65345553Y-113269268D01*
X65605549Y-113303498D01*
X65605556Y-113303498D01*
X65867782Y-113303498D01*
X65867789Y-113303498D01*
X66127785Y-113269268D01*
X66381088Y-113201396D01*
X66623366Y-113101041D01*
X66850472Y-112969922D01*
X67058520Y-112810280D01*
X67058524Y-112810275D01*
X67058529Y-112810272D01*
X67243943Y-112624858D01*
X67243946Y-112624853D01*
X67243951Y-112624849D01*
X67403593Y-112416801D01*
X67534712Y-112189695D01*
X67635067Y-111947417D01*
X67702939Y-111694114D01*
X67737169Y-111434118D01*
X67737169Y-111171878D01*
X67702939Y-110911882D01*
X67635067Y-110658579D01*
X67546632Y-110445078D01*
X67534715Y-110416307D01*
X67534710Y-110416297D01*
X67403593Y-110189194D01*
X67243950Y-109981146D01*
X67243943Y-109981138D01*
X67058529Y-109795724D01*
X67058520Y-109795716D01*
X66850472Y-109636073D01*
X66623369Y-109504956D01*
X66623359Y-109504951D01*
X66381097Y-109404603D01*
X66381090Y-109404601D01*
X66381088Y-109404600D01*
X66127785Y-109336728D01*
X66070008Y-109329121D01*
X65867796Y-109302498D01*
X65867789Y-109302498D01*
X65605549Y-109302498D01*
X65605541Y-109302498D01*
X65374441Y-109332924D01*
X65345553Y-109336728D01*
X65092250Y-109404600D01*
X65092240Y-109404603D01*
X64849978Y-109504951D01*
X64849968Y-109504956D01*
X64622865Y-109636073D01*
X64414817Y-109795716D01*
X64229387Y-109981146D01*
X64069744Y-110189194D01*
X63938627Y-110416297D01*
X63938622Y-110416307D01*
X63838274Y-110658569D01*
X63838271Y-110658579D01*
X63770399Y-110911883D01*
X63736169Y-111171870D01*
X52237168Y-111171870D01*
X52237168Y-110255126D01*
X52230760Y-110195515D01*
X52228402Y-110189194D01*
X52180466Y-110060669D01*
X52180462Y-110060662D01*
X52094216Y-109945453D01*
X52094213Y-109945450D01*
X51979004Y-109859204D01*
X51978997Y-109859200D01*
X51844151Y-109808906D01*
X51844152Y-109808906D01*
X51784552Y-109802499D01*
X51784550Y-109802498D01*
X51784542Y-109802498D01*
X51784533Y-109802498D01*
X49688798Y-109802498D01*
X49688792Y-109802499D01*
X49629185Y-109808906D01*
X49494340Y-109859200D01*
X49494333Y-109859204D01*
X49379124Y-109945450D01*
X49379121Y-109945453D01*
X49292875Y-110060662D01*
X49292871Y-110060669D01*
X49242577Y-110195515D01*
X49236526Y-110251806D01*
X49236170Y-110255121D01*
X49236169Y-110255133D01*
X45812487Y-110255133D01*
X45812487Y-110251806D01*
X45812385Y-104978399D01*
X45812360Y-103684945D01*
X49236669Y-103684945D01*
X49236669Y-103921050D01*
X49273603Y-104154245D01*
X49346566Y-104378800D01*
X49453756Y-104589172D01*
X49514007Y-104672102D01*
X49514009Y-104672103D01*
X50135627Y-104050485D01*
X50160647Y-104110888D01*
X50231781Y-104217349D01*
X50322318Y-104307886D01*
X50428779Y-104379020D01*
X50489180Y-104404039D01*
X49867562Y-105025656D01*
X49950497Y-105085912D01*
X50160866Y-105193100D01*
X50385421Y-105266063D01*
X50385420Y-105266063D01*
X50618617Y-105302998D01*
X50854721Y-105302998D01*
X51087916Y-105266063D01*
X51312471Y-105193100D01*
X51522832Y-105085916D01*
X51522838Y-105085912D01*
X51605773Y-105025656D01*
X51605774Y-105025656D01*
X50984157Y-104404039D01*
X51044559Y-104379020D01*
X51151020Y-104307886D01*
X51241557Y-104217349D01*
X51312691Y-104110888D01*
X51337710Y-104050486D01*
X51959327Y-104672103D01*
X51959327Y-104672102D01*
X52019583Y-104589167D01*
X52019587Y-104589161D01*
X52126771Y-104378800D01*
X52199734Y-104154245D01*
X52236669Y-103921050D01*
X52236669Y-103684944D01*
X52236668Y-103684943D01*
X52234597Y-103671870D01*
X63736169Y-103671870D01*
X63736169Y-103934125D01*
X63759442Y-104110888D01*
X63770399Y-104194114D01*
X63838271Y-104447416D01*
X63838274Y-104447426D01*
X63938622Y-104689688D01*
X63938627Y-104689698D01*
X64069744Y-104916801D01*
X64229387Y-105124849D01*
X64229395Y-105124858D01*
X64414809Y-105310272D01*
X64414817Y-105310279D01*
X64622865Y-105469922D01*
X64849968Y-105601039D01*
X64849978Y-105601044D01*
X65092240Y-105701392D01*
X65092250Y-105701396D01*
X65345553Y-105769268D01*
X65605549Y-105803498D01*
X65605556Y-105803498D01*
X65867782Y-105803498D01*
X65867789Y-105803498D01*
X66127785Y-105769268D01*
X66381088Y-105701396D01*
X66623366Y-105601041D01*
X66850472Y-105469922D01*
X67058520Y-105310280D01*
X67058524Y-105310275D01*
X67058529Y-105310272D01*
X67243943Y-105124858D01*
X67243946Y-105124853D01*
X67243951Y-105124849D01*
X67403593Y-104916801D01*
X67534712Y-104689695D01*
X67635067Y-104447417D01*
X67702939Y-104194114D01*
X67737169Y-103934118D01*
X67737169Y-103671878D01*
X67702939Y-103411882D01*
X67635067Y-103158579D01*
X67576351Y-103016826D01*
X67534715Y-102916307D01*
X67534710Y-102916297D01*
X67403593Y-102689194D01*
X67243950Y-102481146D01*
X67243943Y-102481138D01*
X67058529Y-102295724D01*
X67058520Y-102295716D01*
X66850472Y-102136073D01*
X66623369Y-102004956D01*
X66623359Y-102004951D01*
X66381097Y-101904603D01*
X66381090Y-101904601D01*
X66381088Y-101904600D01*
X66127785Y-101836728D01*
X66070008Y-101829121D01*
X65867796Y-101802498D01*
X65867789Y-101802498D01*
X65605549Y-101802498D01*
X65605541Y-101802498D01*
X65374441Y-101832924D01*
X65345553Y-101836728D01*
X65161301Y-101886098D01*
X65092250Y-101904600D01*
X65092240Y-101904603D01*
X64849978Y-102004951D01*
X64849968Y-102004956D01*
X64622865Y-102136073D01*
X64414817Y-102295716D01*
X64229387Y-102481146D01*
X64069744Y-102689194D01*
X63938627Y-102916297D01*
X63938622Y-102916307D01*
X63838274Y-103158569D01*
X63838271Y-103158579D01*
X63786115Y-103353231D01*
X63770399Y-103411883D01*
X63736169Y-103671870D01*
X52234597Y-103671870D01*
X52199734Y-103451750D01*
X52126771Y-103227195D01*
X52019583Y-103016826D01*
X51959327Y-102933892D01*
X51959327Y-102933891D01*
X51337710Y-103555509D01*
X51312691Y-103495108D01*
X51241557Y-103388647D01*
X51151020Y-103298110D01*
X51044559Y-103226976D01*
X50984157Y-103201956D01*
X51605774Y-102580338D01*
X51605773Y-102580336D01*
X51522843Y-102520085D01*
X51312471Y-102412895D01*
X51087916Y-102339932D01*
X51087917Y-102339932D01*
X50854721Y-102302998D01*
X50618617Y-102302998D01*
X50385421Y-102339932D01*
X50160866Y-102412895D01*
X49950499Y-102520082D01*
X49867563Y-102580338D01*
X50489181Y-103201956D01*
X50428779Y-103226976D01*
X50322318Y-103298110D01*
X50231781Y-103388647D01*
X50160647Y-103495108D01*
X50135627Y-103555510D01*
X49514009Y-102933892D01*
X49453753Y-103016828D01*
X49346566Y-103227195D01*
X49273603Y-103451750D01*
X49236669Y-103684945D01*
X45812360Y-103684945D01*
X45812360Y-103680075D01*
X45812340Y-102627599D01*
X45812340Y-102627598D01*
X45812224Y-96652135D01*
X54199500Y-96652135D01*
X54199500Y-98747870D01*
X54199501Y-98747876D01*
X54205908Y-98807483D01*
X54256202Y-98942328D01*
X54256206Y-98942335D01*
X54342452Y-99057544D01*
X54342455Y-99057547D01*
X54457664Y-99143793D01*
X54457671Y-99143797D01*
X54592517Y-99194091D01*
X54592516Y-99194091D01*
X54599444Y-99194835D01*
X54652127Y-99200500D01*
X56747872Y-99200499D01*
X56807483Y-99194091D01*
X56942331Y-99143796D01*
X57057546Y-99057546D01*
X57143796Y-98942331D01*
X57194091Y-98807483D01*
X57200500Y-98747873D01*
X57200499Y-97581947D01*
X69200000Y-97581947D01*
X69200000Y-97818052D01*
X69236934Y-98051247D01*
X69309897Y-98275802D01*
X69417087Y-98486174D01*
X69477338Y-98569104D01*
X69477340Y-98569105D01*
X70098958Y-97947487D01*
X70123978Y-98007890D01*
X70195112Y-98114351D01*
X70285649Y-98204888D01*
X70392110Y-98276022D01*
X70452511Y-98301041D01*
X69830893Y-98922658D01*
X69913828Y-98982914D01*
X70124197Y-99090102D01*
X70348752Y-99163065D01*
X70348751Y-99163065D01*
X70581948Y-99200000D01*
X70818052Y-99200000D01*
X71051247Y-99163065D01*
X71275802Y-99090102D01*
X71486163Y-98982918D01*
X71486169Y-98982914D01*
X71569104Y-98922658D01*
X71569105Y-98922658D01*
X70947488Y-98301041D01*
X71007890Y-98276022D01*
X71114351Y-98204888D01*
X71204888Y-98114351D01*
X71276022Y-98007890D01*
X71301041Y-97947488D01*
X71922658Y-98569105D01*
X71922658Y-98569104D01*
X71982914Y-98486169D01*
X71982918Y-98486163D01*
X72090102Y-98275802D01*
X72163065Y-98051247D01*
X72200000Y-97818052D01*
X72200000Y-97581947D01*
X72163065Y-97348752D01*
X72090102Y-97124197D01*
X71982914Y-96913828D01*
X71922658Y-96830894D01*
X71922658Y-96830893D01*
X71301041Y-97452511D01*
X71276022Y-97392110D01*
X71204888Y-97285649D01*
X71114351Y-97195112D01*
X71007890Y-97123978D01*
X70947488Y-97098958D01*
X71569105Y-96477340D01*
X71569104Y-96477338D01*
X71486174Y-96417087D01*
X71275802Y-96309897D01*
X71051247Y-96236934D01*
X71051248Y-96236934D01*
X70818052Y-96200000D01*
X70581948Y-96200000D01*
X70348752Y-96236934D01*
X70124197Y-96309897D01*
X69913830Y-96417084D01*
X69830894Y-96477340D01*
X70452512Y-97098958D01*
X70392110Y-97123978D01*
X70285649Y-97195112D01*
X70195112Y-97285649D01*
X70123978Y-97392110D01*
X70098958Y-97452512D01*
X69477340Y-96830894D01*
X69417084Y-96913830D01*
X69309897Y-97124197D01*
X69236934Y-97348752D01*
X69200000Y-97581947D01*
X57200499Y-97581947D01*
X57200499Y-96652128D01*
X57194091Y-96592517D01*
X57194090Y-96592514D01*
X57184922Y-96567931D01*
X57143797Y-96457671D01*
X57143793Y-96457664D01*
X57057547Y-96342455D01*
X57057544Y-96342452D01*
X56942335Y-96256206D01*
X56942328Y-96256202D01*
X56807482Y-96205908D01*
X56807483Y-96205908D01*
X56747883Y-96199501D01*
X56747881Y-96199500D01*
X56747873Y-96199500D01*
X56747864Y-96199500D01*
X54652129Y-96199500D01*
X54652123Y-96199501D01*
X54592516Y-96205908D01*
X54457671Y-96256202D01*
X54457664Y-96256206D01*
X54342455Y-96342452D01*
X54342452Y-96342455D01*
X54256206Y-96457664D01*
X54256202Y-96457671D01*
X54205908Y-96592517D01*
X54199857Y-96648808D01*
X54199501Y-96652123D01*
X54199500Y-96652135D01*
X45812224Y-96652135D01*
X45812224Y-96648808D01*
X45812122Y-91375401D01*
X45812097Y-90081947D01*
X54200000Y-90081947D01*
X54200000Y-90318052D01*
X54236934Y-90551247D01*
X54309897Y-90775802D01*
X54417087Y-90986174D01*
X54477338Y-91069104D01*
X54477340Y-91069105D01*
X55098958Y-90447487D01*
X55123978Y-90507890D01*
X55195112Y-90614351D01*
X55285649Y-90704888D01*
X55392110Y-90776022D01*
X55452511Y-90801041D01*
X54830893Y-91422658D01*
X54913828Y-91482914D01*
X55124197Y-91590102D01*
X55348752Y-91663065D01*
X55348751Y-91663065D01*
X55581948Y-91700000D01*
X55818052Y-91700000D01*
X56051247Y-91663065D01*
X56275802Y-91590102D01*
X56486163Y-91482918D01*
X56486169Y-91482914D01*
X56569104Y-91422658D01*
X56569105Y-91422658D01*
X55947488Y-90801041D01*
X56007890Y-90776022D01*
X56114351Y-90704888D01*
X56204888Y-90614351D01*
X56276022Y-90507890D01*
X56301041Y-90447488D01*
X56922658Y-91069105D01*
X56922658Y-91069104D01*
X56982914Y-90986169D01*
X56982918Y-90986163D01*
X57090102Y-90775802D01*
X57163065Y-90551247D01*
X57200000Y-90318052D01*
X57200000Y-90081947D01*
X69200000Y-90081947D01*
X69200000Y-90318052D01*
X69236934Y-90551247D01*
X69309897Y-90775802D01*
X69417087Y-90986174D01*
X69477338Y-91069104D01*
X69477340Y-91069105D01*
X70098958Y-90447487D01*
X70123978Y-90507890D01*
X70195112Y-90614351D01*
X70285649Y-90704888D01*
X70392110Y-90776022D01*
X70452511Y-90801041D01*
X69830893Y-91422658D01*
X69913828Y-91482914D01*
X70124197Y-91590102D01*
X70348752Y-91663065D01*
X70348751Y-91663065D01*
X70581948Y-91700000D01*
X70818052Y-91700000D01*
X71051247Y-91663065D01*
X71275802Y-91590102D01*
X71486163Y-91482918D01*
X71486169Y-91482914D01*
X71569104Y-91422658D01*
X71569105Y-91422658D01*
X70947488Y-90801041D01*
X71007890Y-90776022D01*
X71114351Y-90704888D01*
X71204888Y-90614351D01*
X71276022Y-90507890D01*
X71301041Y-90447488D01*
X71922658Y-91069105D01*
X71922658Y-91069104D01*
X71982914Y-90986169D01*
X71982918Y-90986163D01*
X72090102Y-90775802D01*
X72163065Y-90551247D01*
X72200000Y-90318052D01*
X72200000Y-90081950D01*
X72197245Y-90064558D01*
X72197245Y-90064556D01*
X72194817Y-90049223D01*
X73399500Y-90049223D01*
X73399500Y-98025776D01*
X73399501Y-98025792D01*
X73435108Y-98296252D01*
X73436169Y-98312437D01*
X73436169Y-111453774D01*
X73436170Y-111453791D01*
X73475530Y-111752764D01*
X73553582Y-112044058D01*
X73668983Y-112322659D01*
X73668987Y-112322669D01*
X73819768Y-112583829D01*
X74003348Y-112823076D01*
X74003354Y-112823083D01*
X74216583Y-113036312D01*
X74216590Y-113036318D01*
X74455837Y-113219898D01*
X74716997Y-113370679D01*
X74716998Y-113370679D01*
X74717001Y-113370681D01*
X74902741Y-113447617D01*
X74995608Y-113486084D01*
X74995609Y-113486084D01*
X74995611Y-113486085D01*
X75286901Y-113564136D01*
X75585886Y-113603498D01*
X75585893Y-113603498D01*
X75887445Y-113603498D01*
X75887452Y-113603498D01*
X76186437Y-113564136D01*
X76477727Y-113486085D01*
X76756337Y-113370681D01*
X77017501Y-113219898D01*
X77256749Y-113036317D01*
X77469988Y-112823078D01*
X77653569Y-112583830D01*
X77804352Y-112322666D01*
X77919756Y-112044056D01*
X77997807Y-111752766D01*
X78037169Y-111453781D01*
X78037169Y-98066867D01*
X78037170Y-98066838D01*
X78037170Y-97760892D01*
X78037169Y-97760878D01*
X78001561Y-97490413D01*
X78000500Y-97474227D01*
X78000500Y-90049223D01*
X78399500Y-90049223D01*
X78399500Y-97850776D01*
X78399501Y-97850793D01*
X78438861Y-98149766D01*
X78516913Y-98441060D01*
X78632314Y-98719661D01*
X78632318Y-98719671D01*
X78783099Y-98980831D01*
X78966679Y-99220078D01*
X78966685Y-99220085D01*
X79179914Y-99433314D01*
X79179921Y-99433320D01*
X79419168Y-99616900D01*
X79680328Y-99767681D01*
X79680329Y-99767681D01*
X79680332Y-99767683D01*
X79866072Y-99844619D01*
X79958939Y-99883086D01*
X79958940Y-99883086D01*
X79958942Y-99883087D01*
X80250232Y-99961138D01*
X80549217Y-100000500D01*
X80549224Y-100000500D01*
X80850776Y-100000500D01*
X80850783Y-100000500D01*
X81149768Y-99961138D01*
X81441058Y-99883087D01*
X81719668Y-99767683D01*
X81980832Y-99616900D01*
X82220080Y-99433319D01*
X82433319Y-99220080D01*
X82616900Y-98980832D01*
X82767683Y-98719668D01*
X82883087Y-98441058D01*
X82961138Y-98149768D01*
X83000500Y-97850783D01*
X83000500Y-96649500D01*
X83020185Y-96582461D01*
X83072989Y-96536706D01*
X83124500Y-96525500D01*
X91594020Y-96525500D01*
X91661059Y-96545185D01*
X91695140Y-96579382D01*
X91695898Y-96578852D01*
X91910339Y-96885106D01*
X92048702Y-97050000D01*
X92148917Y-97169432D01*
X92411368Y-97431883D01*
X92481122Y-97490413D01*
X92695693Y-97670460D01*
X92999735Y-97883352D01*
X92999736Y-97883353D01*
X93034808Y-97903601D01*
X93062499Y-97919588D01*
X93110714Y-97970153D01*
X93124500Y-98026975D01*
X93124500Y-106500500D01*
X93104815Y-106567539D01*
X93052011Y-106613294D01*
X93000500Y-106624500D01*
X91299217Y-106624500D01*
X91299211Y-106624500D01*
X91299206Y-106624501D01*
X91000233Y-106663861D01*
X90708939Y-106741913D01*
X90430338Y-106857314D01*
X90430328Y-106857318D01*
X90169168Y-107008099D01*
X89929921Y-107191679D01*
X89929914Y-107191685D01*
X89716685Y-107404914D01*
X89716679Y-107404921D01*
X89533099Y-107644168D01*
X89382318Y-107905328D01*
X89382314Y-107905338D01*
X89266913Y-108183939D01*
X89188861Y-108475233D01*
X89149501Y-108774206D01*
X89149500Y-108774223D01*
X89149500Y-109075776D01*
X89149501Y-109075793D01*
X89188861Y-109374766D01*
X89266913Y-109666060D01*
X89382314Y-109944661D01*
X89382318Y-109944671D01*
X89533099Y-110205831D01*
X89716679Y-110445078D01*
X89716685Y-110445085D01*
X89929914Y-110658314D01*
X89929921Y-110658320D01*
X90169168Y-110841900D01*
X90430328Y-110992681D01*
X90430329Y-110992681D01*
X90430332Y-110992683D01*
X90616072Y-111069619D01*
X90708939Y-111108086D01*
X90708940Y-111108086D01*
X90708942Y-111108087D01*
X91000232Y-111186138D01*
X91299217Y-111225500D01*
X91299224Y-111225500D01*
X99100776Y-111225500D01*
X99100783Y-111225500D01*
X99399768Y-111186138D01*
X99691058Y-111108087D01*
X99969668Y-110992683D01*
X100230832Y-110841900D01*
X100470080Y-110658319D01*
X100683319Y-110445080D01*
X100866900Y-110205832D01*
X101017683Y-109944668D01*
X101133087Y-109666058D01*
X101211138Y-109374768D01*
X101250500Y-109075783D01*
X101250500Y-108774217D01*
X101211138Y-108475232D01*
X101133087Y-108183942D01*
X101017683Y-107905332D01*
X100866900Y-107644168D01*
X100683319Y-107404920D01*
X100683314Y-107404914D01*
X100470085Y-107191685D01*
X100470078Y-107191679D01*
X100230831Y-107008099D01*
X99969671Y-106857318D01*
X99969661Y-106857314D01*
X99691060Y-106741913D01*
X99399766Y-106663861D01*
X99100793Y-106624501D01*
X99100788Y-106624500D01*
X99100783Y-106624500D01*
X99100776Y-106624500D01*
X97849500Y-106624500D01*
X97782461Y-106604815D01*
X97736706Y-106552011D01*
X97725500Y-106500500D01*
X97725500Y-97840185D01*
X97745185Y-97773146D01*
X97778375Y-97738611D01*
X97875705Y-97670461D01*
X98160032Y-97431883D01*
X98422483Y-97169432D01*
X98661061Y-96885105D01*
X98824194Y-96652128D01*
X98826751Y-96648476D01*
X98881328Y-96604851D01*
X98928326Y-96595600D01*
X107525500Y-96595600D01*
X107592539Y-96615285D01*
X107638294Y-96668089D01*
X107649500Y-96719600D01*
X107649500Y-98194776D01*
X107649501Y-98194793D01*
X107688861Y-98493766D01*
X107766913Y-98785060D01*
X107882314Y-99063661D01*
X107882318Y-99063671D01*
X108033099Y-99324831D01*
X108216679Y-99564078D01*
X108216685Y-99564085D01*
X108429914Y-99777314D01*
X108429921Y-99777320D01*
X108669168Y-99960900D01*
X108930328Y-100111681D01*
X108930329Y-100111681D01*
X108930332Y-100111683D01*
X109116072Y-100188619D01*
X109208939Y-100227086D01*
X109208940Y-100227086D01*
X109208942Y-100227087D01*
X109500232Y-100305138D01*
X109799217Y-100344500D01*
X109799224Y-100344500D01*
X110100776Y-100344500D01*
X110100783Y-100344500D01*
X110399768Y-100305138D01*
X110691058Y-100227087D01*
X110969668Y-100111683D01*
X111230832Y-99960900D01*
X111470080Y-99777319D01*
X111683319Y-99564080D01*
X111866900Y-99324832D01*
X112017683Y-99063668D01*
X112133087Y-98785058D01*
X112211138Y-98493768D01*
X112250500Y-98194783D01*
X112250500Y-90393217D01*
X112211138Y-90094232D01*
X112133087Y-89802942D01*
X112017683Y-89524332D01*
X112001403Y-89496135D01*
X111866900Y-89263168D01*
X111683320Y-89023921D01*
X111683314Y-89023914D01*
X111470085Y-88810685D01*
X111470078Y-88810679D01*
X111230831Y-88627099D01*
X110969671Y-88476318D01*
X110969661Y-88476314D01*
X110691060Y-88360913D01*
X110399766Y-88282861D01*
X110100793Y-88243501D01*
X110100788Y-88243500D01*
X110100783Y-88243500D01*
X109799217Y-88243500D01*
X109799211Y-88243500D01*
X109799206Y-88243501D01*
X109500233Y-88282861D01*
X109208939Y-88360913D01*
X108930338Y-88476314D01*
X108930328Y-88476318D01*
X108669168Y-88627099D01*
X108429921Y-88810679D01*
X108429914Y-88810685D01*
X108216685Y-89023914D01*
X108216679Y-89023921D01*
X108033099Y-89263168D01*
X107882318Y-89524328D01*
X107882314Y-89524338D01*
X107766913Y-89802939D01*
X107688861Y-90094233D01*
X107649501Y-90393206D01*
X107649500Y-90393223D01*
X107649500Y-91870600D01*
X107629815Y-91937639D01*
X107577011Y-91983394D01*
X107525500Y-91994600D01*
X98928326Y-91994600D01*
X98861287Y-91974915D01*
X98826751Y-91941724D01*
X98661056Y-91705088D01*
X98474633Y-91482918D01*
X98422483Y-91420768D01*
X98160032Y-91158317D01*
X98053712Y-91069104D01*
X97875704Y-90919737D01*
X97778376Y-90851587D01*
X97734751Y-90797010D01*
X97725500Y-90750013D01*
X97725500Y-81299500D01*
X97745185Y-81232461D01*
X97797989Y-81186706D01*
X97849500Y-81175500D01*
X99200776Y-81175500D01*
X99200783Y-81175500D01*
X99499768Y-81136138D01*
X99791058Y-81058087D01*
X100069668Y-80942683D01*
X100330832Y-80791900D01*
X100570080Y-80608319D01*
X100783319Y-80395080D01*
X100966900Y-80155832D01*
X101117683Y-79894668D01*
X101233087Y-79616058D01*
X101311138Y-79324768D01*
X101350500Y-79025783D01*
X101350500Y-78724217D01*
X101311138Y-78425232D01*
X101233087Y-78133942D01*
X101117683Y-77855332D01*
X100966900Y-77594168D01*
X100783319Y-77354920D01*
X100783314Y-77354914D01*
X100570085Y-77141685D01*
X100570078Y-77141679D01*
X100470438Y-77065223D01*
X112624500Y-77065223D01*
X112624500Y-78518360D01*
X112624501Y-78518376D01*
X112639097Y-78629248D01*
X112643119Y-78659796D01*
X112648439Y-78700201D01*
X112649500Y-78716386D01*
X112649500Y-98194776D01*
X112649501Y-98194793D01*
X112688861Y-98493766D01*
X112766913Y-98785060D01*
X112882314Y-99063661D01*
X112882318Y-99063671D01*
X113033099Y-99324831D01*
X113216679Y-99564078D01*
X113216685Y-99564085D01*
X113429914Y-99777314D01*
X113429921Y-99777320D01*
X113669168Y-99960900D01*
X113930328Y-100111681D01*
X113930329Y-100111681D01*
X113930332Y-100111683D01*
X114116072Y-100188619D01*
X114208939Y-100227086D01*
X114208940Y-100227086D01*
X114208942Y-100227087D01*
X114500232Y-100305138D01*
X114799217Y-100344500D01*
X114799224Y-100344500D01*
X115100776Y-100344500D01*
X115100783Y-100344500D01*
X115399768Y-100305138D01*
X115691058Y-100227087D01*
X115969668Y-100111683D01*
X116230832Y-99960900D01*
X116470080Y-99777319D01*
X116683319Y-99564080D01*
X116866900Y-99324832D01*
X116938684Y-99200499D01*
X116963568Y-99157399D01*
X117017681Y-99063671D01*
X117017683Y-99063668D01*
X117133087Y-98785058D01*
X117211138Y-98493768D01*
X117250500Y-98194783D01*
X117250500Y-97925947D01*
X118450000Y-97925947D01*
X118450000Y-98162052D01*
X118486934Y-98395247D01*
X118559897Y-98619802D01*
X118667087Y-98830174D01*
X118727338Y-98913104D01*
X118727340Y-98913105D01*
X119348958Y-98291487D01*
X119373978Y-98351890D01*
X119445112Y-98458351D01*
X119535649Y-98548888D01*
X119642110Y-98620022D01*
X119702511Y-98645041D01*
X119080893Y-99266658D01*
X119163828Y-99326914D01*
X119374197Y-99434102D01*
X119598752Y-99507065D01*
X119598751Y-99507065D01*
X119831948Y-99544000D01*
X120068052Y-99544000D01*
X120301247Y-99507065D01*
X120525802Y-99434102D01*
X120736163Y-99326918D01*
X120736169Y-99326914D01*
X120819104Y-99266658D01*
X120819105Y-99266658D01*
X120197488Y-98645041D01*
X120257890Y-98620022D01*
X120364351Y-98548888D01*
X120454888Y-98458351D01*
X120526022Y-98351890D01*
X120551041Y-98291488D01*
X121172658Y-98913105D01*
X121172658Y-98913104D01*
X121232914Y-98830169D01*
X121232918Y-98830163D01*
X121340102Y-98619802D01*
X121413065Y-98395247D01*
X121450000Y-98162052D01*
X121450000Y-97925947D01*
X133450000Y-97925947D01*
X133450000Y-98162052D01*
X133486934Y-98395247D01*
X133559897Y-98619802D01*
X133667087Y-98830174D01*
X133727338Y-98913104D01*
X133727340Y-98913105D01*
X134348958Y-98291487D01*
X134373978Y-98351890D01*
X134445112Y-98458351D01*
X134535649Y-98548888D01*
X134642110Y-98620022D01*
X134702511Y-98645041D01*
X134080893Y-99266658D01*
X134163828Y-99326914D01*
X134374197Y-99434102D01*
X134598752Y-99507065D01*
X134598751Y-99507065D01*
X134831948Y-99544000D01*
X135068052Y-99544000D01*
X135301247Y-99507065D01*
X135525802Y-99434102D01*
X135736163Y-99326918D01*
X135736169Y-99326914D01*
X135819104Y-99266658D01*
X135819105Y-99266658D01*
X135197488Y-98645041D01*
X135257890Y-98620022D01*
X135364351Y-98548888D01*
X135454888Y-98458351D01*
X135526022Y-98351890D01*
X135551041Y-98291488D01*
X136172658Y-98913105D01*
X136172658Y-98913104D01*
X136232914Y-98830169D01*
X136232918Y-98830163D01*
X136340102Y-98619802D01*
X136413065Y-98395247D01*
X136450000Y-98162052D01*
X136450000Y-97925947D01*
X136413065Y-97692752D01*
X136340102Y-97468197D01*
X136232914Y-97257828D01*
X136172658Y-97174894D01*
X136172658Y-97174893D01*
X135551041Y-97796511D01*
X135526022Y-97736110D01*
X135454888Y-97629649D01*
X135364351Y-97539112D01*
X135257890Y-97467978D01*
X135197488Y-97442958D01*
X135819105Y-96821340D01*
X135819104Y-96821338D01*
X135736174Y-96761087D01*
X135525802Y-96653897D01*
X135301247Y-96580934D01*
X135301248Y-96580934D01*
X135068052Y-96544000D01*
X134831948Y-96544000D01*
X134598752Y-96580934D01*
X134374197Y-96653897D01*
X134163830Y-96761084D01*
X134080894Y-96821340D01*
X134702512Y-97442958D01*
X134642110Y-97467978D01*
X134535649Y-97539112D01*
X134445112Y-97629649D01*
X134373978Y-97736110D01*
X134348958Y-97796512D01*
X133727340Y-97174894D01*
X133667084Y-97257830D01*
X133559897Y-97468197D01*
X133486934Y-97692752D01*
X133450000Y-97925947D01*
X121450000Y-97925947D01*
X121413065Y-97692752D01*
X121340102Y-97468197D01*
X121232914Y-97257828D01*
X121172658Y-97174894D01*
X121172658Y-97174893D01*
X120551041Y-97796511D01*
X120526022Y-97736110D01*
X120454888Y-97629649D01*
X120364351Y-97539112D01*
X120257890Y-97467978D01*
X120197488Y-97442958D01*
X120819105Y-96821340D01*
X120819104Y-96821339D01*
X120736174Y-96761087D01*
X120525802Y-96653897D01*
X120301247Y-96580934D01*
X120301248Y-96580934D01*
X120068052Y-96544000D01*
X119831948Y-96544000D01*
X119598752Y-96580934D01*
X119374197Y-96653897D01*
X119163830Y-96761084D01*
X119080894Y-96821340D01*
X119702512Y-97442958D01*
X119642110Y-97467978D01*
X119535649Y-97539112D01*
X119445112Y-97629649D01*
X119373978Y-97736110D01*
X119348958Y-97796512D01*
X118727340Y-97174894D01*
X118667084Y-97257830D01*
X118559897Y-97468197D01*
X118486934Y-97692752D01*
X118450000Y-97925947D01*
X117250500Y-97925947D01*
X117250500Y-90425947D01*
X118450000Y-90425947D01*
X118450000Y-90662052D01*
X118486934Y-90895247D01*
X118559897Y-91119802D01*
X118667087Y-91330174D01*
X118727338Y-91413104D01*
X118727340Y-91413105D01*
X119348958Y-90791487D01*
X119373978Y-90851890D01*
X119445112Y-90958351D01*
X119535649Y-91048888D01*
X119642110Y-91120022D01*
X119702511Y-91145041D01*
X119080893Y-91766658D01*
X119163828Y-91826914D01*
X119374197Y-91934102D01*
X119598752Y-92007065D01*
X119598751Y-92007065D01*
X119831948Y-92044000D01*
X120068052Y-92044000D01*
X120301247Y-92007065D01*
X120525802Y-91934102D01*
X120736163Y-91826918D01*
X120736169Y-91826914D01*
X120819104Y-91766658D01*
X120819105Y-91766658D01*
X120197488Y-91145041D01*
X120257890Y-91120022D01*
X120364351Y-91048888D01*
X120454888Y-90958351D01*
X120526022Y-90851890D01*
X120551041Y-90791488D01*
X121172658Y-91413105D01*
X121172658Y-91413104D01*
X121232914Y-91330169D01*
X121232918Y-91330163D01*
X121340102Y-91119802D01*
X121413065Y-90895247D01*
X121450000Y-90662052D01*
X121450000Y-90425947D01*
X121413065Y-90192752D01*
X121340102Y-89968197D01*
X121232914Y-89757828D01*
X121172658Y-89674894D01*
X121172658Y-89674893D01*
X120551041Y-90296511D01*
X120526022Y-90236110D01*
X120454888Y-90129649D01*
X120364351Y-90039112D01*
X120257890Y-89967978D01*
X120197488Y-89942958D01*
X120644311Y-89496135D01*
X133449500Y-89496135D01*
X133449500Y-91591870D01*
X133449501Y-91591876D01*
X133455908Y-91651483D01*
X133506202Y-91786328D01*
X133506206Y-91786335D01*
X133592452Y-91901544D01*
X133592455Y-91901547D01*
X133707664Y-91987793D01*
X133707671Y-91987797D01*
X133842517Y-92038091D01*
X133842516Y-92038091D01*
X133849444Y-92038835D01*
X133902127Y-92044500D01*
X135997872Y-92044499D01*
X136057483Y-92038091D01*
X136192331Y-91987796D01*
X136307546Y-91901546D01*
X136393796Y-91786331D01*
X136444091Y-91651483D01*
X136450500Y-91591873D01*
X136450499Y-89496128D01*
X136444091Y-89436517D01*
X136435629Y-89413830D01*
X136393797Y-89301671D01*
X136393793Y-89301664D01*
X136307547Y-89186455D01*
X136307544Y-89186452D01*
X136192335Y-89100206D01*
X136192328Y-89100202D01*
X136057482Y-89049908D01*
X136057483Y-89049908D01*
X135997883Y-89043501D01*
X135997881Y-89043500D01*
X135997873Y-89043500D01*
X135997864Y-89043500D01*
X133902129Y-89043500D01*
X133902123Y-89043501D01*
X133842516Y-89049908D01*
X133707671Y-89100202D01*
X133707664Y-89100206D01*
X133592455Y-89186452D01*
X133592452Y-89186455D01*
X133506206Y-89301664D01*
X133506202Y-89301671D01*
X133455908Y-89436517D01*
X133449501Y-89496116D01*
X133449501Y-89496123D01*
X133449500Y-89496135D01*
X120644311Y-89496135D01*
X120735321Y-89405125D01*
X120819105Y-89321340D01*
X120819104Y-89321338D01*
X120736174Y-89261087D01*
X120525802Y-89153897D01*
X120301247Y-89080934D01*
X120301248Y-89080934D01*
X120068052Y-89044000D01*
X119831948Y-89044000D01*
X119598752Y-89080934D01*
X119374197Y-89153897D01*
X119163830Y-89261084D01*
X119080894Y-89321340D01*
X119702512Y-89942958D01*
X119642110Y-89967978D01*
X119535649Y-90039112D01*
X119445112Y-90129649D01*
X119373978Y-90236110D01*
X119348958Y-90296512D01*
X118727340Y-89674894D01*
X118667084Y-89757830D01*
X118559897Y-89968197D01*
X118486934Y-90192752D01*
X118450000Y-90425947D01*
X117250500Y-90425947D01*
X117250500Y-78241801D01*
X117226561Y-78059965D01*
X117225500Y-78043780D01*
X117225500Y-77065223D01*
X117225500Y-77065217D01*
X117186138Y-76766232D01*
X117108087Y-76474942D01*
X116992683Y-76196332D01*
X116980654Y-76175498D01*
X116841900Y-75935168D01*
X116658320Y-75695921D01*
X116658314Y-75695914D01*
X116445085Y-75482685D01*
X116445078Y-75482679D01*
X116205831Y-75299099D01*
X115944671Y-75148318D01*
X115944661Y-75148314D01*
X115666060Y-75032913D01*
X115374766Y-74954861D01*
X115075793Y-74915501D01*
X115075788Y-74915500D01*
X115075783Y-74915500D01*
X114774217Y-74915500D01*
X114774211Y-74915500D01*
X114774206Y-74915501D01*
X114475233Y-74954861D01*
X114183939Y-75032913D01*
X113905338Y-75148314D01*
X113905328Y-75148318D01*
X113644168Y-75299099D01*
X113404921Y-75482679D01*
X113404914Y-75482685D01*
X113191685Y-75695914D01*
X113191679Y-75695921D01*
X113008099Y-75935168D01*
X112857318Y-76196328D01*
X112857314Y-76196338D01*
X112741913Y-76474939D01*
X112663861Y-76766233D01*
X112624501Y-77065206D01*
X112624500Y-77065223D01*
X100470438Y-77065223D01*
X100330831Y-76958099D01*
X100069671Y-76807318D01*
X100069661Y-76807314D01*
X99791060Y-76691913D01*
X99499766Y-76613861D01*
X99200793Y-76574501D01*
X99200788Y-76574500D01*
X99200783Y-76574500D01*
X91524217Y-76574500D01*
X91524211Y-76574500D01*
X91524206Y-76574501D01*
X91225233Y-76613861D01*
X90933939Y-76691913D01*
X90655338Y-76807314D01*
X90655328Y-76807318D01*
X90394168Y-76958099D01*
X90154921Y-77141679D01*
X90154914Y-77141685D01*
X89941685Y-77354914D01*
X89941679Y-77354921D01*
X89758099Y-77594168D01*
X89607318Y-77855328D01*
X89607314Y-77855338D01*
X89491913Y-78133939D01*
X89413861Y-78425233D01*
X89374501Y-78724206D01*
X89374500Y-78724223D01*
X89374500Y-79025776D01*
X89374501Y-79025793D01*
X89413861Y-79324766D01*
X89491913Y-79616060D01*
X89607314Y-79894661D01*
X89607318Y-79894671D01*
X89758099Y-80155831D01*
X89941679Y-80395078D01*
X89941685Y-80395085D01*
X90154914Y-80608314D01*
X90154921Y-80608320D01*
X90394168Y-80791900D01*
X90655328Y-80942681D01*
X90655329Y-80942681D01*
X90655332Y-80942683D01*
X90841072Y-81019619D01*
X90933939Y-81058086D01*
X90933940Y-81058086D01*
X90933942Y-81058087D01*
X91225232Y-81136138D01*
X91524217Y-81175500D01*
X93000500Y-81175500D01*
X93067539Y-81195185D01*
X93113294Y-81247989D01*
X93124500Y-81299500D01*
X93124500Y-90563223D01*
X93104815Y-90630262D01*
X93062501Y-90670609D01*
X92999748Y-90706840D01*
X92999714Y-90706861D01*
X92695693Y-90919739D01*
X92411365Y-91158319D01*
X92148919Y-91420765D01*
X91910339Y-91705093D01*
X91793735Y-91871623D01*
X91739158Y-91915248D01*
X91692160Y-91924500D01*
X83124500Y-91924500D01*
X83057461Y-91904815D01*
X83011706Y-91852011D01*
X83000500Y-91800500D01*
X83000500Y-90049223D01*
X83000500Y-90049217D01*
X82961138Y-89750232D01*
X82883087Y-89458942D01*
X82767683Y-89180332D01*
X82650484Y-88977338D01*
X82616900Y-88919168D01*
X82433320Y-88679921D01*
X82433314Y-88679914D01*
X82220085Y-88466685D01*
X82220078Y-88466679D01*
X81980831Y-88283099D01*
X81719671Y-88132318D01*
X81719661Y-88132314D01*
X81441060Y-88016913D01*
X81149766Y-87938861D01*
X80850793Y-87899501D01*
X80850788Y-87899500D01*
X80850783Y-87899500D01*
X80549217Y-87899500D01*
X80549211Y-87899500D01*
X80549206Y-87899501D01*
X80250233Y-87938861D01*
X79958939Y-88016913D01*
X79680338Y-88132314D01*
X79680328Y-88132318D01*
X79419168Y-88283099D01*
X79179921Y-88466679D01*
X79179914Y-88466685D01*
X78966685Y-88679914D01*
X78966679Y-88679921D01*
X78783099Y-88919168D01*
X78632318Y-89180328D01*
X78632314Y-89180338D01*
X78516913Y-89458939D01*
X78438861Y-89750233D01*
X78399501Y-90049206D01*
X78399500Y-90049223D01*
X78000500Y-90049223D01*
X78000500Y-90049217D01*
X77961138Y-89750232D01*
X77883087Y-89458942D01*
X77767683Y-89180332D01*
X77650484Y-88977338D01*
X77616900Y-88919168D01*
X77433320Y-88679921D01*
X77433314Y-88679914D01*
X77220085Y-88466685D01*
X77220078Y-88466679D01*
X76980831Y-88283099D01*
X76719671Y-88132318D01*
X76719661Y-88132314D01*
X76441060Y-88016913D01*
X76149766Y-87938861D01*
X75850793Y-87899501D01*
X75850788Y-87899500D01*
X75850783Y-87899500D01*
X75549217Y-87899500D01*
X75549211Y-87899500D01*
X75549206Y-87899501D01*
X75250233Y-87938861D01*
X74958939Y-88016913D01*
X74680338Y-88132314D01*
X74680328Y-88132318D01*
X74419168Y-88283099D01*
X74179921Y-88466679D01*
X74179914Y-88466685D01*
X73966685Y-88679914D01*
X73966679Y-88679921D01*
X73783099Y-88919168D01*
X73632318Y-89180328D01*
X73632314Y-89180338D01*
X73516913Y-89458939D01*
X73438861Y-89750233D01*
X73399501Y-90049206D01*
X73399500Y-90049223D01*
X72194817Y-90049223D01*
X72163065Y-89848751D01*
X72090102Y-89624197D01*
X71982914Y-89413828D01*
X71922658Y-89330894D01*
X71922658Y-89330893D01*
X71301041Y-89952511D01*
X71276022Y-89892110D01*
X71204888Y-89785649D01*
X71114351Y-89695112D01*
X71007890Y-89623978D01*
X70947488Y-89598958D01*
X71569105Y-88977340D01*
X71569104Y-88977338D01*
X71486174Y-88917087D01*
X71275802Y-88809897D01*
X71051247Y-88736934D01*
X71051248Y-88736934D01*
X70818052Y-88700000D01*
X70581948Y-88700000D01*
X70348752Y-88736934D01*
X70124197Y-88809897D01*
X69913830Y-88917084D01*
X69830894Y-88977340D01*
X70452512Y-89598958D01*
X70392110Y-89623978D01*
X70285649Y-89695112D01*
X70195112Y-89785649D01*
X70123978Y-89892110D01*
X70098958Y-89952512D01*
X69477340Y-89330894D01*
X69417084Y-89413830D01*
X69309897Y-89624197D01*
X69236934Y-89848752D01*
X69200000Y-90081947D01*
X57200000Y-90081947D01*
X57163065Y-89848752D01*
X57090102Y-89624197D01*
X56982914Y-89413828D01*
X56922658Y-89330894D01*
X56922658Y-89330893D01*
X56301041Y-89952511D01*
X56276022Y-89892110D01*
X56204888Y-89785649D01*
X56114351Y-89695112D01*
X56007890Y-89623978D01*
X55947488Y-89598958D01*
X56569105Y-88977340D01*
X56569104Y-88977339D01*
X56486174Y-88917087D01*
X56275802Y-88809897D01*
X56051247Y-88736934D01*
X56051248Y-88736934D01*
X55818052Y-88700000D01*
X55581948Y-88700000D01*
X55348752Y-88736934D01*
X55124197Y-88809897D01*
X54913830Y-88917084D01*
X54830894Y-88977340D01*
X55452512Y-89598958D01*
X55392110Y-89623978D01*
X55285649Y-89695112D01*
X55195112Y-89785649D01*
X55123978Y-89892110D01*
X55098958Y-89952512D01*
X54477340Y-89330894D01*
X54417084Y-89413830D01*
X54309897Y-89624197D01*
X54236934Y-89848752D01*
X54200000Y-90081947D01*
X45812097Y-90081947D01*
X45812097Y-90077077D01*
X45812077Y-89024601D01*
X45812077Y-89024600D01*
X45811780Y-73724223D01*
X76199500Y-73724223D01*
X76199500Y-74025776D01*
X76199501Y-74025793D01*
X76238861Y-74324766D01*
X76316913Y-74616060D01*
X76432314Y-74894661D01*
X76432318Y-74894671D01*
X76583099Y-75155831D01*
X76766679Y-75395078D01*
X76766685Y-75395085D01*
X76979914Y-75608314D01*
X76979921Y-75608320D01*
X77219168Y-75791900D01*
X77480328Y-75942681D01*
X77480329Y-75942681D01*
X77480332Y-75942683D01*
X77555144Y-75973671D01*
X77758939Y-76058086D01*
X77758940Y-76058086D01*
X77758942Y-76058087D01*
X78050232Y-76136138D01*
X78349217Y-76175500D01*
X78349224Y-76175500D01*
X99325776Y-76175500D01*
X99325783Y-76175500D01*
X99624768Y-76136138D01*
X99916058Y-76058087D01*
X100194668Y-75942683D01*
X100455832Y-75791900D01*
X100695080Y-75608319D01*
X100908319Y-75395080D01*
X101091900Y-75155832D01*
X101242683Y-74894668D01*
X101358087Y-74616058D01*
X101436138Y-74324768D01*
X101475500Y-74025783D01*
X101475500Y-73724217D01*
X101436138Y-73425232D01*
X101358087Y-73133942D01*
X101242683Y-72855332D01*
X101232938Y-72838454D01*
X101091900Y-72594168D01*
X100908320Y-72354921D01*
X100908314Y-72354914D01*
X100695085Y-72141685D01*
X100695078Y-72141679D01*
X100455831Y-71958099D01*
X100194671Y-71807318D01*
X100194661Y-71807314D01*
X99916060Y-71691913D01*
X99624766Y-71613861D01*
X99325793Y-71574501D01*
X99325788Y-71574500D01*
X99325783Y-71574500D01*
X86150783Y-71574500D01*
X78349217Y-71574500D01*
X78349211Y-71574500D01*
X78349206Y-71574501D01*
X78050233Y-71613861D01*
X77758939Y-71691913D01*
X77480338Y-71807314D01*
X77480328Y-71807318D01*
X77219168Y-71958099D01*
X76979921Y-72141679D01*
X76979914Y-72141685D01*
X76766685Y-72354914D01*
X76766679Y-72354921D01*
X76583099Y-72594168D01*
X76432318Y-72855328D01*
X76432314Y-72855338D01*
X76316913Y-73133939D01*
X76238861Y-73425233D01*
X76199501Y-73724206D01*
X76199500Y-73724223D01*
X45811780Y-73724223D01*
X45811780Y-73720160D01*
X45811690Y-69064615D01*
X58535200Y-69064615D01*
X58535200Y-69435784D01*
X58567549Y-69805532D01*
X58632000Y-70171047D01*
X58632003Y-70171060D01*
X58728062Y-70529561D01*
X58855006Y-70878340D01*
X59011864Y-71214722D01*
X59011872Y-71214738D01*
X59142314Y-71440670D01*
X59197450Y-71536168D01*
X59197454Y-71536174D01*
X59197461Y-71536185D01*
X59410339Y-71840206D01*
X59509264Y-71958100D01*
X59648917Y-72124532D01*
X59911368Y-72386983D01*
X60029589Y-72486182D01*
X60195693Y-72625560D01*
X60499714Y-72838438D01*
X60499721Y-72838442D01*
X60499732Y-72838450D01*
X60821168Y-73024031D01*
X60821177Y-73024035D01*
X61157559Y-73180893D01*
X61418266Y-73275782D01*
X61506332Y-73307835D01*
X61506333Y-73307835D01*
X61506338Y-73307837D01*
X61618967Y-73338015D01*
X61864847Y-73403899D01*
X62230370Y-73468351D01*
X62600117Y-73500699D01*
X62600118Y-73500700D01*
X62600119Y-73500700D01*
X62971282Y-73500700D01*
X62971282Y-73500699D01*
X63341030Y-73468351D01*
X63706553Y-73403899D01*
X64065068Y-73307835D01*
X64413845Y-73180891D01*
X64750232Y-73024031D01*
X65071668Y-72838450D01*
X65375705Y-72625561D01*
X65660032Y-72386983D01*
X65922483Y-72124532D01*
X66161061Y-71840205D01*
X66373950Y-71536168D01*
X66531952Y-71262499D01*
X66582519Y-71214284D01*
X66639339Y-71200500D01*
X86125776Y-71200500D01*
X86125783Y-71200500D01*
X86424768Y-71161138D01*
X86716059Y-71083087D01*
X86994668Y-70967683D01*
X87255832Y-70816900D01*
X87355761Y-70740222D01*
X87495080Y-70633319D01*
X87708319Y-70420080D01*
X87725760Y-70402639D01*
X87725761Y-70402637D01*
X87733319Y-70395080D01*
X87916900Y-70155832D01*
X88067683Y-69894669D01*
X88183087Y-69616059D01*
X88261138Y-69324768D01*
X88300500Y-69025783D01*
X88300500Y-68756947D01*
X90175000Y-68756947D01*
X90175000Y-68993052D01*
X90211934Y-69226247D01*
X90284897Y-69450802D01*
X90392087Y-69661174D01*
X90452338Y-69744104D01*
X90452340Y-69744105D01*
X91073958Y-69122487D01*
X91098978Y-69182890D01*
X91170112Y-69289351D01*
X91260649Y-69379888D01*
X91367110Y-69451022D01*
X91427511Y-69476041D01*
X90805893Y-70097658D01*
X90888828Y-70157914D01*
X91099197Y-70265102D01*
X91323752Y-70338065D01*
X91323751Y-70338065D01*
X91556948Y-70375000D01*
X91793052Y-70375000D01*
X92026247Y-70338065D01*
X92250802Y-70265102D01*
X92461163Y-70157918D01*
X92461169Y-70157914D01*
X92544104Y-70097658D01*
X92544105Y-70097658D01*
X91922488Y-69476041D01*
X91982890Y-69451022D01*
X92089351Y-69379888D01*
X92179888Y-69289351D01*
X92251022Y-69182890D01*
X92276041Y-69122488D01*
X92897658Y-69744105D01*
X92897658Y-69744104D01*
X92957914Y-69661169D01*
X92957918Y-69661163D01*
X93065102Y-69450802D01*
X93138065Y-69226247D01*
X93175000Y-68993052D01*
X93175000Y-68756947D01*
X97675000Y-68756947D01*
X97675000Y-68993052D01*
X97711934Y-69226247D01*
X97784897Y-69450802D01*
X97892087Y-69661174D01*
X97952338Y-69744104D01*
X97952340Y-69744105D01*
X98573958Y-69122487D01*
X98598978Y-69182890D01*
X98670112Y-69289351D01*
X98760649Y-69379888D01*
X98867110Y-69451022D01*
X98927511Y-69476041D01*
X98305893Y-70097658D01*
X98388828Y-70157914D01*
X98599197Y-70265102D01*
X98823752Y-70338065D01*
X98823751Y-70338065D01*
X99056948Y-70375000D01*
X99293052Y-70375000D01*
X99526247Y-70338065D01*
X99750802Y-70265102D01*
X99961163Y-70157918D01*
X99961169Y-70157914D01*
X100044104Y-70097658D01*
X100044105Y-70097658D01*
X99422488Y-69476041D01*
X99482890Y-69451022D01*
X99589351Y-69379888D01*
X99679888Y-69289351D01*
X99751022Y-69182890D01*
X99776041Y-69122488D01*
X100397658Y-69744105D01*
X100397658Y-69744104D01*
X100457914Y-69661169D01*
X100457918Y-69661163D01*
X100565102Y-69450802D01*
X100638065Y-69226247D01*
X100675000Y-68993052D01*
X100675000Y-68756947D01*
X100638065Y-68523752D01*
X100565102Y-68299197D01*
X100457914Y-68088828D01*
X100397658Y-68005894D01*
X100397658Y-68005893D01*
X99776041Y-68627511D01*
X99751022Y-68567110D01*
X99679888Y-68460649D01*
X99589351Y-68370112D01*
X99482890Y-68298978D01*
X99422488Y-68273958D01*
X100044105Y-67652340D01*
X100044104Y-67652338D01*
X99961174Y-67592087D01*
X99750802Y-67484897D01*
X99526247Y-67411934D01*
X99526248Y-67411934D01*
X99293052Y-67375000D01*
X99056948Y-67375000D01*
X98823752Y-67411934D01*
X98599197Y-67484897D01*
X98388830Y-67592084D01*
X98305894Y-67652340D01*
X98927512Y-68273958D01*
X98867110Y-68298978D01*
X98760649Y-68370112D01*
X98670112Y-68460649D01*
X98598978Y-68567110D01*
X98573958Y-68627512D01*
X97952340Y-68005894D01*
X97892084Y-68088830D01*
X97784897Y-68299197D01*
X97711934Y-68523752D01*
X97675000Y-68756947D01*
X93175000Y-68756947D01*
X93138065Y-68523752D01*
X93065102Y-68299197D01*
X92957914Y-68088828D01*
X92897658Y-68005894D01*
X92897658Y-68005893D01*
X92276041Y-68627511D01*
X92251022Y-68567110D01*
X92179888Y-68460649D01*
X92089351Y-68370112D01*
X91982890Y-68298978D01*
X91922488Y-68273958D01*
X92544105Y-67652340D01*
X92544104Y-67652339D01*
X92461174Y-67592087D01*
X92250802Y-67484897D01*
X92026247Y-67411934D01*
X92026248Y-67411934D01*
X91793052Y-67375000D01*
X91556948Y-67375000D01*
X91323752Y-67411934D01*
X91099197Y-67484897D01*
X90888830Y-67592084D01*
X90805894Y-67652340D01*
X91427512Y-68273958D01*
X91367110Y-68298978D01*
X91260649Y-68370112D01*
X91170112Y-68460649D01*
X91098978Y-68567110D01*
X91073958Y-68627512D01*
X90452340Y-68005894D01*
X90392084Y-68088830D01*
X90284897Y-68299197D01*
X90211934Y-68523752D01*
X90175000Y-68756947D01*
X88300500Y-68756947D01*
X88300500Y-68724217D01*
X88261138Y-68425232D01*
X88183087Y-68133942D01*
X88067683Y-67855332D01*
X87916900Y-67594168D01*
X87733319Y-67354921D01*
X87733314Y-67354915D01*
X87520084Y-67141685D01*
X87520077Y-67141679D01*
X87280836Y-66958103D01*
X87280835Y-66958102D01*
X87280832Y-66958100D01*
X87019668Y-66807317D01*
X87019661Y-66807314D01*
X86741060Y-66691913D01*
X86449766Y-66613861D01*
X86150793Y-66574501D01*
X86150788Y-66574500D01*
X86150783Y-66574500D01*
X85849217Y-66574500D01*
X85849211Y-66574500D01*
X85849207Y-66574501D01*
X85667382Y-66598439D01*
X85651197Y-66599500D01*
X66167955Y-66599500D01*
X66100916Y-66579815D01*
X66072966Y-66555206D01*
X65922480Y-66375865D01*
X65660034Y-66113419D01*
X65375706Y-65874839D01*
X65071685Y-65661961D01*
X65071674Y-65661954D01*
X65071668Y-65661950D01*
X64863777Y-65541924D01*
X64750238Y-65476372D01*
X64750222Y-65476364D01*
X64413840Y-65319506D01*
X64065061Y-65192562D01*
X63742261Y-65106069D01*
X63706553Y-65096501D01*
X63654946Y-65087401D01*
X63341032Y-65032049D01*
X62971284Y-64999700D01*
X62971281Y-64999700D01*
X62600119Y-64999700D01*
X62600115Y-64999700D01*
X62230367Y-65032049D01*
X61864852Y-65096500D01*
X61864849Y-65096500D01*
X61864847Y-65096501D01*
X61864842Y-65096502D01*
X61864839Y-65096503D01*
X61506338Y-65192562D01*
X61157559Y-65319506D01*
X60821177Y-65476364D01*
X60821161Y-65476372D01*
X60499740Y-65661945D01*
X60499714Y-65661961D01*
X60195693Y-65874839D01*
X59911365Y-66113419D01*
X59648919Y-66375865D01*
X59410339Y-66660193D01*
X59197461Y-66964214D01*
X59197445Y-66964240D01*
X59011872Y-67285661D01*
X59011864Y-67285677D01*
X58855006Y-67622059D01*
X58728062Y-67970838D01*
X58632003Y-68329339D01*
X58632000Y-68329352D01*
X58567549Y-68694867D01*
X58535200Y-69064615D01*
X45811690Y-69064615D01*
X45811690Y-69061915D01*
X45811587Y-63743872D01*
X76499500Y-63743872D01*
X76499500Y-64006127D01*
X76513826Y-64114934D01*
X76533730Y-64266116D01*
X76563539Y-64377364D01*
X76601602Y-64519418D01*
X76601605Y-64519428D01*
X76701953Y-64761690D01*
X76701958Y-64761700D01*
X76833075Y-64988803D01*
X76992718Y-65196851D01*
X76992726Y-65196860D01*
X77178140Y-65382274D01*
X77178148Y-65382281D01*
X77386196Y-65541924D01*
X77613299Y-65673041D01*
X77613309Y-65673046D01*
X77855571Y-65773394D01*
X77855581Y-65773398D01*
X78108884Y-65841270D01*
X78368880Y-65875500D01*
X78368887Y-65875500D01*
X78631113Y-65875500D01*
X78631120Y-65875500D01*
X78891116Y-65841270D01*
X79144419Y-65773398D01*
X79386697Y-65673043D01*
X79613803Y-65541924D01*
X79821851Y-65382282D01*
X79821855Y-65382277D01*
X79821860Y-65382274D01*
X80007274Y-65196860D01*
X80007277Y-65196855D01*
X80007282Y-65196851D01*
X80166924Y-64988803D01*
X80298043Y-64761697D01*
X80398398Y-64519419D01*
X80466270Y-64266116D01*
X80500500Y-64006120D01*
X80500500Y-63743880D01*
X80500499Y-63743872D01*
X83999500Y-63743872D01*
X83999500Y-64006127D01*
X84013826Y-64114934D01*
X84033730Y-64266116D01*
X84063539Y-64377364D01*
X84101602Y-64519418D01*
X84101605Y-64519428D01*
X84201953Y-64761690D01*
X84201958Y-64761700D01*
X84333075Y-64988803D01*
X84492718Y-65196851D01*
X84492726Y-65196860D01*
X84678140Y-65382274D01*
X84678148Y-65382281D01*
X84886196Y-65541924D01*
X85113299Y-65673041D01*
X85113309Y-65673046D01*
X85355571Y-65773394D01*
X85355581Y-65773398D01*
X85608884Y-65841270D01*
X85868880Y-65875500D01*
X85868887Y-65875500D01*
X86131113Y-65875500D01*
X86131120Y-65875500D01*
X86391116Y-65841270D01*
X86644419Y-65773398D01*
X86886697Y-65673043D01*
X87113803Y-65541924D01*
X87321851Y-65382282D01*
X87321855Y-65382277D01*
X87321860Y-65382274D01*
X87507274Y-65196860D01*
X87507277Y-65196855D01*
X87507282Y-65196851D01*
X87666924Y-64988803D01*
X87798043Y-64761697D01*
X87898398Y-64519419D01*
X87966270Y-64266116D01*
X88000500Y-64006120D01*
X88000500Y-63743880D01*
X87966270Y-63483884D01*
X87898398Y-63230581D01*
X87887853Y-63205122D01*
X87798046Y-62988309D01*
X87798041Y-62988299D01*
X87666924Y-62761196D01*
X87507281Y-62553148D01*
X87507274Y-62553140D01*
X87321860Y-62367726D01*
X87321851Y-62367718D01*
X87113803Y-62208075D01*
X86886700Y-62076958D01*
X86886690Y-62076953D01*
X86644428Y-61976605D01*
X86644421Y-61976603D01*
X86644419Y-61976602D01*
X86391116Y-61908730D01*
X86333339Y-61901123D01*
X86131127Y-61874500D01*
X86131120Y-61874500D01*
X85868880Y-61874500D01*
X85868872Y-61874500D01*
X85637772Y-61904926D01*
X85608884Y-61908730D01*
X85355581Y-61976602D01*
X85355571Y-61976605D01*
X85113309Y-62076953D01*
X85113299Y-62076958D01*
X84886196Y-62208075D01*
X84678148Y-62367718D01*
X84492718Y-62553148D01*
X84333075Y-62761196D01*
X84201958Y-62988299D01*
X84201953Y-62988309D01*
X84101605Y-63230571D01*
X84101602Y-63230581D01*
X84033730Y-63483885D01*
X83999500Y-63743872D01*
X80500499Y-63743872D01*
X80466270Y-63483884D01*
X80398398Y-63230581D01*
X80387853Y-63205122D01*
X80298046Y-62988309D01*
X80298041Y-62988299D01*
X80166924Y-62761196D01*
X80007281Y-62553148D01*
X80007274Y-62553140D01*
X79821860Y-62367726D01*
X79821851Y-62367718D01*
X79613803Y-62208075D01*
X79386700Y-62076958D01*
X79386690Y-62076953D01*
X79144428Y-61976605D01*
X79144421Y-61976603D01*
X79144419Y-61976602D01*
X78891116Y-61908730D01*
X78833339Y-61901123D01*
X78631127Y-61874500D01*
X78631120Y-61874500D01*
X78368880Y-61874500D01*
X78368872Y-61874500D01*
X78137772Y-61904926D01*
X78108884Y-61908730D01*
X77855581Y-61976602D01*
X77855571Y-61976605D01*
X77613309Y-62076953D01*
X77613299Y-62076958D01*
X77386196Y-62208075D01*
X77178148Y-62367718D01*
X76992718Y-62553148D01*
X76833075Y-62761196D01*
X76701958Y-62988299D01*
X76701953Y-62988309D01*
X76601605Y-63230571D01*
X76601602Y-63230581D01*
X76533730Y-63483885D01*
X76499500Y-63743872D01*
X45811587Y-63743872D01*
X45811587Y-63739823D01*
X45811535Y-61055015D01*
X116035200Y-61055015D01*
X116035200Y-61426184D01*
X116067549Y-61795932D01*
X116132000Y-62161447D01*
X116132003Y-62161460D01*
X116228062Y-62519961D01*
X116355006Y-62868740D01*
X116511864Y-63205122D01*
X116511869Y-63205132D01*
X116697450Y-63526568D01*
X116697454Y-63526574D01*
X116697461Y-63526585D01*
X116910339Y-63830606D01*
X117148919Y-64114934D01*
X117411348Y-64377364D01*
X117411358Y-64377373D01*
X117411368Y-64377383D01*
X117580205Y-64519053D01*
X117618908Y-64577225D01*
X117624500Y-64614043D01*
X117624500Y-84866776D01*
X117624501Y-84866793D01*
X117663861Y-85165766D01*
X117741913Y-85457060D01*
X117857314Y-85735661D01*
X117857318Y-85735671D01*
X118008099Y-85996831D01*
X118191679Y-86236078D01*
X118191685Y-86236085D01*
X118404914Y-86449314D01*
X118404921Y-86449320D01*
X118644168Y-86632900D01*
X118905328Y-86783681D01*
X118905329Y-86783681D01*
X118905332Y-86783683D01*
X119091072Y-86860619D01*
X119183939Y-86899086D01*
X119183940Y-86899086D01*
X119183942Y-86899087D01*
X119475232Y-86977138D01*
X119774217Y-87016500D01*
X119774224Y-87016500D01*
X120075776Y-87016500D01*
X120075783Y-87016500D01*
X120374768Y-86977138D01*
X120666058Y-86899087D01*
X120944668Y-86783683D01*
X121205832Y-86632900D01*
X121445080Y-86449319D01*
X121658319Y-86236080D01*
X121841900Y-85996832D01*
X121992683Y-85735668D01*
X122108087Y-85457058D01*
X122186138Y-85165768D01*
X122225500Y-84866783D01*
X122225500Y-84584872D01*
X122924500Y-84584872D01*
X122924500Y-84847127D01*
X122947773Y-85023890D01*
X122958730Y-85107116D01*
X123026602Y-85360418D01*
X123026605Y-85360428D01*
X123126953Y-85602690D01*
X123126958Y-85602700D01*
X123258075Y-85829803D01*
X123417718Y-86037851D01*
X123417726Y-86037860D01*
X123603140Y-86223274D01*
X123603148Y-86223281D01*
X123811196Y-86382924D01*
X124038299Y-86514041D01*
X124038309Y-86514046D01*
X124280571Y-86614394D01*
X124280581Y-86614398D01*
X124533884Y-86682270D01*
X124793880Y-86716500D01*
X124793887Y-86716500D01*
X125056113Y-86716500D01*
X125056120Y-86716500D01*
X125316116Y-86682270D01*
X125569419Y-86614398D01*
X125811697Y-86514043D01*
X126038803Y-86382924D01*
X126246851Y-86223282D01*
X126246855Y-86223277D01*
X126246860Y-86223274D01*
X126432274Y-86037860D01*
X126432277Y-86037855D01*
X126432282Y-86037851D01*
X126591924Y-85829803D01*
X126591967Y-85829727D01*
X126592162Y-85829392D01*
X126592162Y-85829391D01*
X126723041Y-85602700D01*
X126723046Y-85602690D01*
X126823394Y-85360428D01*
X126823398Y-85360419D01*
X126891270Y-85107116D01*
X126925500Y-84847120D01*
X126925500Y-84597947D01*
X138425000Y-84597947D01*
X138425000Y-84834052D01*
X138461934Y-85067247D01*
X138534897Y-85291802D01*
X138642087Y-85502174D01*
X138702338Y-85585104D01*
X138702340Y-85585105D01*
X139323958Y-84963487D01*
X139348978Y-85023890D01*
X139420112Y-85130351D01*
X139510649Y-85220888D01*
X139617110Y-85292022D01*
X139677511Y-85317041D01*
X139055893Y-85938658D01*
X139138828Y-85998914D01*
X139349197Y-86106102D01*
X139573752Y-86179065D01*
X139573751Y-86179065D01*
X139806948Y-86216000D01*
X140043052Y-86216000D01*
X140276247Y-86179065D01*
X140500802Y-86106102D01*
X140711163Y-85998918D01*
X140711169Y-85998914D01*
X140794104Y-85938658D01*
X140794105Y-85938658D01*
X140172488Y-85317041D01*
X140232890Y-85292022D01*
X140339351Y-85220888D01*
X140429888Y-85130351D01*
X140501022Y-85023890D01*
X140526041Y-84963488D01*
X141147658Y-85585105D01*
X141147658Y-85585104D01*
X141207914Y-85502169D01*
X141207918Y-85502163D01*
X141315102Y-85291802D01*
X141388065Y-85067247D01*
X141425000Y-84834052D01*
X141425000Y-84597947D01*
X141388065Y-84364752D01*
X141315102Y-84140197D01*
X141207914Y-83929828D01*
X141147658Y-83846894D01*
X141147658Y-83846893D01*
X140526041Y-84468511D01*
X140501022Y-84408110D01*
X140429888Y-84301649D01*
X140339351Y-84211112D01*
X140232890Y-84139978D01*
X140172488Y-84114958D01*
X140794105Y-83493340D01*
X140794104Y-83493338D01*
X140711174Y-83433087D01*
X140500802Y-83325897D01*
X140276247Y-83252934D01*
X140276248Y-83252934D01*
X140043052Y-83216000D01*
X139806948Y-83216000D01*
X139573752Y-83252934D01*
X139349197Y-83325897D01*
X139138830Y-83433084D01*
X139055894Y-83493340D01*
X139677512Y-84114958D01*
X139617110Y-84139978D01*
X139510649Y-84211112D01*
X139420112Y-84301649D01*
X139348978Y-84408110D01*
X139323958Y-84468512D01*
X138702340Y-83846894D01*
X138642084Y-83929830D01*
X138534897Y-84140197D01*
X138461934Y-84364752D01*
X138425000Y-84597947D01*
X126925500Y-84597947D01*
X126925500Y-84584880D01*
X126891270Y-84324884D01*
X126823398Y-84071581D01*
X126764682Y-83929828D01*
X126723046Y-83829309D01*
X126723041Y-83829299D01*
X126592156Y-83602599D01*
X126592154Y-83602594D01*
X126592150Y-83602589D01*
X126591924Y-83602197D01*
X126432282Y-83394149D01*
X126432281Y-83394148D01*
X126432274Y-83394140D01*
X126246860Y-83208726D01*
X126246851Y-83208718D01*
X126038803Y-83049075D01*
X125811700Y-82917958D01*
X125811690Y-82917953D01*
X125569428Y-82817605D01*
X125569421Y-82817603D01*
X125569419Y-82817602D01*
X125316116Y-82749730D01*
X125258339Y-82742123D01*
X125056127Y-82715500D01*
X125056120Y-82715500D01*
X124793880Y-82715500D01*
X124793872Y-82715500D01*
X124562772Y-82745926D01*
X124533884Y-82749730D01*
X124280581Y-82817602D01*
X124280571Y-82817605D01*
X124038309Y-82917953D01*
X124038299Y-82917958D01*
X123811196Y-83049075D01*
X123603148Y-83208718D01*
X123417718Y-83394148D01*
X123258075Y-83602196D01*
X123126958Y-83829299D01*
X123126953Y-83829309D01*
X123026605Y-84071571D01*
X123026602Y-84071581D01*
X123008217Y-84140197D01*
X122958730Y-84324885D01*
X122924500Y-84584872D01*
X122225500Y-84584872D01*
X122225500Y-77084872D01*
X122924500Y-77084872D01*
X122924500Y-77347127D01*
X122951123Y-77549339D01*
X122958730Y-77607116D01*
X123025238Y-77855328D01*
X123026602Y-77860418D01*
X123026605Y-77860428D01*
X123126953Y-78102690D01*
X123126958Y-78102700D01*
X123258075Y-78329803D01*
X123417718Y-78537851D01*
X123417726Y-78537860D01*
X123603140Y-78723274D01*
X123603148Y-78723281D01*
X123603149Y-78723282D01*
X123651554Y-78760424D01*
X123811196Y-78882924D01*
X124038299Y-79014041D01*
X124038309Y-79014046D01*
X124280571Y-79114394D01*
X124280581Y-79114398D01*
X124533884Y-79182270D01*
X124793880Y-79216500D01*
X124793887Y-79216500D01*
X125056113Y-79216500D01*
X125056120Y-79216500D01*
X125316116Y-79182270D01*
X125569419Y-79114398D01*
X125811697Y-79014043D01*
X126038803Y-78882924D01*
X126246851Y-78723282D01*
X126246855Y-78723277D01*
X126246860Y-78723274D01*
X126432274Y-78537860D01*
X126432277Y-78537855D01*
X126432282Y-78537851D01*
X126591924Y-78329803D01*
X126723043Y-78102697D01*
X126823398Y-77860419D01*
X126891270Y-77607116D01*
X126925500Y-77347120D01*
X126925500Y-77084880D01*
X126891270Y-76824884D01*
X126823398Y-76571581D01*
X126783368Y-76474939D01*
X126723046Y-76329309D01*
X126723041Y-76329299D01*
X126663867Y-76226806D01*
X126629994Y-76168135D01*
X138424500Y-76168135D01*
X138424500Y-78263870D01*
X138424501Y-78263876D01*
X138430908Y-78323483D01*
X138481202Y-78458328D01*
X138481206Y-78458335D01*
X138567452Y-78573544D01*
X138567455Y-78573547D01*
X138682664Y-78659793D01*
X138682671Y-78659797D01*
X138817517Y-78710091D01*
X138817516Y-78710091D01*
X138824444Y-78710835D01*
X138877127Y-78716500D01*
X140972872Y-78716499D01*
X141032483Y-78710091D01*
X141167331Y-78659796D01*
X141282546Y-78573546D01*
X141368796Y-78458331D01*
X141419091Y-78323483D01*
X141425500Y-78263873D01*
X141425499Y-76168128D01*
X141419091Y-76108517D01*
X141416733Y-76102196D01*
X141368797Y-75973671D01*
X141368793Y-75973664D01*
X141282547Y-75858455D01*
X141282544Y-75858452D01*
X141167335Y-75772206D01*
X141167328Y-75772202D01*
X141032482Y-75721908D01*
X141032483Y-75721908D01*
X140972883Y-75715501D01*
X140972881Y-75715500D01*
X140972873Y-75715500D01*
X140972864Y-75715500D01*
X138877129Y-75715500D01*
X138877123Y-75715501D01*
X138817516Y-75721908D01*
X138682671Y-75772202D01*
X138682664Y-75772206D01*
X138567455Y-75858452D01*
X138567452Y-75858455D01*
X138481206Y-75973664D01*
X138481202Y-75973671D01*
X138430908Y-76108517D01*
X138427939Y-76136138D01*
X138424501Y-76168123D01*
X138424500Y-76168135D01*
X126629994Y-76168135D01*
X126591924Y-76102196D01*
X126432281Y-75894148D01*
X126432274Y-75894140D01*
X126246860Y-75708726D01*
X126246851Y-75708718D01*
X126038803Y-75549075D01*
X125811700Y-75417958D01*
X125811690Y-75417953D01*
X125569428Y-75317605D01*
X125569421Y-75317603D01*
X125569419Y-75317602D01*
X125316116Y-75249730D01*
X125258339Y-75242123D01*
X125056127Y-75215500D01*
X125056120Y-75215500D01*
X124793880Y-75215500D01*
X124793872Y-75215500D01*
X124562772Y-75245926D01*
X124533884Y-75249730D01*
X124349632Y-75299100D01*
X124280581Y-75317602D01*
X124280571Y-75317605D01*
X124038309Y-75417953D01*
X124038299Y-75417958D01*
X123811196Y-75549075D01*
X123603148Y-75708718D01*
X123417718Y-75894148D01*
X123258075Y-76102196D01*
X123126958Y-76329299D01*
X123126953Y-76329309D01*
X123026605Y-76571571D01*
X123026602Y-76571581D01*
X122974446Y-76766233D01*
X122958730Y-76824885D01*
X122924500Y-77084872D01*
X122225500Y-77084872D01*
X122225500Y-65100301D01*
X122245185Y-65033262D01*
X122287499Y-64992914D01*
X122571668Y-64828850D01*
X122875705Y-64615961D01*
X123160032Y-64377383D01*
X123422483Y-64114932D01*
X123661061Y-63830605D01*
X123873950Y-63526568D01*
X124059531Y-63205132D01*
X124216391Y-62868745D01*
X124343335Y-62519968D01*
X124439399Y-62161453D01*
X124503851Y-61795930D01*
X124536200Y-61426181D01*
X124536200Y-61055019D01*
X124503851Y-60685270D01*
X124439399Y-60319747D01*
X124343335Y-59961232D01*
X124311282Y-59873166D01*
X124216393Y-59612459D01*
X124059535Y-59276077D01*
X124059527Y-59276061D01*
X124047877Y-59255883D01*
X123873950Y-58954632D01*
X123873942Y-58954621D01*
X123873938Y-58954614D01*
X123661060Y-58650593D01*
X123422480Y-58366265D01*
X123160034Y-58103819D01*
X122875706Y-57865239D01*
X122571685Y-57652361D01*
X122571674Y-57652354D01*
X122571668Y-57652350D01*
X122476170Y-57597214D01*
X122250238Y-57466772D01*
X122250222Y-57466764D01*
X121913840Y-57309906D01*
X121565061Y-57182962D01*
X121206560Y-57086903D01*
X121206563Y-57086903D01*
X121206553Y-57086901D01*
X121154946Y-57077801D01*
X120841032Y-57022449D01*
X120471284Y-56990100D01*
X120471281Y-56990100D01*
X120100119Y-56990100D01*
X120100115Y-56990100D01*
X119730367Y-57022449D01*
X119364852Y-57086900D01*
X119364849Y-57086900D01*
X119364847Y-57086901D01*
X119364842Y-57086902D01*
X119364839Y-57086903D01*
X119006338Y-57182962D01*
X118657559Y-57309906D01*
X118321177Y-57466764D01*
X118321161Y-57466772D01*
X117999740Y-57652345D01*
X117999714Y-57652361D01*
X117695693Y-57865239D01*
X117411365Y-58103819D01*
X117148919Y-58366265D01*
X116910339Y-58650593D01*
X116697461Y-58954614D01*
X116697445Y-58954640D01*
X116511872Y-59276061D01*
X116511864Y-59276077D01*
X116355006Y-59612459D01*
X116228062Y-59961238D01*
X116132003Y-60319739D01*
X116132000Y-60319752D01*
X116067549Y-60685267D01*
X116035200Y-61055015D01*
X45811535Y-61055015D01*
X45811535Y-61052315D01*
X45811375Y-52827135D01*
X90174500Y-52827135D01*
X90174500Y-54922870D01*
X90174501Y-54922876D01*
X90180908Y-54982483D01*
X90231202Y-55117328D01*
X90231206Y-55117335D01*
X90317452Y-55232544D01*
X90317455Y-55232547D01*
X90432664Y-55318793D01*
X90432671Y-55318797D01*
X90567517Y-55369091D01*
X90567516Y-55369091D01*
X90574444Y-55369835D01*
X90627127Y-55375500D01*
X92722872Y-55375499D01*
X92782483Y-55369091D01*
X92917331Y-55318796D01*
X93032546Y-55232546D01*
X93118796Y-55117331D01*
X93169091Y-54982483D01*
X93175500Y-54922873D01*
X93175499Y-53756947D01*
X97675000Y-53756947D01*
X97675000Y-53993052D01*
X97711934Y-54226247D01*
X97784897Y-54450802D01*
X97892087Y-54661174D01*
X97952338Y-54744104D01*
X97952340Y-54744105D01*
X98573958Y-54122487D01*
X98598978Y-54182890D01*
X98670112Y-54289351D01*
X98760649Y-54379888D01*
X98867110Y-54451022D01*
X98927511Y-54476041D01*
X98305893Y-55097658D01*
X98388828Y-55157914D01*
X98599197Y-55265102D01*
X98823752Y-55338065D01*
X98823751Y-55338065D01*
X99056948Y-55375000D01*
X99293052Y-55375000D01*
X99526247Y-55338065D01*
X99750802Y-55265102D01*
X99961163Y-55157918D01*
X99961169Y-55157914D01*
X100044104Y-55097658D01*
X100044105Y-55097658D01*
X99422488Y-54476041D01*
X99482890Y-54451022D01*
X99589351Y-54379888D01*
X99679888Y-54289351D01*
X99751022Y-54182890D01*
X99776041Y-54122488D01*
X100397658Y-54744105D01*
X100397658Y-54744104D01*
X100457914Y-54661169D01*
X100457918Y-54661163D01*
X100565102Y-54450802D01*
X100638065Y-54226247D01*
X100675000Y-53993052D01*
X100675000Y-53756947D01*
X100638065Y-53523752D01*
X100565102Y-53299197D01*
X100457914Y-53088828D01*
X100397658Y-53005894D01*
X100397658Y-53005893D01*
X99776041Y-53627511D01*
X99751022Y-53567110D01*
X99679888Y-53460649D01*
X99589351Y-53370112D01*
X99482890Y-53298978D01*
X99422488Y-53273958D01*
X100044105Y-52652340D01*
X100044104Y-52652338D01*
X99961174Y-52592087D01*
X99750802Y-52484897D01*
X99526247Y-52411934D01*
X99526248Y-52411934D01*
X99293052Y-52375000D01*
X99056948Y-52375000D01*
X98823752Y-52411934D01*
X98599197Y-52484897D01*
X98388830Y-52592084D01*
X98305894Y-52652340D01*
X98927512Y-53273958D01*
X98867110Y-53298978D01*
X98760649Y-53370112D01*
X98670112Y-53460649D01*
X98598978Y-53567110D01*
X98573958Y-53627512D01*
X97952340Y-53005894D01*
X97892084Y-53088830D01*
X97784897Y-53299197D01*
X97711934Y-53523752D01*
X97675000Y-53756947D01*
X93175499Y-53756947D01*
X93175499Y-52827128D01*
X93169091Y-52767517D01*
X93169090Y-52767514D01*
X93159922Y-52742931D01*
X93118797Y-52632671D01*
X93118793Y-52632664D01*
X93032547Y-52517455D01*
X93032544Y-52517452D01*
X92917335Y-52431206D01*
X92917328Y-52431202D01*
X92782482Y-52380908D01*
X92782483Y-52380908D01*
X92722883Y-52374501D01*
X92722881Y-52374500D01*
X92722873Y-52374500D01*
X92722864Y-52374500D01*
X90627129Y-52374500D01*
X90627123Y-52374501D01*
X90567516Y-52380908D01*
X90432671Y-52431202D01*
X90432664Y-52431206D01*
X90317455Y-52517452D01*
X90317452Y-52517455D01*
X90231206Y-52632664D01*
X90231202Y-52632671D01*
X90180908Y-52767517D01*
X90174857Y-52823808D01*
X90174501Y-52827123D01*
X90174500Y-52827135D01*
X45811375Y-52827135D01*
X45811375Y-52823808D01*
X45811278Y-47827135D01*
X76999500Y-47827135D01*
X76999500Y-49922870D01*
X76999501Y-49922876D01*
X77005908Y-49982483D01*
X77056202Y-50117328D01*
X77056206Y-50117335D01*
X77142452Y-50232544D01*
X77142455Y-50232547D01*
X77257664Y-50318793D01*
X77257671Y-50318797D01*
X77392517Y-50369091D01*
X77392516Y-50369091D01*
X77399444Y-50369835D01*
X77452127Y-50375500D01*
X79547872Y-50375499D01*
X79607483Y-50369091D01*
X79742331Y-50318796D01*
X79857546Y-50232546D01*
X79943796Y-50117331D01*
X79994091Y-49982483D01*
X80000500Y-49922873D01*
X80000499Y-48756947D01*
X84500000Y-48756947D01*
X84500000Y-48993052D01*
X84536934Y-49226247D01*
X84609897Y-49450802D01*
X84717087Y-49661174D01*
X84777338Y-49744104D01*
X84777340Y-49744105D01*
X85398958Y-49122487D01*
X85423978Y-49182890D01*
X85495112Y-49289351D01*
X85585649Y-49379888D01*
X85692110Y-49451022D01*
X85752511Y-49476041D01*
X85130893Y-50097658D01*
X85213828Y-50157914D01*
X85424197Y-50265102D01*
X85648752Y-50338065D01*
X85648751Y-50338065D01*
X85881948Y-50375000D01*
X86118052Y-50375000D01*
X86351247Y-50338065D01*
X86575802Y-50265102D01*
X86786163Y-50157918D01*
X86786169Y-50157914D01*
X86869104Y-50097658D01*
X86869105Y-50097658D01*
X86247488Y-49476041D01*
X86307890Y-49451022D01*
X86414351Y-49379888D01*
X86504888Y-49289351D01*
X86576022Y-49182890D01*
X86601041Y-49122488D01*
X87222658Y-49744105D01*
X87222658Y-49744104D01*
X87282914Y-49661169D01*
X87282918Y-49661163D01*
X87390102Y-49450802D01*
X87463065Y-49226247D01*
X87500000Y-48993052D01*
X87500000Y-48756947D01*
X87463065Y-48523752D01*
X87390102Y-48299197D01*
X87282914Y-48088828D01*
X87222658Y-48005894D01*
X87222658Y-48005893D01*
X86601041Y-48627511D01*
X86576022Y-48567110D01*
X86504888Y-48460649D01*
X86414351Y-48370112D01*
X86307890Y-48298978D01*
X86247488Y-48273958D01*
X86869105Y-47652340D01*
X86869104Y-47652338D01*
X86786174Y-47592087D01*
X86575802Y-47484897D01*
X86351247Y-47411934D01*
X86351248Y-47411934D01*
X86118052Y-47375000D01*
X85881948Y-47375000D01*
X85648752Y-47411934D01*
X85424197Y-47484897D01*
X85213830Y-47592084D01*
X85130894Y-47652340D01*
X85752512Y-48273958D01*
X85692110Y-48298978D01*
X85585649Y-48370112D01*
X85495112Y-48460649D01*
X85423978Y-48567110D01*
X85398958Y-48627512D01*
X84777340Y-48005894D01*
X84717084Y-48088830D01*
X84609897Y-48299197D01*
X84536934Y-48523752D01*
X84500000Y-48756947D01*
X80000499Y-48756947D01*
X80000499Y-47827128D01*
X79994091Y-47767517D01*
X79994090Y-47767514D01*
X79984922Y-47742931D01*
X79943797Y-47632671D01*
X79943793Y-47632664D01*
X79857547Y-47517455D01*
X79857544Y-47517452D01*
X79742335Y-47431206D01*
X79742328Y-47431202D01*
X79607482Y-47380908D01*
X79607483Y-47380908D01*
X79547883Y-47374501D01*
X79547881Y-47374500D01*
X79547873Y-47374500D01*
X79547864Y-47374500D01*
X77452129Y-47374500D01*
X77452123Y-47374501D01*
X77392516Y-47380908D01*
X77257671Y-47431202D01*
X77257664Y-47431206D01*
X77142455Y-47517452D01*
X77142452Y-47517455D01*
X77056206Y-47632664D01*
X77056202Y-47632671D01*
X77005908Y-47767517D01*
X76999857Y-47823808D01*
X76999501Y-47827123D01*
X76999500Y-47827135D01*
X45811278Y-47827135D01*
X45811278Y-47823808D01*
X45811274Y-47632664D01*
X45811221Y-44899624D01*
X45830904Y-44832587D01*
X45883707Y-44786831D01*
X45935208Y-44775624D01*
X144688822Y-44766111D01*
X144755860Y-44785789D01*
G37*
%TD.AperFunction*%
%TD*%
M02*
