%TF.GenerationSoftware,KiCad,Pcbnew,9.0.4-9.0.4-0~ubuntu24.04.1*%
%TF.CreationDate,2025-10-07T16:15:30-04:00*%
%TF.ProjectId,Transfer_Switch_Quad,5472616e-7366-4657-925f-537769746368,rev?*%
%TF.SameCoordinates,Original*%
%TF.FileFunction,Legend,Top*%
%TF.FilePolarity,Positive*%
%FSLAX46Y46*%
G04 Gerber Fmt 4.6, Leading zero omitted, Abs format (unit mm)*
G04 Created by KiCad (PCBNEW 9.0.4-9.0.4-0~ubuntu24.04.1) date 2025-10-07 16:15:30*
%MOMM*%
%LPD*%
G01*
G04 APERTURE LIST*
G04 Aperture macros list*
%AMRoundRect*
0 Rectangle with rounded corners*
0 $1 Rounding radius*
0 $2 $3 $4 $5 $6 $7 $8 $9 X,Y pos of 4 corners*
0 Add a 4 corners polygon primitive as box body*
4,1,4,$2,$3,$4,$5,$6,$7,$8,$9,$2,$3,0*
0 Add four circle primitives for the rounded corners*
1,1,$1+$1,$2,$3*
1,1,$1+$1,$4,$5*
1,1,$1+$1,$6,$7*
1,1,$1+$1,$8,$9*
0 Add four rect primitives between the rounded corners*
20,1,$1+$1,$2,$3,$4,$5,0*
20,1,$1+$1,$4,$5,$6,$7,0*
20,1,$1+$1,$6,$7,$8,$9,0*
20,1,$1+$1,$8,$9,$2,$3,0*%
G04 Aperture macros list end*
%ADD10C,0.120000*%
%ADD11R,2.500000X2.500000*%
%ADD12C,2.000000*%
%ADD13R,2.000000X2.000000*%
%ADD14RoundRect,0.250000X-0.650000X1.000000X-0.650000X-1.000000X0.650000X-1.000000X0.650000X1.000000X0*%
%ADD15RoundRect,0.250000X-0.250000X-0.475000X0.250000X-0.475000X0.250000X0.475000X-0.250000X0.475000X0*%
%ADD16RoundRect,0.250000X1.000000X0.650000X-1.000000X0.650000X-1.000000X-0.650000X1.000000X-0.650000X0*%
%ADD17RoundRect,0.250000X0.650000X-1.000000X0.650000X1.000000X-0.650000X1.000000X-0.650000X-1.000000X0*%
%ADD18C,6.500000*%
%ADD19C,1.000000*%
%ADD20RoundRect,0.250000X-1.000000X-0.650000X1.000000X-0.650000X1.000000X0.650000X-1.000000X0.650000X0*%
%ADD21RoundRect,0.250000X-0.750000X0.750000X-0.750000X-0.750000X0.750000X-0.750000X0.750000X0.750000X0*%
G04 APERTURE END LIST*
D10*
%TO.C,TP6*%
X50350000Y-116750000D02*
X53250000Y-116750000D01*
X50350000Y-119650000D02*
X50350000Y-116750000D01*
X53250000Y-116750000D02*
X53250000Y-119650000D01*
X53250000Y-119650000D02*
X50350000Y-119650000D01*
%TO.C,TP17*%
X138640000Y-67434000D02*
X141540000Y-67434000D01*
X138640000Y-70334000D02*
X138640000Y-67434000D01*
X141540000Y-67434000D02*
X141540000Y-70334000D01*
X141540000Y-70334000D02*
X138640000Y-70334000D01*
%TO.C,K13*%
X48096669Y-114142998D02*
X48096669Y-111952998D01*
X48336669Y-101202998D02*
X48336669Y-113902998D01*
X48336669Y-113902998D02*
X77336669Y-113902998D01*
X50136669Y-107202998D02*
X50136669Y-107902998D01*
X50136669Y-107902998D02*
X51336669Y-107902998D01*
X50436669Y-114142998D02*
X48096669Y-114142998D01*
X50936669Y-107902998D02*
X50536669Y-107202998D01*
X51336669Y-107202998D02*
X50136669Y-107202998D01*
X51336669Y-107902998D02*
X51336669Y-107202998D01*
X77336669Y-101202998D02*
X48336669Y-101202998D01*
X77336669Y-113902998D02*
X77336669Y-101202998D01*
%TO.C,K15*%
X102050000Y-112350000D02*
X102050000Y-141350000D01*
X102050000Y-141350000D02*
X114750000Y-141350000D01*
X108050000Y-138350000D02*
X108050000Y-139550000D01*
X108050000Y-139550000D02*
X108750000Y-139550000D01*
X108750000Y-138350000D02*
X108050000Y-138350000D01*
X108750000Y-138750000D02*
X108050000Y-139150000D01*
X108750000Y-139550000D02*
X108750000Y-138350000D01*
X114750000Y-112350000D02*
X102050000Y-112350000D01*
X114750000Y-141350000D02*
X114750000Y-112350000D01*
X114990000Y-139250000D02*
X114990000Y-141590000D01*
X114990000Y-141590000D02*
X112800000Y-141590000D01*
%TO.C,TP7*%
X69416000Y-47826000D02*
X72316000Y-47826000D01*
X69416000Y-50726000D02*
X69416000Y-47826000D01*
X72316000Y-47826000D02*
X72316000Y-50726000D01*
X72316000Y-50726000D02*
X69416000Y-50726000D01*
%TO.C,D2*%
X137796000Y-88946000D02*
X137796000Y-94456000D01*
X141096000Y-88946000D02*
X137796000Y-88946000D01*
X141096000Y-88946000D02*
X141096000Y-94456000D01*
%TO.C,C2*%
X54763746Y-132398024D02*
X55286252Y-132398024D01*
X54763746Y-133868024D02*
X55286252Y-133868024D01*
%TO.C,K16*%
X75660000Y-46235000D02*
X77850000Y-46235000D01*
X75660000Y-48575000D02*
X75660000Y-46235000D01*
X75900000Y-46475000D02*
X75900000Y-75475000D01*
X75900000Y-75475000D02*
X88600000Y-75475000D01*
X81900000Y-48275000D02*
X81900000Y-49475000D01*
X81900000Y-49075000D02*
X82600000Y-48675000D01*
X81900000Y-49475000D02*
X82600000Y-49475000D01*
X82600000Y-48275000D02*
X81900000Y-48275000D01*
X82600000Y-49475000D02*
X82600000Y-48275000D01*
X88600000Y-46475000D02*
X75900000Y-46475000D01*
X88600000Y-75475000D02*
X88600000Y-46475000D01*
%TO.C,D1*%
X98560000Y-136725000D02*
X93050000Y-136725000D01*
X98560000Y-140025000D02*
X93050000Y-140025000D01*
X98560000Y-140025000D02*
X98560000Y-136725000D01*
%TO.C,K14*%
X113325000Y-74616000D02*
X113325000Y-87316000D01*
X113325000Y-87316000D02*
X142325000Y-87316000D01*
X139325000Y-80616000D02*
X139325000Y-81316000D01*
X139325000Y-81316000D02*
X140525000Y-81316000D01*
X139725000Y-80616000D02*
X140125000Y-81316000D01*
X140225000Y-74376000D02*
X142565000Y-74376000D01*
X140525000Y-80616000D02*
X139325000Y-80616000D01*
X140525000Y-81316000D02*
X140525000Y-80616000D01*
X142325000Y-74616000D02*
X113325000Y-74616000D01*
X142325000Y-87316000D02*
X142325000Y-74616000D01*
X142565000Y-74376000D02*
X142565000Y-76566000D01*
%TO.C,TP16*%
X134440000Y-67384000D02*
X137340000Y-67384000D01*
X134440000Y-70284000D02*
X134440000Y-67384000D01*
X137340000Y-67384000D02*
X137340000Y-70284000D01*
X137340000Y-70284000D02*
X134440000Y-70284000D01*
%TO.C,D4*%
X49400000Y-97610000D02*
X49400000Y-92100000D01*
X49400000Y-97610000D02*
X52700000Y-97610000D01*
X52700000Y-97610000D02*
X52700000Y-92100000D01*
%TO.C,TP24*%
X69416000Y-52144000D02*
X72316000Y-52144000D01*
X69416000Y-55044000D02*
X69416000Y-52144000D01*
X72316000Y-52144000D02*
X72316000Y-55044000D01*
X72316000Y-55044000D02*
X69416000Y-55044000D01*
%TO.C,K10*%
X88850000Y-107325000D02*
X88850000Y-136325000D01*
X88850000Y-136325000D02*
X101550000Y-136325000D01*
X94850000Y-133325000D02*
X94850000Y-134525000D01*
X94850000Y-134525000D02*
X95550000Y-134525000D01*
X95550000Y-133325000D02*
X94850000Y-133325000D01*
X95550000Y-133725000D02*
X94850000Y-134125000D01*
X95550000Y-134525000D02*
X95550000Y-133325000D01*
X101550000Y-107325000D02*
X88850000Y-107325000D01*
X101550000Y-136325000D02*
X101550000Y-107325000D01*
X101790000Y-134225000D02*
X101790000Y-136565000D01*
X101790000Y-136565000D02*
X99600000Y-136565000D01*
%TO.C,K11*%
X108350000Y-87944000D02*
X108350000Y-100644000D01*
X108350000Y-100644000D02*
X137350000Y-100644000D01*
X134350000Y-93944000D02*
X134350000Y-94644000D01*
X134350000Y-94644000D02*
X135550000Y-94644000D01*
X134750000Y-93944000D02*
X135150000Y-94644000D01*
X135250000Y-87704000D02*
X137590000Y-87704000D01*
X135550000Y-93944000D02*
X134350000Y-93944000D01*
X135550000Y-94644000D02*
X135550000Y-93944000D01*
X137350000Y-87944000D02*
X108350000Y-87944000D01*
X137350000Y-100644000D02*
X137350000Y-87944000D01*
X137590000Y-87704000D02*
X137590000Y-89894000D01*
%TO.C,C3*%
X54763747Y-129898024D02*
X55286253Y-129898024D01*
X54763747Y-131368024D02*
X55286253Y-131368024D01*
%TO.C,D3*%
X89390000Y-46725000D02*
X89390000Y-50025000D01*
X89390000Y-46725000D02*
X94900000Y-46725000D01*
X89390000Y-50025000D02*
X94900000Y-50025000D01*
%TO.C,K12*%
X88835000Y-51235000D02*
X91025000Y-51235000D01*
X88835000Y-53575000D02*
X88835000Y-51235000D01*
X89075000Y-51475000D02*
X89075000Y-80475000D01*
X89075000Y-80475000D02*
X101775000Y-80475000D01*
X95075000Y-53275000D02*
X95075000Y-54475000D01*
X95075000Y-54075000D02*
X95775000Y-53675000D01*
X95075000Y-54475000D02*
X95775000Y-54475000D01*
X95775000Y-53275000D02*
X95075000Y-53275000D01*
X95775000Y-54475000D02*
X95775000Y-53275000D01*
X101775000Y-51475000D02*
X89075000Y-51475000D01*
X101775000Y-80475000D02*
X101775000Y-51475000D01*
%TO.C,C4*%
X54763746Y-127323024D02*
X55286252Y-127323024D01*
X54763746Y-128793024D02*
X55286252Y-128793024D01*
%TO.C,TP25*%
X118946000Y-137234000D02*
X121846000Y-137234000D01*
X118946000Y-140134000D02*
X118946000Y-137234000D01*
X121846000Y-137234000D02*
X121846000Y-140134000D01*
X121846000Y-140134000D02*
X118946000Y-140134000D01*
%TO.C,TP5*%
X54400000Y-116825000D02*
X57300000Y-116825000D01*
X54400000Y-119725000D02*
X54400000Y-116825000D01*
X57300000Y-116825000D02*
X57300000Y-119725000D01*
X57300000Y-119725000D02*
X54400000Y-119725000D01*
%TO.C,TP20*%
X118946000Y-132916000D02*
X121846000Y-132916000D01*
X118946000Y-135816000D02*
X118946000Y-132916000D01*
X121846000Y-132916000D02*
X121846000Y-135816000D01*
X121846000Y-135816000D02*
X118946000Y-135816000D01*
%TO.C,C1*%
X54763746Y-134923024D02*
X55286252Y-134923024D01*
X54763746Y-136393024D02*
X55286252Y-136393024D01*
%TO.C,K9*%
X53060000Y-100540000D02*
X53060000Y-98350000D01*
X53300000Y-87600000D02*
X53300000Y-100300000D01*
X53300000Y-100300000D02*
X82300000Y-100300000D01*
X55100000Y-93600000D02*
X55100000Y-94300000D01*
X55100000Y-94300000D02*
X56300000Y-94300000D01*
X55400000Y-100540000D02*
X53060000Y-100540000D01*
X55900000Y-94300000D02*
X55500000Y-93600000D01*
X56300000Y-93600000D02*
X55100000Y-93600000D01*
X56300000Y-94300000D02*
X56300000Y-93600000D01*
X82300000Y-87600000D02*
X53300000Y-87600000D01*
X82300000Y-100300000D02*
X82300000Y-87600000D01*
%TD*%
%LPC*%
D11*
%TO.C,TP6*%
X51800000Y-118200000D03*
%TD*%
%TO.C,TP17*%
X140090000Y-68884000D03*
%TD*%
D12*
%TO.C,K13*%
X70736669Y-111302998D03*
X70736669Y-103802998D03*
X65736669Y-111302998D03*
X65736669Y-103802998D03*
X75736669Y-111302998D03*
X75736669Y-103802998D03*
D13*
X50736669Y-111302998D03*
D12*
X50736669Y-103802998D03*
%TD*%
%TO.C,K15*%
X112150000Y-118950000D03*
X104650000Y-118950000D03*
X112150000Y-123950000D03*
X104650000Y-123950000D03*
X112150000Y-113950000D03*
X104650000Y-113950000D03*
D13*
X112150000Y-138950000D03*
D12*
X104650000Y-138950000D03*
%TD*%
D11*
%TO.C,TP7*%
X70866000Y-49276000D03*
%TD*%
D14*
%TO.C,D2*%
X139446000Y-90456000D03*
X139446000Y-94456000D03*
%TD*%
D15*
%TO.C,C2*%
X54075000Y-133133024D03*
X55974998Y-133133024D03*
%TD*%
D12*
%TO.C,K16*%
X78500000Y-68875000D03*
X86000000Y-68875000D03*
X78500000Y-63875000D03*
X86000000Y-63875000D03*
X78500000Y-73875000D03*
X86000000Y-73875000D03*
D13*
X78500000Y-48875000D03*
D12*
X86000000Y-48875000D03*
%TD*%
D16*
%TO.C,D1*%
X97050000Y-138375000D03*
X93050000Y-138375000D03*
%TD*%
D12*
%TO.C,K14*%
X119925000Y-77216000D03*
X119925000Y-84716000D03*
X124925000Y-77216000D03*
X124925000Y-84716000D03*
X114925000Y-77216000D03*
X114925000Y-84716000D03*
D13*
X139925000Y-77216000D03*
D12*
X139925000Y-84716000D03*
%TD*%
D11*
%TO.C,TP16*%
X135890000Y-68834000D03*
%TD*%
D17*
%TO.C,D4*%
X51050000Y-96100000D03*
X51050000Y-92100000D03*
%TD*%
D11*
%TO.C,TP24*%
X70866000Y-53594000D03*
%TD*%
D12*
%TO.C,K10*%
X98950000Y-113925000D03*
X91450000Y-113925000D03*
X98950000Y-118925000D03*
X91450000Y-118925000D03*
X98950000Y-108925000D03*
X91450000Y-108925000D03*
D13*
X98950000Y-133925000D03*
D12*
X91450000Y-133925000D03*
%TD*%
%TO.C,K11*%
X114950000Y-90544000D03*
X114950000Y-98044000D03*
X119950000Y-90544000D03*
X119950000Y-98044000D03*
X109950000Y-90544000D03*
X109950000Y-98044000D03*
D13*
X134950000Y-90544000D03*
D12*
X134950000Y-98044000D03*
%TD*%
D18*
%TO.C,J8*%
X95285700Y-94295100D03*
X104310700Y-85270100D03*
X86310700Y-85270100D03*
D19*
X98710700Y-85970100D03*
X91810700Y-85970100D03*
X103610700Y-90770100D03*
X86885700Y-90970100D03*
X103710700Y-97570100D03*
X86985700Y-97770100D03*
X91710700Y-102470100D03*
X98710700Y-102570100D03*
D18*
X104310700Y-103270100D03*
X86310700Y-103270100D03*
%TD*%
D15*
%TO.C,C3*%
X54075001Y-130633024D03*
X55974999Y-130633024D03*
%TD*%
D20*
%TO.C,D3*%
X90900000Y-48375000D03*
X94900000Y-48375000D03*
%TD*%
D12*
%TO.C,K12*%
X91675000Y-73875000D03*
X99175000Y-73875000D03*
X91675000Y-68875000D03*
X99175000Y-68875000D03*
X91675000Y-78875000D03*
X99175000Y-78875000D03*
D13*
X91675000Y-53875000D03*
D12*
X99175000Y-53875000D03*
%TD*%
D15*
%TO.C,C4*%
X54075000Y-128058024D03*
X55974998Y-128058024D03*
%TD*%
D11*
%TO.C,TP25*%
X120396000Y-138684000D03*
%TD*%
%TO.C,TP5*%
X55850000Y-118275000D03*
%TD*%
%TO.C,TP20*%
X120396000Y-134366000D03*
%TD*%
D15*
%TO.C,C1*%
X54075000Y-135658024D03*
X55974998Y-135658024D03*
%TD*%
D12*
%TO.C,K9*%
X75700000Y-97700000D03*
X75700000Y-90200000D03*
X70700000Y-97700000D03*
X70700000Y-90200000D03*
X80700000Y-97700000D03*
X80700000Y-90200000D03*
D13*
X55700000Y-97700000D03*
D12*
X55700000Y-90200000D03*
%TD*%
D18*
%TO.C,J9*%
X129287200Y-118740600D03*
X120312200Y-127765600D03*
X138312200Y-127765600D03*
D19*
X125812200Y-127065600D03*
X132712200Y-127065600D03*
X137612200Y-122265600D03*
X120887200Y-122065600D03*
X137712200Y-115465600D03*
X120987200Y-115265600D03*
X125712200Y-110565600D03*
X132712200Y-110465600D03*
D18*
X120312200Y-109765600D03*
X138312200Y-109765600D03*
%TD*%
%TO.C,J7*%
X120285700Y-61240600D03*
X111310700Y-70265600D03*
X129310700Y-70265600D03*
D19*
X116810700Y-69565600D03*
X123710700Y-69565600D03*
X128610700Y-64765600D03*
X111885700Y-64565600D03*
X128710700Y-57965600D03*
X111985700Y-57765600D03*
X116710700Y-53065600D03*
X123710700Y-52965600D03*
D18*
X111310700Y-52265600D03*
X129310700Y-52265600D03*
%TD*%
%TO.C,J10*%
X70787600Y-127250200D03*
X61812600Y-136275200D03*
X79812600Y-136275200D03*
D19*
X67312600Y-135575200D03*
X74212600Y-135575200D03*
X79112600Y-130775200D03*
X62387600Y-130575200D03*
X79212600Y-123975200D03*
X62487600Y-123775200D03*
X67212600Y-119075200D03*
X74212600Y-118975200D03*
D18*
X61812600Y-118275200D03*
X79812600Y-118275200D03*
%TD*%
%TO.C,J6*%
X62785700Y-69250200D03*
X53810700Y-78275200D03*
X71810700Y-78275200D03*
D19*
X59310700Y-77575200D03*
X66210700Y-77575200D03*
X71110700Y-72775200D03*
X54385700Y-72575200D03*
X71210700Y-65975200D03*
X54485700Y-65775200D03*
X59210700Y-61075200D03*
X66210700Y-60975200D03*
D18*
X53810700Y-60275200D03*
X71810700Y-60275200D03*
%TD*%
D21*
%TO.C,J1*%
X51050000Y-128025000D03*
D12*
X51050000Y-130565000D03*
X51050000Y-133104999D03*
X51050000Y-135645000D03*
X51050000Y-138185000D03*
%TD*%
%LPD*%
M02*
