M48
; DRILL file {KiCad 9.0.4-9.0.4-0~ubuntu24.04.1} date 2025-10-07T16:15:30-0400
; FORMAT={-:-/ absolute / inch / decimal}
; #@! TF.CreationDate,2025-10-07T16:15:30-04:00
; #@! TF.GenerationSoftware,Kicad,Pcbnew,9.0.4-9.0.4-0~ubuntu24.04.1
; #@! TF.FileFunction,Plated,1,2,PTH
FMAT,2
INCH
; #@! TA.AperFunction,Plated,PTH,ViaDrill
T1C0.0197
; #@! TA.AperFunction,Plated,PTH,ComponentDrill
T2C0.0236
; #@! TA.AperFunction,Plated,PTH,ViaDrill
T3C0.0394
; #@! TA.AperFunction,Plated,PTH,ComponentDrill
T4C0.0472
; #@! TA.AperFunction,Plated,PTH,ComponentDrill
T5C0.0512
; #@! TA.AperFunction,Plated,PTH,ComponentDrill
T6C0.1378
; #@! TA.AperFunction,Plated,PTH,ComponentDrill
T7C0.1634
%
G90
G05
T1
X2.2539Y-5.0413
X2.2539Y-5.2421
X2.2549Y-5.3401
X2.2559Y-5.1437
T2
X2.1412Y-2.8573
X2.1451Y-2.5896
X2.3311Y-2.4045
X2.3351Y-3.0541
X2.4562Y-5.1408
X2.4601Y-4.873
X2.6067Y-2.4006
X2.6067Y-3.0541
X2.6462Y-4.688
X2.6501Y-5.3376
X2.7996Y-2.8652
X2.8036Y-2.5974
X2.9218Y-4.6841
X2.9218Y-5.3376
X3.1147Y-5.1486
X3.1186Y-4.8809
X3.4207Y-3.5815
X3.4246Y-3.8492
X3.6107Y-4.0343
X3.6146Y-3.3846
X3.8862Y-3.3846
X3.8862Y-4.0382
X4.0792Y-3.5736
X4.0831Y-3.8413
X4.4049Y-2.542
X4.4089Y-2.2742
X4.5949Y-2.0892
X4.5988Y-2.7388
X4.7593Y-4.8057
X4.7633Y-4.538
X4.8705Y-2.0853
X4.8705Y-2.7388
X4.9493Y-4.353
X4.9532Y-5.0026
X5.0634Y-2.5498
X5.0674Y-2.2821
X5.2249Y-4.349
X5.2249Y-5.0026
X5.4178Y-4.8136
X5.4217Y-4.5459
T3
X1.8848Y-1.8445
X1.8996Y-5.5906
X2.01Y-3.5
X2.0236Y-2.6988
X2.0325Y-2.1703
X2.04Y-4.52
X2.0404Y-4.7963
X2.1368Y-4.3159
X2.1977Y-4.7982
X2.2229Y-2.1697
X2.2451Y-4.1969
X2.373Y-4.0866
X2.4094Y-2.1722
X2.41Y-1.94
X2.5886Y-3.5522
X2.5886Y-3.8474
X2.59Y-3.36
X2.6483Y-2.11
X2.65Y-1.94
X2.78Y-3.36
X2.7805Y-5.4587
X2.93Y-1.94
X2.98Y-3.36
X3.09Y-3.11
X3.1339Y-2.0886
X3.1791Y-3.36
X3.18Y-4.03
X3.18Y-4.2092
X3.18Y-4.38
X3.24Y-2.201
X3.24Y-3.11
X3.3429Y-5.2737
X3.3437Y-5.0749
X3.3453Y-4.8863
X3.3789Y-2.2992
X3.39Y-3.11
X3.3996Y-4.2879
X3.4016Y-4.4843
X3.4016Y-4.6831
X3.6014Y-4.8789
X3.6102Y-2.5157
X3.86Y-1.9045
X3.8967Y-4.874
X3.9065Y-2.5157
X4.1Y-2.51
X4.1Y-2.71
X4.1Y-2.91
X4.1Y-3.11
X4.12Y-5.05
X4.122Y-4.2913
X4.1679Y-2.0862
X4.1687Y-1.8874
X4.1726Y-2.2839
X4.25Y-5.18
X4.2717Y-4.2874
X4.3307Y-3.0118
X4.3307Y-3.1555
X4.3307Y-3.3071
X4.3307Y-4.07
X4.37Y-5.2852
X4.4173Y-4.2874
X4.5256Y-4.07
X4.6Y-4.88
X4.6Y-5.46
X4.6024Y-4.4862
X4.7244Y-4.07
X4.7362Y-1.873
X4.88Y-5.46
X4.8817Y-5.29
X4.9173Y-3.57
X4.9203Y-3.86
X4.9624Y-4.0994
X5.1Y-3.34
X5.151Y-4.101
X5.17Y-5.29
X5.21Y-3.21
X5.3Y-5.46
X5.34Y-3.08
X5.3457Y-1.9421
X5.3486Y-4.0963
X5.35Y-2.5683
X5.3504Y-2.1398
X5.3524Y-2.3445
X5.45Y-5.29
X5.49Y-3.83
X5.498Y-4.689
X5.5154Y-2.8419
X5.5173Y-2.59
X5.5866Y-5.5709
X5.6063Y-1.8524
T4
X2.0098Y-5.0404
X2.0098Y-5.1404
X2.0098Y-5.2404
X2.0098Y-5.3404
X2.0098Y-5.4404
T5
X1.9975Y-4.0867
X1.9975Y-4.382
X2.1929Y-3.5512
X2.1929Y-3.8465
X2.5881Y-4.0867
X2.5881Y-4.382
X2.7835Y-3.5512
X2.7835Y-3.8465
X2.7849Y-4.0867
X2.7849Y-4.382
X2.9803Y-3.5512
X2.9803Y-3.8465
X2.9818Y-4.0867
X2.9818Y-4.382
X3.0906Y-1.9242
X3.0906Y-2.5148
X3.0906Y-2.7116
X3.0906Y-2.9085
X3.1772Y-3.5512
X3.1772Y-3.8465
X3.3858Y-1.9242
X3.3858Y-2.5148
X3.3858Y-2.7116
X3.3858Y-2.9085
X3.6004Y-4.2884
X3.6004Y-4.4852
X3.6004Y-4.6821
X3.6004Y-5.2726
X3.6093Y-2.1211
X3.6093Y-2.7116
X3.6093Y-2.9085
X3.6093Y-3.1053
X3.8957Y-4.2884
X3.8957Y-4.4852
X3.8957Y-4.6821
X3.8957Y-5.2726
X3.9045Y-2.1211
X3.9045Y-2.7116
X3.9045Y-2.9085
X3.9045Y-3.1053
X4.1201Y-4.4862
X4.1201Y-4.6831
X4.1201Y-4.8799
X4.1201Y-5.4705
X4.3287Y-3.5647
X4.3287Y-3.86
X4.4154Y-4.4862
X4.4154Y-4.6831
X4.4154Y-4.8799
X4.4154Y-5.4705
X4.5246Y-3.04
X4.5246Y-3.3353
X4.5256Y-3.5647
X4.5256Y-3.86
X4.7215Y-3.04
X4.7215Y-3.3353
X4.7224Y-3.5647
X4.7224Y-3.86
X4.9183Y-3.04
X4.9183Y-3.3353
X5.313Y-3.5647
X5.313Y-3.86
X5.5089Y-3.04
X5.5089Y-3.3353
T6
X2.1185Y-2.373
X2.1185Y-3.0817
X2.4336Y-4.6565
X2.4336Y-5.3652
X2.8272Y-2.373
X2.8272Y-3.0817
X3.1422Y-4.6565
X3.1422Y-5.3652
X3.3981Y-3.3571
X3.3981Y-4.0658
X4.1067Y-3.3571
X4.1067Y-4.0658
X4.3823Y-2.0577
X4.3823Y-2.7664
X4.7367Y-4.3215
X4.7367Y-5.0301
X5.091Y-2.0577
X5.091Y-2.7664
X5.4454Y-4.3215
X5.4454Y-5.0301
T7
X2.4719Y-2.7264
X2.7869Y-5.0099
X3.7514Y-3.7124
X4.7357Y-2.411
X5.09Y-4.6748
M30
