%TF.GenerationSoftware,KiCad,Pcbnew,9.0.2-9.0.2-0~ubuntu24.04.1*%
%TF.CreationDate,2025-07-07T13:30:36-04:00*%
%TF.ProjectId,Transfer_G2RL,5472616e-7366-4657-925f-4732524c2e6b,rev?*%
%TF.SameCoordinates,Original*%
%TF.FileFunction,Legend,Bot*%
%TF.FilePolarity,Positive*%
%FSLAX46Y46*%
G04 Gerber Fmt 4.6, Leading zero omitted, Abs format (unit mm)*
G04 Created by KiCad (PCBNEW 9.0.2-9.0.2-0~ubuntu24.04.1) date 2025-07-07 13:30:36*
%MOMM*%
%LPD*%
G01*
G04 APERTURE LIST*
G04 Aperture macros list*
%AMRoundRect*
0 Rectangle with rounded corners*
0 $1 Rounding radius*
0 $2 $3 $4 $5 $6 $7 $8 $9 X,Y pos of 4 corners*
0 Add a 4 corners polygon primitive as box body*
4,1,4,$2,$3,$4,$5,$6,$7,$8,$9,$2,$3,0*
0 Add four circle primitives for the rounded corners*
1,1,$1+$1,$2,$3*
1,1,$1+$1,$4,$5*
1,1,$1+$1,$6,$7*
1,1,$1+$1,$8,$9*
0 Add four rect primitives between the rounded corners*
20,1,$1+$1,$2,$3,$4,$5,0*
20,1,$1+$1,$4,$5,$6,$7,0*
20,1,$1+$1,$6,$7,$8,$9,0*
20,1,$1+$1,$8,$9,$2,$3,0*%
G04 Aperture macros list end*
%ADD10C,0.150000*%
%ADD11C,2.000000*%
%ADD12R,2.000000X2.000000*%
%ADD13C,6.500000*%
%ADD14C,1.000000*%
%ADD15C,3.000000*%
%ADD16RoundRect,0.250001X0.799999X0.799999X-0.799999X0.799999X-0.799999X-0.799999X0.799999X-0.799999X0*%
%ADD17C,2.100000*%
G04 APERTURE END LIST*
D10*
X148429819Y-79716666D02*
X149144104Y-79716666D01*
X149144104Y-79716666D02*
X149286961Y-79669047D01*
X149286961Y-79669047D02*
X149382200Y-79573809D01*
X149382200Y-79573809D02*
X149429819Y-79430952D01*
X149429819Y-79430952D02*
X149429819Y-79335714D01*
X148429819Y-80669047D02*
X148429819Y-80192857D01*
X148429819Y-80192857D02*
X148906009Y-80145238D01*
X148906009Y-80145238D02*
X148858390Y-80192857D01*
X148858390Y-80192857D02*
X148810771Y-80288095D01*
X148810771Y-80288095D02*
X148810771Y-80526190D01*
X148810771Y-80526190D02*
X148858390Y-80621428D01*
X148858390Y-80621428D02*
X148906009Y-80669047D01*
X148906009Y-80669047D02*
X149001247Y-80716666D01*
X149001247Y-80716666D02*
X149239342Y-80716666D01*
X149239342Y-80716666D02*
X149334580Y-80669047D01*
X149334580Y-80669047D02*
X149382200Y-80621428D01*
X149382200Y-80621428D02*
X149429819Y-80526190D01*
X149429819Y-80526190D02*
X149429819Y-80288095D01*
X149429819Y-80288095D02*
X149382200Y-80192857D01*
X149382200Y-80192857D02*
X149334580Y-80145238D01*
X119713851Y-119342819D02*
X119713851Y-120057104D01*
X119713851Y-120057104D02*
X119761470Y-120199961D01*
X119761470Y-120199961D02*
X119856708Y-120295200D01*
X119856708Y-120295200D02*
X119999565Y-120342819D01*
X119999565Y-120342819D02*
X120094803Y-120342819D01*
X119332898Y-119342819D02*
X118666232Y-119342819D01*
X118666232Y-119342819D02*
X119094803Y-120342819D01*
%LPC*%
D11*
%TO.C,K3*%
X114060000Y-96250000D03*
X114060000Y-103750000D03*
X119060000Y-96250000D03*
X119060000Y-103750000D03*
X109060000Y-96250000D03*
X109060000Y-103750000D03*
D12*
X134060000Y-96250000D03*
D11*
X134060000Y-103750000D03*
%TD*%
D13*
%TO.C,J8*%
X105185818Y-89343989D03*
D14*
X105185818Y-80343989D03*
D13*
X105185818Y-71343989D03*
D14*
X105885818Y-83743989D03*
X105885818Y-76843989D03*
X110885818Y-71843989D03*
X114185818Y-71243989D03*
X117685818Y-71943989D03*
X122385818Y-76743989D03*
X122485818Y-83743989D03*
D13*
X123185818Y-89343989D03*
D14*
X123185818Y-80343989D03*
D13*
X123185818Y-71343989D03*
%TD*%
D11*
%TO.C,K2*%
X160350000Y-103750000D03*
X160350000Y-96250000D03*
X155350000Y-103750000D03*
X155350000Y-96250000D03*
X165350000Y-103750000D03*
X165350000Y-96250000D03*
D12*
X140350000Y-103750000D03*
D11*
X140350000Y-96250000D03*
%TD*%
D15*
%TO.C,H1*%
X165328600Y-108712000D03*
%TD*%
D13*
%TO.C,J5*%
X151159818Y-89039189D03*
D14*
X151159818Y-80039189D03*
D13*
X151159818Y-71039189D03*
D14*
X151859818Y-83439189D03*
X151859818Y-76539189D03*
X156859818Y-71539189D03*
X160159818Y-70939189D03*
X163659818Y-71639189D03*
X168359818Y-76439189D03*
X168459818Y-83439189D03*
D13*
X169159818Y-89039189D03*
D14*
X169159818Y-80039189D03*
D13*
X169159818Y-71039189D03*
%TD*%
D15*
%TO.C,H4*%
X160300000Y-91440000D03*
%TD*%
%TO.C,H3*%
X109067600Y-109220000D03*
%TD*%
%TO.C,H2*%
X114046000Y-91440000D03*
%TD*%
D16*
%TO.C,J1*%
X139920000Y-80520000D03*
D17*
X137380000Y-80520000D03*
%TD*%
D13*
%TO.C,J6*%
X174328600Y-110751139D03*
D14*
X174328600Y-119751139D03*
D13*
X174328600Y-128751139D03*
D14*
X173628600Y-116351139D03*
X173628600Y-123251139D03*
X168628600Y-128251139D03*
X165328600Y-128851139D03*
X161828600Y-128151139D03*
X157128600Y-123351139D03*
X157028600Y-116351139D03*
D13*
X156328600Y-110751139D03*
D14*
X156328600Y-119751139D03*
D13*
X156328600Y-128751139D03*
%TD*%
%TO.C,J7*%
X118067600Y-110751139D03*
D14*
X118067600Y-119751139D03*
D13*
X118067600Y-128751139D03*
D14*
X117367600Y-116351139D03*
X117367600Y-123251139D03*
X112367600Y-128251139D03*
X109067600Y-128851139D03*
X105567600Y-128151139D03*
X100867600Y-123351139D03*
X100767600Y-116351139D03*
D13*
X100067600Y-110751139D03*
D14*
X100067600Y-119751139D03*
D13*
X100067600Y-128751139D03*
%TD*%
%LPD*%
M02*
