%TF.GenerationSoftware,KiCad,Pcbnew,9.0.2-9.0.2-0~ubuntu24.04.1*%
%TF.CreationDate,2025-07-07T13:30:36-04:00*%
%TF.ProjectId,Transfer_G2RL,5472616e-7366-4657-925f-4732524c2e6b,rev?*%
%TF.SameCoordinates,Original*%
%TF.FileFunction,Copper,L1,Top*%
%TF.FilePolarity,Positive*%
%FSLAX46Y46*%
G04 Gerber Fmt 4.6, Leading zero omitted, Abs format (unit mm)*
G04 Created by KiCad (PCBNEW 9.0.2-9.0.2-0~ubuntu24.04.1) date 2025-07-07 13:30:36*
%MOMM*%
%LPD*%
G01*
G04 APERTURE LIST*
G04 Aperture macros list*
%AMRoundRect*
0 Rectangle with rounded corners*
0 $1 Rounding radius*
0 $2 $3 $4 $5 $6 $7 $8 $9 X,Y pos of 4 corners*
0 Add a 4 corners polygon primitive as box body*
4,1,4,$2,$3,$4,$5,$6,$7,$8,$9,$2,$3,0*
0 Add four circle primitives for the rounded corners*
1,1,$1+$1,$2,$3*
1,1,$1+$1,$4,$5*
1,1,$1+$1,$6,$7*
1,1,$1+$1,$8,$9*
0 Add four rect primitives between the rounded corners*
20,1,$1+$1,$2,$3,$4,$5,0*
20,1,$1+$1,$4,$5,$6,$7,0*
20,1,$1+$1,$6,$7,$8,$9,0*
20,1,$1+$1,$8,$9,$2,$3,0*%
G04 Aperture macros list end*
%TA.AperFunction,ComponentPad*%
%ADD10C,2.000000*%
%TD*%
%TA.AperFunction,ComponentPad*%
%ADD11R,2.000000X2.000000*%
%TD*%
%TA.AperFunction,SMDPad,CuDef*%
%ADD12RoundRect,0.250000X0.475000X-0.250000X0.475000X0.250000X-0.475000X0.250000X-0.475000X-0.250000X0*%
%TD*%
%TA.AperFunction,ComponentPad*%
%ADD13C,6.500000*%
%TD*%
%TA.AperFunction,ComponentPad*%
%ADD14C,1.000000*%
%TD*%
%TA.AperFunction,SMDPad,CuDef*%
%ADD15RoundRect,0.250000X-0.250000X-0.475000X0.250000X-0.475000X0.250000X0.475000X-0.250000X0.475000X0*%
%TD*%
%TA.AperFunction,SMDPad,CuDef*%
%ADD16RoundRect,0.250000X0.250000X0.475000X-0.250000X0.475000X-0.250000X-0.475000X0.250000X-0.475000X0*%
%TD*%
%TA.AperFunction,ComponentPad*%
%ADD17C,3.000000*%
%TD*%
%TA.AperFunction,SMDPad,CuDef*%
%ADD18RoundRect,0.112500X0.187500X0.112500X-0.187500X0.112500X-0.187500X-0.112500X0.187500X-0.112500X0*%
%TD*%
%TA.AperFunction,ComponentPad*%
%ADD19RoundRect,0.250001X0.799999X0.799999X-0.799999X0.799999X-0.799999X-0.799999X0.799999X-0.799999X0*%
%TD*%
%TA.AperFunction,ComponentPad*%
%ADD20C,2.100000*%
%TD*%
%TA.AperFunction,ViaPad*%
%ADD21C,1.000000*%
%TD*%
%TA.AperFunction,Conductor*%
%ADD22C,1.000000*%
%TD*%
%TA.AperFunction,Conductor*%
%ADD23C,3.000000*%
%TD*%
G04 APERTURE END LIST*
D10*
%TO.P,K3,11*%
%TO.N,Net-(C5-Pad2)*%
X114060000Y-96250000D03*
X114060000Y-103750000D03*
%TO.P,K3,12*%
%TO.N,Net-(C2-Pad1)*%
X119060000Y-96250000D03*
X119060000Y-103750000D03*
%TO.P,K3,14*%
%TO.N,Net-(C4-Pad1)*%
X109060000Y-96250000D03*
X109060000Y-103750000D03*
D11*
%TO.P,K3,A1*%
%TO.N,/12V*%
X134060000Y-96250000D03*
D10*
%TO.P,K3,A2*%
%TO.N,/Amp\u005C*%
X134060000Y-103750000D03*
%TD*%
D12*
%TO.P,C5,1*%
%TO.N,GND*%
X113125000Y-109575000D03*
%TO.P,C5,2*%
%TO.N,Net-(C5-Pad2)*%
X113125000Y-107675000D03*
%TD*%
D13*
%TO.P,J8,2,Ext*%
%TO.N,GND*%
X105185818Y-89343989D03*
D14*
X105185818Y-80343989D03*
D13*
X105185818Y-71343989D03*
D14*
X105885818Y-83743989D03*
X105885818Y-76843989D03*
X110885818Y-71843989D03*
X114185818Y-71243989D03*
X117685818Y-71943989D03*
X122385818Y-76743989D03*
X122485818Y-83743989D03*
D13*
X123185818Y-89343989D03*
D14*
X123185818Y-80343989D03*
D13*
X123185818Y-71343989D03*
%TD*%
D15*
%TO.P,C6,1*%
%TO.N,Net-(C6-Pad1)*%
X168575000Y-100075000D03*
%TO.P,C6,2*%
%TO.N,GND*%
X170475000Y-100075000D03*
%TD*%
D16*
%TO.P,C4,1*%
%TO.N,Net-(C4-Pad1)*%
X106250000Y-100100000D03*
%TO.P,C4,2*%
%TO.N,GND*%
X104350000Y-100100000D03*
%TD*%
D12*
%TO.P,C3,1*%
%TO.N,Net-(C2-Pad1)*%
X118025000Y-92500000D03*
%TO.P,C3,2*%
%TO.N,GND*%
X118025000Y-90600000D03*
%TD*%
%TO.P,C2,1*%
%TO.N,Net-(C2-Pad1)*%
X156225000Y-92475000D03*
%TO.P,C2,2*%
%TO.N,GND*%
X156225000Y-90575000D03*
%TD*%
%TO.P,C1,1*%
%TO.N,GND*%
X161175000Y-109400000D03*
%TO.P,C1,2*%
%TO.N,Net-(C1-Pad2)*%
X161175000Y-107500000D03*
%TD*%
D16*
%TO.P,C14,1*%
%TO.N,/Amp\u005C*%
X137150000Y-91950000D03*
%TO.P,C14,2*%
%TO.N,GND*%
X135250000Y-91950000D03*
%TD*%
D10*
%TO.P,K2,11*%
%TO.N,Net-(C1-Pad2)*%
X160350000Y-103750000D03*
X160350000Y-96250000D03*
%TO.P,K2,12*%
%TO.N,Net-(C2-Pad1)*%
X155350000Y-103750000D03*
X155350000Y-96250000D03*
%TO.P,K2,14*%
%TO.N,Net-(C6-Pad1)*%
X165350000Y-103750000D03*
X165350000Y-96250000D03*
D11*
%TO.P,K2,A1*%
%TO.N,/Amp\u005C*%
X140350000Y-103750000D03*
D10*
%TO.P,K2,A2*%
%TO.N,/12V*%
X140350000Y-96250000D03*
%TD*%
D17*
%TO.P,H1,1,1*%
%TO.N,Net-(C6-Pad1)*%
X165328600Y-108712000D03*
%TD*%
D13*
%TO.P,J5,2,Ext*%
%TO.N,GND*%
X151159818Y-89039189D03*
D14*
X151159818Y-80039189D03*
D13*
X151159818Y-71039189D03*
D14*
X151859818Y-83439189D03*
X151859818Y-76539189D03*
X156859818Y-71539189D03*
X160159818Y-70939189D03*
X163659818Y-71639189D03*
X168359818Y-76439189D03*
X168459818Y-83439189D03*
D13*
X169159818Y-89039189D03*
D14*
X169159818Y-80039189D03*
D13*
X169159818Y-71039189D03*
%TD*%
D17*
%TO.P,H4,1,1*%
%TO.N,Net-(C1-Pad2)*%
X160300000Y-91440000D03*
%TD*%
%TO.P,H3,1,1*%
%TO.N,Net-(C4-Pad1)*%
X109067600Y-109220000D03*
%TD*%
D18*
%TO.P,D1,1,K*%
%TO.N,/12V*%
X139734000Y-89154000D03*
%TO.P,D1,2,A*%
%TO.N,/Amp\u005C*%
X137634000Y-89154000D03*
%TD*%
D17*
%TO.P,H2,1,1*%
%TO.N,Net-(C5-Pad2)*%
X114046000Y-91440000D03*
%TD*%
D19*
%TO.P,J1,1,Pin_1*%
%TO.N,/12V*%
X139920000Y-80520000D03*
D20*
%TO.P,J1,2,Pin_2*%
%TO.N,/Amp\u005C*%
X137380000Y-80520000D03*
%TD*%
D15*
%TO.P,C8,1*%
%TO.N,/12V*%
X140274000Y-91948000D03*
%TO.P,C8,2*%
%TO.N,GND*%
X142174000Y-91948000D03*
%TD*%
D13*
%TO.P,J6,2,Ext*%
%TO.N,GND*%
X174328600Y-110751139D03*
D14*
X174328600Y-119751139D03*
D13*
X174328600Y-128751139D03*
D14*
X173628600Y-116351139D03*
X173628600Y-123251139D03*
X168628600Y-128251139D03*
X165328600Y-128851139D03*
X161828600Y-128151139D03*
X157128600Y-123351139D03*
X157028600Y-116351139D03*
D13*
X156328600Y-110751139D03*
D14*
X156328600Y-119751139D03*
D13*
X156328600Y-128751139D03*
%TD*%
%TO.P,J7,2,Ext*%
%TO.N,GND*%
X118067600Y-110751139D03*
D14*
X118067600Y-119751139D03*
D13*
X118067600Y-128751139D03*
D14*
X117367600Y-116351139D03*
X117367600Y-123251139D03*
X112367600Y-128251139D03*
X109067600Y-128851139D03*
X105567600Y-128151139D03*
X100867600Y-123351139D03*
X100767600Y-116351139D03*
D13*
X100067600Y-110751139D03*
D14*
X100067600Y-119751139D03*
D13*
X100067600Y-128751139D03*
%TD*%
D21*
%TO.N,GND*%
X103000000Y-100100000D03*
X156230000Y-89190000D03*
X161180000Y-110930000D03*
X171950000Y-100075000D03*
X137100000Y-134100000D03*
X146500000Y-65928000D03*
X127800000Y-65628000D03*
X104750000Y-106380000D03*
X94300000Y-104600000D03*
X176014000Y-105200000D03*
X179800000Y-105200000D03*
X122700000Y-134186000D03*
X94500000Y-79900000D03*
X94500000Y-120000000D03*
X94400000Y-70700000D03*
X94400000Y-88600000D03*
X94400000Y-110500000D03*
X94300000Y-99600000D03*
X123100000Y-65600000D03*
X105300000Y-65700000D03*
X151100000Y-65800000D03*
X138800000Y-65500000D03*
X179900000Y-110800000D03*
X179900000Y-71000000D03*
X180000000Y-80200000D03*
X179800000Y-99900000D03*
X169100000Y-65900000D03*
X180000000Y-119700000D03*
X177900000Y-67200000D03*
X178400000Y-132600000D03*
X118025000Y-89395000D03*
X104840000Y-96830000D03*
X104810000Y-103710000D03*
X104840000Y-94544000D03*
X164440000Y-92180000D03*
%TO.N,/Amp\u005C*%
X137160000Y-94742000D03*
%TO.N,GND*%
X169710000Y-96690000D03*
X168700000Y-93670000D03*
X169700000Y-103460000D03*
X169600000Y-106359975D03*
X143500000Y-91948000D03*
%TO.N,/Amp\u005C*%
X137160000Y-103773139D03*
%TO.N,GND*%
X144200000Y-95900000D03*
X146486000Y-95900000D03*
X148772000Y-95900000D03*
X151058000Y-95900000D03*
X148732000Y-104310000D03*
X151018000Y-104310000D03*
X146446000Y-104310000D03*
X144160000Y-104310000D03*
X123474000Y-95980000D03*
X130332000Y-95980000D03*
X128046000Y-95980000D03*
X125760000Y-95980000D03*
X133660000Y-91950000D03*
X130308000Y-104240000D03*
X128022000Y-104240000D03*
X125736000Y-104240000D03*
X123450000Y-104240000D03*
X151100000Y-134100000D03*
X165000000Y-134400000D03*
X179900000Y-88900000D03*
X113125000Y-111235000D03*
X95900000Y-132700000D03*
X109100000Y-134300000D03*
X96700000Y-67500000D03*
X113800000Y-65600000D03*
X160400000Y-65800000D03*
%TD*%
D22*
%TO.N,/12V*%
X139920000Y-80660000D02*
X139920000Y-80520000D01*
%TO.N,/Amp\u005C*%
X137510000Y-80650000D02*
X137380000Y-80520000D01*
X137634000Y-89154000D02*
X137510000Y-89030000D01*
%TO.N,/12V*%
X139734000Y-89154000D02*
X139700000Y-89120000D01*
%TO.N,/Amp\u005C*%
X137510000Y-89030000D02*
X137510000Y-80650000D01*
%TO.N,/12V*%
X139700000Y-89120000D02*
X139700000Y-80880000D01*
X139700000Y-80880000D02*
X139920000Y-80660000D01*
D23*
%TO.N,Net-(C2-Pad1)*%
X119067882Y-103816139D02*
X119060000Y-103808257D01*
X119060000Y-103808257D02*
X119060000Y-100107882D01*
X119060000Y-100107882D02*
X119067882Y-100100000D01*
D22*
%TO.N,/Amp\u005C*%
X134060000Y-103750000D02*
X137136861Y-103750000D01*
X137136861Y-103750000D02*
X137160000Y-103773139D01*
%TO.N,/12V*%
X140350000Y-96250000D02*
X134060000Y-96250000D01*
%TO.N,GND*%
X118025000Y-90600000D02*
X118025000Y-89395000D01*
X113125000Y-109575000D02*
X113125000Y-111235000D01*
X104350000Y-100100000D02*
X102990000Y-100100000D01*
X170475000Y-100075000D02*
X171950000Y-100075000D01*
X156225000Y-89195000D02*
X156230000Y-89190000D01*
X156225000Y-90575000D02*
X156225000Y-89195000D01*
X161175000Y-110925000D02*
X161170000Y-110930000D01*
X161175000Y-109400000D02*
X161175000Y-110925000D01*
D23*
%TO.N,Net-(C4-Pad1)*%
X109067882Y-103816139D02*
X109067882Y-109219718D01*
X109067882Y-109219718D02*
X109067600Y-109220000D01*
%TO.N,Net-(C5-Pad2)*%
X114067882Y-96316139D02*
X114067882Y-91461882D01*
X114067882Y-91461882D02*
X114046000Y-91440000D01*
%TO.N,Net-(C2-Pad1)*%
X119067882Y-100100000D02*
X119067882Y-96316139D01*
X155331082Y-103773139D02*
X155331082Y-100150000D01*
X119067882Y-100100000D02*
X155281082Y-100100000D01*
X155281082Y-100100000D02*
X155331082Y-100150000D01*
X155331082Y-100150000D02*
X155331082Y-96273139D01*
D22*
X118025000Y-92500000D02*
X118025000Y-93275000D01*
X118025000Y-93275000D02*
X119100000Y-94350000D01*
X119100000Y-94350000D02*
X119100000Y-96284021D01*
X119100000Y-96284021D02*
X119067882Y-96316139D01*
X156225000Y-92475000D02*
X155350000Y-93350000D01*
X155350000Y-93350000D02*
X155350000Y-96254221D01*
X155350000Y-96254221D02*
X155331082Y-96273139D01*
%TO.N,Net-(C1-Pad2)*%
X161175000Y-107500000D02*
X160330000Y-106655000D01*
X160330000Y-106655000D02*
X160330000Y-103774221D01*
X160330000Y-103774221D02*
X160331082Y-103773139D01*
%TO.N,Net-(C5-Pad2)*%
X114025000Y-103859021D02*
X114067882Y-103816139D01*
X114025000Y-106775000D02*
X114025000Y-103859021D01*
X113125000Y-107675000D02*
X114025000Y-106775000D01*
D23*
%TO.N,Net-(C6-Pad1)*%
X165331082Y-96273139D02*
X165331082Y-100075000D01*
D22*
X168575000Y-100075000D02*
X165331082Y-100075000D01*
%TO.N,Net-(C1-Pad2)*%
X160331082Y-96273139D02*
X160300000Y-96242057D01*
D23*
X160300000Y-96242057D02*
X160300000Y-91466000D01*
D22*
X160300000Y-91466000D02*
X160274000Y-91440000D01*
D23*
X160331082Y-103773139D02*
X160331082Y-96273139D01*
%TO.N,Net-(C5-Pad2)*%
X114067882Y-103816139D02*
X114067882Y-96316139D01*
%TO.N,Net-(C4-Pad1)*%
X109067882Y-103816139D02*
X109067882Y-99882118D01*
D22*
X108800000Y-100100000D02*
X108825000Y-100125000D01*
X108825000Y-100125000D02*
X109067882Y-99882118D01*
X106250000Y-100100000D02*
X108800000Y-100100000D01*
D23*
X109067882Y-99882118D02*
X109067882Y-96316139D01*
D22*
%TO.N,GND*%
X135250000Y-91950000D02*
X133660000Y-91950000D01*
X143500000Y-91948000D02*
X142174000Y-91948000D01*
%TO.N,/Amp\u005C*%
X137160000Y-94742000D02*
X137160000Y-89665000D01*
X137160000Y-89665000D02*
X137634000Y-89191000D01*
X137634000Y-89191000D02*
X137634000Y-89154000D01*
D23*
%TO.N,Net-(C6-Pad1)*%
X165331082Y-103773139D02*
X165331082Y-108709518D01*
X165331082Y-108709518D02*
X165328600Y-108712000D01*
X165331082Y-100075000D02*
X165331082Y-103773139D01*
D22*
%TO.N,/12V*%
X140331082Y-96273139D02*
X140331082Y-89751082D01*
X140331082Y-89751082D02*
X139734000Y-89154000D01*
D23*
%TO.N,Net-(C4-Pad1)*%
X109067882Y-109067882D02*
X109220000Y-109220000D01*
D22*
%TO.N,/Amp\u005C*%
X140331082Y-103773139D02*
X137160000Y-103773139D01*
%TD*%
%TA.AperFunction,Conductor*%
%TO.N,GND*%
G36*
X174392046Y-64837826D02*
G01*
X174396592Y-64837912D01*
X174826173Y-64853986D01*
X174835390Y-64854676D01*
X175309179Y-64908058D01*
X175318337Y-64909439D01*
X175786815Y-64998078D01*
X175795823Y-65000134D01*
X176256371Y-65123536D01*
X176265221Y-65126266D01*
X176715259Y-65283739D01*
X176723860Y-65287114D01*
X177160883Y-65477785D01*
X177169205Y-65481793D01*
X177590762Y-65704590D01*
X177598759Y-65709208D01*
X177619304Y-65722117D01*
X178002467Y-65962873D01*
X178010128Y-65968097D01*
X178393736Y-66251211D01*
X178400963Y-66256973D01*
X178762382Y-66567998D01*
X178769151Y-66574279D01*
X179106302Y-66911428D01*
X179112596Y-66918212D01*
X179371804Y-67219417D01*
X179423587Y-67279589D01*
X179429369Y-67286839D01*
X179712486Y-67670447D01*
X179717710Y-67678109D01*
X179971373Y-68081810D01*
X179976009Y-68089841D01*
X180198780Y-68511343D01*
X180202804Y-68519697D01*
X180393470Y-68956705D01*
X180396857Y-68965337D01*
X180554319Y-69415334D01*
X180557053Y-69424195D01*
X180680456Y-69884735D01*
X180682519Y-69893776D01*
X180771155Y-70362227D01*
X180772537Y-70371396D01*
X180825919Y-70845168D01*
X180826612Y-70854415D01*
X180844495Y-71332344D01*
X180844582Y-71337013D01*
X180829600Y-128675384D01*
X180829599Y-128675916D01*
X180829557Y-128684941D01*
X180829262Y-128686047D01*
X180829262Y-128749972D01*
X180829261Y-128750192D01*
X180829250Y-128750226D01*
X180829175Y-128754265D01*
X180811304Y-129231866D01*
X180810611Y-129241113D01*
X180757358Y-129713745D01*
X180755976Y-129722914D01*
X180667553Y-130190238D01*
X180665490Y-130199278D01*
X180542389Y-130658699D01*
X180539656Y-130667561D01*
X180382566Y-131116499D01*
X180379178Y-131125131D01*
X180188977Y-131561077D01*
X180184953Y-131569431D01*
X179962718Y-131989920D01*
X179958082Y-131997951D01*
X179705030Y-132400681D01*
X179699806Y-132408343D01*
X179417372Y-132791028D01*
X179411596Y-132798270D01*
X179217661Y-133023629D01*
X179101347Y-133158789D01*
X179095039Y-133165586D01*
X178758734Y-133501891D01*
X178751937Y-133508198D01*
X178391413Y-133818454D01*
X178384163Y-133824236D01*
X178001485Y-134106665D01*
X177993823Y-134111889D01*
X177591093Y-134364941D01*
X177583062Y-134369577D01*
X177162574Y-134591811D01*
X177154220Y-134595835D01*
X176718273Y-134786037D01*
X176709641Y-134789425D01*
X176260704Y-134946515D01*
X176251843Y-134949248D01*
X175792422Y-135072350D01*
X175783381Y-135074413D01*
X175316057Y-135162836D01*
X175306888Y-135164218D01*
X174834255Y-135217471D01*
X174825007Y-135218164D01*
X174349028Y-135235973D01*
X174344421Y-135236060D01*
X100069173Y-135253211D01*
X100064503Y-135253124D01*
X99585128Y-135235168D01*
X99575872Y-135234474D01*
X99523409Y-135228556D01*
X99101458Y-135180962D01*
X99092279Y-135179577D01*
X98623197Y-135090723D01*
X98614148Y-135088655D01*
X98153039Y-134964962D01*
X98144168Y-134962222D01*
X97693598Y-134804375D01*
X97684959Y-134800981D01*
X97428483Y-134688945D01*
X97247454Y-134609867D01*
X97239107Y-134605842D01*
X96861403Y-134405966D01*
X96817128Y-134382536D01*
X96809091Y-134377890D01*
X96404992Y-134123635D01*
X96397326Y-134118400D01*
X96041930Y-133855728D01*
X96013398Y-133834640D01*
X96006162Y-133828861D01*
X95644517Y-133517157D01*
X95637733Y-133510852D01*
X95300414Y-133172959D01*
X95294112Y-133166154D01*
X94983035Y-132803993D01*
X94977268Y-132796748D01*
X94694143Y-132412314D01*
X94688922Y-132404638D01*
X94458496Y-132037025D01*
X94458496Y-132037024D01*
X94435364Y-132000121D01*
X94430731Y-131992076D01*
X94233704Y-131618220D01*
X94208144Y-131569720D01*
X94204134Y-131561367D01*
X94013763Y-131123533D01*
X94010383Y-131114887D01*
X93853302Y-130664044D01*
X93850586Y-130655196D01*
X93727669Y-130193848D01*
X93725620Y-130184810D01*
X93704015Y-130069682D01*
X93637562Y-129715565D01*
X93636194Y-129706389D01*
X93631419Y-129663403D01*
X93583490Y-129231898D01*
X93582812Y-129222642D01*
X93578186Y-129093280D01*
X93565663Y-128743064D01*
X93565585Y-128738642D01*
X93565584Y-128738553D01*
X93565694Y-128674993D01*
X93565582Y-128674572D01*
X93565582Y-128566916D01*
X96317600Y-128566916D01*
X96317600Y-128935361D01*
X96353713Y-129302031D01*
X96353716Y-129302048D01*
X96425590Y-129663392D01*
X96425593Y-129663403D01*
X96532552Y-130016000D01*
X96673549Y-130356397D01*
X96673556Y-130356411D01*
X96804023Y-130600500D01*
X96804024Y-130600500D01*
X98343320Y-129061204D01*
X98347543Y-129093280D01*
X98406917Y-129314865D01*
X98494705Y-129526805D01*
X98609406Y-129725473D01*
X98749057Y-129907470D01*
X98911269Y-130069682D01*
X99093266Y-130209333D01*
X99291934Y-130324034D01*
X99503874Y-130411822D01*
X99725459Y-130471196D01*
X99757533Y-130475418D01*
X98218236Y-132014714D01*
X98462327Y-132145183D01*
X98462332Y-132145185D01*
X98802738Y-132286186D01*
X99155335Y-132393145D01*
X99155346Y-132393148D01*
X99516690Y-132465022D01*
X99516707Y-132465025D01*
X99883377Y-132501139D01*
X100251823Y-132501139D01*
X100618492Y-132465025D01*
X100618509Y-132465022D01*
X100979853Y-132393148D01*
X100979864Y-132393145D01*
X101332461Y-132286186D01*
X101672867Y-132145185D01*
X101672872Y-132145183D01*
X101916962Y-132014714D01*
X100377666Y-130475418D01*
X100409741Y-130471196D01*
X100631326Y-130411822D01*
X100843266Y-130324034D01*
X101041934Y-130209333D01*
X101223931Y-130069682D01*
X101386143Y-129907470D01*
X101525794Y-129725473D01*
X101640495Y-129526805D01*
X101728283Y-129314865D01*
X101787657Y-129093280D01*
X101791879Y-129061205D01*
X103331175Y-130600501D01*
X103461644Y-130356411D01*
X103461646Y-130356406D01*
X103602647Y-130016000D01*
X103662442Y-129818884D01*
X108806959Y-129818884D01*
X108806959Y-129818885D01*
X108969104Y-129851138D01*
X108969107Y-129851139D01*
X109166093Y-129851139D01*
X109328239Y-129818885D01*
X109328239Y-129818884D01*
X109067601Y-129558245D01*
X109067600Y-129558245D01*
X108806959Y-129818884D01*
X103662442Y-129818884D01*
X103684016Y-129747763D01*
X103709606Y-129663403D01*
X103709609Y-129663392D01*
X103781483Y-129302048D01*
X103781486Y-129302032D01*
X103789675Y-129218884D01*
X112106959Y-129218884D01*
X112106959Y-129218885D01*
X112269104Y-129251138D01*
X112269107Y-129251139D01*
X112466093Y-129251139D01*
X112628239Y-129218885D01*
X112628239Y-129218884D01*
X112367601Y-128958245D01*
X112367600Y-128958245D01*
X112106959Y-129218884D01*
X103789675Y-129218884D01*
X103799524Y-129118884D01*
X105306959Y-129118884D01*
X105306959Y-129118885D01*
X105469104Y-129151138D01*
X105469107Y-129151139D01*
X105666093Y-129151139D01*
X105828239Y-129118885D01*
X105828239Y-129118884D01*
X105567601Y-128858245D01*
X105567600Y-128858245D01*
X105306959Y-129118884D01*
X103799524Y-129118884D01*
X103804181Y-129071604D01*
X103817600Y-128935361D01*
X103817600Y-128752643D01*
X108067600Y-128752643D01*
X108067600Y-128949634D01*
X108099852Y-129111778D01*
X108099853Y-129111778D01*
X108360493Y-128851139D01*
X108360493Y-128851138D01*
X108320998Y-128811643D01*
X108767600Y-128811643D01*
X108767600Y-128890635D01*
X108788044Y-128966935D01*
X108827540Y-129035344D01*
X108883395Y-129091199D01*
X108951804Y-129130695D01*
X109028104Y-129151139D01*
X109107096Y-129151139D01*
X109183396Y-129130695D01*
X109251805Y-129091199D01*
X109307660Y-129035344D01*
X109347156Y-128966935D01*
X109367600Y-128890635D01*
X109367600Y-128851138D01*
X109774706Y-128851138D01*
X109774706Y-128851139D01*
X110035345Y-129111778D01*
X110067600Y-128949632D01*
X110067600Y-128752645D01*
X110067599Y-128752643D01*
X110035346Y-128590498D01*
X110035345Y-128590498D01*
X109774706Y-128851138D01*
X109367600Y-128851138D01*
X109367600Y-128811643D01*
X109347156Y-128735343D01*
X109307660Y-128666934D01*
X109251805Y-128611079D01*
X109183396Y-128571583D01*
X109165978Y-128566916D01*
X114317600Y-128566916D01*
X114317600Y-128935361D01*
X114353713Y-129302031D01*
X114353716Y-129302048D01*
X114425590Y-129663392D01*
X114425593Y-129663403D01*
X114532552Y-130016000D01*
X114673549Y-130356397D01*
X114673556Y-130356411D01*
X114804023Y-130600500D01*
X114804024Y-130600500D01*
X116343320Y-129061204D01*
X116347543Y-129093280D01*
X116406917Y-129314865D01*
X116494705Y-129526805D01*
X116609406Y-129725473D01*
X116749057Y-129907470D01*
X116911269Y-130069682D01*
X117093266Y-130209333D01*
X117291934Y-130324034D01*
X117503874Y-130411822D01*
X117725459Y-130471196D01*
X117757533Y-130475418D01*
X116218236Y-132014714D01*
X116462327Y-132145183D01*
X116462332Y-132145185D01*
X116802738Y-132286186D01*
X117155335Y-132393145D01*
X117155346Y-132393148D01*
X117516690Y-132465022D01*
X117516707Y-132465025D01*
X117883377Y-132501139D01*
X118251823Y-132501139D01*
X118618492Y-132465025D01*
X118618509Y-132465022D01*
X118979853Y-132393148D01*
X118979864Y-132393145D01*
X119332461Y-132286186D01*
X119672867Y-132145185D01*
X119672872Y-132145183D01*
X119916962Y-132014714D01*
X118377666Y-130475418D01*
X118409741Y-130471196D01*
X118631326Y-130411822D01*
X118843266Y-130324034D01*
X119041934Y-130209333D01*
X119223931Y-130069682D01*
X119386143Y-129907470D01*
X119525794Y-129725473D01*
X119640495Y-129526805D01*
X119728283Y-129314865D01*
X119787657Y-129093280D01*
X119791879Y-129061205D01*
X121331175Y-130600501D01*
X121461644Y-130356411D01*
X121461646Y-130356406D01*
X121602647Y-130016000D01*
X121709606Y-129663403D01*
X121709609Y-129663392D01*
X121781483Y-129302048D01*
X121781486Y-129302031D01*
X121817600Y-128935361D01*
X121817600Y-128566916D01*
X152578600Y-128566916D01*
X152578600Y-128935361D01*
X152614713Y-129302031D01*
X152614716Y-129302048D01*
X152686590Y-129663392D01*
X152686593Y-129663403D01*
X152793552Y-130016000D01*
X152934549Y-130356397D01*
X152934556Y-130356411D01*
X153065023Y-130600500D01*
X153065024Y-130600500D01*
X154604320Y-129061204D01*
X154608543Y-129093280D01*
X154667917Y-129314865D01*
X154755705Y-129526805D01*
X154870406Y-129725473D01*
X155010057Y-129907470D01*
X155172269Y-130069682D01*
X155354266Y-130209333D01*
X155552934Y-130324034D01*
X155764874Y-130411822D01*
X155986459Y-130471196D01*
X156018533Y-130475418D01*
X154479236Y-132014714D01*
X154723327Y-132145183D01*
X154723332Y-132145185D01*
X155063738Y-132286186D01*
X155416335Y-132393145D01*
X155416346Y-132393148D01*
X155777690Y-132465022D01*
X155777707Y-132465025D01*
X156144377Y-132501139D01*
X156512823Y-132501139D01*
X156879492Y-132465025D01*
X156879509Y-132465022D01*
X157240853Y-132393148D01*
X157240864Y-132393145D01*
X157593461Y-132286186D01*
X157933867Y-132145185D01*
X157933872Y-132145183D01*
X158177962Y-132014714D01*
X156638666Y-130475418D01*
X156670741Y-130471196D01*
X156892326Y-130411822D01*
X157104266Y-130324034D01*
X157302934Y-130209333D01*
X157484931Y-130069682D01*
X157647143Y-129907470D01*
X157786794Y-129725473D01*
X157901495Y-129526805D01*
X157989283Y-129314865D01*
X158048657Y-129093280D01*
X158052879Y-129061205D01*
X159592175Y-130600501D01*
X159722644Y-130356411D01*
X159722646Y-130356406D01*
X159863647Y-130016000D01*
X159923442Y-129818884D01*
X165067959Y-129818884D01*
X165067959Y-129818885D01*
X165230104Y-129851138D01*
X165230107Y-129851139D01*
X165427093Y-129851139D01*
X165589239Y-129818885D01*
X165589239Y-129818884D01*
X165328601Y-129558245D01*
X165328600Y-129558245D01*
X165067959Y-129818884D01*
X159923442Y-129818884D01*
X159945016Y-129747763D01*
X159970606Y-129663403D01*
X159970609Y-129663392D01*
X160042483Y-129302048D01*
X160042486Y-129302032D01*
X160050675Y-129218884D01*
X168367959Y-129218884D01*
X168367959Y-129218885D01*
X168530104Y-129251138D01*
X168530107Y-129251139D01*
X168727093Y-129251139D01*
X168889239Y-129218885D01*
X168889239Y-129218884D01*
X168628601Y-128958245D01*
X168628600Y-128958245D01*
X168367959Y-129218884D01*
X160050675Y-129218884D01*
X160060524Y-129118884D01*
X161567959Y-129118884D01*
X161567959Y-129118885D01*
X161730104Y-129151138D01*
X161730107Y-129151139D01*
X161927093Y-129151139D01*
X162089239Y-129118885D01*
X162089239Y-129118884D01*
X161828601Y-128858245D01*
X161828600Y-128858245D01*
X161567959Y-129118884D01*
X160060524Y-129118884D01*
X160065181Y-129071604D01*
X160078600Y-128935361D01*
X160078600Y-128752643D01*
X164328600Y-128752643D01*
X164328600Y-128949634D01*
X164360852Y-129111778D01*
X164360853Y-129111778D01*
X164621493Y-128851139D01*
X164621493Y-128851138D01*
X164581998Y-128811643D01*
X165028600Y-128811643D01*
X165028600Y-128890635D01*
X165049044Y-128966935D01*
X165088540Y-129035344D01*
X165144395Y-129091199D01*
X165212804Y-129130695D01*
X165289104Y-129151139D01*
X165368096Y-129151139D01*
X165444396Y-129130695D01*
X165512805Y-129091199D01*
X165568660Y-129035344D01*
X165608156Y-128966935D01*
X165628600Y-128890635D01*
X165628600Y-128851138D01*
X166035706Y-128851138D01*
X166035706Y-128851139D01*
X166296345Y-129111778D01*
X166328600Y-128949632D01*
X166328600Y-128752645D01*
X166328599Y-128752643D01*
X166296346Y-128590498D01*
X166296345Y-128590498D01*
X166035706Y-128851138D01*
X165628600Y-128851138D01*
X165628600Y-128811643D01*
X165608156Y-128735343D01*
X165568660Y-128666934D01*
X165512805Y-128611079D01*
X165444396Y-128571583D01*
X165426978Y-128566916D01*
X170578600Y-128566916D01*
X170578600Y-128935361D01*
X170614713Y-129302031D01*
X170614716Y-129302048D01*
X170686590Y-129663392D01*
X170686593Y-129663403D01*
X170793552Y-130016000D01*
X170934549Y-130356397D01*
X170934556Y-130356411D01*
X171065023Y-130600500D01*
X171065024Y-130600500D01*
X172604320Y-129061204D01*
X172608543Y-129093280D01*
X172667917Y-129314865D01*
X172755705Y-129526805D01*
X172870406Y-129725473D01*
X173010057Y-129907470D01*
X173172269Y-130069682D01*
X173354266Y-130209333D01*
X173552934Y-130324034D01*
X173764874Y-130411822D01*
X173986459Y-130471196D01*
X174018533Y-130475418D01*
X172479236Y-132014714D01*
X172723327Y-132145183D01*
X172723332Y-132145185D01*
X173063738Y-132286186D01*
X173416335Y-132393145D01*
X173416346Y-132393148D01*
X173777690Y-132465022D01*
X173777707Y-132465025D01*
X174144377Y-132501139D01*
X174512823Y-132501139D01*
X174879492Y-132465025D01*
X174879509Y-132465022D01*
X175240853Y-132393148D01*
X175240864Y-132393145D01*
X175593461Y-132286186D01*
X175933867Y-132145185D01*
X175933872Y-132145183D01*
X176177962Y-132014714D01*
X174638666Y-130475418D01*
X174670741Y-130471196D01*
X174892326Y-130411822D01*
X175104266Y-130324034D01*
X175302934Y-130209333D01*
X175484931Y-130069682D01*
X175647143Y-129907470D01*
X175786794Y-129725473D01*
X175901495Y-129526805D01*
X175989283Y-129314865D01*
X176048657Y-129093280D01*
X176052879Y-129061205D01*
X177592175Y-130600501D01*
X177722644Y-130356411D01*
X177722646Y-130356406D01*
X177863647Y-130016000D01*
X177970606Y-129663403D01*
X177970609Y-129663392D01*
X178042483Y-129302048D01*
X178042486Y-129302031D01*
X178078600Y-128935361D01*
X178078600Y-128566916D01*
X178042486Y-128200246D01*
X178042483Y-128200229D01*
X177970609Y-127838885D01*
X177970606Y-127838874D01*
X177863647Y-127486277D01*
X177722646Y-127145871D01*
X177722644Y-127145866D01*
X177592175Y-126901775D01*
X176052879Y-128441071D01*
X176048657Y-128408998D01*
X175989283Y-128187413D01*
X175901495Y-127975473D01*
X175786794Y-127776805D01*
X175647143Y-127594808D01*
X175484931Y-127432596D01*
X175302934Y-127292945D01*
X175104266Y-127178244D01*
X174892326Y-127090456D01*
X174670741Y-127031082D01*
X174638664Y-127026859D01*
X176177961Y-125487563D01*
X176177961Y-125487562D01*
X175933872Y-125357095D01*
X175933858Y-125357088D01*
X175593461Y-125216091D01*
X175240864Y-125109132D01*
X175240853Y-125109129D01*
X174879509Y-125037255D01*
X174879492Y-125037252D01*
X174512823Y-125001139D01*
X174144377Y-125001139D01*
X173777707Y-125037252D01*
X173777690Y-125037255D01*
X173416346Y-125109129D01*
X173416335Y-125109132D01*
X173063738Y-125216091D01*
X172723342Y-125357088D01*
X172479237Y-125487563D01*
X174018533Y-127026859D01*
X173986459Y-127031082D01*
X173764874Y-127090456D01*
X173552934Y-127178244D01*
X173354266Y-127292945D01*
X173172269Y-127432596D01*
X173010057Y-127594808D01*
X172870406Y-127776805D01*
X172755705Y-127975473D01*
X172667917Y-128187413D01*
X172608543Y-128408998D01*
X172604320Y-128441072D01*
X171065024Y-126901776D01*
X170934549Y-127145881D01*
X170793552Y-127486277D01*
X170686593Y-127838874D01*
X170686590Y-127838885D01*
X170614716Y-128200229D01*
X170614713Y-128200246D01*
X170578600Y-128566916D01*
X165426978Y-128566916D01*
X165368096Y-128551139D01*
X165289104Y-128551139D01*
X165212804Y-128571583D01*
X165144395Y-128611079D01*
X165088540Y-128666934D01*
X165049044Y-128735343D01*
X165028600Y-128811643D01*
X164581998Y-128811643D01*
X164360853Y-128590498D01*
X164360852Y-128590498D01*
X164328600Y-128752643D01*
X160078600Y-128752643D01*
X160078600Y-128566916D01*
X160042486Y-128200247D01*
X160016728Y-128070747D01*
X160016728Y-128070743D01*
X160013128Y-128052643D01*
X160828600Y-128052643D01*
X160828600Y-128249634D01*
X160860852Y-128411778D01*
X160860853Y-128411778D01*
X161121493Y-128151139D01*
X161121493Y-128151138D01*
X161081998Y-128111643D01*
X161528600Y-128111643D01*
X161528600Y-128190635D01*
X161549044Y-128266935D01*
X161588540Y-128335344D01*
X161644395Y-128391199D01*
X161712804Y-128430695D01*
X161789104Y-128451139D01*
X161868096Y-128451139D01*
X161944396Y-128430695D01*
X162012805Y-128391199D01*
X162068660Y-128335344D01*
X162108156Y-128266935D01*
X162128600Y-128190635D01*
X162128600Y-128111643D01*
X162108156Y-128035343D01*
X162068660Y-127966934D01*
X162012805Y-127911079D01*
X161944396Y-127871583D01*
X161868096Y-127851139D01*
X161789104Y-127851139D01*
X161712804Y-127871583D01*
X161644395Y-127911079D01*
X161588540Y-127966934D01*
X161549044Y-128035343D01*
X161528600Y-128111643D01*
X161081998Y-128111643D01*
X160860853Y-127890498D01*
X160860852Y-127890498D01*
X160828600Y-128052643D01*
X160013128Y-128052643D01*
X159970609Y-127838885D01*
X159970606Y-127838874D01*
X159863647Y-127486277D01*
X159722646Y-127145871D01*
X159722644Y-127145866D01*
X159592175Y-126901775D01*
X158052879Y-128441071D01*
X158048657Y-128408998D01*
X157989283Y-128187413D01*
X157901495Y-127975473D01*
X157786794Y-127776805D01*
X157647143Y-127594808D01*
X157484931Y-127432596D01*
X157302934Y-127292945D01*
X157104266Y-127178244D01*
X156892326Y-127090456D01*
X156670741Y-127031082D01*
X156638664Y-127026859D01*
X158177961Y-125487563D01*
X158177961Y-125487562D01*
X157933872Y-125357095D01*
X157933858Y-125357088D01*
X157593461Y-125216091D01*
X157240864Y-125109132D01*
X157240853Y-125109129D01*
X156879509Y-125037255D01*
X156879492Y-125037252D01*
X156512823Y-125001139D01*
X156144377Y-125001139D01*
X155777707Y-125037252D01*
X155777690Y-125037255D01*
X155416346Y-125109129D01*
X155416335Y-125109132D01*
X155063738Y-125216091D01*
X154723342Y-125357088D01*
X154479237Y-125487563D01*
X156018533Y-127026859D01*
X155986459Y-127031082D01*
X155764874Y-127090456D01*
X155552934Y-127178244D01*
X155354266Y-127292945D01*
X155172269Y-127432596D01*
X155010057Y-127594808D01*
X154870406Y-127776805D01*
X154755705Y-127975473D01*
X154667917Y-128187413D01*
X154608543Y-128408998D01*
X154604320Y-128441072D01*
X153065024Y-126901776D01*
X152934549Y-127145881D01*
X152793552Y-127486277D01*
X152686593Y-127838874D01*
X152686590Y-127838885D01*
X152614716Y-128200229D01*
X152614713Y-128200246D01*
X152578600Y-128566916D01*
X121817600Y-128566916D01*
X121781486Y-128200246D01*
X121781483Y-128200229D01*
X121709609Y-127838885D01*
X121709606Y-127838874D01*
X121602647Y-127486277D01*
X121461646Y-127145871D01*
X121461644Y-127145866D01*
X121331175Y-126901775D01*
X119791879Y-128441071D01*
X119787657Y-128408998D01*
X119728283Y-128187413D01*
X119640495Y-127975473D01*
X119525794Y-127776805D01*
X119386143Y-127594808D01*
X119223931Y-127432596D01*
X119041934Y-127292945D01*
X118843266Y-127178244D01*
X118631326Y-127090456D01*
X118409741Y-127031082D01*
X118377664Y-127026859D01*
X119916961Y-125487563D01*
X119916961Y-125487562D01*
X119672872Y-125357095D01*
X119672858Y-125357088D01*
X119332461Y-125216091D01*
X118979864Y-125109132D01*
X118979853Y-125109129D01*
X118618509Y-125037255D01*
X118618492Y-125037252D01*
X118251823Y-125001139D01*
X117883377Y-125001139D01*
X117516707Y-125037252D01*
X117516690Y-125037255D01*
X117155346Y-125109129D01*
X117155335Y-125109132D01*
X116802738Y-125216091D01*
X116462342Y-125357088D01*
X116218237Y-125487563D01*
X117757533Y-127026859D01*
X117725459Y-127031082D01*
X117503874Y-127090456D01*
X117291934Y-127178244D01*
X117093266Y-127292945D01*
X116911269Y-127432596D01*
X116749057Y-127594808D01*
X116609406Y-127776805D01*
X116494705Y-127975473D01*
X116406917Y-128187413D01*
X116347543Y-128408998D01*
X116343320Y-128441072D01*
X114804024Y-126901776D01*
X114673549Y-127145881D01*
X114532552Y-127486277D01*
X114425593Y-127838874D01*
X114425590Y-127838885D01*
X114353716Y-128200229D01*
X114353713Y-128200246D01*
X114317600Y-128566916D01*
X109165978Y-128566916D01*
X109107096Y-128551139D01*
X109028104Y-128551139D01*
X108951804Y-128571583D01*
X108883395Y-128611079D01*
X108827540Y-128666934D01*
X108788044Y-128735343D01*
X108767600Y-128811643D01*
X108320998Y-128811643D01*
X108099853Y-128590498D01*
X108099852Y-128590498D01*
X108067600Y-128752643D01*
X103817600Y-128752643D01*
X103817600Y-128566916D01*
X103781486Y-128200247D01*
X103755728Y-128070747D01*
X103755728Y-128070743D01*
X103752128Y-128052643D01*
X104567600Y-128052643D01*
X104567600Y-128249634D01*
X104599852Y-128411778D01*
X104599853Y-128411778D01*
X104860493Y-128151139D01*
X104860493Y-128151138D01*
X104820998Y-128111643D01*
X105267600Y-128111643D01*
X105267600Y-128190635D01*
X105288044Y-128266935D01*
X105327540Y-128335344D01*
X105383395Y-128391199D01*
X105451804Y-128430695D01*
X105528104Y-128451139D01*
X105607096Y-128451139D01*
X105683396Y-128430695D01*
X105751805Y-128391199D01*
X105807660Y-128335344D01*
X105847156Y-128266935D01*
X105867600Y-128190635D01*
X105867600Y-128111643D01*
X105847156Y-128035343D01*
X105807660Y-127966934D01*
X105751805Y-127911079D01*
X105683396Y-127871583D01*
X105607096Y-127851139D01*
X105528104Y-127851139D01*
X105451804Y-127871583D01*
X105383395Y-127911079D01*
X105327540Y-127966934D01*
X105288044Y-128035343D01*
X105267600Y-128111643D01*
X104820998Y-128111643D01*
X104599853Y-127890498D01*
X104599852Y-127890498D01*
X104567600Y-128052643D01*
X103752128Y-128052643D01*
X103709609Y-127838885D01*
X103709606Y-127838874D01*
X103602647Y-127486277D01*
X103461646Y-127145871D01*
X103461644Y-127145866D01*
X103331175Y-126901775D01*
X101791879Y-128441071D01*
X101787657Y-128408998D01*
X101728283Y-128187413D01*
X101640495Y-127975473D01*
X101525794Y-127776805D01*
X101386143Y-127594808D01*
X101223931Y-127432596D01*
X101041934Y-127292945D01*
X100843266Y-127178244D01*
X100631326Y-127090456D01*
X100409741Y-127031082D01*
X100377664Y-127026859D01*
X101916961Y-125487563D01*
X101916961Y-125487562D01*
X101672872Y-125357095D01*
X101672858Y-125357088D01*
X101332461Y-125216091D01*
X100979864Y-125109132D01*
X100979853Y-125109129D01*
X100618509Y-125037255D01*
X100618492Y-125037252D01*
X100251823Y-125001139D01*
X99883377Y-125001139D01*
X99516707Y-125037252D01*
X99516690Y-125037255D01*
X99155346Y-125109129D01*
X99155335Y-125109132D01*
X98802738Y-125216091D01*
X98462342Y-125357088D01*
X98218237Y-125487563D01*
X99757533Y-127026859D01*
X99725459Y-127031082D01*
X99503874Y-127090456D01*
X99291934Y-127178244D01*
X99093266Y-127292945D01*
X98911269Y-127432596D01*
X98749057Y-127594808D01*
X98609406Y-127776805D01*
X98494705Y-127975473D01*
X98406917Y-128187413D01*
X98347543Y-128408998D01*
X98343320Y-128441072D01*
X96804024Y-126901776D01*
X96673549Y-127145881D01*
X96532552Y-127486277D01*
X96425593Y-127838874D01*
X96425590Y-127838885D01*
X96353716Y-128200229D01*
X96353713Y-128200246D01*
X96317600Y-128566916D01*
X93565582Y-128566916D01*
X93565582Y-124318884D01*
X100606959Y-124318884D01*
X100606959Y-124318885D01*
X100769104Y-124351138D01*
X100769107Y-124351139D01*
X100966093Y-124351139D01*
X101128239Y-124318885D01*
X101128239Y-124318884D01*
X100867601Y-124058245D01*
X100867600Y-124058245D01*
X100606959Y-124318884D01*
X93565582Y-124318884D01*
X93565582Y-123252643D01*
X99867600Y-123252643D01*
X99867600Y-123449634D01*
X99899852Y-123611778D01*
X99899853Y-123611778D01*
X100160493Y-123351139D01*
X100160493Y-123351138D01*
X100120998Y-123311643D01*
X100567600Y-123311643D01*
X100567600Y-123390635D01*
X100588044Y-123466935D01*
X100627540Y-123535344D01*
X100683395Y-123591199D01*
X100751804Y-123630695D01*
X100828104Y-123651139D01*
X100907096Y-123651139D01*
X100983396Y-123630695D01*
X101051805Y-123591199D01*
X101107660Y-123535344D01*
X101147156Y-123466935D01*
X101167600Y-123390635D01*
X101167600Y-123311643D01*
X101147156Y-123235343D01*
X101107660Y-123166934D01*
X101051805Y-123111079D01*
X100983396Y-123071583D01*
X100907096Y-123051139D01*
X100828104Y-123051139D01*
X100751804Y-123071583D01*
X100683395Y-123111079D01*
X100627540Y-123166934D01*
X100588044Y-123235343D01*
X100567600Y-123311643D01*
X100120998Y-123311643D01*
X99899853Y-123090498D01*
X99899852Y-123090498D01*
X99867600Y-123252643D01*
X93565582Y-123252643D01*
X93565582Y-120718884D01*
X99806959Y-120718884D01*
X99806959Y-120718885D01*
X99969104Y-120751138D01*
X99969107Y-120751139D01*
X100166093Y-120751139D01*
X100328239Y-120718885D01*
X100328239Y-120718884D01*
X100067601Y-120458245D01*
X100067600Y-120458245D01*
X99806959Y-120718884D01*
X93565582Y-120718884D01*
X93565582Y-119652643D01*
X99067600Y-119652643D01*
X99067600Y-119849634D01*
X99099852Y-120011778D01*
X99099853Y-120011778D01*
X99360493Y-119751139D01*
X99360493Y-119751138D01*
X99320998Y-119711643D01*
X99767600Y-119711643D01*
X99767600Y-119790635D01*
X99788044Y-119866935D01*
X99827540Y-119935344D01*
X99883395Y-119991199D01*
X99951804Y-120030695D01*
X100028104Y-120051139D01*
X100107096Y-120051139D01*
X100183396Y-120030695D01*
X100251805Y-119991199D01*
X100307660Y-119935344D01*
X100347156Y-119866935D01*
X100367600Y-119790635D01*
X100367600Y-119711643D01*
X100347156Y-119635343D01*
X100307660Y-119566934D01*
X100251805Y-119511079D01*
X100183396Y-119471583D01*
X100107096Y-119451139D01*
X100028104Y-119451139D01*
X99951804Y-119471583D01*
X99883395Y-119511079D01*
X99827540Y-119566934D01*
X99788044Y-119635343D01*
X99767600Y-119711643D01*
X99320998Y-119711643D01*
X99099853Y-119490498D01*
X99099852Y-119490498D01*
X99067600Y-119652643D01*
X93565582Y-119652643D01*
X93565582Y-118783391D01*
X99806959Y-118783391D01*
X99806959Y-118783392D01*
X100067600Y-119044032D01*
X100067601Y-119044032D01*
X100328239Y-118783392D01*
X100328239Y-118783391D01*
X100166095Y-118751139D01*
X99969104Y-118751139D01*
X99806959Y-118783391D01*
X93565582Y-118783391D01*
X93565582Y-117318884D01*
X100506959Y-117318884D01*
X100506959Y-117318885D01*
X100669104Y-117351138D01*
X100669107Y-117351139D01*
X100866092Y-117351139D01*
X100866095Y-117351138D01*
X101059281Y-117312711D01*
X101059289Y-117312709D01*
X101136799Y-117280604D01*
X101206268Y-117273135D01*
X101268748Y-117304410D01*
X101304400Y-117364499D01*
X101304027Y-117427258D01*
X101174484Y-117910719D01*
X101174478Y-117910745D01*
X101071016Y-118430887D01*
X101071014Y-118430898D01*
X101001788Y-118956718D01*
X100987182Y-119179559D01*
X100967100Y-119485956D01*
X100967100Y-119485967D01*
X100967100Y-119507383D01*
X100947415Y-119574422D01*
X100930781Y-119595064D01*
X100774706Y-119751138D01*
X100930781Y-119907212D01*
X100964266Y-119968535D01*
X100967100Y-119994894D01*
X100967100Y-120016322D01*
X100989008Y-120350572D01*
X101001788Y-120545559D01*
X101071014Y-121071379D01*
X101071016Y-121071390D01*
X101174478Y-121591532D01*
X101174482Y-121591550D01*
X101311753Y-122103851D01*
X101311755Y-122103859D01*
X101361584Y-122250649D01*
X101364494Y-122320459D01*
X101329199Y-122380759D01*
X101266907Y-122412405D01*
X101197395Y-122405349D01*
X101196713Y-122405069D01*
X101159293Y-122389569D01*
X101159281Y-122389566D01*
X100966095Y-122351139D01*
X100769104Y-122351139D01*
X100606959Y-122383391D01*
X100606959Y-122383392D01*
X101836122Y-123612555D01*
X101902552Y-123611962D01*
X101961665Y-123649210D01*
X101976068Y-123669246D01*
X102184947Y-124031035D01*
X102184963Y-124031060D01*
X102398833Y-124351139D01*
X102479608Y-124472027D01*
X102802475Y-124892794D01*
X103152169Y-125291545D01*
X103527194Y-125666570D01*
X103925945Y-126016264D01*
X104346712Y-126339131D01*
X104346718Y-126339135D01*
X104787678Y-126633775D01*
X104787703Y-126633791D01*
X105247004Y-126898969D01*
X105347597Y-126948576D01*
X105399016Y-126995881D01*
X105416698Y-127063476D01*
X105395028Y-127129901D01*
X105340887Y-127174065D01*
X105316944Y-127181405D01*
X105306959Y-127183391D01*
X105306959Y-127183392D01*
X106535345Y-128411778D01*
X106535346Y-128411778D01*
X106567600Y-128249632D01*
X106567600Y-128052647D01*
X106567599Y-128052643D01*
X106529172Y-127859457D01*
X106529169Y-127859445D01*
X106453792Y-127677467D01*
X106453785Y-127677454D01*
X106432818Y-127646075D01*
X106411940Y-127579398D01*
X106430424Y-127512018D01*
X106482403Y-127465327D01*
X106551373Y-127454151D01*
X106575779Y-127459765D01*
X106714879Y-127506983D01*
X106714883Y-127506984D01*
X106714889Y-127506986D01*
X107227183Y-127644255D01*
X107227187Y-127644255D01*
X107227188Y-127644256D01*
X107227206Y-127644260D01*
X107734364Y-127745139D01*
X107747358Y-127747724D01*
X108273187Y-127816951D01*
X108726730Y-127846678D01*
X108792335Y-127870704D01*
X108806298Y-127882731D01*
X109067599Y-128144031D01*
X109328899Y-127882731D01*
X109390222Y-127849246D01*
X109408456Y-127846679D01*
X109862013Y-127816951D01*
X110387842Y-127747724D01*
X110741114Y-127677454D01*
X110907993Y-127644260D01*
X110908002Y-127644257D01*
X110908017Y-127644255D01*
X111396642Y-127513328D01*
X111466489Y-127514991D01*
X111524352Y-127554153D01*
X111551856Y-127618382D01*
X111540270Y-127687284D01*
X111531836Y-127701993D01*
X111481413Y-127777456D01*
X111481407Y-127777467D01*
X111406030Y-127959445D01*
X111406027Y-127959457D01*
X111367600Y-128152643D01*
X111367600Y-128349634D01*
X111399852Y-128511778D01*
X111399853Y-128511778D01*
X111699990Y-128211643D01*
X112067600Y-128211643D01*
X112067600Y-128290635D01*
X112088044Y-128366935D01*
X112127540Y-128435344D01*
X112183395Y-128491199D01*
X112251804Y-128530695D01*
X112328104Y-128551139D01*
X112407096Y-128551139D01*
X112483396Y-128530695D01*
X112551805Y-128491199D01*
X112607660Y-128435344D01*
X112647156Y-128366935D01*
X112667600Y-128290635D01*
X112667600Y-128251138D01*
X113074706Y-128251138D01*
X113074706Y-128251139D01*
X113335345Y-128511778D01*
X113335346Y-128511778D01*
X113367600Y-128349632D01*
X113367600Y-128152645D01*
X113367599Y-128152643D01*
X113335346Y-127990498D01*
X113335345Y-127990498D01*
X113074706Y-128251138D01*
X112667600Y-128251138D01*
X112667600Y-128211643D01*
X112647156Y-128135343D01*
X112607660Y-128066934D01*
X112551805Y-128011079D01*
X112483396Y-127971583D01*
X112407096Y-127951139D01*
X112328104Y-127951139D01*
X112251804Y-127971583D01*
X112183395Y-128011079D01*
X112127540Y-128066934D01*
X112088044Y-128135343D01*
X112067600Y-128211643D01*
X111699990Y-128211643D01*
X111799537Y-128112096D01*
X112014047Y-127897586D01*
X112628239Y-127283392D01*
X112628239Y-127283391D01*
X112616274Y-127281011D01*
X112554363Y-127248626D01*
X112519789Y-127187910D01*
X112523528Y-127118141D01*
X112564395Y-127061469D01*
X112585621Y-127048182D01*
X112888195Y-126898969D01*
X113347496Y-126633791D01*
X113347505Y-126633786D01*
X113788488Y-126339131D01*
X114209255Y-126016264D01*
X114608006Y-125666570D01*
X114983031Y-125291545D01*
X115332725Y-124892794D01*
X115655592Y-124472027D01*
X115757918Y-124318884D01*
X156867959Y-124318884D01*
X156867959Y-124318885D01*
X157030104Y-124351138D01*
X157030107Y-124351139D01*
X157227093Y-124351139D01*
X157389239Y-124318885D01*
X157389239Y-124318884D01*
X157128601Y-124058245D01*
X157128600Y-124058245D01*
X156867959Y-124318884D01*
X115757918Y-124318884D01*
X115776630Y-124290880D01*
X115824737Y-124218884D01*
X117106959Y-124218884D01*
X117106959Y-124218885D01*
X117269104Y-124251138D01*
X117269107Y-124251139D01*
X117466093Y-124251139D01*
X117628239Y-124218885D01*
X117628239Y-124218884D01*
X117367601Y-123958245D01*
X117367600Y-123958245D01*
X117106959Y-124218884D01*
X115824737Y-124218884D01*
X115894239Y-124114867D01*
X115950236Y-124031060D01*
X115950247Y-124031044D01*
X116215430Y-123571734D01*
X116218612Y-123565280D01*
X116265914Y-123513858D01*
X116333508Y-123496172D01*
X116365823Y-123501456D01*
X116399853Y-123511778D01*
X116699990Y-123211643D01*
X117067600Y-123211643D01*
X117067600Y-123290635D01*
X117088044Y-123366935D01*
X117127540Y-123435344D01*
X117183395Y-123491199D01*
X117251804Y-123530695D01*
X117328104Y-123551139D01*
X117407096Y-123551139D01*
X117483396Y-123530695D01*
X117551805Y-123491199D01*
X117607660Y-123435344D01*
X117647156Y-123366935D01*
X117667600Y-123290635D01*
X117667600Y-123251138D01*
X118074706Y-123251138D01*
X118074706Y-123251139D01*
X118335345Y-123511778D01*
X118335346Y-123511778D01*
X118367600Y-123349632D01*
X118367600Y-123252643D01*
X156128600Y-123252643D01*
X156128600Y-123449634D01*
X156160852Y-123611778D01*
X156160853Y-123611778D01*
X156421493Y-123351139D01*
X156421493Y-123351138D01*
X156381998Y-123311643D01*
X156828600Y-123311643D01*
X156828600Y-123390635D01*
X156849044Y-123466935D01*
X156888540Y-123535344D01*
X156944395Y-123591199D01*
X157012804Y-123630695D01*
X157089104Y-123651139D01*
X157168096Y-123651139D01*
X157244396Y-123630695D01*
X157312805Y-123591199D01*
X157368660Y-123535344D01*
X157408156Y-123466935D01*
X157428600Y-123390635D01*
X157428600Y-123311643D01*
X157408156Y-123235343D01*
X157368660Y-123166934D01*
X157312805Y-123111079D01*
X157244396Y-123071583D01*
X157168096Y-123051139D01*
X157089104Y-123051139D01*
X157012804Y-123071583D01*
X156944395Y-123111079D01*
X156888540Y-123166934D01*
X156849044Y-123235343D01*
X156828600Y-123311643D01*
X156381998Y-123311643D01*
X156160853Y-123090498D01*
X156160852Y-123090498D01*
X156128600Y-123252643D01*
X118367600Y-123252643D01*
X118367600Y-123152645D01*
X118367599Y-123152643D01*
X118335346Y-122990498D01*
X118335345Y-122990498D01*
X118074706Y-123251138D01*
X117667600Y-123251138D01*
X117667600Y-123211643D01*
X117647156Y-123135343D01*
X117607660Y-123066934D01*
X117551805Y-123011079D01*
X117483396Y-122971583D01*
X117407096Y-122951139D01*
X117328104Y-122951139D01*
X117251804Y-122971583D01*
X117183395Y-123011079D01*
X117127540Y-123066934D01*
X117088044Y-123135343D01*
X117067600Y-123211643D01*
X116699990Y-123211643D01*
X116799537Y-123112096D01*
X117014047Y-122897586D01*
X117628239Y-122283392D01*
X117628239Y-122283391D01*
X117466095Y-122251139D01*
X117269104Y-122251139D01*
X117075918Y-122289566D01*
X117075906Y-122289569D01*
X116961625Y-122336906D01*
X116892156Y-122344375D01*
X116829677Y-122313100D01*
X116794025Y-122253011D01*
X116796519Y-122183185D01*
X116796754Y-122182486D01*
X116823444Y-122103858D01*
X116823447Y-122103850D01*
X116960716Y-121591556D01*
X117064185Y-121071381D01*
X117106346Y-120751138D01*
X117110592Y-120718884D01*
X117806959Y-120718884D01*
X117806959Y-120718885D01*
X117969104Y-120751138D01*
X117969107Y-120751139D01*
X118166093Y-120751139D01*
X118328239Y-120718885D01*
X118328239Y-120718884D01*
X156067959Y-120718884D01*
X156067959Y-120718885D01*
X156230104Y-120751138D01*
X156230107Y-120751139D01*
X156427093Y-120751139D01*
X156589239Y-120718885D01*
X156589239Y-120718884D01*
X156328601Y-120458245D01*
X156328600Y-120458245D01*
X156067959Y-120718884D01*
X118328239Y-120718884D01*
X118067601Y-120458245D01*
X118067600Y-120458245D01*
X117806959Y-120718884D01*
X117110592Y-120718884D01*
X117117348Y-120667573D01*
X117133411Y-120545559D01*
X117133412Y-120545552D01*
X117168100Y-120016322D01*
X117168100Y-119994894D01*
X117187785Y-119927855D01*
X117204419Y-119907213D01*
X117360493Y-119751139D01*
X117360493Y-119751138D01*
X117320998Y-119711643D01*
X117767600Y-119711643D01*
X117767600Y-119790635D01*
X117788044Y-119866935D01*
X117827540Y-119935344D01*
X117883395Y-119991199D01*
X117951804Y-120030695D01*
X118028104Y-120051139D01*
X118107096Y-120051139D01*
X118183396Y-120030695D01*
X118251805Y-119991199D01*
X118307660Y-119935344D01*
X118347156Y-119866935D01*
X118367600Y-119790635D01*
X118367600Y-119751138D01*
X118774706Y-119751138D01*
X118774706Y-119751139D01*
X119035345Y-120011778D01*
X119035346Y-120011778D01*
X119067600Y-119849632D01*
X119067600Y-119652645D01*
X119067599Y-119652643D01*
X155328600Y-119652643D01*
X155328600Y-119849634D01*
X155360852Y-120011778D01*
X155360853Y-120011778D01*
X155621493Y-119751139D01*
X155621493Y-119751138D01*
X155581998Y-119711643D01*
X156028600Y-119711643D01*
X156028600Y-119790635D01*
X156049044Y-119866935D01*
X156088540Y-119935344D01*
X156144395Y-119991199D01*
X156212804Y-120030695D01*
X156289104Y-120051139D01*
X156368096Y-120051139D01*
X156444396Y-120030695D01*
X156512805Y-119991199D01*
X156568660Y-119935344D01*
X156608156Y-119866935D01*
X156628600Y-119790635D01*
X156628600Y-119711643D01*
X156608156Y-119635343D01*
X156568660Y-119566934D01*
X156512805Y-119511079D01*
X156444396Y-119471583D01*
X156368096Y-119451139D01*
X156289104Y-119451139D01*
X156212804Y-119471583D01*
X156144395Y-119511079D01*
X156088540Y-119566934D01*
X156049044Y-119635343D01*
X156028600Y-119711643D01*
X155581998Y-119711643D01*
X155360853Y-119490498D01*
X155360852Y-119490498D01*
X155328600Y-119652643D01*
X119067599Y-119652643D01*
X119035346Y-119490498D01*
X119035345Y-119490498D01*
X118774706Y-119751138D01*
X118367600Y-119751138D01*
X118367600Y-119711643D01*
X118347156Y-119635343D01*
X118307660Y-119566934D01*
X118251805Y-119511079D01*
X118183396Y-119471583D01*
X118107096Y-119451139D01*
X118028104Y-119451139D01*
X117951804Y-119471583D01*
X117883395Y-119511079D01*
X117827540Y-119566934D01*
X117788044Y-119635343D01*
X117767600Y-119711643D01*
X117320998Y-119711643D01*
X117204419Y-119595064D01*
X117170934Y-119533741D01*
X117168100Y-119507383D01*
X117168100Y-119485967D01*
X117168100Y-119485956D01*
X117133412Y-118956726D01*
X117133411Y-118956718D01*
X117117348Y-118834704D01*
X117110592Y-118783391D01*
X117806959Y-118783391D01*
X117806959Y-118783392D01*
X118067600Y-119044032D01*
X118067601Y-119044032D01*
X118328239Y-118783392D01*
X118328239Y-118783391D01*
X156067959Y-118783391D01*
X156067959Y-118783392D01*
X156328600Y-119044032D01*
X156328601Y-119044032D01*
X156589239Y-118783392D01*
X156589239Y-118783391D01*
X156427095Y-118751139D01*
X156230104Y-118751139D01*
X156067959Y-118783391D01*
X118328239Y-118783391D01*
X118166095Y-118751139D01*
X117969104Y-118751139D01*
X117806959Y-118783391D01*
X117110592Y-118783391D01*
X117064185Y-118430898D01*
X117064185Y-118430897D01*
X116960716Y-117910722D01*
X116823447Y-117398428D01*
X116807394Y-117351138D01*
X116760786Y-117213835D01*
X116652967Y-116896209D01*
X116450005Y-116406215D01*
X116450003Y-116406211D01*
X116398316Y-116301400D01*
X116374272Y-116252643D01*
X156028600Y-116252643D01*
X156028600Y-116449634D01*
X156060852Y-116611778D01*
X156060853Y-116611778D01*
X156321493Y-116351139D01*
X156321493Y-116351138D01*
X156281998Y-116311643D01*
X156728600Y-116311643D01*
X156728600Y-116390635D01*
X156749044Y-116466935D01*
X156788540Y-116535344D01*
X156844395Y-116591199D01*
X156912804Y-116630695D01*
X156989104Y-116651139D01*
X157068096Y-116651139D01*
X157144396Y-116630695D01*
X157212805Y-116591199D01*
X157268660Y-116535344D01*
X157308156Y-116466935D01*
X157328600Y-116390635D01*
X157328600Y-116311643D01*
X157308156Y-116235343D01*
X157268660Y-116166934D01*
X157212805Y-116111079D01*
X157144396Y-116071583D01*
X157068096Y-116051139D01*
X156989104Y-116051139D01*
X156912804Y-116071583D01*
X156844395Y-116111079D01*
X156788540Y-116166934D01*
X156749044Y-116235343D01*
X156728600Y-116311643D01*
X156281998Y-116311643D01*
X156060853Y-116090498D01*
X156060852Y-116090498D01*
X156028600Y-116252643D01*
X116374272Y-116252643D01*
X116215430Y-115930543D01*
X115955608Y-115480519D01*
X115955607Y-115480518D01*
X115950246Y-115471232D01*
X115950236Y-115471217D01*
X115891553Y-115383391D01*
X156767959Y-115383391D01*
X156767959Y-115383392D01*
X157028600Y-115644032D01*
X157028601Y-115644032D01*
X157289239Y-115383392D01*
X157289239Y-115383391D01*
X157127095Y-115351139D01*
X156930104Y-115351139D01*
X156767959Y-115383391D01*
X115891553Y-115383391D01*
X115655596Y-115030257D01*
X115655592Y-115030251D01*
X115332725Y-114609484D01*
X114983031Y-114210733D01*
X114608006Y-113835708D01*
X114209255Y-113486014D01*
X113788488Y-113163147D01*
X113788481Y-113163142D01*
X113347521Y-112868502D01*
X113347496Y-112868486D01*
X112888195Y-112603308D01*
X112412527Y-112368735D01*
X111922538Y-112165775D01*
X111922527Y-112165771D01*
X111586221Y-112051610D01*
X111529067Y-112011421D01*
X111502714Y-111946712D01*
X111515528Y-111878028D01*
X111547417Y-111838337D01*
X111573628Y-111816826D01*
X111816822Y-111573632D01*
X111816827Y-111573627D01*
X112035019Y-111307760D01*
X112226100Y-111021787D01*
X112388231Y-110718462D01*
X112418513Y-110645353D01*
X112462353Y-110590950D01*
X112528647Y-110568885D01*
X112545677Y-110569448D01*
X112600019Y-110574999D01*
X112625000Y-110574998D01*
X112625000Y-110299499D01*
X112627550Y-110290813D01*
X112626262Y-110281852D01*
X112637240Y-110257811D01*
X112644685Y-110232460D01*
X112651525Y-110226532D01*
X112655287Y-110218296D01*
X112677521Y-110204006D01*
X112697489Y-110186705D01*
X112708003Y-110184417D01*
X112714065Y-110180522D01*
X112749000Y-110175499D01*
X112976963Y-110175499D01*
X112976979Y-110175500D01*
X112984575Y-110175500D01*
X113271539Y-110175500D01*
X113271559Y-110175499D01*
X113501000Y-110175499D01*
X113568039Y-110195184D01*
X113613794Y-110247988D01*
X113625000Y-110299499D01*
X113625000Y-110574999D01*
X113649972Y-110574999D01*
X113649986Y-110574998D01*
X113752697Y-110564505D01*
X113919119Y-110509358D01*
X113919124Y-110509356D01*
X114068345Y-110417315D01*
X114116122Y-110369538D01*
X114177445Y-110336052D01*
X114247136Y-110341036D01*
X114303070Y-110382907D01*
X114327488Y-110448371D01*
X114327207Y-110469372D01*
X114317600Y-110566916D01*
X114317600Y-110935361D01*
X114353713Y-111302031D01*
X114353716Y-111302048D01*
X114425590Y-111663392D01*
X114425593Y-111663403D01*
X114532552Y-112016000D01*
X114673549Y-112356397D01*
X114673556Y-112356411D01*
X114804023Y-112600500D01*
X114804024Y-112600500D01*
X116343320Y-111061204D01*
X116347543Y-111093280D01*
X116406917Y-111314865D01*
X116494705Y-111526805D01*
X116609406Y-111725473D01*
X116749057Y-111907470D01*
X116911269Y-112069682D01*
X117093266Y-112209333D01*
X117291934Y-112324034D01*
X117503874Y-112411822D01*
X117725459Y-112471196D01*
X117757533Y-112475418D01*
X116218236Y-114014714D01*
X116462327Y-114145183D01*
X116462332Y-114145185D01*
X116802738Y-114286186D01*
X117155335Y-114393145D01*
X117155346Y-114393148D01*
X117516690Y-114465022D01*
X117516707Y-114465025D01*
X117883377Y-114501139D01*
X118251823Y-114501139D01*
X118618492Y-114465025D01*
X118618509Y-114465022D01*
X118979853Y-114393148D01*
X118979864Y-114393145D01*
X119332461Y-114286186D01*
X119672867Y-114145185D01*
X119672872Y-114145183D01*
X119916962Y-114014714D01*
X118377666Y-112475418D01*
X118409741Y-112471196D01*
X118631326Y-112411822D01*
X118843266Y-112324034D01*
X119041934Y-112209333D01*
X119223931Y-112069682D01*
X119386143Y-111907470D01*
X119525794Y-111725473D01*
X119640495Y-111526805D01*
X119728283Y-111314865D01*
X119787657Y-111093280D01*
X119791879Y-111061205D01*
X121331175Y-112600501D01*
X121461644Y-112356411D01*
X121461646Y-112356406D01*
X121602647Y-112016000D01*
X121709606Y-111663403D01*
X121709609Y-111663392D01*
X121781483Y-111302048D01*
X121781486Y-111302031D01*
X121817600Y-110935361D01*
X121817600Y-110566916D01*
X121781486Y-110200246D01*
X121781483Y-110200229D01*
X121709609Y-109838885D01*
X121709606Y-109838874D01*
X121602647Y-109486277D01*
X121461646Y-109145871D01*
X121461644Y-109145866D01*
X121331175Y-108901775D01*
X119791879Y-110441071D01*
X119787657Y-110408998D01*
X119728283Y-110187413D01*
X119640495Y-109975473D01*
X119525794Y-109776805D01*
X119386143Y-109594808D01*
X119223931Y-109432596D01*
X119041934Y-109292945D01*
X118843266Y-109178244D01*
X118631326Y-109090456D01*
X118409741Y-109031082D01*
X118377665Y-109026859D01*
X119916961Y-107487563D01*
X119852774Y-107453255D01*
X119802930Y-107404292D01*
X119787469Y-107336155D01*
X119811300Y-107270475D01*
X119866858Y-107228106D01*
X119887034Y-107222278D01*
X119919460Y-107215829D01*
X120248587Y-107115989D01*
X120566344Y-106984370D01*
X120869669Y-106822240D01*
X121155642Y-106631159D01*
X121421509Y-106412967D01*
X121664710Y-106169766D01*
X121882902Y-105903899D01*
X122073983Y-105617926D01*
X122236113Y-105314601D01*
X122367732Y-104996844D01*
X122467572Y-104667717D01*
X122467574Y-104667707D01*
X122467577Y-104667696D01*
X122501688Y-104496201D01*
X122534670Y-104330389D01*
X122568382Y-103988108D01*
X122568382Y-103724500D01*
X122588067Y-103657461D01*
X122640871Y-103611706D01*
X122692382Y-103600500D01*
X130935500Y-103600500D01*
X131002539Y-103620185D01*
X131048294Y-103672989D01*
X131059500Y-103724500D01*
X131059500Y-103918508D01*
X131097231Y-104253381D01*
X131097233Y-104253397D01*
X131172223Y-104581953D01*
X131172227Y-104581965D01*
X131283532Y-104900054D01*
X131429752Y-105203683D01*
X131429754Y-105203686D01*
X131609054Y-105489039D01*
X131819175Y-105752523D01*
X132057477Y-105990825D01*
X132320961Y-106200946D01*
X132606314Y-106380246D01*
X132909949Y-106526469D01*
X133148848Y-106610063D01*
X133228034Y-106637772D01*
X133228046Y-106637776D01*
X133556606Y-106712767D01*
X133891492Y-106750499D01*
X133891493Y-106750500D01*
X133891496Y-106750500D01*
X134228507Y-106750500D01*
X134228507Y-106750499D01*
X134563394Y-106712767D01*
X134891954Y-106637776D01*
X135210051Y-106526469D01*
X135513686Y-106380246D01*
X135689927Y-106269505D01*
X135755899Y-106250500D01*
X136807249Y-106250500D01*
X136821130Y-106251279D01*
X137019571Y-106273638D01*
X137019572Y-106273639D01*
X137019575Y-106273639D01*
X138005887Y-106273639D01*
X138072926Y-106293324D01*
X138080197Y-106298372D01*
X138265682Y-106437224D01*
X138265690Y-106437229D01*
X138516833Y-106574364D01*
X138516832Y-106574364D01*
X138516836Y-106574365D01*
X138516839Y-106574367D01*
X138784954Y-106674369D01*
X138784960Y-106674370D01*
X138784962Y-106674371D01*
X139064566Y-106735195D01*
X139064568Y-106735195D01*
X139064572Y-106735196D01*
X139278552Y-106750500D01*
X141421448Y-106750500D01*
X141635428Y-106735196D01*
X141738538Y-106712766D01*
X141915037Y-106674371D01*
X141915037Y-106674370D01*
X141915046Y-106674369D01*
X142183161Y-106574367D01*
X142434315Y-106437226D01*
X142663395Y-106265739D01*
X142865739Y-106063395D01*
X143037226Y-105834315D01*
X143174367Y-105583161D01*
X143274369Y-105315046D01*
X143298594Y-105203686D01*
X143335195Y-105035433D01*
X143335195Y-105035432D01*
X143335196Y-105035428D01*
X143350500Y-104821448D01*
X143350500Y-103724500D01*
X143370185Y-103657461D01*
X143422989Y-103611706D01*
X143474500Y-103600500D01*
X151706582Y-103600500D01*
X151773621Y-103620185D01*
X151819376Y-103672989D01*
X151830582Y-103724500D01*
X151830582Y-103945104D01*
X151864292Y-104287388D01*
X151931390Y-104624711D01*
X152031232Y-104953845D01*
X152065025Y-105035428D01*
X152134718Y-105203683D01*
X152162852Y-105271603D01*
X152162854Y-105271608D01*
X152324975Y-105574914D01*
X152324986Y-105574932D01*
X152516057Y-105860890D01*
X152516067Y-105860904D01*
X152734258Y-106126771D01*
X152977449Y-106369962D01*
X152977454Y-106369966D01*
X152977455Y-106369967D01*
X153243322Y-106588158D01*
X153529295Y-106779239D01*
X153529304Y-106779244D01*
X153529306Y-106779245D01*
X153832612Y-106941366D01*
X153832614Y-106941366D01*
X153832620Y-106941370D01*
X154150377Y-107072989D01*
X154479504Y-107172829D01*
X154560650Y-107188970D01*
X154568543Y-107190540D01*
X154630454Y-107222925D01*
X154665028Y-107283641D01*
X154661288Y-107353410D01*
X154620421Y-107410082D01*
X154602804Y-107421515D01*
X154479237Y-107487562D01*
X154479237Y-107487563D01*
X156018533Y-109026859D01*
X155986459Y-109031082D01*
X155764874Y-109090456D01*
X155552934Y-109178244D01*
X155354266Y-109292945D01*
X155172269Y-109432596D01*
X155010057Y-109594808D01*
X154870406Y-109776805D01*
X154755705Y-109975473D01*
X154667917Y-110187413D01*
X154608543Y-110408998D01*
X154604320Y-110441072D01*
X153065024Y-108901776D01*
X152934549Y-109145881D01*
X152793552Y-109486277D01*
X152686593Y-109838874D01*
X152686590Y-109838885D01*
X152614716Y-110200229D01*
X152614713Y-110200246D01*
X152578600Y-110566916D01*
X152578600Y-110935361D01*
X152614713Y-111302031D01*
X152614716Y-111302048D01*
X152686590Y-111663392D01*
X152686593Y-111663403D01*
X152793552Y-112016000D01*
X152934549Y-112356397D01*
X152934556Y-112356411D01*
X153065023Y-112600500D01*
X153065024Y-112600500D01*
X154604320Y-111061204D01*
X154608543Y-111093280D01*
X154667917Y-111314865D01*
X154755705Y-111526805D01*
X154870406Y-111725473D01*
X155010057Y-111907470D01*
X155172269Y-112069682D01*
X155354266Y-112209333D01*
X155552934Y-112324034D01*
X155764874Y-112411822D01*
X155986459Y-112471196D01*
X156018533Y-112475418D01*
X154479236Y-114014714D01*
X154723327Y-114145183D01*
X154723332Y-114145185D01*
X155063738Y-114286186D01*
X155416335Y-114393145D01*
X155416346Y-114393148D01*
X155777690Y-114465022D01*
X155777707Y-114465025D01*
X156144377Y-114501139D01*
X156512823Y-114501139D01*
X156879492Y-114465025D01*
X156879509Y-114465022D01*
X157240853Y-114393148D01*
X157240864Y-114393145D01*
X157593461Y-114286186D01*
X157933867Y-114145185D01*
X157933872Y-114145183D01*
X158177962Y-114014714D01*
X156638666Y-112475418D01*
X156670741Y-112471196D01*
X156892326Y-112411822D01*
X157104266Y-112324034D01*
X157302934Y-112209333D01*
X157484931Y-112069682D01*
X157647143Y-111907470D01*
X157786794Y-111725473D01*
X157901495Y-111526805D01*
X157989283Y-111314865D01*
X158048657Y-111093280D01*
X158052879Y-111061205D01*
X159592175Y-112600501D01*
X159722644Y-112356411D01*
X159722646Y-112356406D01*
X159863647Y-112016000D01*
X159970606Y-111663403D01*
X159970609Y-111663392D01*
X160042483Y-111302048D01*
X160042486Y-111302031D01*
X160078600Y-110935361D01*
X160078600Y-110566916D01*
X160059196Y-110369903D01*
X160072215Y-110301257D01*
X160120280Y-110250547D01*
X160188131Y-110233872D01*
X160247696Y-110252210D01*
X160380875Y-110334356D01*
X160380880Y-110334358D01*
X160547302Y-110389505D01*
X160547309Y-110389506D01*
X160650019Y-110399999D01*
X160675000Y-110399998D01*
X160675000Y-110124499D01*
X160677550Y-110115813D01*
X160676262Y-110106852D01*
X160687240Y-110082811D01*
X160694685Y-110057460D01*
X160701525Y-110051532D01*
X160705287Y-110043296D01*
X160727521Y-110029006D01*
X160747489Y-110011705D01*
X160758003Y-110009417D01*
X160764065Y-110005522D01*
X160798996Y-110000499D01*
X161026963Y-110000499D01*
X161026979Y-110000500D01*
X161034575Y-110000500D01*
X161321539Y-110000500D01*
X161321559Y-110000499D01*
X161551000Y-110000499D01*
X161618039Y-110020184D01*
X161663794Y-110072988D01*
X161675000Y-110124499D01*
X161675000Y-110399999D01*
X161699972Y-110399999D01*
X161699986Y-110399998D01*
X161802697Y-110389505D01*
X161969119Y-110334358D01*
X161969126Y-110334355D01*
X162050480Y-110284175D01*
X162117873Y-110265734D01*
X162184536Y-110286656D01*
X162224936Y-110331259D01*
X162279585Y-110433499D01*
X162321180Y-110511318D01*
X162322502Y-110513790D01*
X162322508Y-110513800D01*
X162513574Y-110799751D01*
X162513584Y-110799765D01*
X162731776Y-111065632D01*
X162974967Y-111308823D01*
X162974972Y-111308827D01*
X162974973Y-111308828D01*
X163240840Y-111527020D01*
X163437674Y-111658539D01*
X163482479Y-111712150D01*
X163491186Y-111781475D01*
X163461032Y-111844503D01*
X163401589Y-111881223D01*
X163400877Y-111881416D01*
X162975887Y-111995292D01*
X162975879Y-111995294D01*
X162473672Y-112165771D01*
X162473661Y-112165775D01*
X161983672Y-112368735D01*
X161508004Y-112603308D01*
X161048703Y-112868486D01*
X161048678Y-112868502D01*
X160607718Y-113163142D01*
X160433298Y-113296979D01*
X160186945Y-113486014D01*
X160186939Y-113486018D01*
X160186934Y-113486023D01*
X159788189Y-113835712D01*
X159413173Y-114210728D01*
X159063484Y-114609473D01*
X159063479Y-114609478D01*
X159063475Y-114609484D01*
X158874440Y-114855837D01*
X158740603Y-115030257D01*
X158445963Y-115471217D01*
X158445947Y-115471242D01*
X158180769Y-115930543D01*
X158134686Y-116023991D01*
X158087380Y-116075411D01*
X158019785Y-116093092D01*
X157997411Y-116089432D01*
X157382153Y-116704692D01*
X156767959Y-117318884D01*
X156767959Y-117318885D01*
X156930104Y-117351138D01*
X156930107Y-117351139D01*
X157127092Y-117351139D01*
X157127095Y-117351138D01*
X157320281Y-117312711D01*
X157320289Y-117312709D01*
X157397799Y-117280604D01*
X157467268Y-117273135D01*
X157529748Y-117304410D01*
X157565400Y-117364499D01*
X157565027Y-117427258D01*
X157435484Y-117910719D01*
X157435478Y-117910745D01*
X157332016Y-118430887D01*
X157332014Y-118430898D01*
X157262788Y-118956718D01*
X157248182Y-119179559D01*
X157228100Y-119485956D01*
X157228100Y-119485967D01*
X157228100Y-119507383D01*
X157208415Y-119574422D01*
X157191781Y-119595064D01*
X157035706Y-119751138D01*
X157191781Y-119907212D01*
X157225266Y-119968535D01*
X157228100Y-119994894D01*
X157228100Y-120016322D01*
X157250008Y-120350572D01*
X157262788Y-120545559D01*
X157332014Y-121071379D01*
X157332016Y-121071390D01*
X157435478Y-121591532D01*
X157435482Y-121591550D01*
X157572753Y-122103851D01*
X157572755Y-122103859D01*
X157622584Y-122250649D01*
X157625494Y-122320459D01*
X157590199Y-122380759D01*
X157527907Y-122412405D01*
X157458395Y-122405349D01*
X157457713Y-122405069D01*
X157420293Y-122389569D01*
X157420281Y-122389566D01*
X157227095Y-122351139D01*
X157030104Y-122351139D01*
X156867959Y-122383391D01*
X156867959Y-122383392D01*
X158097122Y-123612555D01*
X158163552Y-123611962D01*
X158222665Y-123649210D01*
X158237068Y-123669246D01*
X158445947Y-124031035D01*
X158445963Y-124031060D01*
X158659833Y-124351139D01*
X158740608Y-124472027D01*
X159063475Y-124892794D01*
X159413169Y-125291545D01*
X159788194Y-125666570D01*
X160186945Y-126016264D01*
X160607712Y-126339131D01*
X160607718Y-126339135D01*
X161048678Y-126633775D01*
X161048703Y-126633791D01*
X161508004Y-126898969D01*
X161608597Y-126948576D01*
X161660016Y-126995881D01*
X161677698Y-127063476D01*
X161656028Y-127129901D01*
X161601887Y-127174065D01*
X161577944Y-127181405D01*
X161567959Y-127183391D01*
X161567959Y-127183392D01*
X162796345Y-128411778D01*
X162796346Y-128411778D01*
X162828600Y-128249632D01*
X162828600Y-128052647D01*
X162828599Y-128052643D01*
X162790172Y-127859457D01*
X162790169Y-127859445D01*
X162714792Y-127677467D01*
X162714785Y-127677454D01*
X162693818Y-127646075D01*
X162672940Y-127579398D01*
X162691424Y-127512018D01*
X162743403Y-127465327D01*
X162812373Y-127454151D01*
X162836779Y-127459765D01*
X162975879Y-127506983D01*
X162975883Y-127506984D01*
X162975889Y-127506986D01*
X163488183Y-127644255D01*
X163488187Y-127644255D01*
X163488188Y-127644256D01*
X163488206Y-127644260D01*
X163995364Y-127745139D01*
X164008358Y-127747724D01*
X164534187Y-127816951D01*
X164987730Y-127846678D01*
X165053335Y-127870704D01*
X165067298Y-127882731D01*
X165328599Y-128144031D01*
X165589899Y-127882731D01*
X165651222Y-127849246D01*
X165669456Y-127846679D01*
X166123013Y-127816951D01*
X166648842Y-127747724D01*
X167002114Y-127677454D01*
X167168993Y-127644260D01*
X167169002Y-127644257D01*
X167169017Y-127644255D01*
X167657642Y-127513328D01*
X167727489Y-127514991D01*
X167785352Y-127554153D01*
X167812856Y-127618382D01*
X167801270Y-127687284D01*
X167792836Y-127701993D01*
X167742413Y-127777456D01*
X167742407Y-127777467D01*
X167667030Y-127959445D01*
X167667027Y-127959457D01*
X167628600Y-128152643D01*
X167628600Y-128349634D01*
X167660852Y-128511778D01*
X167660853Y-128511778D01*
X167960990Y-128211643D01*
X168328600Y-128211643D01*
X168328600Y-128290635D01*
X168349044Y-128366935D01*
X168388540Y-128435344D01*
X168444395Y-128491199D01*
X168512804Y-128530695D01*
X168589104Y-128551139D01*
X168668096Y-128551139D01*
X168744396Y-128530695D01*
X168812805Y-128491199D01*
X168868660Y-128435344D01*
X168908156Y-128366935D01*
X168928600Y-128290635D01*
X168928600Y-128251138D01*
X169335706Y-128251138D01*
X169335706Y-128251139D01*
X169596345Y-128511778D01*
X169596346Y-128511778D01*
X169628600Y-128349632D01*
X169628600Y-128152645D01*
X169628599Y-128152643D01*
X169596346Y-127990498D01*
X169596345Y-127990498D01*
X169335706Y-128251138D01*
X168928600Y-128251138D01*
X168928600Y-128211643D01*
X168908156Y-128135343D01*
X168868660Y-128066934D01*
X168812805Y-128011079D01*
X168744396Y-127971583D01*
X168668096Y-127951139D01*
X168589104Y-127951139D01*
X168512804Y-127971583D01*
X168444395Y-128011079D01*
X168388540Y-128066934D01*
X168349044Y-128135343D01*
X168328600Y-128211643D01*
X167960990Y-128211643D01*
X168060537Y-128112096D01*
X168275047Y-127897586D01*
X168889239Y-127283392D01*
X168889239Y-127283391D01*
X168877274Y-127281011D01*
X168815363Y-127248626D01*
X168780789Y-127187910D01*
X168784528Y-127118141D01*
X168825395Y-127061469D01*
X168846621Y-127048182D01*
X169149195Y-126898969D01*
X169608496Y-126633791D01*
X169608505Y-126633786D01*
X170049488Y-126339131D01*
X170470255Y-126016264D01*
X170869006Y-125666570D01*
X171244031Y-125291545D01*
X171593725Y-124892794D01*
X171916592Y-124472027D01*
X172037630Y-124290880D01*
X172085737Y-124218884D01*
X173367959Y-124218884D01*
X173367959Y-124218885D01*
X173530104Y-124251138D01*
X173530107Y-124251139D01*
X173727093Y-124251139D01*
X173889239Y-124218885D01*
X173889239Y-124218884D01*
X173628601Y-123958245D01*
X173628600Y-123958245D01*
X173367959Y-124218884D01*
X172085737Y-124218884D01*
X172155239Y-124114867D01*
X172211236Y-124031060D01*
X172211247Y-124031044D01*
X172476430Y-123571734D01*
X172479612Y-123565280D01*
X172526914Y-123513858D01*
X172594508Y-123496172D01*
X172626823Y-123501456D01*
X172660853Y-123511778D01*
X172960990Y-123211643D01*
X173328600Y-123211643D01*
X173328600Y-123290635D01*
X173349044Y-123366935D01*
X173388540Y-123435344D01*
X173444395Y-123491199D01*
X173512804Y-123530695D01*
X173589104Y-123551139D01*
X173668096Y-123551139D01*
X173744396Y-123530695D01*
X173812805Y-123491199D01*
X173868660Y-123435344D01*
X173908156Y-123366935D01*
X173928600Y-123290635D01*
X173928600Y-123251138D01*
X174335706Y-123251138D01*
X174335706Y-123251139D01*
X174596345Y-123511778D01*
X174596346Y-123511778D01*
X174628600Y-123349632D01*
X174628600Y-123152645D01*
X174628599Y-123152643D01*
X174596346Y-122990498D01*
X174596345Y-122990498D01*
X174335706Y-123251138D01*
X173928600Y-123251138D01*
X173928600Y-123211643D01*
X173908156Y-123135343D01*
X173868660Y-123066934D01*
X173812805Y-123011079D01*
X173744396Y-122971583D01*
X173668096Y-122951139D01*
X173589104Y-122951139D01*
X173512804Y-122971583D01*
X173444395Y-123011079D01*
X173388540Y-123066934D01*
X173349044Y-123135343D01*
X173328600Y-123211643D01*
X172960990Y-123211643D01*
X173060537Y-123112096D01*
X173275047Y-122897586D01*
X173889239Y-122283392D01*
X173889239Y-122283391D01*
X173727095Y-122251139D01*
X173530104Y-122251139D01*
X173336918Y-122289566D01*
X173336906Y-122289569D01*
X173222625Y-122336906D01*
X173153156Y-122344375D01*
X173090677Y-122313100D01*
X173055025Y-122253011D01*
X173057519Y-122183185D01*
X173057754Y-122182486D01*
X173084444Y-122103858D01*
X173084447Y-122103850D01*
X173221716Y-121591556D01*
X173325185Y-121071381D01*
X173367346Y-120751138D01*
X173371592Y-120718884D01*
X174067959Y-120718884D01*
X174067959Y-120718885D01*
X174230104Y-120751138D01*
X174230107Y-120751139D01*
X174427093Y-120751139D01*
X174589239Y-120718885D01*
X174589239Y-120718884D01*
X174328601Y-120458245D01*
X174328600Y-120458245D01*
X174067959Y-120718884D01*
X173371592Y-120718884D01*
X173378348Y-120667573D01*
X173394411Y-120545559D01*
X173394412Y-120545552D01*
X173429100Y-120016322D01*
X173429100Y-119994894D01*
X173448785Y-119927855D01*
X173465419Y-119907213D01*
X173621493Y-119751139D01*
X173621493Y-119751138D01*
X173581998Y-119711643D01*
X174028600Y-119711643D01*
X174028600Y-119790635D01*
X174049044Y-119866935D01*
X174088540Y-119935344D01*
X174144395Y-119991199D01*
X174212804Y-120030695D01*
X174289104Y-120051139D01*
X174368096Y-120051139D01*
X174444396Y-120030695D01*
X174512805Y-119991199D01*
X174568660Y-119935344D01*
X174608156Y-119866935D01*
X174628600Y-119790635D01*
X174628600Y-119751138D01*
X175035706Y-119751138D01*
X175035706Y-119751139D01*
X175296345Y-120011778D01*
X175296346Y-120011778D01*
X175328600Y-119849632D01*
X175328600Y-119652645D01*
X175328599Y-119652643D01*
X175296346Y-119490498D01*
X175296345Y-119490498D01*
X175035706Y-119751138D01*
X174628600Y-119751138D01*
X174628600Y-119711643D01*
X174608156Y-119635343D01*
X174568660Y-119566934D01*
X174512805Y-119511079D01*
X174444396Y-119471583D01*
X174368096Y-119451139D01*
X174289104Y-119451139D01*
X174212804Y-119471583D01*
X174144395Y-119511079D01*
X174088540Y-119566934D01*
X174049044Y-119635343D01*
X174028600Y-119711643D01*
X173581998Y-119711643D01*
X173465419Y-119595064D01*
X173431934Y-119533741D01*
X173429100Y-119507383D01*
X173429100Y-119485967D01*
X173429100Y-119485956D01*
X173394412Y-118956726D01*
X173394411Y-118956718D01*
X173378348Y-118834704D01*
X173371592Y-118783391D01*
X174067959Y-118783391D01*
X174067959Y-118783392D01*
X174328600Y-119044032D01*
X174328601Y-119044032D01*
X174589239Y-118783392D01*
X174589239Y-118783391D01*
X174427095Y-118751139D01*
X174230104Y-118751139D01*
X174067959Y-118783391D01*
X173371592Y-118783391D01*
X173325185Y-118430898D01*
X173325185Y-118430897D01*
X173221716Y-117910722D01*
X173084447Y-117398428D01*
X173068394Y-117351138D01*
X173021786Y-117213835D01*
X172913967Y-116896209D01*
X172711005Y-116406215D01*
X172476430Y-115930544D01*
X172476430Y-115930543D01*
X172211252Y-115471242D01*
X172211236Y-115471217D01*
X171916596Y-115030257D01*
X171916592Y-115030251D01*
X171593725Y-114609484D01*
X171244031Y-114210733D01*
X170869006Y-113835708D01*
X170470255Y-113486014D01*
X170049488Y-113163147D01*
X170049481Y-113163142D01*
X169608521Y-112868502D01*
X169608496Y-112868486D01*
X169149195Y-112603308D01*
X168673527Y-112368735D01*
X168183538Y-112165775D01*
X168183527Y-112165771D01*
X167681320Y-111995294D01*
X167681312Y-111995292D01*
X167256322Y-111881416D01*
X167196662Y-111845051D01*
X167166133Y-111782204D01*
X167174428Y-111712828D01*
X167218913Y-111658950D01*
X167219135Y-111658800D01*
X167416360Y-111527020D01*
X167682227Y-111308828D01*
X167927910Y-111063145D01*
X168146102Y-110797278D01*
X168300024Y-110566916D01*
X170578600Y-110566916D01*
X170578600Y-110935361D01*
X170614713Y-111302031D01*
X170614716Y-111302048D01*
X170686590Y-111663392D01*
X170686593Y-111663403D01*
X170793552Y-112016000D01*
X170934549Y-112356397D01*
X170934556Y-112356411D01*
X171065023Y-112600500D01*
X171065024Y-112600500D01*
X172604320Y-111061204D01*
X172608543Y-111093280D01*
X172667917Y-111314865D01*
X172755705Y-111526805D01*
X172870406Y-111725473D01*
X173010057Y-111907470D01*
X173172269Y-112069682D01*
X173354266Y-112209333D01*
X173552934Y-112324034D01*
X173764874Y-112411822D01*
X173986459Y-112471196D01*
X174018533Y-112475418D01*
X172479236Y-114014714D01*
X172723327Y-114145183D01*
X172723332Y-114145185D01*
X173063738Y-114286186D01*
X173416335Y-114393145D01*
X173416346Y-114393148D01*
X173777690Y-114465022D01*
X173777707Y-114465025D01*
X174144377Y-114501139D01*
X174512823Y-114501139D01*
X174879492Y-114465025D01*
X174879509Y-114465022D01*
X175240853Y-114393148D01*
X175240864Y-114393145D01*
X175593461Y-114286186D01*
X175933867Y-114145185D01*
X175933872Y-114145183D01*
X176177962Y-114014714D01*
X174638666Y-112475418D01*
X174670741Y-112471196D01*
X174892326Y-112411822D01*
X175104266Y-112324034D01*
X175302934Y-112209333D01*
X175484931Y-112069682D01*
X175647143Y-111907470D01*
X175786794Y-111725473D01*
X175901495Y-111526805D01*
X175989283Y-111314865D01*
X176048657Y-111093280D01*
X176052879Y-111061205D01*
X177592175Y-112600501D01*
X177722644Y-112356411D01*
X177722646Y-112356406D01*
X177863647Y-112016000D01*
X177970606Y-111663403D01*
X177970609Y-111663392D01*
X178042483Y-111302048D01*
X178042486Y-111302031D01*
X178078600Y-110935361D01*
X178078600Y-110566916D01*
X178042486Y-110200246D01*
X178042483Y-110200229D01*
X177970609Y-109838885D01*
X177970606Y-109838874D01*
X177863647Y-109486277D01*
X177722646Y-109145871D01*
X177722644Y-109145866D01*
X177592175Y-108901775D01*
X176052879Y-110441071D01*
X176048657Y-110408998D01*
X175989283Y-110187413D01*
X175901495Y-109975473D01*
X175786794Y-109776805D01*
X175647143Y-109594808D01*
X175484931Y-109432596D01*
X175302934Y-109292945D01*
X175104266Y-109178244D01*
X174892326Y-109090456D01*
X174670741Y-109031082D01*
X174638664Y-109026859D01*
X176177961Y-107487563D01*
X176177961Y-107487562D01*
X175933872Y-107357095D01*
X175933858Y-107357088D01*
X175593461Y-107216091D01*
X175240864Y-107109132D01*
X175240853Y-107109129D01*
X174879509Y-107037255D01*
X174879492Y-107037252D01*
X174512823Y-107001139D01*
X174144377Y-107001139D01*
X173777707Y-107037252D01*
X173777690Y-107037255D01*
X173416346Y-107109129D01*
X173416335Y-107109132D01*
X173063738Y-107216091D01*
X172723342Y-107357088D01*
X172479237Y-107487563D01*
X174018533Y-109026859D01*
X173986459Y-109031082D01*
X173764874Y-109090456D01*
X173552934Y-109178244D01*
X173354266Y-109292945D01*
X173172269Y-109432596D01*
X173010057Y-109594808D01*
X172870406Y-109776805D01*
X172755705Y-109975473D01*
X172667917Y-110187413D01*
X172608543Y-110408998D01*
X172604320Y-110441072D01*
X171065024Y-108901776D01*
X170934549Y-109145881D01*
X170793552Y-109486277D01*
X170686593Y-109838874D01*
X170686590Y-109838885D01*
X170614716Y-110200229D01*
X170614713Y-110200246D01*
X170578600Y-110566916D01*
X168300024Y-110566916D01*
X168337182Y-110511305D01*
X168499313Y-110207980D01*
X168630932Y-109890223D01*
X168730772Y-109561096D01*
X168797871Y-109223768D01*
X168831582Y-108881487D01*
X168831582Y-103601170D01*
X168831582Y-102922102D01*
X168851267Y-102855063D01*
X168904071Y-102809308D01*
X168948333Y-102798314D01*
X169088238Y-102790123D01*
X169384469Y-102735050D01*
X169384476Y-102735047D01*
X169384479Y-102735047D01*
X169473989Y-102705631D01*
X169670716Y-102640984D01*
X169941870Y-102509604D01*
X170193095Y-102343255D01*
X170419906Y-102144906D01*
X170618255Y-101918095D01*
X170784604Y-101666870D01*
X170915984Y-101395716D01*
X170940329Y-101321631D01*
X170979957Y-101264091D01*
X171019131Y-101242639D01*
X171044117Y-101234360D01*
X171193345Y-101142315D01*
X171317315Y-101018345D01*
X171409356Y-100869124D01*
X171409358Y-100869119D01*
X171464505Y-100702697D01*
X171464506Y-100702690D01*
X171474999Y-100599986D01*
X171475000Y-100599973D01*
X171475000Y-100575000D01*
X171199500Y-100575000D01*
X171132461Y-100555315D01*
X171086706Y-100502511D01*
X171075500Y-100451000D01*
X171075500Y-99929465D01*
X171075499Y-99929439D01*
X171075499Y-99699000D01*
X171095184Y-99631961D01*
X171147988Y-99586206D01*
X171199499Y-99575000D01*
X171474999Y-99575000D01*
X171474999Y-99550028D01*
X171474998Y-99550013D01*
X171464505Y-99447302D01*
X171409358Y-99280880D01*
X171409356Y-99280875D01*
X171317315Y-99131654D01*
X171193345Y-99007684D01*
X171044121Y-98915642D01*
X171019125Y-98907359D01*
X170961681Y-98867586D01*
X170940329Y-98828368D01*
X170915984Y-98754284D01*
X170846771Y-98611436D01*
X170784606Y-98483133D01*
X170784603Y-98483128D01*
X170618256Y-98231906D01*
X170419906Y-98005093D01*
X170193093Y-97806743D01*
X169941871Y-97640396D01*
X169941866Y-97640393D01*
X169670720Y-97509018D01*
X169670716Y-97509016D01*
X169670712Y-97509014D01*
X169670708Y-97509013D01*
X169384479Y-97414952D01*
X169384469Y-97414950D01*
X169088233Y-97359876D01*
X169088234Y-97359876D01*
X168948333Y-97351684D01*
X168882559Y-97328114D01*
X168839969Y-97272725D01*
X168831582Y-97227896D01*
X168831582Y-96101173D01*
X168797871Y-95758889D01*
X168730773Y-95421566D01*
X168730772Y-95421565D01*
X168730772Y-95421561D01*
X168630932Y-95092434D01*
X168499313Y-94774677D01*
X168337182Y-94471352D01*
X168146101Y-94185379D01*
X167927910Y-93919512D01*
X167927909Y-93919511D01*
X167927905Y-93919506D01*
X167684714Y-93676315D01*
X167418847Y-93458124D01*
X167418846Y-93458123D01*
X167418842Y-93458120D01*
X167132869Y-93267039D01*
X167132864Y-93267036D01*
X167132857Y-93267032D01*
X166829551Y-93104911D01*
X166829546Y-93104909D01*
X166511788Y-92973289D01*
X166182654Y-92873447D01*
X165845330Y-92806349D01*
X165845331Y-92806349D01*
X165587538Y-92780960D01*
X165503051Y-92772639D01*
X165159113Y-92772639D01*
X165081048Y-92780327D01*
X164816832Y-92806349D01*
X164479509Y-92873447D01*
X164150371Y-92973290D01*
X163971952Y-93047194D01*
X163902483Y-93054663D01*
X163840004Y-93023388D01*
X163804352Y-92963299D01*
X163800500Y-92932633D01*
X163800500Y-91268034D01*
X163793144Y-91193350D01*
X163766789Y-90925750D01*
X163699690Y-90588422D01*
X163599850Y-90259295D01*
X163468231Y-89941538D01*
X163447103Y-89902011D01*
X163306106Y-89638224D01*
X163306103Y-89638219D01*
X163306100Y-89638213D01*
X163115019Y-89352240D01*
X162896828Y-89086373D01*
X162896827Y-89086372D01*
X162896823Y-89086367D01*
X162665422Y-88854966D01*
X165409818Y-88854966D01*
X165409818Y-89223411D01*
X165445931Y-89590081D01*
X165445934Y-89590098D01*
X165517808Y-89951442D01*
X165517811Y-89951453D01*
X165624770Y-90304050D01*
X165765767Y-90644447D01*
X165765774Y-90644461D01*
X165896241Y-90888550D01*
X165896242Y-90888550D01*
X167435538Y-89349254D01*
X167439761Y-89381330D01*
X167499135Y-89602915D01*
X167586923Y-89814855D01*
X167701624Y-90013523D01*
X167841275Y-90195520D01*
X168003487Y-90357732D01*
X168185484Y-90497383D01*
X168384152Y-90612084D01*
X168596092Y-90699872D01*
X168817677Y-90759246D01*
X168849751Y-90763468D01*
X167310454Y-92302764D01*
X167554545Y-92433233D01*
X167554550Y-92433235D01*
X167894956Y-92574236D01*
X168247553Y-92681195D01*
X168247564Y-92681198D01*
X168608908Y-92753072D01*
X168608925Y-92753075D01*
X168975595Y-92789189D01*
X169344041Y-92789189D01*
X169710710Y-92753075D01*
X169710727Y-92753072D01*
X170072071Y-92681198D01*
X170072082Y-92681195D01*
X170424679Y-92574236D01*
X170765085Y-92433235D01*
X170765090Y-92433233D01*
X171009180Y-92302764D01*
X169469884Y-90763468D01*
X169501959Y-90759246D01*
X169723544Y-90699872D01*
X169935484Y-90612084D01*
X170134152Y-90497383D01*
X170316149Y-90357732D01*
X170478361Y-90195520D01*
X170618012Y-90013523D01*
X170732713Y-89814855D01*
X170820501Y-89602915D01*
X170879875Y-89381330D01*
X170884097Y-89349255D01*
X172423393Y-90888551D01*
X172553862Y-90644461D01*
X172553864Y-90644456D01*
X172694865Y-90304050D01*
X172801824Y-89951453D01*
X172801827Y-89951442D01*
X172873701Y-89590098D01*
X172873704Y-89590081D01*
X172909818Y-89223411D01*
X172909818Y-88854966D01*
X172873704Y-88488296D01*
X172873701Y-88488279D01*
X172801827Y-88126935D01*
X172801824Y-88126924D01*
X172694865Y-87774327D01*
X172553864Y-87433921D01*
X172553862Y-87433916D01*
X172423393Y-87189825D01*
X170884097Y-88729121D01*
X170879875Y-88697048D01*
X170820501Y-88475463D01*
X170732713Y-88263523D01*
X170618012Y-88064855D01*
X170478361Y-87882858D01*
X170316149Y-87720646D01*
X170134152Y-87580995D01*
X169935484Y-87466294D01*
X169723544Y-87378506D01*
X169501959Y-87319132D01*
X169469882Y-87314909D01*
X171009179Y-85775613D01*
X171009179Y-85775612D01*
X170765090Y-85645145D01*
X170765076Y-85645138D01*
X170424679Y-85504141D01*
X170072082Y-85397182D01*
X170072071Y-85397179D01*
X169710727Y-85325305D01*
X169710710Y-85325302D01*
X169344041Y-85289189D01*
X168975595Y-85289189D01*
X168608925Y-85325302D01*
X168608908Y-85325305D01*
X168247564Y-85397179D01*
X168247553Y-85397182D01*
X167894956Y-85504141D01*
X167554560Y-85645138D01*
X167310455Y-85775613D01*
X168849751Y-87314909D01*
X168817677Y-87319132D01*
X168596092Y-87378506D01*
X168384152Y-87466294D01*
X168185484Y-87580995D01*
X168003487Y-87720646D01*
X167841275Y-87882858D01*
X167701624Y-88064855D01*
X167586923Y-88263523D01*
X167499135Y-88475463D01*
X167439761Y-88697048D01*
X167435538Y-88729122D01*
X165896242Y-87189826D01*
X165765767Y-87433931D01*
X165624770Y-87774327D01*
X165517811Y-88126924D01*
X165517808Y-88126935D01*
X165445934Y-88488279D01*
X165445931Y-88488296D01*
X165409818Y-88854966D01*
X162665422Y-88854966D01*
X162653632Y-88843176D01*
X162387765Y-88624985D01*
X162387764Y-88624984D01*
X162387760Y-88624981D01*
X162101787Y-88433900D01*
X162101782Y-88433897D01*
X162101775Y-88433893D01*
X161798469Y-88271772D01*
X161798464Y-88271770D01*
X161798459Y-88271768D01*
X161687916Y-88225979D01*
X161633514Y-88182139D01*
X161611449Y-88115845D01*
X161628728Y-88048146D01*
X161679865Y-88000535D01*
X161711179Y-87989802D01*
X162000211Y-87932310D01*
X162000220Y-87932307D01*
X162000235Y-87932305D01*
X162512529Y-87795036D01*
X163014748Y-87624556D01*
X163504742Y-87421594D01*
X163980413Y-87187019D01*
X164439723Y-86921836D01*
X164880706Y-86627181D01*
X165301473Y-86304314D01*
X165700224Y-85954620D01*
X166075249Y-85579595D01*
X166424943Y-85180844D01*
X166747810Y-84760077D01*
X166983772Y-84406934D01*
X168199177Y-84406934D01*
X168199177Y-84406935D01*
X168361322Y-84439188D01*
X168361325Y-84439189D01*
X168558311Y-84439189D01*
X168720457Y-84406935D01*
X168720457Y-84406934D01*
X168459819Y-84146295D01*
X168459818Y-84146295D01*
X168199177Y-84406934D01*
X166983772Y-84406934D01*
X167042465Y-84319094D01*
X167045941Y-84313072D01*
X167047828Y-84309806D01*
X167047828Y-84309805D01*
X167131671Y-84164584D01*
X167307648Y-83859784D01*
X167353732Y-83766334D01*
X167401035Y-83714916D01*
X167468630Y-83697234D01*
X167491006Y-83700893D01*
X167792208Y-83399693D01*
X168159818Y-83399693D01*
X168159818Y-83478685D01*
X168180262Y-83554985D01*
X168219758Y-83623394D01*
X168275613Y-83679249D01*
X168344022Y-83718745D01*
X168420322Y-83739189D01*
X168499314Y-83739189D01*
X168575614Y-83718745D01*
X168644023Y-83679249D01*
X168699878Y-83623394D01*
X168739374Y-83554985D01*
X168759818Y-83478685D01*
X168759818Y-83439188D01*
X169166924Y-83439188D01*
X169166924Y-83439189D01*
X169427563Y-83699828D01*
X169427564Y-83699828D01*
X169459818Y-83537682D01*
X169459818Y-83340695D01*
X169459817Y-83340693D01*
X169427564Y-83178548D01*
X169427563Y-83178548D01*
X169166924Y-83439188D01*
X168759818Y-83439188D01*
X168759818Y-83399693D01*
X168739374Y-83323393D01*
X168699878Y-83254984D01*
X168644023Y-83199129D01*
X168575614Y-83159633D01*
X168499314Y-83139189D01*
X168420322Y-83139189D01*
X168344022Y-83159633D01*
X168275613Y-83199129D01*
X168219758Y-83254984D01*
X168180262Y-83323393D01*
X168159818Y-83399693D01*
X167792208Y-83399693D01*
X167891755Y-83300146D01*
X168106265Y-83085636D01*
X168720457Y-82471442D01*
X168720457Y-82471441D01*
X168558313Y-82439189D01*
X168361322Y-82439189D01*
X168168136Y-82477616D01*
X168168129Y-82477618D01*
X168090616Y-82509724D01*
X168021147Y-82517191D01*
X167958668Y-82485916D01*
X167923016Y-82425826D01*
X167923389Y-82363070D01*
X168052934Y-81879606D01*
X168052960Y-81879478D01*
X168147136Y-81406020D01*
X168156403Y-81359431D01*
X168185502Y-81138402D01*
X168202811Y-81006934D01*
X168899177Y-81006934D01*
X168899177Y-81006935D01*
X169061322Y-81039188D01*
X169061325Y-81039189D01*
X169258311Y-81039189D01*
X169420457Y-81006935D01*
X169420457Y-81006934D01*
X169159819Y-80746295D01*
X169159818Y-80746295D01*
X168899177Y-81006934D01*
X168202811Y-81006934D01*
X168209566Y-80955623D01*
X168225629Y-80833609D01*
X168225630Y-80833602D01*
X168260318Y-80304372D01*
X168260318Y-80282944D01*
X168280003Y-80215905D01*
X168296637Y-80195263D01*
X168452711Y-80039189D01*
X168452711Y-80039188D01*
X168413216Y-79999693D01*
X168859818Y-79999693D01*
X168859818Y-80078685D01*
X168880262Y-80154985D01*
X168919758Y-80223394D01*
X168975613Y-80279249D01*
X169044022Y-80318745D01*
X169120322Y-80339189D01*
X169199314Y-80339189D01*
X169275614Y-80318745D01*
X169344023Y-80279249D01*
X169399878Y-80223394D01*
X169439374Y-80154985D01*
X169459818Y-80078685D01*
X169459818Y-80039188D01*
X169866924Y-80039188D01*
X169866924Y-80039189D01*
X170127563Y-80299828D01*
X170127564Y-80299828D01*
X170159818Y-80137682D01*
X170159818Y-79940695D01*
X170159817Y-79940693D01*
X170127564Y-79778548D01*
X170127563Y-79778548D01*
X169866924Y-80039188D01*
X169459818Y-80039188D01*
X169459818Y-79999693D01*
X169439374Y-79923393D01*
X169399878Y-79854984D01*
X169344023Y-79799129D01*
X169275614Y-79759633D01*
X169199314Y-79739189D01*
X169120322Y-79739189D01*
X169044022Y-79759633D01*
X168975613Y-79799129D01*
X168919758Y-79854984D01*
X168880262Y-79923393D01*
X168859818Y-79999693D01*
X168413216Y-79999693D01*
X168296637Y-79883114D01*
X168263152Y-79821791D01*
X168260318Y-79795433D01*
X168260318Y-79774017D01*
X168260318Y-79774006D01*
X168225630Y-79244776D01*
X168214539Y-79160529D01*
X168209566Y-79122754D01*
X168202810Y-79071441D01*
X168899177Y-79071441D01*
X168899177Y-79071442D01*
X169159818Y-79332082D01*
X169159819Y-79332082D01*
X169420457Y-79071442D01*
X169420457Y-79071441D01*
X169258313Y-79039189D01*
X169061322Y-79039189D01*
X168899177Y-79071441D01*
X168202810Y-79071441D01*
X168183767Y-78926797D01*
X168156403Y-78718947D01*
X168153818Y-78705953D01*
X168052939Y-78198795D01*
X168052935Y-78198777D01*
X167997336Y-77991278D01*
X167915665Y-77686478D01*
X167865832Y-77539677D01*
X167862923Y-77469869D01*
X167898217Y-77409569D01*
X167960509Y-77377922D01*
X168030022Y-77384977D01*
X168030705Y-77385258D01*
X168068128Y-77400759D01*
X168068136Y-77400761D01*
X168261322Y-77439188D01*
X168261326Y-77439189D01*
X168458311Y-77439189D01*
X168620457Y-77406935D01*
X168620457Y-77406934D01*
X167613216Y-76399693D01*
X168059818Y-76399693D01*
X168059818Y-76478685D01*
X168080262Y-76554985D01*
X168119758Y-76623394D01*
X168175613Y-76679249D01*
X168244022Y-76718745D01*
X168320322Y-76739189D01*
X168399314Y-76739189D01*
X168475614Y-76718745D01*
X168544023Y-76679249D01*
X168599878Y-76623394D01*
X168639374Y-76554985D01*
X168659818Y-76478685D01*
X168659818Y-76439188D01*
X169066924Y-76439188D01*
X169066924Y-76439189D01*
X169327563Y-76699828D01*
X169327564Y-76699828D01*
X169359818Y-76537682D01*
X169359818Y-76340695D01*
X169359817Y-76340693D01*
X169327564Y-76178548D01*
X169327563Y-76178548D01*
X169066924Y-76439188D01*
X168659818Y-76439188D01*
X168659818Y-76399693D01*
X168639374Y-76323393D01*
X168599878Y-76254984D01*
X168544023Y-76199129D01*
X168475614Y-76159633D01*
X168399314Y-76139189D01*
X168320322Y-76139189D01*
X168244022Y-76159633D01*
X168175613Y-76199129D01*
X168119758Y-76254984D01*
X168080262Y-76323393D01*
X168059818Y-76399693D01*
X167613216Y-76399693D01*
X167391294Y-76177771D01*
X167324863Y-76178364D01*
X167265751Y-76141115D01*
X167251349Y-76121080D01*
X167042470Y-75759292D01*
X167042454Y-75759267D01*
X166919638Y-75575460D01*
X166850135Y-75471441D01*
X168099177Y-75471441D01*
X168099177Y-75471442D01*
X168359818Y-75732082D01*
X168359819Y-75732082D01*
X168620457Y-75471442D01*
X168620457Y-75471441D01*
X168458313Y-75439189D01*
X168261322Y-75439189D01*
X168099177Y-75471441D01*
X166850135Y-75471441D01*
X166747814Y-75318307D01*
X166747810Y-75318301D01*
X166424943Y-74897534D01*
X166075249Y-74498783D01*
X165700224Y-74123758D01*
X165301473Y-73774064D01*
X164880706Y-73451197D01*
X164880699Y-73451192D01*
X164439739Y-73156552D01*
X164439714Y-73156536D01*
X163980413Y-72891358D01*
X163879818Y-72841750D01*
X163828398Y-72794444D01*
X163810717Y-72726849D01*
X163832387Y-72660425D01*
X163886529Y-72616261D01*
X163910471Y-72608921D01*
X163920457Y-72606934D01*
X162913216Y-71599693D01*
X163359818Y-71599693D01*
X163359818Y-71678685D01*
X163380262Y-71754985D01*
X163419758Y-71823394D01*
X163475613Y-71879249D01*
X163544022Y-71918745D01*
X163620322Y-71939189D01*
X163699314Y-71939189D01*
X163775614Y-71918745D01*
X163844023Y-71879249D01*
X163899878Y-71823394D01*
X163939374Y-71754985D01*
X163959818Y-71678685D01*
X163959818Y-71639188D01*
X164366924Y-71639188D01*
X164366924Y-71639189D01*
X164627563Y-71899828D01*
X164627564Y-71899828D01*
X164659818Y-71737682D01*
X164659818Y-71540695D01*
X164659817Y-71540693D01*
X164627564Y-71378548D01*
X164627563Y-71378548D01*
X164366924Y-71639188D01*
X163959818Y-71639188D01*
X163959818Y-71599693D01*
X163939374Y-71523393D01*
X163899878Y-71454984D01*
X163844023Y-71399129D01*
X163775614Y-71359633D01*
X163699314Y-71339189D01*
X163620322Y-71339189D01*
X163544022Y-71359633D01*
X163475613Y-71399129D01*
X163419758Y-71454984D01*
X163380262Y-71523393D01*
X163359818Y-71599693D01*
X162913216Y-71599693D01*
X162692071Y-71378548D01*
X162692070Y-71378548D01*
X162659818Y-71540693D01*
X162659818Y-71737684D01*
X162698245Y-71930870D01*
X162698248Y-71930882D01*
X162773625Y-72112860D01*
X162773635Y-72112878D01*
X162794599Y-72144253D01*
X162815477Y-72210930D01*
X162796992Y-72278310D01*
X162745013Y-72325000D01*
X162676043Y-72336176D01*
X162651639Y-72330562D01*
X162512547Y-72283347D01*
X162512530Y-72283342D01*
X162000229Y-72146071D01*
X162000211Y-72146067D01*
X161480069Y-72042605D01*
X161480058Y-72042603D01*
X160954223Y-71973375D01*
X160500690Y-71943649D01*
X160435081Y-71919622D01*
X160421119Y-71907596D01*
X160159819Y-71646295D01*
X159898515Y-71907597D01*
X159837192Y-71941081D01*
X159818944Y-71943649D01*
X159365413Y-71973375D01*
X159365411Y-71973375D01*
X158839577Y-72042603D01*
X158839566Y-72042605D01*
X158319424Y-72146067D01*
X158319398Y-72146073D01*
X157830777Y-72276999D01*
X157760928Y-72275336D01*
X157703065Y-72236174D01*
X157675561Y-72171945D01*
X157687147Y-72103043D01*
X157695582Y-72088332D01*
X157746006Y-72012867D01*
X157746010Y-72012860D01*
X157821387Y-71830882D01*
X157821390Y-71830870D01*
X157859817Y-71637684D01*
X157859818Y-71637681D01*
X157859818Y-71440695D01*
X157859817Y-71440693D01*
X157827564Y-71278548D01*
X157827563Y-71278548D01*
X157213371Y-71892742D01*
X156599177Y-72506934D01*
X156599177Y-72506935D01*
X156611144Y-72509316D01*
X156673055Y-72541701D01*
X156707629Y-72602416D01*
X156703890Y-72672186D01*
X156663024Y-72728858D01*
X156641797Y-72742145D01*
X156339222Y-72891358D01*
X155879921Y-73156536D01*
X155879896Y-73156552D01*
X155438936Y-73451192D01*
X155264516Y-73585029D01*
X155018163Y-73774064D01*
X155018157Y-73774068D01*
X155018152Y-73774073D01*
X154619407Y-74123762D01*
X154244391Y-74498778D01*
X153894702Y-74897523D01*
X153894697Y-74897528D01*
X153894693Y-74897534D01*
X153826812Y-74985998D01*
X153571821Y-75318307D01*
X153277181Y-75759267D01*
X153277165Y-75759292D01*
X153011986Y-76218595D01*
X153008797Y-76225062D01*
X152961488Y-76276478D01*
X152893891Y-76294155D01*
X152861594Y-76288871D01*
X152827563Y-76278548D01*
X152213371Y-76892742D01*
X151599177Y-77506934D01*
X151599177Y-77506935D01*
X151761322Y-77539188D01*
X151761325Y-77539189D01*
X151958310Y-77539189D01*
X151958313Y-77539188D01*
X152151499Y-77500761D01*
X152151507Y-77500759D01*
X152265791Y-77453421D01*
X152335260Y-77445952D01*
X152397739Y-77477227D01*
X152433392Y-77537315D01*
X152430899Y-77607140D01*
X152430664Y-77607839D01*
X152403971Y-77686476D01*
X152266700Y-78198777D01*
X152266696Y-78198795D01*
X152163234Y-78718937D01*
X152163232Y-78718948D01*
X152094006Y-79244768D01*
X152085389Y-79376241D01*
X152059318Y-79774006D01*
X152059318Y-79774017D01*
X152059318Y-79795433D01*
X152039633Y-79862472D01*
X152022999Y-79883114D01*
X151866924Y-80039188D01*
X152022999Y-80195262D01*
X152056484Y-80256585D01*
X152059318Y-80282944D01*
X152059318Y-80304372D01*
X152078998Y-80604628D01*
X152094006Y-80833609D01*
X152163232Y-81359429D01*
X152163234Y-81359440D01*
X152266696Y-81879582D01*
X152266700Y-81879600D01*
X152403971Y-82391901D01*
X152403973Y-82391909D01*
X152574450Y-82894116D01*
X152574454Y-82894127D01*
X152777414Y-83384116D01*
X153011987Y-83859784D01*
X153277165Y-84319085D01*
X153277181Y-84319110D01*
X153561076Y-84743989D01*
X153571826Y-84760077D01*
X153894693Y-85180844D01*
X154244387Y-85579595D01*
X154619412Y-85954620D01*
X155018163Y-86304314D01*
X155438930Y-86627181D01*
X155438936Y-86627185D01*
X155879896Y-86921825D01*
X155879921Y-86921841D01*
X156339222Y-87187019D01*
X156727520Y-87378506D01*
X156814894Y-87421594D01*
X157304888Y-87624556D01*
X157587961Y-87720646D01*
X157807097Y-87795033D01*
X157807101Y-87795034D01*
X157807107Y-87795036D01*
X158319401Y-87932305D01*
X158319405Y-87932305D01*
X158319406Y-87932306D01*
X158319424Y-87932310D01*
X158797864Y-88027477D01*
X158859775Y-88059862D01*
X158894349Y-88120577D01*
X158890610Y-88190347D01*
X158849744Y-88247019D01*
X158821128Y-88263654D01*
X158801539Y-88271768D01*
X158801530Y-88271772D01*
X158498224Y-88433893D01*
X158498206Y-88433904D01*
X158212248Y-88624975D01*
X158212234Y-88624985D01*
X157946367Y-88843176D01*
X157703176Y-89086367D01*
X157484985Y-89352234D01*
X157484975Y-89352248D01*
X157293895Y-89638219D01*
X157293891Y-89638226D01*
X157286971Y-89651172D01*
X157238006Y-89701013D01*
X157169867Y-89716470D01*
X157112520Y-89698251D01*
X157019124Y-89640643D01*
X157019119Y-89640641D01*
X156852697Y-89585494D01*
X156852690Y-89585493D01*
X156749986Y-89575000D01*
X156725000Y-89575000D01*
X156725000Y-89850500D01*
X156705315Y-89917539D01*
X156652511Y-89963294D01*
X156601000Y-89974500D01*
X155849000Y-89974500D01*
X155781961Y-89954815D01*
X155736206Y-89902011D01*
X155725000Y-89850500D01*
X155725000Y-89574999D01*
X155700029Y-89575000D01*
X155700010Y-89575001D01*
X155597302Y-89585494D01*
X155430880Y-89640641D01*
X155430875Y-89640643D01*
X155281654Y-89732684D01*
X155157684Y-89856654D01*
X155065641Y-90005879D01*
X155057358Y-90030875D01*
X155054574Y-90034895D01*
X155054033Y-90039755D01*
X155034880Y-90063338D01*
X155017584Y-90088319D01*
X155012222Y-90091237D01*
X155009986Y-90093992D01*
X154978365Y-90109670D01*
X154955585Y-90117156D01*
X154885751Y-90119385D01*
X154825798Y-90083505D01*
X154794761Y-90020907D01*
X154798215Y-89963351D01*
X154801821Y-89951467D01*
X154801823Y-89951454D01*
X154873701Y-89590098D01*
X154873704Y-89590081D01*
X154909818Y-89223411D01*
X154909818Y-88854966D01*
X154873704Y-88488296D01*
X154873701Y-88488279D01*
X154801827Y-88126935D01*
X154801824Y-88126924D01*
X154694865Y-87774327D01*
X154553864Y-87433921D01*
X154553862Y-87433916D01*
X154423393Y-87189825D01*
X152884097Y-88729122D01*
X152879875Y-88697048D01*
X152820501Y-88475463D01*
X152732713Y-88263523D01*
X152618012Y-88064855D01*
X152478361Y-87882858D01*
X152316149Y-87720646D01*
X152134152Y-87580995D01*
X151935484Y-87466294D01*
X151723544Y-87378506D01*
X151501959Y-87319132D01*
X151469882Y-87314909D01*
X153009179Y-85775613D01*
X153009179Y-85775612D01*
X152765090Y-85645145D01*
X152765076Y-85645138D01*
X152424679Y-85504141D01*
X152072082Y-85397182D01*
X152072071Y-85397179D01*
X151710727Y-85325305D01*
X151710710Y-85325302D01*
X151344041Y-85289189D01*
X150975595Y-85289189D01*
X150608925Y-85325302D01*
X150608908Y-85325305D01*
X150247564Y-85397179D01*
X150247553Y-85397182D01*
X149894956Y-85504141D01*
X149554560Y-85645138D01*
X149310455Y-85775613D01*
X150849751Y-87314909D01*
X150817677Y-87319132D01*
X150596092Y-87378506D01*
X150384152Y-87466294D01*
X150185484Y-87580995D01*
X150003487Y-87720646D01*
X149841275Y-87882858D01*
X149701624Y-88064855D01*
X149586923Y-88263523D01*
X149499135Y-88475463D01*
X149439761Y-88697048D01*
X149435538Y-88729122D01*
X147896242Y-87189826D01*
X147765767Y-87433931D01*
X147624770Y-87774327D01*
X147517811Y-88126924D01*
X147517808Y-88126935D01*
X147445934Y-88488279D01*
X147445931Y-88488296D01*
X147409818Y-88854966D01*
X147409818Y-89223411D01*
X147445931Y-89590081D01*
X147445934Y-89590098D01*
X147517808Y-89951442D01*
X147517811Y-89951453D01*
X147624770Y-90304050D01*
X147765767Y-90644447D01*
X147765774Y-90644461D01*
X147896241Y-90888550D01*
X147896242Y-90888550D01*
X149435538Y-89349254D01*
X149439761Y-89381330D01*
X149499135Y-89602915D01*
X149586923Y-89814855D01*
X149701624Y-90013523D01*
X149841275Y-90195520D01*
X150003487Y-90357732D01*
X150185484Y-90497383D01*
X150384152Y-90612084D01*
X150596092Y-90699872D01*
X150817677Y-90759246D01*
X150849751Y-90763468D01*
X149310454Y-92302764D01*
X149554545Y-92433233D01*
X149554550Y-92433235D01*
X149894956Y-92574236D01*
X150247553Y-92681195D01*
X150247564Y-92681198D01*
X150608908Y-92753072D01*
X150608925Y-92753075D01*
X150975595Y-92789189D01*
X151344041Y-92789189D01*
X151710710Y-92753075D01*
X151710727Y-92753072D01*
X152072071Y-92681198D01*
X152072082Y-92681195D01*
X152424679Y-92574236D01*
X152765083Y-92433236D01*
X152800080Y-92414530D01*
X152868482Y-92400288D01*
X152933726Y-92425287D01*
X152975097Y-92481592D01*
X152979460Y-92551325D01*
X152975576Y-92564843D01*
X152943439Y-92656684D01*
X152880945Y-92930487D01*
X152880942Y-92930505D01*
X152849500Y-93209568D01*
X152849500Y-93752903D01*
X152829815Y-93819942D01*
X152813181Y-93840584D01*
X152734258Y-93919506D01*
X152516067Y-94185373D01*
X152516057Y-94185387D01*
X152324986Y-94471345D01*
X152324975Y-94471363D01*
X152162854Y-94774669D01*
X152162852Y-94774674D01*
X152031232Y-95092432D01*
X151931390Y-95421566D01*
X151864292Y-95758889D01*
X151830582Y-96101173D01*
X151830582Y-96475500D01*
X151810897Y-96542539D01*
X151758093Y-96588294D01*
X151706582Y-96599500D01*
X143468863Y-96599500D01*
X143401824Y-96579815D01*
X143356069Y-96527011D01*
X143345643Y-96461617D01*
X143350499Y-96418510D01*
X143350500Y-96418506D01*
X143350500Y-96081493D01*
X143350499Y-96081491D01*
X143312768Y-95746618D01*
X143312767Y-95746606D01*
X143237776Y-95418046D01*
X143126469Y-95099949D01*
X142980246Y-94796314D01*
X142910274Y-94684954D01*
X142850588Y-94589964D01*
X142831582Y-94523992D01*
X142831582Y-93122002D01*
X142851267Y-93054963D01*
X142886857Y-93020026D01*
X142886677Y-93019798D01*
X142888798Y-93018120D01*
X142890487Y-93016463D01*
X142892339Y-93015320D01*
X142892344Y-93015316D01*
X143016315Y-92891345D01*
X143108356Y-92742124D01*
X143108358Y-92742119D01*
X143163505Y-92575697D01*
X143163506Y-92575690D01*
X143173999Y-92472986D01*
X143174000Y-92472973D01*
X143174000Y-92448000D01*
X142955582Y-92448000D01*
X142888543Y-92428315D01*
X142842788Y-92375511D01*
X142831582Y-92324000D01*
X142831582Y-91572000D01*
X142851267Y-91504961D01*
X142904071Y-91459206D01*
X142955582Y-91448000D01*
X143173999Y-91448000D01*
X143173999Y-91423028D01*
X143173998Y-91423013D01*
X143163505Y-91320302D01*
X143108358Y-91153880D01*
X143108356Y-91153875D01*
X143016317Y-91004657D01*
X142892343Y-90880682D01*
X142890477Y-90879531D01*
X142889466Y-90878407D01*
X142886681Y-90876205D01*
X142887057Y-90875728D01*
X142843756Y-90827579D01*
X142831582Y-90773997D01*
X142831582Y-89610654D01*
X142831581Y-89610650D01*
X142831563Y-89610494D01*
X142814460Y-89458690D01*
X142800139Y-89331587D01*
X142800136Y-89331569D01*
X142737645Y-89057775D01*
X142737643Y-89057770D01*
X142737642Y-89057764D01*
X142735126Y-89050575D01*
X142644883Y-88792674D01*
X142634682Y-88771491D01*
X142603428Y-88706592D01*
X142523030Y-88539642D01*
X142490767Y-88488296D01*
X142373605Y-88301834D01*
X142270722Y-88172823D01*
X142227553Y-88118690D01*
X142201144Y-88054003D01*
X142200500Y-88041377D01*
X142200500Y-83071242D01*
X142220185Y-83004203D01*
X142242871Y-82977900D01*
X142314905Y-82914905D01*
X142333085Y-82894116D01*
X142513255Y-82688094D01*
X142679604Y-82436870D01*
X142810984Y-82165715D01*
X142905050Y-81879468D01*
X142960123Y-81583237D01*
X142970500Y-81406020D01*
X142970500Y-81006934D01*
X150899177Y-81006934D01*
X150899177Y-81006935D01*
X151061322Y-81039188D01*
X151061325Y-81039189D01*
X151258311Y-81039189D01*
X151420457Y-81006935D01*
X151420457Y-81006934D01*
X151159819Y-80746295D01*
X151159818Y-80746295D01*
X150899177Y-81006934D01*
X142970500Y-81006934D01*
X142970500Y-79940693D01*
X150159818Y-79940693D01*
X150159818Y-80137684D01*
X150192070Y-80299828D01*
X150192071Y-80299828D01*
X150452711Y-80039189D01*
X150452711Y-80039188D01*
X150413216Y-79999693D01*
X150859818Y-79999693D01*
X150859818Y-80078685D01*
X150880262Y-80154985D01*
X150919758Y-80223394D01*
X150975613Y-80279249D01*
X151044022Y-80318745D01*
X151120322Y-80339189D01*
X151199314Y-80339189D01*
X151275614Y-80318745D01*
X151344023Y-80279249D01*
X151399878Y-80223394D01*
X151439374Y-80154985D01*
X151459818Y-80078685D01*
X151459818Y-79999693D01*
X151439374Y-79923393D01*
X151399878Y-79854984D01*
X151344023Y-79799129D01*
X151275614Y-79759633D01*
X151199314Y-79739189D01*
X151120322Y-79739189D01*
X151044022Y-79759633D01*
X150975613Y-79799129D01*
X150919758Y-79854984D01*
X150880262Y-79923393D01*
X150859818Y-79999693D01*
X150413216Y-79999693D01*
X150192071Y-79778548D01*
X150192070Y-79778548D01*
X150159818Y-79940693D01*
X142970500Y-79940693D01*
X142970500Y-79633980D01*
X142960123Y-79456763D01*
X142905050Y-79160532D01*
X142875773Y-79071441D01*
X150899177Y-79071441D01*
X150899177Y-79071442D01*
X151159818Y-79332082D01*
X151159819Y-79332082D01*
X151420457Y-79071442D01*
X151420457Y-79071441D01*
X151258313Y-79039189D01*
X151061322Y-79039189D01*
X150899177Y-79071441D01*
X142875773Y-79071441D01*
X142810984Y-78874285D01*
X142679604Y-78603130D01*
X142513255Y-78351906D01*
X142416995Y-78241834D01*
X142314905Y-78125094D01*
X142088095Y-77926746D01*
X142088094Y-77926745D01*
X141836870Y-77760396D01*
X141836868Y-77760395D01*
X141836865Y-77760393D01*
X141565719Y-77629018D01*
X141565715Y-77629016D01*
X141565711Y-77629014D01*
X141565707Y-77629013D01*
X141279478Y-77534952D01*
X141279468Y-77534950D01*
X140983232Y-77479876D01*
X140806020Y-77469500D01*
X139033980Y-77469500D01*
X138856767Y-77479876D01*
X138560531Y-77534950D01*
X138560516Y-77534954D01*
X138355443Y-77602344D01*
X138285609Y-77604573D01*
X138275780Y-77601584D01*
X138225829Y-77584106D01*
X138225815Y-77584102D01*
X137990572Y-77530409D01*
X137891783Y-77507861D01*
X137891780Y-77507860D01*
X137891768Y-77507858D01*
X137551318Y-77469500D01*
X137551312Y-77469500D01*
X137208688Y-77469500D01*
X137208681Y-77469500D01*
X136868231Y-77507858D01*
X136868217Y-77507861D01*
X136534183Y-77584102D01*
X136534181Y-77584103D01*
X136210783Y-77697264D01*
X135902092Y-77845922D01*
X135611983Y-78028210D01*
X135344107Y-78241833D01*
X135101833Y-78484107D01*
X134888210Y-78751983D01*
X134705922Y-79042092D01*
X134557264Y-79350783D01*
X134444103Y-79674181D01*
X134444102Y-79674183D01*
X134367861Y-80008217D01*
X134367858Y-80008231D01*
X134329500Y-80348681D01*
X134329500Y-80691318D01*
X134367858Y-81031768D01*
X134367860Y-81031780D01*
X134367861Y-81031783D01*
X134372269Y-81051095D01*
X134444102Y-81365816D01*
X134444103Y-81365818D01*
X134557264Y-81689216D01*
X134705922Y-81997907D01*
X134705924Y-81997910D01*
X134888211Y-82288018D01*
X134982447Y-82406186D01*
X135008855Y-82470871D01*
X135009500Y-82483498D01*
X135009500Y-88351871D01*
X134990494Y-88417842D01*
X134968056Y-88453552D01*
X134968055Y-88453553D01*
X134846200Y-88706588D01*
X134753443Y-88971670D01*
X134753439Y-88971682D01*
X134690945Y-89245487D01*
X134690942Y-89245505D01*
X134659500Y-89524568D01*
X134659500Y-90734620D01*
X134639815Y-90801659D01*
X134600598Y-90840158D01*
X134531656Y-90882682D01*
X134407684Y-91006654D01*
X134315643Y-91155875D01*
X134315641Y-91155880D01*
X134260494Y-91322302D01*
X134260493Y-91322309D01*
X134250000Y-91425013D01*
X134250000Y-91450000D01*
X134525500Y-91450000D01*
X134592539Y-91469685D01*
X134638294Y-91522489D01*
X134649500Y-91574000D01*
X134649501Y-92326000D01*
X134629817Y-92393039D01*
X134577013Y-92438794D01*
X134525501Y-92450000D01*
X134250001Y-92450000D01*
X134250001Y-92474986D01*
X134260494Y-92577697D01*
X134315641Y-92744119D01*
X134315643Y-92744124D01*
X134407684Y-92893345D01*
X134531652Y-93017313D01*
X134535946Y-93019962D01*
X134582669Y-93071911D01*
X134593890Y-93140874D01*
X134566046Y-93204956D01*
X134507976Y-93243811D01*
X134470847Y-93249500D01*
X132988549Y-93249500D01*
X132774566Y-93264804D01*
X132494962Y-93325628D01*
X132226833Y-93425635D01*
X131975690Y-93562770D01*
X131975682Y-93562775D01*
X131746612Y-93734254D01*
X131746594Y-93734270D01*
X131544270Y-93936594D01*
X131544254Y-93936612D01*
X131372775Y-94165682D01*
X131372770Y-94165690D01*
X131235635Y-94416833D01*
X131135628Y-94684962D01*
X131074804Y-94964566D01*
X131059500Y-95178549D01*
X131059500Y-96475500D01*
X131039815Y-96542539D01*
X130987011Y-96588294D01*
X130935500Y-96599500D01*
X122692382Y-96599500D01*
X122625343Y-96579815D01*
X122579588Y-96527011D01*
X122568382Y-96475500D01*
X122568382Y-96144173D01*
X122534671Y-95801889D01*
X122467573Y-95464566D01*
X122467572Y-95464565D01*
X122467572Y-95464561D01*
X122367732Y-95135434D01*
X122236113Y-94817677D01*
X122224695Y-94796316D01*
X122073988Y-94514363D01*
X122073987Y-94514361D01*
X122073982Y-94514352D01*
X121882901Y-94228379D01*
X121664710Y-93962512D01*
X121575493Y-93873295D01*
X121542286Y-93813209D01*
X121506560Y-93656682D01*
X121413801Y-93391592D01*
X121291945Y-93138555D01*
X121142523Y-92900752D01*
X120967416Y-92681175D01*
X120925261Y-92639020D01*
X120891776Y-92577697D01*
X120896760Y-92508005D01*
X120938632Y-92452072D01*
X121004096Y-92427655D01*
X121072369Y-92442507D01*
X121081833Y-92448237D01*
X121255601Y-92564345D01*
X121255619Y-92564356D01*
X121580545Y-92738033D01*
X121580550Y-92738035D01*
X121920956Y-92879036D01*
X122273553Y-92985995D01*
X122273564Y-92985998D01*
X122634908Y-93057872D01*
X122634925Y-93057875D01*
X123001595Y-93093989D01*
X123370041Y-93093989D01*
X123736710Y-93057875D01*
X123736727Y-93057872D01*
X124098071Y-92985998D01*
X124098082Y-92985995D01*
X124450679Y-92879036D01*
X124791085Y-92738035D01*
X124791090Y-92738033D01*
X125035180Y-92607564D01*
X123495884Y-91068268D01*
X123527959Y-91064046D01*
X123749544Y-91004672D01*
X123961484Y-90916884D01*
X124160152Y-90802183D01*
X124342149Y-90662532D01*
X124504361Y-90500320D01*
X124644012Y-90318323D01*
X124758713Y-90119655D01*
X124846501Y-89907715D01*
X124905875Y-89686130D01*
X124910097Y-89654055D01*
X126449393Y-91193351D01*
X126579862Y-90949261D01*
X126579864Y-90949256D01*
X126720865Y-90608850D01*
X126827824Y-90256253D01*
X126827827Y-90256242D01*
X126899701Y-89894898D01*
X126899704Y-89894881D01*
X126935818Y-89528211D01*
X126935818Y-89159766D01*
X126899704Y-88793096D01*
X126899701Y-88793079D01*
X126827827Y-88431735D01*
X126827824Y-88431724D01*
X126720865Y-88079127D01*
X126579864Y-87738721D01*
X126579862Y-87738716D01*
X126449393Y-87494625D01*
X124910097Y-89033921D01*
X124905875Y-89001848D01*
X124846501Y-88780263D01*
X124758713Y-88568323D01*
X124644012Y-88369655D01*
X124504361Y-88187658D01*
X124342149Y-88025446D01*
X124160152Y-87885795D01*
X123961484Y-87771094D01*
X123749544Y-87683306D01*
X123527959Y-87623932D01*
X123495882Y-87619709D01*
X125035179Y-86080413D01*
X125035179Y-86080412D01*
X124791090Y-85949945D01*
X124791076Y-85949938D01*
X124450679Y-85808941D01*
X124098082Y-85701982D01*
X124098071Y-85701979D01*
X123736727Y-85630105D01*
X123736710Y-85630102D01*
X123370041Y-85593989D01*
X123001595Y-85593989D01*
X122634925Y-85630102D01*
X122634908Y-85630105D01*
X122273564Y-85701979D01*
X122273553Y-85701982D01*
X121920956Y-85808941D01*
X121580560Y-85949938D01*
X121336455Y-86080413D01*
X122875751Y-87619709D01*
X122843677Y-87623932D01*
X122622092Y-87683306D01*
X122410152Y-87771094D01*
X122211484Y-87885795D01*
X122029487Y-88025446D01*
X121867275Y-88187658D01*
X121727624Y-88369655D01*
X121612923Y-88568323D01*
X121525135Y-88780263D01*
X121465761Y-89001848D01*
X121461538Y-89033923D01*
X119922242Y-87494626D01*
X119791767Y-87738731D01*
X119650770Y-88079127D01*
X119543811Y-88431724D01*
X119543808Y-88431735D01*
X119471934Y-88793079D01*
X119471931Y-88793096D01*
X119435818Y-89159766D01*
X119435818Y-89528211D01*
X119471931Y-89894881D01*
X119471934Y-89894898D01*
X119495539Y-90013570D01*
X119495052Y-90019005D01*
X119497160Y-90024039D01*
X119491972Y-90053427D01*
X119489312Y-90083162D01*
X119485963Y-90087472D01*
X119485015Y-90092845D01*
X119464765Y-90114760D01*
X119446449Y-90138339D01*
X119441301Y-90140154D01*
X119437599Y-90144162D01*
X119408707Y-90151652D01*
X119380559Y-90161583D01*
X119373846Y-90160691D01*
X119369966Y-90161698D01*
X119335209Y-90155563D01*
X119271633Y-90134670D01*
X119214090Y-90095039D01*
X119192640Y-90055873D01*
X119184356Y-90030875D01*
X119092315Y-89881654D01*
X118968345Y-89757684D01*
X118819124Y-89665643D01*
X118819119Y-89665641D01*
X118652697Y-89610494D01*
X118652690Y-89610493D01*
X118549986Y-89600000D01*
X118525000Y-89600000D01*
X118525000Y-89875500D01*
X118505315Y-89942539D01*
X118452511Y-89988294D01*
X118401000Y-89999500D01*
X117649000Y-89999500D01*
X117581961Y-89979815D01*
X117536206Y-89927011D01*
X117525000Y-89875500D01*
X117525000Y-89599999D01*
X117500029Y-89600000D01*
X117500010Y-89600001D01*
X117397302Y-89610494D01*
X117230878Y-89665642D01*
X117230873Y-89665644D01*
X117224158Y-89669786D01*
X117156764Y-89688221D01*
X117090102Y-89667293D01*
X117055968Y-89633133D01*
X116960223Y-89489842D01*
X116882902Y-89374122D01*
X116664710Y-89108255D01*
X116664709Y-89108254D01*
X116664705Y-89108249D01*
X116399632Y-88843176D01*
X116133765Y-88624984D01*
X116133761Y-88624981D01*
X116133760Y-88624980D01*
X116128067Y-88621176D01*
X115910674Y-88475919D01*
X115865869Y-88422307D01*
X115857162Y-88352982D01*
X115887316Y-88289955D01*
X115946759Y-88253235D01*
X115955353Y-88251204D01*
X116026235Y-88237105D01*
X116538529Y-88099836D01*
X117040748Y-87929356D01*
X117530742Y-87726394D01*
X118006413Y-87491819D01*
X118465723Y-87226636D01*
X118906706Y-86931981D01*
X119327473Y-86609114D01*
X119726224Y-86259420D01*
X120101249Y-85884395D01*
X120450943Y-85485644D01*
X120773810Y-85064877D01*
X121009772Y-84711734D01*
X122225177Y-84711734D01*
X122225177Y-84711735D01*
X122387322Y-84743988D01*
X122387325Y-84743989D01*
X122584311Y-84743989D01*
X122746457Y-84711735D01*
X122746457Y-84711734D01*
X122485819Y-84451095D01*
X122485818Y-84451095D01*
X122225177Y-84711734D01*
X121009772Y-84711734D01*
X121068465Y-84623894D01*
X121071941Y-84617872D01*
X121073828Y-84614606D01*
X121073828Y-84614605D01*
X121333648Y-84164584D01*
X121379732Y-84071134D01*
X121427035Y-84019716D01*
X121494630Y-84002034D01*
X121517006Y-84005693D01*
X121818208Y-83704493D01*
X122185818Y-83704493D01*
X122185818Y-83783485D01*
X122206262Y-83859785D01*
X122245758Y-83928194D01*
X122301613Y-83984049D01*
X122370022Y-84023545D01*
X122446322Y-84043989D01*
X122525314Y-84043989D01*
X122601614Y-84023545D01*
X122670023Y-83984049D01*
X122725878Y-83928194D01*
X122765374Y-83859785D01*
X122785818Y-83783485D01*
X122785818Y-83743988D01*
X123192924Y-83743988D01*
X123192924Y-83743989D01*
X123453563Y-84004628D01*
X123453564Y-84004628D01*
X123485818Y-83842482D01*
X123485818Y-83645495D01*
X123485817Y-83645493D01*
X123453564Y-83483348D01*
X123453563Y-83483348D01*
X123192924Y-83743988D01*
X122785818Y-83743988D01*
X122785818Y-83704493D01*
X122765374Y-83628193D01*
X122725878Y-83559784D01*
X122670023Y-83503929D01*
X122601614Y-83464433D01*
X122525314Y-83443989D01*
X122446322Y-83443989D01*
X122370022Y-83464433D01*
X122301613Y-83503929D01*
X122245758Y-83559784D01*
X122206262Y-83628193D01*
X122185818Y-83704493D01*
X121818208Y-83704493D01*
X121917755Y-83604946D01*
X122132265Y-83390436D01*
X122746457Y-82776242D01*
X122746457Y-82776241D01*
X122584313Y-82743989D01*
X122387322Y-82743989D01*
X122194136Y-82782416D01*
X122194129Y-82782418D01*
X122116616Y-82814524D01*
X122047147Y-82821991D01*
X121984668Y-82790716D01*
X121949016Y-82730626D01*
X121949389Y-82667870D01*
X122078934Y-82184406D01*
X122082654Y-82165707D01*
X122182401Y-81664240D01*
X122182403Y-81664229D01*
X122228811Y-81311734D01*
X122925177Y-81311734D01*
X122925177Y-81311735D01*
X123087322Y-81343988D01*
X123087325Y-81343989D01*
X123284311Y-81343989D01*
X123446457Y-81311735D01*
X123446457Y-81311734D01*
X123185819Y-81051095D01*
X123185818Y-81051095D01*
X122925177Y-81311734D01*
X122228811Y-81311734D01*
X122235566Y-81260423D01*
X122251629Y-81138409D01*
X122251630Y-81138402D01*
X122286318Y-80609172D01*
X122286318Y-80587744D01*
X122306003Y-80520705D01*
X122322637Y-80500063D01*
X122478711Y-80343989D01*
X122478711Y-80343988D01*
X122439216Y-80304493D01*
X122885818Y-80304493D01*
X122885818Y-80383485D01*
X122906262Y-80459785D01*
X122945758Y-80528194D01*
X123001613Y-80584049D01*
X123070022Y-80623545D01*
X123146322Y-80643989D01*
X123225314Y-80643989D01*
X123301614Y-80623545D01*
X123370023Y-80584049D01*
X123425878Y-80528194D01*
X123465374Y-80459785D01*
X123485818Y-80383485D01*
X123485818Y-80343988D01*
X123892924Y-80343988D01*
X123892924Y-80343989D01*
X124153563Y-80604628D01*
X124153564Y-80604628D01*
X124185818Y-80442482D01*
X124185818Y-80245495D01*
X124185817Y-80245493D01*
X124153564Y-80083348D01*
X124153563Y-80083348D01*
X123892924Y-80343988D01*
X123485818Y-80343988D01*
X123485818Y-80304493D01*
X123465374Y-80228193D01*
X123425878Y-80159784D01*
X123370023Y-80103929D01*
X123301614Y-80064433D01*
X123225314Y-80043989D01*
X123146322Y-80043989D01*
X123070022Y-80064433D01*
X123001613Y-80103929D01*
X122945758Y-80159784D01*
X122906262Y-80228193D01*
X122885818Y-80304493D01*
X122439216Y-80304493D01*
X122322637Y-80187914D01*
X122289152Y-80126591D01*
X122286318Y-80100233D01*
X122286318Y-80078817D01*
X122286318Y-80078806D01*
X122251630Y-79549576D01*
X122251629Y-79549568D01*
X122235566Y-79427554D01*
X122228810Y-79376241D01*
X122925177Y-79376241D01*
X122925177Y-79376242D01*
X123185818Y-79636882D01*
X123185819Y-79636882D01*
X123446457Y-79376242D01*
X123446457Y-79376241D01*
X123284313Y-79343989D01*
X123087322Y-79343989D01*
X122925177Y-79376241D01*
X122228810Y-79376241D01*
X122198403Y-79145277D01*
X122182403Y-79023747D01*
X122098738Y-78603134D01*
X122078939Y-78503595D01*
X122078935Y-78503577D01*
X122038295Y-78351906D01*
X121941665Y-77991278D01*
X121891832Y-77844477D01*
X121888923Y-77774669D01*
X121924217Y-77714369D01*
X121986509Y-77682722D01*
X122056022Y-77689777D01*
X122056705Y-77690058D01*
X122094128Y-77705559D01*
X122094136Y-77705561D01*
X122287322Y-77743988D01*
X122287326Y-77743989D01*
X122484311Y-77743989D01*
X122646457Y-77711735D01*
X122646457Y-77711734D01*
X121639216Y-76704493D01*
X122085818Y-76704493D01*
X122085818Y-76783485D01*
X122106262Y-76859785D01*
X122145758Y-76928194D01*
X122201613Y-76984049D01*
X122270022Y-77023545D01*
X122346322Y-77043989D01*
X122425314Y-77043989D01*
X122501614Y-77023545D01*
X122570023Y-76984049D01*
X122625878Y-76928194D01*
X122665374Y-76859785D01*
X122685818Y-76783485D01*
X122685818Y-76743988D01*
X123092924Y-76743988D01*
X123092924Y-76743989D01*
X123353563Y-77004628D01*
X123353564Y-77004628D01*
X123385818Y-76842482D01*
X123385818Y-76645495D01*
X123353564Y-76483348D01*
X123353563Y-76483348D01*
X123092924Y-76743988D01*
X122685818Y-76743988D01*
X122685818Y-76704493D01*
X122665374Y-76628193D01*
X122625878Y-76559784D01*
X122570023Y-76503929D01*
X122501614Y-76464433D01*
X122425314Y-76443989D01*
X122346322Y-76443989D01*
X122270022Y-76464433D01*
X122201613Y-76503929D01*
X122145758Y-76559784D01*
X122106262Y-76628193D01*
X122085818Y-76704493D01*
X121639216Y-76704493D01*
X121417294Y-76482571D01*
X121350863Y-76483164D01*
X121291751Y-76445915D01*
X121287997Y-76440693D01*
X150859818Y-76440693D01*
X150859818Y-76637684D01*
X150892070Y-76799828D01*
X150892071Y-76799828D01*
X151152711Y-76539189D01*
X151152711Y-76539188D01*
X151113216Y-76499693D01*
X151559818Y-76499693D01*
X151559818Y-76578685D01*
X151580262Y-76654985D01*
X151619758Y-76723394D01*
X151675613Y-76779249D01*
X151744022Y-76818745D01*
X151820322Y-76839189D01*
X151899314Y-76839189D01*
X151975614Y-76818745D01*
X152044023Y-76779249D01*
X152099878Y-76723394D01*
X152139374Y-76654985D01*
X152159818Y-76578685D01*
X152159818Y-76499693D01*
X152139374Y-76423393D01*
X152099878Y-76354984D01*
X152044023Y-76299129D01*
X151975614Y-76259633D01*
X151899314Y-76239189D01*
X151820322Y-76239189D01*
X151744022Y-76259633D01*
X151675613Y-76299129D01*
X151619758Y-76354984D01*
X151580262Y-76423393D01*
X151559818Y-76499693D01*
X151113216Y-76499693D01*
X150892071Y-76278548D01*
X150892070Y-76278548D01*
X150859818Y-76440693D01*
X121287997Y-76440693D01*
X121277349Y-76425880D01*
X121068470Y-76064092D01*
X121068454Y-76064067D01*
X120945638Y-75880260D01*
X120876135Y-75776241D01*
X122125177Y-75776241D01*
X122125177Y-75776242D01*
X122385818Y-76036882D01*
X122385819Y-76036882D01*
X122646457Y-75776242D01*
X122646457Y-75776241D01*
X122484313Y-75743989D01*
X122287322Y-75743989D01*
X122125177Y-75776241D01*
X120876135Y-75776241D01*
X120808795Y-75675460D01*
X120808794Y-75675459D01*
X120773811Y-75623103D01*
X120773810Y-75623101D01*
X120734170Y-75571441D01*
X151599177Y-75571441D01*
X151599177Y-75571442D01*
X151859818Y-75832082D01*
X151859819Y-75832082D01*
X152120457Y-75571442D01*
X152120457Y-75571441D01*
X151958313Y-75539189D01*
X151761322Y-75539189D01*
X151599177Y-75571441D01*
X120734170Y-75571441D01*
X120450943Y-75202334D01*
X120101249Y-74803583D01*
X119726224Y-74428558D01*
X119327473Y-74078864D01*
X118906706Y-73755997D01*
X118906699Y-73755992D01*
X118465739Y-73461352D01*
X118465714Y-73461336D01*
X118006413Y-73196158D01*
X117905818Y-73146550D01*
X117854398Y-73099244D01*
X117836717Y-73031649D01*
X117858387Y-72965225D01*
X117912529Y-72921061D01*
X117936471Y-72913721D01*
X117946457Y-72911734D01*
X116939216Y-71904493D01*
X117385818Y-71904493D01*
X117385818Y-71983485D01*
X117406262Y-72059785D01*
X117445758Y-72128194D01*
X117501613Y-72184049D01*
X117570022Y-72223545D01*
X117646322Y-72243989D01*
X117725314Y-72243989D01*
X117801614Y-72223545D01*
X117870023Y-72184049D01*
X117925878Y-72128194D01*
X117965374Y-72059785D01*
X117985818Y-71983485D01*
X117985818Y-71943988D01*
X118392924Y-71943988D01*
X118392924Y-71943989D01*
X118653563Y-72204628D01*
X118653564Y-72204628D01*
X118685818Y-72042482D01*
X118685818Y-71845495D01*
X118685817Y-71845493D01*
X118653564Y-71683348D01*
X118653563Y-71683348D01*
X118392924Y-71943988D01*
X117985818Y-71943988D01*
X117985818Y-71904493D01*
X117965374Y-71828193D01*
X117925878Y-71759784D01*
X117870023Y-71703929D01*
X117801614Y-71664433D01*
X117725314Y-71643989D01*
X117646322Y-71643989D01*
X117570022Y-71664433D01*
X117501613Y-71703929D01*
X117445758Y-71759784D01*
X117406262Y-71828193D01*
X117385818Y-71904493D01*
X116939216Y-71904493D01*
X116718071Y-71683348D01*
X116718070Y-71683348D01*
X116685818Y-71845493D01*
X116685818Y-72042484D01*
X116724245Y-72235670D01*
X116724248Y-72235682D01*
X116799625Y-72417660D01*
X116799635Y-72417678D01*
X116820599Y-72449053D01*
X116841477Y-72515730D01*
X116822992Y-72583110D01*
X116771013Y-72629800D01*
X116702043Y-72640976D01*
X116677639Y-72635362D01*
X116538547Y-72588147D01*
X116538530Y-72588142D01*
X116026229Y-72450871D01*
X116026211Y-72450867D01*
X115506069Y-72347405D01*
X115506058Y-72347403D01*
X114980223Y-72278175D01*
X114526690Y-72248449D01*
X114461081Y-72224422D01*
X114447119Y-72212396D01*
X114185819Y-71951095D01*
X113924515Y-72212397D01*
X113863192Y-72245881D01*
X113844944Y-72248449D01*
X113391413Y-72278175D01*
X113391411Y-72278175D01*
X112865577Y-72347403D01*
X112865566Y-72347405D01*
X112345424Y-72450867D01*
X112345398Y-72450873D01*
X111856777Y-72581799D01*
X111786928Y-72580136D01*
X111729065Y-72540974D01*
X111701561Y-72476745D01*
X111713147Y-72407843D01*
X111721582Y-72393132D01*
X111772006Y-72317667D01*
X111772010Y-72317660D01*
X111847387Y-72135682D01*
X111847390Y-72135670D01*
X111885817Y-71942484D01*
X111885818Y-71942481D01*
X111885818Y-71745495D01*
X111885817Y-71745493D01*
X111853564Y-71583348D01*
X111853563Y-71583348D01*
X111239371Y-72197542D01*
X110625177Y-72811734D01*
X110625177Y-72811735D01*
X110637144Y-72814116D01*
X110699055Y-72846501D01*
X110733629Y-72907216D01*
X110729890Y-72976986D01*
X110689024Y-73033658D01*
X110667797Y-73046945D01*
X110365222Y-73196158D01*
X109905921Y-73461336D01*
X109905896Y-73461352D01*
X109464936Y-73755992D01*
X109441373Y-73774073D01*
X109044163Y-74078864D01*
X109044157Y-74078868D01*
X109044152Y-74078873D01*
X108645407Y-74428562D01*
X108270391Y-74803578D01*
X107920702Y-75202323D01*
X107920697Y-75202328D01*
X107920693Y-75202334D01*
X107738947Y-75439189D01*
X107597821Y-75623107D01*
X107303181Y-76064067D01*
X107303165Y-76064092D01*
X107037986Y-76523395D01*
X107034797Y-76529862D01*
X106987488Y-76581278D01*
X106919891Y-76598955D01*
X106887594Y-76593671D01*
X106853563Y-76583348D01*
X106239371Y-77197542D01*
X105625177Y-77811734D01*
X105625177Y-77811735D01*
X105787322Y-77843988D01*
X105787325Y-77843989D01*
X105984310Y-77843989D01*
X105984313Y-77843988D01*
X106177499Y-77805561D01*
X106177507Y-77805559D01*
X106291791Y-77758221D01*
X106361260Y-77750752D01*
X106423739Y-77782027D01*
X106459392Y-77842115D01*
X106456899Y-77911940D01*
X106456664Y-77912639D01*
X106429971Y-77991276D01*
X106292700Y-78503577D01*
X106292696Y-78503595D01*
X106189234Y-79023737D01*
X106189232Y-79023748D01*
X106120006Y-79549568D01*
X106107578Y-79739189D01*
X106085318Y-80078806D01*
X106085318Y-80078817D01*
X106085318Y-80100233D01*
X106065633Y-80167272D01*
X106048999Y-80187914D01*
X105892924Y-80343988D01*
X106048999Y-80500062D01*
X106082484Y-80561385D01*
X106085318Y-80587744D01*
X106085318Y-80609172D01*
X106094306Y-80746295D01*
X106120006Y-81138409D01*
X106189232Y-81664229D01*
X106189234Y-81664240D01*
X106292696Y-82184382D01*
X106292700Y-82184400D01*
X106429971Y-82696701D01*
X106429973Y-82696709D01*
X106600450Y-83198916D01*
X106600454Y-83198927D01*
X106803414Y-83688916D01*
X107037987Y-84164584D01*
X107303165Y-84623885D01*
X107303181Y-84623910D01*
X107394165Y-84760077D01*
X107597826Y-85064877D01*
X107920693Y-85485644D01*
X108270387Y-85884395D01*
X108645412Y-86259420D01*
X109044163Y-86609114D01*
X109464930Y-86931981D01*
X109464936Y-86931985D01*
X109905896Y-87226625D01*
X109905921Y-87226641D01*
X110365222Y-87491819D01*
X110753520Y-87683306D01*
X110840894Y-87726394D01*
X111330888Y-87929356D01*
X111613961Y-88025446D01*
X111833097Y-88099833D01*
X111833102Y-88099834D01*
X111833107Y-88099836D01*
X112220143Y-88203542D01*
X112279804Y-88239907D01*
X112310333Y-88302754D01*
X112302038Y-88372130D01*
X112257553Y-88426007D01*
X112246517Y-88432668D01*
X112244226Y-88433893D01*
X112244213Y-88433900D01*
X112244210Y-88433901D01*
X112244196Y-88433910D01*
X111958257Y-88624967D01*
X111958234Y-88624984D01*
X111692367Y-88843176D01*
X111449176Y-89086367D01*
X111230984Y-89352234D01*
X111230977Y-89352243D01*
X111173534Y-89438213D01*
X111115830Y-89524575D01*
X111113401Y-89528211D01*
X111039899Y-89638213D01*
X110877772Y-89941530D01*
X110877770Y-89941535D01*
X110746150Y-90259293D01*
X110646308Y-90588427D01*
X110579210Y-90925750D01*
X110545500Y-91268034D01*
X110545500Y-91611965D01*
X110566785Y-91828083D01*
X110567382Y-91840237D01*
X110567382Y-92962758D01*
X110547697Y-93029797D01*
X110494893Y-93075552D01*
X110425735Y-93085496D01*
X110395930Y-93077319D01*
X110248592Y-93016291D01*
X110248591Y-93016290D01*
X110248587Y-93016289D01*
X110008745Y-92943533D01*
X109919454Y-92916447D01*
X109582130Y-92849349D01*
X109582131Y-92849349D01*
X109324338Y-92823960D01*
X109239851Y-92815639D01*
X108895913Y-92815639D01*
X108817848Y-92823327D01*
X108553632Y-92849349D01*
X108216309Y-92916447D01*
X107887175Y-93016289D01*
X107569417Y-93147909D01*
X107569412Y-93147911D01*
X107266106Y-93310032D01*
X107266088Y-93310043D01*
X106980130Y-93501114D01*
X106980116Y-93501124D01*
X106714249Y-93719315D01*
X106471058Y-93962506D01*
X106252867Y-94228373D01*
X106252857Y-94228387D01*
X106061786Y-94514345D01*
X106061775Y-94514363D01*
X105899654Y-94817669D01*
X105899652Y-94817674D01*
X105768032Y-95135432D01*
X105668190Y-95464566D01*
X105601092Y-95801889D01*
X105567382Y-96144173D01*
X105567382Y-97313295D01*
X105547697Y-97380334D01*
X105494893Y-97426089D01*
X105466051Y-97435205D01*
X105453783Y-97437486D01*
X105440524Y-97439951D01*
X105440517Y-97439953D01*
X105154291Y-97534013D01*
X105154279Y-97534018D01*
X104883133Y-97665393D01*
X104883128Y-97665396D01*
X104631906Y-97831743D01*
X104405093Y-98030093D01*
X104206743Y-98256906D01*
X104040396Y-98508128D01*
X104040393Y-98508133D01*
X103909019Y-98779276D01*
X103909017Y-98779280D01*
X103884670Y-98853367D01*
X103845039Y-98910909D01*
X103805875Y-98932358D01*
X103780879Y-98940641D01*
X103631654Y-99032684D01*
X103507684Y-99156654D01*
X103415643Y-99305875D01*
X103415641Y-99305880D01*
X103360494Y-99472302D01*
X103360493Y-99472309D01*
X103350000Y-99575013D01*
X103350000Y-99600000D01*
X103625500Y-99600000D01*
X103692539Y-99619685D01*
X103738294Y-99672489D01*
X103749500Y-99724000D01*
X103749500Y-100240430D01*
X103749501Y-100475999D01*
X103729817Y-100543039D01*
X103677013Y-100588794D01*
X103625501Y-100600000D01*
X103350001Y-100600000D01*
X103350001Y-100624986D01*
X103360494Y-100727697D01*
X103415641Y-100894119D01*
X103415643Y-100894124D01*
X103507684Y-101043345D01*
X103631654Y-101167315D01*
X103780875Y-101259356D01*
X103780878Y-101259357D01*
X103805873Y-101267640D01*
X103863317Y-101307413D01*
X103884670Y-101346633D01*
X103909014Y-101420712D01*
X103909018Y-101420720D01*
X104040393Y-101691866D01*
X104040396Y-101691871D01*
X104206743Y-101943093D01*
X104405093Y-102169906D01*
X104631906Y-102368256D01*
X104883128Y-102534603D01*
X104883133Y-102534606D01*
X105014971Y-102598484D01*
X105154284Y-102665984D01*
X105248225Y-102696855D01*
X105440520Y-102760047D01*
X105440524Y-102760047D01*
X105440531Y-102760050D01*
X105466046Y-102764793D01*
X105528357Y-102796398D01*
X105563691Y-102856675D01*
X105567382Y-102886704D01*
X105567382Y-109039254D01*
X105567232Y-109045345D01*
X105567100Y-109048029D01*
X105567100Y-109048031D01*
X105567100Y-109391969D01*
X105576388Y-109486277D01*
X105600810Y-109734247D01*
X105600811Y-109734250D01*
X105653772Y-110000500D01*
X105667910Y-110071578D01*
X105737049Y-110299499D01*
X105767750Y-110400706D01*
X105899370Y-110718464D01*
X105899372Y-110718469D01*
X106061497Y-111021782D01*
X106061508Y-111021800D01*
X106252574Y-111307751D01*
X106252584Y-111307765D01*
X106470776Y-111573632D01*
X106706437Y-111809293D01*
X106739922Y-111870616D01*
X106734938Y-111940308D01*
X106693066Y-111996241D01*
X106658615Y-112014393D01*
X106212672Y-112165771D01*
X106212661Y-112165775D01*
X105722672Y-112368735D01*
X105247004Y-112603308D01*
X104787703Y-112868486D01*
X104787678Y-112868502D01*
X104346718Y-113163142D01*
X104172298Y-113296979D01*
X103925945Y-113486014D01*
X103925939Y-113486018D01*
X103925934Y-113486023D01*
X103527189Y-113835712D01*
X103152173Y-114210728D01*
X102802484Y-114609473D01*
X102802479Y-114609478D01*
X102802475Y-114609484D01*
X102613440Y-114855837D01*
X102479603Y-115030257D01*
X102184963Y-115471217D01*
X102184947Y-115471242D01*
X101919769Y-115930543D01*
X101873686Y-116023991D01*
X101826380Y-116075411D01*
X101758785Y-116093092D01*
X101736411Y-116089432D01*
X101121153Y-116704692D01*
X100506959Y-117318884D01*
X93565582Y-117318884D01*
X93565582Y-116252643D01*
X99767600Y-116252643D01*
X99767600Y-116449634D01*
X99799852Y-116611778D01*
X99799853Y-116611778D01*
X100060493Y-116351139D01*
X100060493Y-116351138D01*
X100020998Y-116311643D01*
X100467600Y-116311643D01*
X100467600Y-116390635D01*
X100488044Y-116466935D01*
X100527540Y-116535344D01*
X100583395Y-116591199D01*
X100651804Y-116630695D01*
X100728104Y-116651139D01*
X100807096Y-116651139D01*
X100883396Y-116630695D01*
X100951805Y-116591199D01*
X101007660Y-116535344D01*
X101047156Y-116466935D01*
X101067600Y-116390635D01*
X101067600Y-116311643D01*
X101047156Y-116235343D01*
X101007660Y-116166934D01*
X100951805Y-116111079D01*
X100883396Y-116071583D01*
X100807096Y-116051139D01*
X100728104Y-116051139D01*
X100651804Y-116071583D01*
X100583395Y-116111079D01*
X100527540Y-116166934D01*
X100488044Y-116235343D01*
X100467600Y-116311643D01*
X100020998Y-116311643D01*
X99799853Y-116090498D01*
X99799852Y-116090498D01*
X99767600Y-116252643D01*
X93565582Y-116252643D01*
X93565582Y-115383391D01*
X100506959Y-115383391D01*
X100506959Y-115383392D01*
X100767600Y-115644032D01*
X100767601Y-115644032D01*
X101028239Y-115383392D01*
X101028239Y-115383391D01*
X100866095Y-115351139D01*
X100669104Y-115351139D01*
X100506959Y-115383391D01*
X93565582Y-115383391D01*
X93565582Y-110566916D01*
X96317600Y-110566916D01*
X96317600Y-110935361D01*
X96353713Y-111302031D01*
X96353716Y-111302048D01*
X96425590Y-111663392D01*
X96425593Y-111663403D01*
X96532552Y-112016000D01*
X96673549Y-112356397D01*
X96673556Y-112356411D01*
X96804023Y-112600500D01*
X96804024Y-112600500D01*
X98343320Y-111061204D01*
X98347543Y-111093280D01*
X98406917Y-111314865D01*
X98494705Y-111526805D01*
X98609406Y-111725473D01*
X98749057Y-111907470D01*
X98911269Y-112069682D01*
X99093266Y-112209333D01*
X99291934Y-112324034D01*
X99503874Y-112411822D01*
X99725459Y-112471196D01*
X99757533Y-112475418D01*
X98218236Y-114014714D01*
X98462327Y-114145183D01*
X98462332Y-114145185D01*
X98802738Y-114286186D01*
X99155335Y-114393145D01*
X99155346Y-114393148D01*
X99516690Y-114465022D01*
X99516707Y-114465025D01*
X99883377Y-114501139D01*
X100251823Y-114501139D01*
X100618492Y-114465025D01*
X100618509Y-114465022D01*
X100979853Y-114393148D01*
X100979864Y-114393145D01*
X101332461Y-114286186D01*
X101672867Y-114145185D01*
X101672872Y-114145183D01*
X101916962Y-114014714D01*
X100377666Y-112475418D01*
X100409741Y-112471196D01*
X100631326Y-112411822D01*
X100843266Y-112324034D01*
X101041934Y-112209333D01*
X101223931Y-112069682D01*
X101386143Y-111907470D01*
X101525794Y-111725473D01*
X101640495Y-111526805D01*
X101728283Y-111314865D01*
X101787657Y-111093280D01*
X101791879Y-111061205D01*
X103331175Y-112600501D01*
X103461644Y-112356411D01*
X103461646Y-112356406D01*
X103602647Y-112016000D01*
X103709606Y-111663403D01*
X103709609Y-111663392D01*
X103781483Y-111302048D01*
X103781486Y-111302031D01*
X103817600Y-110935361D01*
X103817600Y-110566916D01*
X103781486Y-110200246D01*
X103781483Y-110200229D01*
X103709609Y-109838885D01*
X103709606Y-109838874D01*
X103602647Y-109486277D01*
X103461646Y-109145871D01*
X103461644Y-109145866D01*
X103331175Y-108901775D01*
X101791879Y-110441071D01*
X101787657Y-110408998D01*
X101728283Y-110187413D01*
X101640495Y-109975473D01*
X101525794Y-109776805D01*
X101386143Y-109594808D01*
X101223931Y-109432596D01*
X101041934Y-109292945D01*
X100843266Y-109178244D01*
X100631326Y-109090456D01*
X100409741Y-109031082D01*
X100377664Y-109026859D01*
X101916961Y-107487563D01*
X101916961Y-107487562D01*
X101672872Y-107357095D01*
X101672858Y-107357088D01*
X101332461Y-107216091D01*
X100979864Y-107109132D01*
X100979853Y-107109129D01*
X100618509Y-107037255D01*
X100618492Y-107037252D01*
X100251823Y-107001139D01*
X99883377Y-107001139D01*
X99516707Y-107037252D01*
X99516690Y-107037255D01*
X99155346Y-107109129D01*
X99155335Y-107109132D01*
X98802738Y-107216091D01*
X98462342Y-107357088D01*
X98218237Y-107487563D01*
X99757533Y-109026859D01*
X99725459Y-109031082D01*
X99503874Y-109090456D01*
X99291934Y-109178244D01*
X99093266Y-109292945D01*
X98911269Y-109432596D01*
X98749057Y-109594808D01*
X98609406Y-109776805D01*
X98494705Y-109975473D01*
X98406917Y-110187413D01*
X98347543Y-110408998D01*
X98343320Y-110441072D01*
X96804024Y-108901776D01*
X96673549Y-109145881D01*
X96532552Y-109486277D01*
X96425593Y-109838874D01*
X96425590Y-109838885D01*
X96353716Y-110200229D01*
X96353713Y-110200246D01*
X96317600Y-110566916D01*
X93565582Y-110566916D01*
X93565582Y-89159766D01*
X101435818Y-89159766D01*
X101435818Y-89528211D01*
X101471931Y-89894881D01*
X101471934Y-89894898D01*
X101543808Y-90256242D01*
X101543811Y-90256253D01*
X101650770Y-90608850D01*
X101791767Y-90949247D01*
X101791774Y-90949261D01*
X101922241Y-91193350D01*
X101922242Y-91193350D01*
X103461538Y-89654054D01*
X103465761Y-89686130D01*
X103525135Y-89907715D01*
X103612923Y-90119655D01*
X103727624Y-90318323D01*
X103867275Y-90500320D01*
X104029487Y-90662532D01*
X104211484Y-90802183D01*
X104410152Y-90916884D01*
X104622092Y-91004672D01*
X104843677Y-91064046D01*
X104875751Y-91068268D01*
X103336454Y-92607564D01*
X103580545Y-92738033D01*
X103580550Y-92738035D01*
X103920956Y-92879036D01*
X104273553Y-92985995D01*
X104273564Y-92985998D01*
X104634908Y-93057872D01*
X104634925Y-93057875D01*
X105001595Y-93093989D01*
X105370041Y-93093989D01*
X105736710Y-93057875D01*
X105736727Y-93057872D01*
X106098071Y-92985998D01*
X106098082Y-92985995D01*
X106450679Y-92879036D01*
X106791085Y-92738035D01*
X106791090Y-92738033D01*
X107035180Y-92607564D01*
X105495884Y-91068268D01*
X105527959Y-91064046D01*
X105749544Y-91004672D01*
X105961484Y-90916884D01*
X106160152Y-90802183D01*
X106342149Y-90662532D01*
X106504361Y-90500320D01*
X106644012Y-90318323D01*
X106758713Y-90119655D01*
X106846501Y-89907715D01*
X106905875Y-89686130D01*
X106910097Y-89654055D01*
X108449393Y-91193351D01*
X108579862Y-90949261D01*
X108579864Y-90949256D01*
X108720865Y-90608850D01*
X108827824Y-90256253D01*
X108827827Y-90256242D01*
X108899701Y-89894898D01*
X108899704Y-89894881D01*
X108935818Y-89528211D01*
X108935818Y-89159766D01*
X108899704Y-88793096D01*
X108899701Y-88793079D01*
X108827827Y-88431735D01*
X108827824Y-88431724D01*
X108720865Y-88079127D01*
X108579864Y-87738721D01*
X108579862Y-87738716D01*
X108449393Y-87494625D01*
X106910097Y-89033921D01*
X106905875Y-89001848D01*
X106846501Y-88780263D01*
X106758713Y-88568323D01*
X106644012Y-88369655D01*
X106504361Y-88187658D01*
X106342149Y-88025446D01*
X106160152Y-87885795D01*
X105961484Y-87771094D01*
X105749544Y-87683306D01*
X105527959Y-87623932D01*
X105495882Y-87619709D01*
X107035179Y-86080413D01*
X107035179Y-86080412D01*
X106791090Y-85949945D01*
X106791076Y-85949938D01*
X106450679Y-85808941D01*
X106098082Y-85701982D01*
X106098071Y-85701979D01*
X105736727Y-85630105D01*
X105736710Y-85630102D01*
X105370041Y-85593989D01*
X105001595Y-85593989D01*
X104634925Y-85630102D01*
X104634908Y-85630105D01*
X104273564Y-85701979D01*
X104273553Y-85701982D01*
X103920956Y-85808941D01*
X103580560Y-85949938D01*
X103336455Y-86080413D01*
X104875751Y-87619709D01*
X104843677Y-87623932D01*
X104622092Y-87683306D01*
X104410152Y-87771094D01*
X104211484Y-87885795D01*
X104029487Y-88025446D01*
X103867275Y-88187658D01*
X103727624Y-88369655D01*
X103612923Y-88568323D01*
X103525135Y-88780263D01*
X103465761Y-89001848D01*
X103461538Y-89033922D01*
X101922242Y-87494626D01*
X101791767Y-87738731D01*
X101650770Y-88079127D01*
X101543811Y-88431724D01*
X101543808Y-88431735D01*
X101471934Y-88793079D01*
X101471931Y-88793096D01*
X101435818Y-89159766D01*
X93565582Y-89159766D01*
X93565582Y-81311734D01*
X104925177Y-81311734D01*
X104925177Y-81311735D01*
X105087322Y-81343988D01*
X105087325Y-81343989D01*
X105284311Y-81343989D01*
X105446457Y-81311735D01*
X105446457Y-81311734D01*
X105185819Y-81051095D01*
X105185818Y-81051095D01*
X104925177Y-81311734D01*
X93565582Y-81311734D01*
X93565582Y-80245493D01*
X104185818Y-80245493D01*
X104185818Y-80442484D01*
X104218070Y-80604628D01*
X104218071Y-80604628D01*
X104478711Y-80343989D01*
X104478711Y-80343988D01*
X104439216Y-80304493D01*
X104885818Y-80304493D01*
X104885818Y-80383485D01*
X104906262Y-80459785D01*
X104945758Y-80528194D01*
X105001613Y-80584049D01*
X105070022Y-80623545D01*
X105146322Y-80643989D01*
X105225314Y-80643989D01*
X105301614Y-80623545D01*
X105370023Y-80584049D01*
X105425878Y-80528194D01*
X105465374Y-80459785D01*
X105485818Y-80383485D01*
X105485818Y-80304493D01*
X105465374Y-80228193D01*
X105425878Y-80159784D01*
X105370023Y-80103929D01*
X105301614Y-80064433D01*
X105225314Y-80043989D01*
X105146322Y-80043989D01*
X105070022Y-80064433D01*
X105001613Y-80103929D01*
X104945758Y-80159784D01*
X104906262Y-80228193D01*
X104885818Y-80304493D01*
X104439216Y-80304493D01*
X104218071Y-80083348D01*
X104218070Y-80083348D01*
X104185818Y-80245493D01*
X93565582Y-80245493D01*
X93565582Y-79376241D01*
X104925177Y-79376241D01*
X104925177Y-79376242D01*
X105185818Y-79636882D01*
X105185819Y-79636882D01*
X105446457Y-79376242D01*
X105446457Y-79376241D01*
X105284313Y-79343989D01*
X105087322Y-79343989D01*
X104925177Y-79376241D01*
X93565582Y-79376241D01*
X93565582Y-76745493D01*
X104885818Y-76745493D01*
X104885818Y-76942484D01*
X104918070Y-77104628D01*
X104918071Y-77104628D01*
X105178711Y-76843989D01*
X105178711Y-76843988D01*
X105139216Y-76804493D01*
X105585818Y-76804493D01*
X105585818Y-76883485D01*
X105606262Y-76959785D01*
X105645758Y-77028194D01*
X105701613Y-77084049D01*
X105770022Y-77123545D01*
X105846322Y-77143989D01*
X105925314Y-77143989D01*
X106001614Y-77123545D01*
X106070023Y-77084049D01*
X106125878Y-77028194D01*
X106165374Y-76959785D01*
X106185818Y-76883485D01*
X106185818Y-76804493D01*
X106165374Y-76728193D01*
X106125878Y-76659784D01*
X106070023Y-76603929D01*
X106001614Y-76564433D01*
X105925314Y-76543989D01*
X105846322Y-76543989D01*
X105770022Y-76564433D01*
X105701613Y-76603929D01*
X105645758Y-76659784D01*
X105606262Y-76728193D01*
X105585818Y-76804493D01*
X105139216Y-76804493D01*
X104918071Y-76583348D01*
X104918070Y-76583348D01*
X104885818Y-76745493D01*
X93565582Y-76745493D01*
X93565582Y-75876241D01*
X105625177Y-75876241D01*
X105625177Y-75876242D01*
X105885818Y-76136882D01*
X105885819Y-76136882D01*
X106146457Y-75876242D01*
X106146457Y-75876241D01*
X105984313Y-75843989D01*
X105787322Y-75843989D01*
X105625177Y-75876241D01*
X93565582Y-75876241D01*
X93565582Y-71399847D01*
X93565581Y-71399844D01*
X93564520Y-71391786D01*
X93565567Y-71391648D01*
X93563172Y-71372074D01*
X93567239Y-71159766D01*
X101435818Y-71159766D01*
X101435818Y-71528211D01*
X101471931Y-71894881D01*
X101471934Y-71894898D01*
X101543808Y-72256242D01*
X101543811Y-72256253D01*
X101650770Y-72608850D01*
X101791767Y-72949247D01*
X101791774Y-72949261D01*
X101922241Y-73193350D01*
X101922242Y-73193350D01*
X103461538Y-71654054D01*
X103465761Y-71686130D01*
X103525135Y-71907715D01*
X103612923Y-72119655D01*
X103727624Y-72318323D01*
X103867275Y-72500320D01*
X104029487Y-72662532D01*
X104211484Y-72802183D01*
X104410152Y-72916884D01*
X104622092Y-73004672D01*
X104843677Y-73064046D01*
X104875751Y-73068268D01*
X103336454Y-74607564D01*
X103580545Y-74738033D01*
X103580550Y-74738035D01*
X103920956Y-74879036D01*
X104273553Y-74985995D01*
X104273564Y-74985998D01*
X104634908Y-75057872D01*
X104634925Y-75057875D01*
X105001595Y-75093989D01*
X105370041Y-75093989D01*
X105736710Y-75057875D01*
X105736727Y-75057872D01*
X106098071Y-74985998D01*
X106098082Y-74985995D01*
X106450679Y-74879036D01*
X106791085Y-74738035D01*
X106791090Y-74738033D01*
X107035180Y-74607564D01*
X105495884Y-73068268D01*
X105527959Y-73064046D01*
X105749544Y-73004672D01*
X105961484Y-72916884D01*
X106160152Y-72802183D01*
X106342149Y-72662532D01*
X106504361Y-72500320D01*
X106644012Y-72318323D01*
X106758713Y-72119655D01*
X106846501Y-71907715D01*
X106905875Y-71686130D01*
X106910097Y-71654055D01*
X108449393Y-73193351D01*
X108579862Y-72949261D01*
X108579864Y-72949256D01*
X108720865Y-72608850D01*
X108827824Y-72256253D01*
X108827827Y-72256242D01*
X108899701Y-71894898D01*
X108899704Y-71894882D01*
X108914417Y-71745493D01*
X109885818Y-71745493D01*
X109885818Y-71942484D01*
X109918070Y-72104628D01*
X109918071Y-72104628D01*
X110178711Y-71843989D01*
X110178711Y-71843988D01*
X110139216Y-71804493D01*
X110585818Y-71804493D01*
X110585818Y-71883485D01*
X110606262Y-71959785D01*
X110645758Y-72028194D01*
X110701613Y-72084049D01*
X110770022Y-72123545D01*
X110846322Y-72143989D01*
X110925314Y-72143989D01*
X111001614Y-72123545D01*
X111070023Y-72084049D01*
X111125878Y-72028194D01*
X111165374Y-71959785D01*
X111185818Y-71883485D01*
X111185818Y-71804493D01*
X111165374Y-71728193D01*
X111125878Y-71659784D01*
X111070023Y-71603929D01*
X111001614Y-71564433D01*
X110925314Y-71543989D01*
X110846322Y-71543989D01*
X110770022Y-71564433D01*
X110701613Y-71603929D01*
X110645758Y-71659784D01*
X110606262Y-71728193D01*
X110585818Y-71804493D01*
X110139216Y-71804493D01*
X109918071Y-71583348D01*
X109918070Y-71583348D01*
X109885818Y-71745493D01*
X108914417Y-71745493D01*
X108916214Y-71727252D01*
X108935818Y-71528211D01*
X108935818Y-71159766D01*
X108934412Y-71145493D01*
X113185818Y-71145493D01*
X113185818Y-71342484D01*
X113218070Y-71504628D01*
X113218071Y-71504628D01*
X113478711Y-71243989D01*
X113478711Y-71243988D01*
X113439216Y-71204493D01*
X113885818Y-71204493D01*
X113885818Y-71283485D01*
X113906262Y-71359785D01*
X113945758Y-71428194D01*
X114001613Y-71484049D01*
X114070022Y-71523545D01*
X114146322Y-71543989D01*
X114225314Y-71543989D01*
X114301614Y-71523545D01*
X114370023Y-71484049D01*
X114425878Y-71428194D01*
X114465374Y-71359785D01*
X114485818Y-71283485D01*
X114485818Y-71243988D01*
X114892924Y-71243988D01*
X114892924Y-71243989D01*
X115153563Y-71504628D01*
X115153564Y-71504628D01*
X115185818Y-71342482D01*
X115185818Y-71145495D01*
X115185817Y-71145493D01*
X115163951Y-71035560D01*
X115153565Y-70983348D01*
X115153563Y-70983348D01*
X114892924Y-71243988D01*
X114485818Y-71243988D01*
X114485818Y-71204493D01*
X114465374Y-71128193D01*
X114425878Y-71059784D01*
X114370023Y-71003929D01*
X114322066Y-70976241D01*
X117425177Y-70976241D01*
X117425177Y-70976242D01*
X117685818Y-71236882D01*
X117685819Y-71236882D01*
X117762935Y-71159766D01*
X119435818Y-71159766D01*
X119435818Y-71528211D01*
X119471931Y-71894881D01*
X119471934Y-71894898D01*
X119543808Y-72256242D01*
X119543811Y-72256253D01*
X119650770Y-72608850D01*
X119791767Y-72949247D01*
X119791774Y-72949261D01*
X119922241Y-73193350D01*
X119922242Y-73193350D01*
X121461538Y-71654054D01*
X121465761Y-71686130D01*
X121525135Y-71907715D01*
X121612923Y-72119655D01*
X121727624Y-72318323D01*
X121867275Y-72500320D01*
X122029487Y-72662532D01*
X122211484Y-72802183D01*
X122410152Y-72916884D01*
X122622092Y-73004672D01*
X122843677Y-73064046D01*
X122875751Y-73068268D01*
X121336454Y-74607564D01*
X121580545Y-74738033D01*
X121580550Y-74738035D01*
X121920956Y-74879036D01*
X122273553Y-74985995D01*
X122273564Y-74985998D01*
X122634908Y-75057872D01*
X122634925Y-75057875D01*
X123001595Y-75093989D01*
X123370041Y-75093989D01*
X123736710Y-75057875D01*
X123736727Y-75057872D01*
X124098071Y-74985998D01*
X124098082Y-74985995D01*
X124450679Y-74879036D01*
X124791085Y-74738035D01*
X124791090Y-74738033D01*
X125035180Y-74607564D01*
X123495884Y-73068268D01*
X123527959Y-73064046D01*
X123749544Y-73004672D01*
X123961484Y-72916884D01*
X124160152Y-72802183D01*
X124342149Y-72662532D01*
X124504361Y-72500320D01*
X124644012Y-72318323D01*
X124758713Y-72119655D01*
X124846501Y-71907715D01*
X124905875Y-71686130D01*
X124910097Y-71654055D01*
X126449393Y-73193351D01*
X126579862Y-72949261D01*
X126579864Y-72949256D01*
X126720865Y-72608850D01*
X126827824Y-72256253D01*
X126827827Y-72256242D01*
X126899701Y-71894898D01*
X126899704Y-71894881D01*
X126935818Y-71528211D01*
X126935818Y-71159766D01*
X126906695Y-70864073D01*
X126905798Y-70854966D01*
X147409818Y-70854966D01*
X147409818Y-71223411D01*
X147445931Y-71590081D01*
X147445934Y-71590098D01*
X147517808Y-71951442D01*
X147517811Y-71951453D01*
X147624770Y-72304050D01*
X147765767Y-72644447D01*
X147765774Y-72644461D01*
X147896241Y-72888550D01*
X147896242Y-72888550D01*
X149435538Y-71349254D01*
X149439761Y-71381330D01*
X149499135Y-71602915D01*
X149586923Y-71814855D01*
X149701624Y-72013523D01*
X149841275Y-72195520D01*
X150003487Y-72357732D01*
X150185484Y-72497383D01*
X150384152Y-72612084D01*
X150596092Y-72699872D01*
X150817677Y-72759246D01*
X150849751Y-72763468D01*
X149310454Y-74302764D01*
X149554545Y-74433233D01*
X149554550Y-74433235D01*
X149894956Y-74574236D01*
X150247553Y-74681195D01*
X150247564Y-74681198D01*
X150608908Y-74753072D01*
X150608925Y-74753075D01*
X150975595Y-74789189D01*
X151344041Y-74789189D01*
X151710710Y-74753075D01*
X151710727Y-74753072D01*
X152072071Y-74681198D01*
X152072082Y-74681195D01*
X152424679Y-74574236D01*
X152765085Y-74433235D01*
X152765090Y-74433233D01*
X153009180Y-74302764D01*
X151469884Y-72763468D01*
X151501959Y-72759246D01*
X151723544Y-72699872D01*
X151935484Y-72612084D01*
X152134152Y-72497383D01*
X152316149Y-72357732D01*
X152478361Y-72195520D01*
X152618012Y-72013523D01*
X152732713Y-71814855D01*
X152820501Y-71602915D01*
X152879875Y-71381330D01*
X152884097Y-71349255D01*
X154423393Y-72888551D01*
X154553862Y-72644461D01*
X154553864Y-72644456D01*
X154694865Y-72304050D01*
X154801824Y-71951453D01*
X154801827Y-71951442D01*
X154873701Y-71590098D01*
X154873704Y-71590082D01*
X154888417Y-71440693D01*
X155859818Y-71440693D01*
X155859818Y-71637684D01*
X155892070Y-71799828D01*
X155892071Y-71799828D01*
X156152711Y-71539189D01*
X156152711Y-71539188D01*
X156113216Y-71499693D01*
X156559818Y-71499693D01*
X156559818Y-71578685D01*
X156580262Y-71654985D01*
X156619758Y-71723394D01*
X156675613Y-71779249D01*
X156744022Y-71818745D01*
X156820322Y-71839189D01*
X156899314Y-71839189D01*
X156975614Y-71818745D01*
X157044023Y-71779249D01*
X157099878Y-71723394D01*
X157139374Y-71654985D01*
X157159818Y-71578685D01*
X157159818Y-71499693D01*
X157139374Y-71423393D01*
X157099878Y-71354984D01*
X157044023Y-71299129D01*
X156975614Y-71259633D01*
X156899314Y-71239189D01*
X156820322Y-71239189D01*
X156744022Y-71259633D01*
X156675613Y-71299129D01*
X156619758Y-71354984D01*
X156580262Y-71423393D01*
X156559818Y-71499693D01*
X156113216Y-71499693D01*
X155892071Y-71278548D01*
X155892070Y-71278548D01*
X155859818Y-71440693D01*
X154888417Y-71440693D01*
X154890214Y-71422452D01*
X154909818Y-71223411D01*
X154909818Y-70854966D01*
X154908412Y-70840693D01*
X159159818Y-70840693D01*
X159159818Y-71037684D01*
X159192070Y-71199828D01*
X159192071Y-71199828D01*
X159452711Y-70939189D01*
X159452711Y-70939188D01*
X159413216Y-70899693D01*
X159859818Y-70899693D01*
X159859818Y-70978685D01*
X159880262Y-71054985D01*
X159919758Y-71123394D01*
X159975613Y-71179249D01*
X160044022Y-71218745D01*
X160120322Y-71239189D01*
X160199314Y-71239189D01*
X160275614Y-71218745D01*
X160344023Y-71179249D01*
X160399878Y-71123394D01*
X160439374Y-71054985D01*
X160459818Y-70978685D01*
X160459818Y-70939188D01*
X160866924Y-70939188D01*
X160866924Y-70939189D01*
X161127563Y-71199828D01*
X161127564Y-71199828D01*
X161159818Y-71037682D01*
X161159818Y-70840695D01*
X161159817Y-70840693D01*
X161137951Y-70730760D01*
X161127565Y-70678548D01*
X161127563Y-70678548D01*
X160866924Y-70939188D01*
X160459818Y-70939188D01*
X160459818Y-70899693D01*
X160439374Y-70823393D01*
X160399878Y-70754984D01*
X160344023Y-70699129D01*
X160296066Y-70671441D01*
X163399177Y-70671441D01*
X163399177Y-70671442D01*
X163659818Y-70932082D01*
X163659819Y-70932082D01*
X163736935Y-70854966D01*
X165409818Y-70854966D01*
X165409818Y-71223411D01*
X165445931Y-71590081D01*
X165445934Y-71590098D01*
X165517808Y-71951442D01*
X165517811Y-71951453D01*
X165624770Y-72304050D01*
X165765767Y-72644447D01*
X165765774Y-72644461D01*
X165896241Y-72888550D01*
X165896242Y-72888550D01*
X167435538Y-71349254D01*
X167439761Y-71381330D01*
X167499135Y-71602915D01*
X167586923Y-71814855D01*
X167701624Y-72013523D01*
X167841275Y-72195520D01*
X168003487Y-72357732D01*
X168185484Y-72497383D01*
X168384152Y-72612084D01*
X168596092Y-72699872D01*
X168817677Y-72759246D01*
X168849751Y-72763468D01*
X167310454Y-74302764D01*
X167554545Y-74433233D01*
X167554550Y-74433235D01*
X167894956Y-74574236D01*
X168247553Y-74681195D01*
X168247564Y-74681198D01*
X168608908Y-74753072D01*
X168608925Y-74753075D01*
X168975595Y-74789189D01*
X169344041Y-74789189D01*
X169710710Y-74753075D01*
X169710727Y-74753072D01*
X170072071Y-74681198D01*
X170072082Y-74681195D01*
X170424679Y-74574236D01*
X170765085Y-74433235D01*
X170765090Y-74433233D01*
X171009180Y-74302764D01*
X169469884Y-72763468D01*
X169501959Y-72759246D01*
X169723544Y-72699872D01*
X169935484Y-72612084D01*
X170134152Y-72497383D01*
X170316149Y-72357732D01*
X170478361Y-72195520D01*
X170618012Y-72013523D01*
X170732713Y-71814855D01*
X170820501Y-71602915D01*
X170879875Y-71381330D01*
X170884097Y-71349255D01*
X172423393Y-72888551D01*
X172553862Y-72644461D01*
X172553864Y-72644456D01*
X172694865Y-72304050D01*
X172801824Y-71951453D01*
X172801827Y-71951442D01*
X172873701Y-71590098D01*
X172873704Y-71590081D01*
X172909818Y-71223411D01*
X172909818Y-70854966D01*
X172873704Y-70488296D01*
X172873701Y-70488279D01*
X172801827Y-70126935D01*
X172801824Y-70126924D01*
X172694865Y-69774327D01*
X172553864Y-69433921D01*
X172553862Y-69433916D01*
X172423393Y-69189825D01*
X170884097Y-70729121D01*
X170879875Y-70697048D01*
X170820501Y-70475463D01*
X170732713Y-70263523D01*
X170618012Y-70064855D01*
X170478361Y-69882858D01*
X170316149Y-69720646D01*
X170134152Y-69580995D01*
X169935484Y-69466294D01*
X169723544Y-69378506D01*
X169501959Y-69319132D01*
X169469882Y-69314909D01*
X171009179Y-67775613D01*
X171009179Y-67775612D01*
X170765090Y-67645145D01*
X170765076Y-67645138D01*
X170424679Y-67504141D01*
X170072082Y-67397182D01*
X170072071Y-67397179D01*
X169710727Y-67325305D01*
X169710710Y-67325302D01*
X169344041Y-67289189D01*
X168975595Y-67289189D01*
X168608925Y-67325302D01*
X168608908Y-67325305D01*
X168247564Y-67397179D01*
X168247553Y-67397182D01*
X167894956Y-67504141D01*
X167554560Y-67645138D01*
X167310455Y-67775613D01*
X168849751Y-69314909D01*
X168817677Y-69319132D01*
X168596092Y-69378506D01*
X168384152Y-69466294D01*
X168185484Y-69580995D01*
X168003487Y-69720646D01*
X167841275Y-69882858D01*
X167701624Y-70064855D01*
X167586923Y-70263523D01*
X167499135Y-70475463D01*
X167439761Y-70697048D01*
X167435538Y-70729122D01*
X165896242Y-69189826D01*
X165765767Y-69433931D01*
X165624770Y-69774327D01*
X165517811Y-70126924D01*
X165517808Y-70126935D01*
X165445934Y-70488279D01*
X165445931Y-70488296D01*
X165409818Y-70854966D01*
X163736935Y-70854966D01*
X163827662Y-70764238D01*
X163920457Y-70671442D01*
X163920457Y-70671441D01*
X163758313Y-70639189D01*
X163561322Y-70639189D01*
X163399177Y-70671441D01*
X160296066Y-70671441D01*
X160275614Y-70659633D01*
X160199314Y-70639189D01*
X160120322Y-70639189D01*
X160044022Y-70659633D01*
X159975613Y-70699129D01*
X159919758Y-70754984D01*
X159880262Y-70823393D01*
X159859818Y-70899693D01*
X159413216Y-70899693D01*
X159192071Y-70678548D01*
X159192070Y-70678548D01*
X159159818Y-70840693D01*
X154908412Y-70840693D01*
X154886550Y-70618723D01*
X154881893Y-70571441D01*
X156599177Y-70571441D01*
X156599177Y-70571442D01*
X156859818Y-70832082D01*
X156859819Y-70832082D01*
X156944976Y-70746925D01*
X157120457Y-70571442D01*
X157120457Y-70571441D01*
X156958313Y-70539189D01*
X156761322Y-70539189D01*
X156599177Y-70571441D01*
X154881893Y-70571441D01*
X154873704Y-70488295D01*
X154873701Y-70488279D01*
X154801827Y-70126935D01*
X154801824Y-70126924D01*
X154776234Y-70042564D01*
X154754659Y-69971441D01*
X159899177Y-69971441D01*
X159899177Y-69971442D01*
X160159818Y-70232082D01*
X160159819Y-70232082D01*
X160420457Y-69971442D01*
X160420457Y-69971441D01*
X160258313Y-69939189D01*
X160061322Y-69939189D01*
X159899177Y-69971441D01*
X154754659Y-69971441D01*
X154694865Y-69774327D01*
X154553864Y-69433921D01*
X154553862Y-69433916D01*
X154423393Y-69189825D01*
X152884097Y-70729121D01*
X152879875Y-70697048D01*
X152820501Y-70475463D01*
X152732713Y-70263523D01*
X152618012Y-70064855D01*
X152478361Y-69882858D01*
X152316149Y-69720646D01*
X152134152Y-69580995D01*
X151935484Y-69466294D01*
X151723544Y-69378506D01*
X151501959Y-69319132D01*
X151469882Y-69314909D01*
X153009179Y-67775613D01*
X153009179Y-67775612D01*
X152765090Y-67645145D01*
X152765076Y-67645138D01*
X152424679Y-67504141D01*
X152072082Y-67397182D01*
X152072071Y-67397179D01*
X151710727Y-67325305D01*
X151710710Y-67325302D01*
X151344041Y-67289189D01*
X150975595Y-67289189D01*
X150608925Y-67325302D01*
X150608908Y-67325305D01*
X150247564Y-67397179D01*
X150247553Y-67397182D01*
X149894956Y-67504141D01*
X149554560Y-67645138D01*
X149310455Y-67775613D01*
X150849751Y-69314909D01*
X150817677Y-69319132D01*
X150596092Y-69378506D01*
X150384152Y-69466294D01*
X150185484Y-69580995D01*
X150003487Y-69720646D01*
X149841275Y-69882858D01*
X149701624Y-70064855D01*
X149586923Y-70263523D01*
X149499135Y-70475463D01*
X149439761Y-70697048D01*
X149435538Y-70729122D01*
X147896242Y-69189826D01*
X147765767Y-69433931D01*
X147624770Y-69774327D01*
X147517811Y-70126924D01*
X147517808Y-70126935D01*
X147445934Y-70488279D01*
X147445931Y-70488296D01*
X147409818Y-70854966D01*
X126905798Y-70854966D01*
X126899704Y-70793096D01*
X126899701Y-70793079D01*
X126827827Y-70431735D01*
X126827824Y-70431724D01*
X126720865Y-70079127D01*
X126579864Y-69738721D01*
X126579862Y-69738716D01*
X126449393Y-69494625D01*
X124910097Y-71033921D01*
X124905875Y-71001848D01*
X124846501Y-70780263D01*
X124758713Y-70568323D01*
X124644012Y-70369655D01*
X124504361Y-70187658D01*
X124342149Y-70025446D01*
X124160152Y-69885795D01*
X123961484Y-69771094D01*
X123749544Y-69683306D01*
X123527959Y-69623932D01*
X123495882Y-69619709D01*
X125035179Y-68080413D01*
X125035179Y-68080412D01*
X124791090Y-67949945D01*
X124791069Y-67949935D01*
X124751922Y-67933720D01*
X124751921Y-67933720D01*
X124450679Y-67808941D01*
X124098082Y-67701982D01*
X124098071Y-67701979D01*
X123736727Y-67630105D01*
X123736710Y-67630102D01*
X123370041Y-67593989D01*
X123001595Y-67593989D01*
X122634925Y-67630102D01*
X122634908Y-67630105D01*
X122273564Y-67701979D01*
X122273553Y-67701982D01*
X121920956Y-67808941D01*
X121580560Y-67949938D01*
X121336455Y-68080413D01*
X122875751Y-69619709D01*
X122843677Y-69623932D01*
X122622092Y-69683306D01*
X122410152Y-69771094D01*
X122211484Y-69885795D01*
X122029487Y-70025446D01*
X121867275Y-70187658D01*
X121727624Y-70369655D01*
X121612923Y-70568323D01*
X121525135Y-70780263D01*
X121465761Y-71001848D01*
X121461538Y-71033922D01*
X119922242Y-69494626D01*
X119791767Y-69738731D01*
X119650770Y-70079127D01*
X119543811Y-70431724D01*
X119543808Y-70431735D01*
X119471934Y-70793079D01*
X119471931Y-70793096D01*
X119435818Y-71159766D01*
X117762935Y-71159766D01*
X117853662Y-71069038D01*
X117946457Y-70976242D01*
X117946457Y-70976241D01*
X117784313Y-70943989D01*
X117587322Y-70943989D01*
X117425177Y-70976241D01*
X114322066Y-70976241D01*
X114301614Y-70964433D01*
X114225314Y-70943989D01*
X114146322Y-70943989D01*
X114070022Y-70964433D01*
X114001613Y-71003929D01*
X113945758Y-71059784D01*
X113906262Y-71128193D01*
X113885818Y-71204493D01*
X113439216Y-71204493D01*
X113218071Y-70983348D01*
X113218070Y-70983348D01*
X113185818Y-71145493D01*
X108934412Y-71145493D01*
X108912550Y-70923523D01*
X108907893Y-70876241D01*
X110625177Y-70876241D01*
X110625177Y-70876242D01*
X110885818Y-71136882D01*
X110885819Y-71136882D01*
X110970976Y-71051725D01*
X111146457Y-70876242D01*
X111146457Y-70876241D01*
X110984313Y-70843989D01*
X110787322Y-70843989D01*
X110625177Y-70876241D01*
X108907893Y-70876241D01*
X108899704Y-70793095D01*
X108899701Y-70793079D01*
X108827827Y-70431735D01*
X108827824Y-70431724D01*
X108802234Y-70347364D01*
X108780659Y-70276241D01*
X113925177Y-70276241D01*
X113925177Y-70276242D01*
X114185818Y-70536882D01*
X114185819Y-70536882D01*
X114446457Y-70276242D01*
X114446457Y-70276241D01*
X114284313Y-70243989D01*
X114087322Y-70243989D01*
X113925177Y-70276241D01*
X108780659Y-70276241D01*
X108720865Y-70079127D01*
X108579864Y-69738721D01*
X108579862Y-69738716D01*
X108449393Y-69494625D01*
X106910097Y-71033921D01*
X106905875Y-71001848D01*
X106846501Y-70780263D01*
X106758713Y-70568323D01*
X106644012Y-70369655D01*
X106504361Y-70187658D01*
X106342149Y-70025446D01*
X106160152Y-69885795D01*
X105961484Y-69771094D01*
X105749544Y-69683306D01*
X105527959Y-69623932D01*
X105495882Y-69619709D01*
X107035179Y-68080413D01*
X107035179Y-68080412D01*
X106791090Y-67949945D01*
X106791076Y-67949938D01*
X106450679Y-67808941D01*
X106098082Y-67701982D01*
X106098071Y-67701979D01*
X105736727Y-67630105D01*
X105736710Y-67630102D01*
X105370041Y-67593989D01*
X105001595Y-67593989D01*
X104634925Y-67630102D01*
X104634908Y-67630105D01*
X104273564Y-67701979D01*
X104273553Y-67701982D01*
X103920956Y-67808941D01*
X103580560Y-67949938D01*
X103336455Y-68080413D01*
X104875751Y-69619709D01*
X104843677Y-69623932D01*
X104622092Y-69683306D01*
X104410152Y-69771094D01*
X104211484Y-69885795D01*
X104029487Y-70025446D01*
X103867275Y-70187658D01*
X103727624Y-70369655D01*
X103612923Y-70568323D01*
X103525135Y-70780263D01*
X103465761Y-71001848D01*
X103461538Y-71033922D01*
X101922242Y-69494626D01*
X101791767Y-69738731D01*
X101650770Y-70079127D01*
X101543811Y-70431724D01*
X101543808Y-70431735D01*
X101471934Y-70793079D01*
X101471931Y-70793096D01*
X101435818Y-71159766D01*
X93567239Y-71159766D01*
X93570881Y-70969664D01*
X93571414Y-70960317D01*
X93617025Y-70480235D01*
X93618258Y-70470989D01*
X93699986Y-69995720D01*
X93701916Y-69986579D01*
X93819297Y-69518830D01*
X93821916Y-69509847D01*
X93974277Y-69052297D01*
X93977550Y-69043582D01*
X94164024Y-68598832D01*
X94167954Y-68590370D01*
X94387471Y-68160979D01*
X94392047Y-68152808D01*
X94433003Y-68085732D01*
X94643356Y-67741217D01*
X94648505Y-67733460D01*
X94930173Y-67342019D01*
X94935928Y-67334628D01*
X94982222Y-67279589D01*
X95246342Y-66965574D01*
X95252606Y-66958673D01*
X95590014Y-66614095D01*
X95596800Y-66607669D01*
X95959239Y-66289568D01*
X95966489Y-66283674D01*
X96351923Y-65993836D01*
X96359587Y-65988515D01*
X96765827Y-65728590D01*
X96773857Y-65723870D01*
X97198548Y-65495367D01*
X97206900Y-65491271D01*
X97647656Y-65295474D01*
X97656317Y-65292012D01*
X98110553Y-65130067D01*
X98119478Y-65127262D01*
X98584640Y-65000075D01*
X98593746Y-64997951D01*
X99067192Y-64906246D01*
X99076412Y-64904820D01*
X99555445Y-64849121D01*
X99564737Y-64848394D01*
X100048821Y-64828934D01*
X100053800Y-64828835D01*
X174392046Y-64837826D01*
G37*
%TD.AperFunction*%
%TD*%
M02*
