%TF.GenerationSoftware,KiCad,Pcbnew,9.0.2-9.0.2-0~ubuntu24.04.1*%
%TF.CreationDate,2025-07-07T13:30:36-04:00*%
%TF.ProjectId,Transfer_G2RL,5472616e-7366-4657-925f-4732524c2e6b,rev?*%
%TF.SameCoordinates,Original*%
%TF.FileFunction,Copper,L2,Bot*%
%TF.FilePolarity,Positive*%
%FSLAX46Y46*%
G04 Gerber Fmt 4.6, Leading zero omitted, Abs format (unit mm)*
G04 Created by KiCad (PCBNEW 9.0.2-9.0.2-0~ubuntu24.04.1) date 2025-07-07 13:30:36*
%MOMM*%
%LPD*%
G01*
G04 APERTURE LIST*
G04 Aperture macros list*
%AMRoundRect*
0 Rectangle with rounded corners*
0 $1 Rounding radius*
0 $2 $3 $4 $5 $6 $7 $8 $9 X,Y pos of 4 corners*
0 Add a 4 corners polygon primitive as box body*
4,1,4,$2,$3,$4,$5,$6,$7,$8,$9,$2,$3,0*
0 Add four circle primitives for the rounded corners*
1,1,$1+$1,$2,$3*
1,1,$1+$1,$4,$5*
1,1,$1+$1,$6,$7*
1,1,$1+$1,$8,$9*
0 Add four rect primitives between the rounded corners*
20,1,$1+$1,$2,$3,$4,$5,0*
20,1,$1+$1,$4,$5,$6,$7,0*
20,1,$1+$1,$6,$7,$8,$9,0*
20,1,$1+$1,$8,$9,$2,$3,0*%
G04 Aperture macros list end*
%TA.AperFunction,ComponentPad*%
%ADD10C,2.000000*%
%TD*%
%TA.AperFunction,ComponentPad*%
%ADD11R,2.000000X2.000000*%
%TD*%
%TA.AperFunction,ComponentPad*%
%ADD12C,6.500000*%
%TD*%
%TA.AperFunction,ComponentPad*%
%ADD13C,1.000000*%
%TD*%
%TA.AperFunction,ComponentPad*%
%ADD14C,3.000000*%
%TD*%
%TA.AperFunction,ComponentPad*%
%ADD15RoundRect,0.250001X0.799999X0.799999X-0.799999X0.799999X-0.799999X-0.799999X0.799999X-0.799999X0*%
%TD*%
%TA.AperFunction,ComponentPad*%
%ADD16C,2.100000*%
%TD*%
%TA.AperFunction,ViaPad*%
%ADD17C,1.000000*%
%TD*%
%TA.AperFunction,Conductor*%
%ADD18C,1.000000*%
%TD*%
G04 APERTURE END LIST*
D10*
%TO.P,K3,11*%
%TO.N,Net-(C5-Pad2)*%
X114060000Y-96250000D03*
X114060000Y-103750000D03*
%TO.P,K3,12*%
%TO.N,Net-(C2-Pad1)*%
X119060000Y-96250000D03*
X119060000Y-103750000D03*
%TO.P,K3,14*%
%TO.N,Net-(C4-Pad1)*%
X109060000Y-96250000D03*
X109060000Y-103750000D03*
D11*
%TO.P,K3,A1*%
%TO.N,/12V*%
X134060000Y-96250000D03*
D10*
%TO.P,K3,A2*%
%TO.N,/Amp\u005C*%
X134060000Y-103750000D03*
%TD*%
D12*
%TO.P,J8,2,Ext*%
%TO.N,GND*%
X105185818Y-89343989D03*
D13*
X105185818Y-80343989D03*
D12*
X105185818Y-71343989D03*
D13*
X105885818Y-83743989D03*
X105885818Y-76843989D03*
X110885818Y-71843989D03*
X114185818Y-71243989D03*
X117685818Y-71943989D03*
X122385818Y-76743989D03*
X122485818Y-83743989D03*
D12*
X123185818Y-89343989D03*
D13*
X123185818Y-80343989D03*
D12*
X123185818Y-71343989D03*
%TD*%
D10*
%TO.P,K2,11*%
%TO.N,Net-(C1-Pad2)*%
X160350000Y-103750000D03*
X160350000Y-96250000D03*
%TO.P,K2,12*%
%TO.N,Net-(C2-Pad1)*%
X155350000Y-103750000D03*
X155350000Y-96250000D03*
%TO.P,K2,14*%
%TO.N,Net-(C6-Pad1)*%
X165350000Y-103750000D03*
X165350000Y-96250000D03*
D11*
%TO.P,K2,A1*%
%TO.N,/Amp\u005C*%
X140350000Y-103750000D03*
D10*
%TO.P,K2,A2*%
%TO.N,/12V*%
X140350000Y-96250000D03*
%TD*%
D14*
%TO.P,H1,1,1*%
%TO.N,Net-(C6-Pad1)*%
X165328600Y-108712000D03*
%TD*%
D12*
%TO.P,J5,2,Ext*%
%TO.N,GND*%
X151159818Y-89039189D03*
D13*
X151159818Y-80039189D03*
D12*
X151159818Y-71039189D03*
D13*
X151859818Y-83439189D03*
X151859818Y-76539189D03*
X156859818Y-71539189D03*
X160159818Y-70939189D03*
X163659818Y-71639189D03*
X168359818Y-76439189D03*
X168459818Y-83439189D03*
D12*
X169159818Y-89039189D03*
D13*
X169159818Y-80039189D03*
D12*
X169159818Y-71039189D03*
%TD*%
D14*
%TO.P,H4,1,1*%
%TO.N,Net-(C1-Pad2)*%
X160300000Y-91440000D03*
%TD*%
%TO.P,H3,1,1*%
%TO.N,Net-(C4-Pad1)*%
X109067600Y-109220000D03*
%TD*%
%TO.P,H2,1,1*%
%TO.N,Net-(C5-Pad2)*%
X114046000Y-91440000D03*
%TD*%
D15*
%TO.P,J1,1,Pin_1*%
%TO.N,/12V*%
X139920000Y-80520000D03*
D16*
%TO.P,J1,2,Pin_2*%
%TO.N,/Amp\u005C*%
X137380000Y-80520000D03*
%TD*%
D12*
%TO.P,J6,2,Ext*%
%TO.N,GND*%
X174328600Y-110751139D03*
D13*
X174328600Y-119751139D03*
D12*
X174328600Y-128751139D03*
D13*
X173628600Y-116351139D03*
X173628600Y-123251139D03*
X168628600Y-128251139D03*
X165328600Y-128851139D03*
X161828600Y-128151139D03*
X157128600Y-123351139D03*
X157028600Y-116351139D03*
D12*
X156328600Y-110751139D03*
D13*
X156328600Y-119751139D03*
D12*
X156328600Y-128751139D03*
%TD*%
%TO.P,J7,2,Ext*%
%TO.N,GND*%
X118067600Y-110751139D03*
D13*
X118067600Y-119751139D03*
D12*
X118067600Y-128751139D03*
D13*
X117367600Y-116351139D03*
X117367600Y-123251139D03*
X112367600Y-128251139D03*
X109067600Y-128851139D03*
X105567600Y-128151139D03*
X100867600Y-123351139D03*
X100767600Y-116351139D03*
D12*
X100067600Y-110751139D03*
D13*
X100067600Y-119751139D03*
D12*
X100067600Y-128751139D03*
%TD*%
D17*
%TO.N,GND*%
X103000000Y-100100000D03*
X156230000Y-89190000D03*
X161180000Y-110930000D03*
X171950000Y-100075000D03*
X137100000Y-134100000D03*
X146500000Y-65928000D03*
X127800000Y-65628000D03*
X104750000Y-106380000D03*
X94300000Y-104600000D03*
X176014000Y-105200000D03*
X179800000Y-105200000D03*
X122700000Y-134186000D03*
X94500000Y-79900000D03*
X94500000Y-120000000D03*
X94400000Y-70700000D03*
X94400000Y-88600000D03*
X94400000Y-110500000D03*
X94300000Y-99600000D03*
X123100000Y-65600000D03*
X105300000Y-65700000D03*
X151100000Y-65800000D03*
X138800000Y-65500000D03*
X179900000Y-110800000D03*
X179900000Y-71000000D03*
X180000000Y-80200000D03*
X179800000Y-99900000D03*
X169100000Y-65900000D03*
X180000000Y-119700000D03*
X177900000Y-67200000D03*
X178400000Y-132600000D03*
X118025000Y-89395000D03*
X104840000Y-96830000D03*
X104810000Y-103710000D03*
X104840000Y-94544000D03*
X164440000Y-92180000D03*
%TO.N,/Amp\u005C*%
X137160000Y-94742000D03*
%TO.N,GND*%
X169710000Y-96690000D03*
X168700000Y-93670000D03*
X169700000Y-103460000D03*
X169600000Y-106359975D03*
X143500000Y-91948000D03*
%TO.N,/Amp\u005C*%
X137160000Y-103773139D03*
%TO.N,GND*%
X144200000Y-95900000D03*
X146486000Y-95900000D03*
X148772000Y-95900000D03*
X151058000Y-95900000D03*
X148732000Y-104310000D03*
X151018000Y-104310000D03*
X146446000Y-104310000D03*
X144160000Y-104310000D03*
X123474000Y-95980000D03*
X130332000Y-95980000D03*
X128046000Y-95980000D03*
X125760000Y-95980000D03*
X133660000Y-91950000D03*
X130308000Y-104240000D03*
X128022000Y-104240000D03*
X125736000Y-104240000D03*
X123450000Y-104240000D03*
X151100000Y-134100000D03*
X165000000Y-134400000D03*
X179900000Y-88900000D03*
X113125000Y-111235000D03*
X95900000Y-132700000D03*
X109100000Y-134300000D03*
X96700000Y-67500000D03*
X113800000Y-65600000D03*
X160400000Y-65800000D03*
%TD*%
D18*
%TO.N,/Amp\u005C*%
X137160000Y-103773139D02*
X137160000Y-94742000D01*
%TD*%
%TA.AperFunction,Conductor*%
%TO.N,GND*%
G36*
X174392046Y-64837826D02*
G01*
X174396592Y-64837912D01*
X174826173Y-64853986D01*
X174835390Y-64854676D01*
X175309179Y-64908058D01*
X175318337Y-64909439D01*
X175786815Y-64998078D01*
X175795823Y-65000134D01*
X176256371Y-65123536D01*
X176265221Y-65126266D01*
X176715259Y-65283739D01*
X176723860Y-65287114D01*
X177160883Y-65477785D01*
X177169205Y-65481793D01*
X177590762Y-65704590D01*
X177598759Y-65709208D01*
X177619304Y-65722117D01*
X178002467Y-65962873D01*
X178010128Y-65968097D01*
X178393736Y-66251211D01*
X178400963Y-66256973D01*
X178762382Y-66567998D01*
X178769151Y-66574279D01*
X179106302Y-66911428D01*
X179112596Y-66918212D01*
X179371804Y-67219417D01*
X179423587Y-67279589D01*
X179429369Y-67286839D01*
X179712486Y-67670447D01*
X179717710Y-67678109D01*
X179971373Y-68081810D01*
X179976009Y-68089841D01*
X180198780Y-68511343D01*
X180202804Y-68519697D01*
X180393470Y-68956705D01*
X180396857Y-68965337D01*
X180554319Y-69415334D01*
X180557053Y-69424195D01*
X180680456Y-69884735D01*
X180682519Y-69893776D01*
X180771155Y-70362227D01*
X180772537Y-70371396D01*
X180825919Y-70845168D01*
X180826612Y-70854415D01*
X180844495Y-71332344D01*
X180844582Y-71337013D01*
X180829600Y-128675384D01*
X180829599Y-128675916D01*
X180829557Y-128684941D01*
X180829262Y-128686047D01*
X180829262Y-128749972D01*
X180829261Y-128750192D01*
X180829250Y-128750226D01*
X180829175Y-128754265D01*
X180811304Y-129231866D01*
X180810611Y-129241113D01*
X180757358Y-129713745D01*
X180755976Y-129722914D01*
X180667553Y-130190238D01*
X180665490Y-130199278D01*
X180542389Y-130658699D01*
X180539656Y-130667561D01*
X180382566Y-131116499D01*
X180379178Y-131125131D01*
X180188977Y-131561077D01*
X180184953Y-131569431D01*
X179962718Y-131989920D01*
X179958082Y-131997951D01*
X179705030Y-132400681D01*
X179699806Y-132408343D01*
X179417372Y-132791028D01*
X179411596Y-132798270D01*
X179217661Y-133023629D01*
X179101347Y-133158789D01*
X179095039Y-133165586D01*
X178758734Y-133501891D01*
X178751937Y-133508198D01*
X178391413Y-133818454D01*
X178384163Y-133824236D01*
X178001485Y-134106665D01*
X177993823Y-134111889D01*
X177591093Y-134364941D01*
X177583062Y-134369577D01*
X177162574Y-134591811D01*
X177154220Y-134595835D01*
X176718273Y-134786037D01*
X176709641Y-134789425D01*
X176260704Y-134946515D01*
X176251843Y-134949248D01*
X175792422Y-135072350D01*
X175783381Y-135074413D01*
X175316057Y-135162836D01*
X175306888Y-135164218D01*
X174834255Y-135217471D01*
X174825007Y-135218164D01*
X174349028Y-135235973D01*
X174344421Y-135236060D01*
X100069173Y-135253211D01*
X100064503Y-135253124D01*
X99585128Y-135235168D01*
X99575872Y-135234474D01*
X99523409Y-135228556D01*
X99101458Y-135180962D01*
X99092279Y-135179577D01*
X98623197Y-135090723D01*
X98614148Y-135088655D01*
X98153039Y-134964962D01*
X98144168Y-134962222D01*
X97693598Y-134804375D01*
X97684959Y-134800981D01*
X97428483Y-134688945D01*
X97247454Y-134609867D01*
X97239107Y-134605842D01*
X96861403Y-134405966D01*
X96817128Y-134382536D01*
X96809091Y-134377890D01*
X96404992Y-134123635D01*
X96397326Y-134118400D01*
X96041930Y-133855728D01*
X96013398Y-133834640D01*
X96006162Y-133828861D01*
X95644517Y-133517157D01*
X95637733Y-133510852D01*
X95300414Y-133172959D01*
X95294112Y-133166154D01*
X94983035Y-132803993D01*
X94977268Y-132796748D01*
X94694143Y-132412314D01*
X94688922Y-132404638D01*
X94681718Y-132393145D01*
X94527627Y-132147314D01*
X98467473Y-132147314D01*
X98802734Y-132286185D01*
X99155335Y-132393145D01*
X99155346Y-132393148D01*
X99516690Y-132465022D01*
X99516707Y-132465025D01*
X99883377Y-132501139D01*
X100251823Y-132501139D01*
X100618492Y-132465025D01*
X100618509Y-132465022D01*
X100979853Y-132393148D01*
X100979864Y-132393145D01*
X101332465Y-132286185D01*
X101667725Y-132147314D01*
X116467473Y-132147314D01*
X116802734Y-132286185D01*
X117155335Y-132393145D01*
X117155346Y-132393148D01*
X117516690Y-132465022D01*
X117516707Y-132465025D01*
X117883377Y-132501139D01*
X118251823Y-132501139D01*
X118618492Y-132465025D01*
X118618509Y-132465022D01*
X118979853Y-132393148D01*
X118979864Y-132393145D01*
X119332465Y-132286185D01*
X119667725Y-132147314D01*
X154728473Y-132147314D01*
X155063734Y-132286185D01*
X155416335Y-132393145D01*
X155416346Y-132393148D01*
X155777690Y-132465022D01*
X155777707Y-132465025D01*
X156144377Y-132501139D01*
X156512823Y-132501139D01*
X156879492Y-132465025D01*
X156879509Y-132465022D01*
X157240853Y-132393148D01*
X157240864Y-132393145D01*
X157593465Y-132286185D01*
X157928725Y-132147314D01*
X172728473Y-132147314D01*
X173063734Y-132286185D01*
X173416335Y-132393145D01*
X173416346Y-132393148D01*
X173777690Y-132465022D01*
X173777707Y-132465025D01*
X174144377Y-132501139D01*
X174512823Y-132501139D01*
X174879492Y-132465025D01*
X174879509Y-132465022D01*
X175240853Y-132393148D01*
X175240864Y-132393145D01*
X175593465Y-132286185D01*
X175928725Y-132147314D01*
X174328600Y-130547190D01*
X172728473Y-132147314D01*
X157928725Y-132147314D01*
X156328600Y-130547190D01*
X154728473Y-132147314D01*
X119667725Y-132147314D01*
X118067600Y-130547190D01*
X116467473Y-132147314D01*
X101667725Y-132147314D01*
X100067600Y-130547190D01*
X98467473Y-132147314D01*
X94527627Y-132147314D01*
X94435363Y-132000120D01*
X94430731Y-131992076D01*
X94233704Y-131618220D01*
X94208144Y-131569720D01*
X94204134Y-131561367D01*
X94013763Y-131123533D01*
X94010383Y-131114887D01*
X93853302Y-130664044D01*
X93850586Y-130655196D01*
X93727669Y-130193848D01*
X93725620Y-130184810D01*
X93704015Y-130069682D01*
X93637562Y-129715565D01*
X93636194Y-129706389D01*
X93631419Y-129663403D01*
X93583490Y-129231898D01*
X93582812Y-129222642D01*
X93578186Y-129093280D01*
X93565663Y-128743064D01*
X93565585Y-128738642D01*
X93565584Y-128738553D01*
X93565694Y-128674993D01*
X93565582Y-128674572D01*
X93565582Y-128566916D01*
X96317600Y-128566916D01*
X96317600Y-128935361D01*
X96353713Y-129302031D01*
X96353716Y-129302048D01*
X96425590Y-129663392D01*
X96425593Y-129663403D01*
X96532552Y-130016000D01*
X96671423Y-130351264D01*
X98271548Y-128751140D01*
X98271548Y-128751138D01*
X98156848Y-128636438D01*
X98317600Y-128636438D01*
X98317600Y-128865840D01*
X98347543Y-129093280D01*
X98406917Y-129314865D01*
X98494705Y-129526805D01*
X98609406Y-129725473D01*
X98749057Y-129907470D01*
X98911269Y-130069682D01*
X99093266Y-130209333D01*
X99291934Y-130324034D01*
X99503874Y-130411822D01*
X99725459Y-130471196D01*
X99952899Y-130501139D01*
X100182301Y-130501139D01*
X100409741Y-130471196D01*
X100631326Y-130411822D01*
X100843266Y-130324034D01*
X101041934Y-130209333D01*
X101223931Y-130069682D01*
X101386143Y-129907470D01*
X101525794Y-129725473D01*
X101640495Y-129526805D01*
X101728283Y-129314865D01*
X101787657Y-129093280D01*
X101817600Y-128865840D01*
X101817600Y-128751138D01*
X101863651Y-128751138D01*
X101863651Y-128751140D01*
X103463775Y-130351264D01*
X103602646Y-130016004D01*
X103662442Y-129818884D01*
X108806959Y-129818884D01*
X108806959Y-129818885D01*
X108969104Y-129851138D01*
X108969107Y-129851139D01*
X109166093Y-129851139D01*
X109328239Y-129818885D01*
X109328239Y-129818884D01*
X109067601Y-129558245D01*
X109067600Y-129558245D01*
X108806959Y-129818884D01*
X103662442Y-129818884D01*
X103684016Y-129747763D01*
X103709606Y-129663403D01*
X103709609Y-129663392D01*
X103781483Y-129302048D01*
X103781486Y-129302032D01*
X103789675Y-129218884D01*
X112106959Y-129218884D01*
X112106959Y-129218885D01*
X112269104Y-129251138D01*
X112269107Y-129251139D01*
X112466093Y-129251139D01*
X112628239Y-129218885D01*
X112628239Y-129218884D01*
X112367601Y-128958245D01*
X112367600Y-128958245D01*
X112106959Y-129218884D01*
X103789675Y-129218884D01*
X103799524Y-129118884D01*
X105306959Y-129118884D01*
X105306959Y-129118885D01*
X105469104Y-129151138D01*
X105469107Y-129151139D01*
X105666093Y-129151139D01*
X105828239Y-129118885D01*
X105828239Y-129118884D01*
X105567601Y-128858245D01*
X105567600Y-128858245D01*
X105306959Y-129118884D01*
X103799524Y-129118884D01*
X103804181Y-129071604D01*
X103817600Y-128935361D01*
X103817600Y-128752643D01*
X108067600Y-128752643D01*
X108067600Y-128949634D01*
X108099852Y-129111778D01*
X108099853Y-129111778D01*
X108360493Y-128851139D01*
X108360493Y-128851138D01*
X108320998Y-128811643D01*
X108767600Y-128811643D01*
X108767600Y-128890635D01*
X108788044Y-128966935D01*
X108827540Y-129035344D01*
X108883395Y-129091199D01*
X108951804Y-129130695D01*
X109028104Y-129151139D01*
X109107096Y-129151139D01*
X109183396Y-129130695D01*
X109251805Y-129091199D01*
X109307660Y-129035344D01*
X109347156Y-128966935D01*
X109367600Y-128890635D01*
X109367600Y-128851138D01*
X109774706Y-128851138D01*
X109774706Y-128851139D01*
X110035345Y-129111778D01*
X110067600Y-128949632D01*
X110067600Y-128752645D01*
X110067599Y-128752643D01*
X110035346Y-128590498D01*
X110035345Y-128590498D01*
X109774706Y-128851138D01*
X109367600Y-128851138D01*
X109367600Y-128811643D01*
X109347156Y-128735343D01*
X109307660Y-128666934D01*
X109251805Y-128611079D01*
X109183396Y-128571583D01*
X109165978Y-128566916D01*
X114317600Y-128566916D01*
X114317600Y-128935361D01*
X114353713Y-129302031D01*
X114353716Y-129302048D01*
X114425590Y-129663392D01*
X114425593Y-129663403D01*
X114532552Y-130016000D01*
X114671423Y-130351264D01*
X116271548Y-128751140D01*
X116271548Y-128751138D01*
X116156848Y-128636438D01*
X116317600Y-128636438D01*
X116317600Y-128865840D01*
X116347543Y-129093280D01*
X116406917Y-129314865D01*
X116494705Y-129526805D01*
X116609406Y-129725473D01*
X116749057Y-129907470D01*
X116911269Y-130069682D01*
X117093266Y-130209333D01*
X117291934Y-130324034D01*
X117503874Y-130411822D01*
X117725459Y-130471196D01*
X117952899Y-130501139D01*
X118182301Y-130501139D01*
X118409741Y-130471196D01*
X118631326Y-130411822D01*
X118843266Y-130324034D01*
X119041934Y-130209333D01*
X119223931Y-130069682D01*
X119386143Y-129907470D01*
X119525794Y-129725473D01*
X119640495Y-129526805D01*
X119728283Y-129314865D01*
X119787657Y-129093280D01*
X119817600Y-128865840D01*
X119817600Y-128751138D01*
X119863651Y-128751138D01*
X119863651Y-128751139D01*
X121463775Y-130351264D01*
X121602646Y-130016004D01*
X121709606Y-129663403D01*
X121709609Y-129663392D01*
X121781483Y-129302048D01*
X121781486Y-129302031D01*
X121817600Y-128935361D01*
X121817600Y-128566916D01*
X152578600Y-128566916D01*
X152578600Y-128935361D01*
X152614713Y-129302031D01*
X152614716Y-129302048D01*
X152686590Y-129663392D01*
X152686593Y-129663403D01*
X152793552Y-130016000D01*
X152932423Y-130351264D01*
X154532548Y-128751139D01*
X154532548Y-128751138D01*
X154417848Y-128636438D01*
X154578600Y-128636438D01*
X154578600Y-128865840D01*
X154608543Y-129093280D01*
X154667917Y-129314865D01*
X154755705Y-129526805D01*
X154870406Y-129725473D01*
X155010057Y-129907470D01*
X155172269Y-130069682D01*
X155354266Y-130209333D01*
X155552934Y-130324034D01*
X155764874Y-130411822D01*
X155986459Y-130471196D01*
X156213899Y-130501139D01*
X156443301Y-130501139D01*
X156670741Y-130471196D01*
X156892326Y-130411822D01*
X157104266Y-130324034D01*
X157302934Y-130209333D01*
X157484931Y-130069682D01*
X157647143Y-129907470D01*
X157786794Y-129725473D01*
X157901495Y-129526805D01*
X157989283Y-129314865D01*
X158048657Y-129093280D01*
X158078600Y-128865840D01*
X158078600Y-128751138D01*
X158124651Y-128751138D01*
X158124651Y-128751140D01*
X159724775Y-130351264D01*
X159863646Y-130016004D01*
X159923442Y-129818884D01*
X165067959Y-129818884D01*
X165067959Y-129818885D01*
X165230104Y-129851138D01*
X165230107Y-129851139D01*
X165427093Y-129851139D01*
X165589239Y-129818885D01*
X165589239Y-129818884D01*
X165328601Y-129558245D01*
X165328600Y-129558245D01*
X165067959Y-129818884D01*
X159923442Y-129818884D01*
X159945016Y-129747763D01*
X159970606Y-129663403D01*
X159970609Y-129663392D01*
X160042483Y-129302048D01*
X160042486Y-129302032D01*
X160050675Y-129218884D01*
X168367959Y-129218884D01*
X168367959Y-129218885D01*
X168530104Y-129251138D01*
X168530107Y-129251139D01*
X168727093Y-129251139D01*
X168889239Y-129218885D01*
X168889239Y-129218884D01*
X168628601Y-128958245D01*
X168628600Y-128958245D01*
X168367959Y-129218884D01*
X160050675Y-129218884D01*
X160060524Y-129118884D01*
X161567959Y-129118884D01*
X161567959Y-129118885D01*
X161730104Y-129151138D01*
X161730107Y-129151139D01*
X161927093Y-129151139D01*
X162089239Y-129118885D01*
X162089239Y-129118884D01*
X161828601Y-128858245D01*
X161828600Y-128858245D01*
X161567959Y-129118884D01*
X160060524Y-129118884D01*
X160065181Y-129071604D01*
X160078600Y-128935361D01*
X160078600Y-128752643D01*
X164328600Y-128752643D01*
X164328600Y-128949634D01*
X164360852Y-129111778D01*
X164360853Y-129111778D01*
X164621493Y-128851139D01*
X164621493Y-128851138D01*
X164581998Y-128811643D01*
X165028600Y-128811643D01*
X165028600Y-128890635D01*
X165049044Y-128966935D01*
X165088540Y-129035344D01*
X165144395Y-129091199D01*
X165212804Y-129130695D01*
X165289104Y-129151139D01*
X165368096Y-129151139D01*
X165444396Y-129130695D01*
X165512805Y-129091199D01*
X165568660Y-129035344D01*
X165608156Y-128966935D01*
X165628600Y-128890635D01*
X165628600Y-128851138D01*
X166035706Y-128851138D01*
X166035706Y-128851139D01*
X166296345Y-129111778D01*
X166328600Y-128949632D01*
X166328600Y-128752645D01*
X166328599Y-128752643D01*
X166296346Y-128590498D01*
X166296345Y-128590498D01*
X166035706Y-128851138D01*
X165628600Y-128851138D01*
X165628600Y-128811643D01*
X165608156Y-128735343D01*
X165568660Y-128666934D01*
X165512805Y-128611079D01*
X165444396Y-128571583D01*
X165426978Y-128566916D01*
X170578600Y-128566916D01*
X170578600Y-128935361D01*
X170614713Y-129302031D01*
X170614716Y-129302048D01*
X170686590Y-129663392D01*
X170686593Y-129663403D01*
X170793552Y-130016000D01*
X170932423Y-130351264D01*
X172532548Y-128751140D01*
X172532548Y-128751137D01*
X172417849Y-128636438D01*
X172578600Y-128636438D01*
X172578600Y-128865840D01*
X172608543Y-129093280D01*
X172667917Y-129314865D01*
X172755705Y-129526805D01*
X172870406Y-129725473D01*
X173010057Y-129907470D01*
X173172269Y-130069682D01*
X173354266Y-130209333D01*
X173552934Y-130324034D01*
X173764874Y-130411822D01*
X173986459Y-130471196D01*
X174213899Y-130501139D01*
X174443301Y-130501139D01*
X174670741Y-130471196D01*
X174892326Y-130411822D01*
X175104266Y-130324034D01*
X175302934Y-130209333D01*
X175484931Y-130069682D01*
X175647143Y-129907470D01*
X175786794Y-129725473D01*
X175901495Y-129526805D01*
X175989283Y-129314865D01*
X176048657Y-129093280D01*
X176078600Y-128865840D01*
X176078600Y-128751138D01*
X176124651Y-128751138D01*
X176124651Y-128751140D01*
X177724775Y-130351264D01*
X177863646Y-130016004D01*
X177970606Y-129663403D01*
X177970609Y-129663392D01*
X178042483Y-129302048D01*
X178042486Y-129302031D01*
X178078600Y-128935361D01*
X178078600Y-128566916D01*
X178042486Y-128200246D01*
X178042483Y-128200229D01*
X177970609Y-127838885D01*
X177970606Y-127838874D01*
X177863646Y-127486273D01*
X177724775Y-127151012D01*
X176124651Y-128751138D01*
X176078600Y-128751138D01*
X176078600Y-128636438D01*
X176048657Y-128408998D01*
X175989283Y-128187413D01*
X175901495Y-127975473D01*
X175786794Y-127776805D01*
X175647143Y-127594808D01*
X175484931Y-127432596D01*
X175302934Y-127292945D01*
X175104266Y-127178244D01*
X174892326Y-127090456D01*
X174670741Y-127031082D01*
X174443301Y-127001139D01*
X174213899Y-127001139D01*
X173986459Y-127031082D01*
X173764874Y-127090456D01*
X173552934Y-127178244D01*
X173354266Y-127292945D01*
X173172269Y-127432596D01*
X173010057Y-127594808D01*
X172870406Y-127776805D01*
X172755705Y-127975473D01*
X172667917Y-128187413D01*
X172608543Y-128408998D01*
X172578600Y-128636438D01*
X172417849Y-128636438D01*
X170932423Y-127151012D01*
X170793552Y-127486277D01*
X170686593Y-127838874D01*
X170686590Y-127838885D01*
X170614716Y-128200229D01*
X170614713Y-128200246D01*
X170578600Y-128566916D01*
X165426978Y-128566916D01*
X165368096Y-128551139D01*
X165289104Y-128551139D01*
X165212804Y-128571583D01*
X165144395Y-128611079D01*
X165088540Y-128666934D01*
X165049044Y-128735343D01*
X165028600Y-128811643D01*
X164581998Y-128811643D01*
X164360853Y-128590498D01*
X164360852Y-128590498D01*
X164328600Y-128752643D01*
X160078600Y-128752643D01*
X160078600Y-128566916D01*
X160042486Y-128200247D01*
X160016728Y-128070747D01*
X160016728Y-128070743D01*
X160013128Y-128052643D01*
X160828600Y-128052643D01*
X160828600Y-128249634D01*
X160860852Y-128411778D01*
X160860853Y-128411778D01*
X161121493Y-128151139D01*
X161121493Y-128151138D01*
X161081998Y-128111643D01*
X161528600Y-128111643D01*
X161528600Y-128190635D01*
X161549044Y-128266935D01*
X161588540Y-128335344D01*
X161644395Y-128391199D01*
X161712804Y-128430695D01*
X161789104Y-128451139D01*
X161868096Y-128451139D01*
X161944396Y-128430695D01*
X162012805Y-128391199D01*
X162068660Y-128335344D01*
X162108156Y-128266935D01*
X162128600Y-128190635D01*
X162128600Y-128111643D01*
X162108156Y-128035343D01*
X162068660Y-127966934D01*
X162012805Y-127911079D01*
X161944396Y-127871583D01*
X161868096Y-127851139D01*
X161789104Y-127851139D01*
X161712804Y-127871583D01*
X161644395Y-127911079D01*
X161588540Y-127966934D01*
X161549044Y-128035343D01*
X161528600Y-128111643D01*
X161081998Y-128111643D01*
X160860853Y-127890498D01*
X160860852Y-127890498D01*
X160828600Y-128052643D01*
X160013128Y-128052643D01*
X159970609Y-127838885D01*
X159970606Y-127838874D01*
X159863646Y-127486273D01*
X159724775Y-127151012D01*
X158124651Y-128751138D01*
X158078600Y-128751138D01*
X158078600Y-128636438D01*
X158048657Y-128408998D01*
X157989283Y-128187413D01*
X157901495Y-127975473D01*
X157786794Y-127776805D01*
X157647143Y-127594808D01*
X157484931Y-127432596D01*
X157302934Y-127292945D01*
X157104266Y-127178244D01*
X156892326Y-127090456D01*
X156670741Y-127031082D01*
X156443301Y-127001139D01*
X156213899Y-127001139D01*
X155986459Y-127031082D01*
X155764874Y-127090456D01*
X155552934Y-127178244D01*
X155354266Y-127292945D01*
X155172269Y-127432596D01*
X155010057Y-127594808D01*
X154870406Y-127776805D01*
X154755705Y-127975473D01*
X154667917Y-128187413D01*
X154608543Y-128408998D01*
X154578600Y-128636438D01*
X154417848Y-128636438D01*
X152932423Y-127151012D01*
X152793552Y-127486277D01*
X152686593Y-127838874D01*
X152686590Y-127838885D01*
X152614716Y-128200229D01*
X152614713Y-128200246D01*
X152578600Y-128566916D01*
X121817600Y-128566916D01*
X121781486Y-128200246D01*
X121781483Y-128200229D01*
X121709609Y-127838885D01*
X121709606Y-127838874D01*
X121602646Y-127486273D01*
X121463775Y-127151012D01*
X119863651Y-128751138D01*
X119817600Y-128751138D01*
X119817600Y-128636438D01*
X119787657Y-128408998D01*
X119728283Y-128187413D01*
X119640495Y-127975473D01*
X119525794Y-127776805D01*
X119386143Y-127594808D01*
X119223931Y-127432596D01*
X119041934Y-127292945D01*
X118843266Y-127178244D01*
X118631326Y-127090456D01*
X118409741Y-127031082D01*
X118182301Y-127001139D01*
X117952899Y-127001139D01*
X117725459Y-127031082D01*
X117503874Y-127090456D01*
X117291934Y-127178244D01*
X117093266Y-127292945D01*
X116911269Y-127432596D01*
X116749057Y-127594808D01*
X116609406Y-127776805D01*
X116494705Y-127975473D01*
X116406917Y-128187413D01*
X116347543Y-128408998D01*
X116317600Y-128636438D01*
X116156848Y-128636438D01*
X114671423Y-127151012D01*
X114532552Y-127486277D01*
X114425593Y-127838874D01*
X114425590Y-127838885D01*
X114353716Y-128200229D01*
X114353713Y-128200246D01*
X114317600Y-128566916D01*
X109165978Y-128566916D01*
X109107096Y-128551139D01*
X109028104Y-128551139D01*
X108951804Y-128571583D01*
X108883395Y-128611079D01*
X108827540Y-128666934D01*
X108788044Y-128735343D01*
X108767600Y-128811643D01*
X108320998Y-128811643D01*
X108099853Y-128590498D01*
X108099852Y-128590498D01*
X108067600Y-128752643D01*
X103817600Y-128752643D01*
X103817600Y-128566916D01*
X103781486Y-128200247D01*
X103755728Y-128070747D01*
X103755728Y-128070743D01*
X103752128Y-128052643D01*
X104567600Y-128052643D01*
X104567600Y-128249634D01*
X104599852Y-128411778D01*
X104599853Y-128411778D01*
X104860493Y-128151139D01*
X104860493Y-128151138D01*
X104820998Y-128111643D01*
X105267600Y-128111643D01*
X105267600Y-128190635D01*
X105288044Y-128266935D01*
X105327540Y-128335344D01*
X105383395Y-128391199D01*
X105451804Y-128430695D01*
X105528104Y-128451139D01*
X105607096Y-128451139D01*
X105683396Y-128430695D01*
X105751805Y-128391199D01*
X105807660Y-128335344D01*
X105847156Y-128266935D01*
X105867600Y-128190635D01*
X105867600Y-128111643D01*
X105847156Y-128035343D01*
X105807660Y-127966934D01*
X105751805Y-127911079D01*
X105683396Y-127871583D01*
X105607096Y-127851139D01*
X105528104Y-127851139D01*
X105451804Y-127871583D01*
X105383395Y-127911079D01*
X105327540Y-127966934D01*
X105288044Y-128035343D01*
X105267600Y-128111643D01*
X104820998Y-128111643D01*
X104599853Y-127890498D01*
X104599852Y-127890498D01*
X104567600Y-128052643D01*
X103752128Y-128052643D01*
X103709609Y-127838885D01*
X103709606Y-127838874D01*
X103602646Y-127486273D01*
X103463775Y-127151012D01*
X101863651Y-128751138D01*
X101817600Y-128751138D01*
X101817600Y-128636438D01*
X101787657Y-128408998D01*
X101728283Y-128187413D01*
X101640495Y-127975473D01*
X101525794Y-127776805D01*
X101386143Y-127594808D01*
X101223931Y-127432596D01*
X101041934Y-127292945D01*
X100843266Y-127178244D01*
X100631326Y-127090456D01*
X100409741Y-127031082D01*
X100182301Y-127001139D01*
X99952899Y-127001139D01*
X99725459Y-127031082D01*
X99503874Y-127090456D01*
X99291934Y-127178244D01*
X99093266Y-127292945D01*
X98911269Y-127432596D01*
X98749057Y-127594808D01*
X98609406Y-127776805D01*
X98494705Y-127975473D01*
X98406917Y-128187413D01*
X98347543Y-128408998D01*
X98317600Y-128636438D01*
X98156848Y-128636438D01*
X96671423Y-127151012D01*
X96532552Y-127486277D01*
X96425593Y-127838874D01*
X96425590Y-127838885D01*
X96353716Y-128200229D01*
X96353713Y-128200246D01*
X96317600Y-128566916D01*
X93565582Y-128566916D01*
X93565582Y-125354962D01*
X98467473Y-125354962D01*
X100067599Y-126955087D01*
X101667725Y-125354962D01*
X101332461Y-125216091D01*
X100979864Y-125109132D01*
X100979853Y-125109129D01*
X100618509Y-125037255D01*
X100618492Y-125037252D01*
X100251823Y-125001139D01*
X99883377Y-125001139D01*
X99516707Y-125037252D01*
X99516690Y-125037255D01*
X99155346Y-125109129D01*
X99155335Y-125109132D01*
X98802738Y-125216091D01*
X98467473Y-125354962D01*
X93565582Y-125354962D01*
X93565582Y-124318884D01*
X100606959Y-124318884D01*
X100606959Y-124318885D01*
X100769104Y-124351138D01*
X100769107Y-124351139D01*
X100966093Y-124351139D01*
X101128239Y-124318885D01*
X101128239Y-124318884D01*
X100867601Y-124058245D01*
X100867600Y-124058245D01*
X100606959Y-124318884D01*
X93565582Y-124318884D01*
X93565582Y-123252643D01*
X99867600Y-123252643D01*
X99867600Y-123449634D01*
X99899852Y-123611778D01*
X99899853Y-123611778D01*
X100160493Y-123351139D01*
X100160493Y-123351138D01*
X100120998Y-123311643D01*
X100567600Y-123311643D01*
X100567600Y-123390635D01*
X100588044Y-123466935D01*
X100627540Y-123535344D01*
X100683395Y-123591199D01*
X100751804Y-123630695D01*
X100828104Y-123651139D01*
X100907096Y-123651139D01*
X100983396Y-123630695D01*
X101051805Y-123591199D01*
X101107660Y-123535344D01*
X101147156Y-123466935D01*
X101167600Y-123390635D01*
X101167600Y-123311643D01*
X101147156Y-123235343D01*
X101107660Y-123166934D01*
X101051805Y-123111079D01*
X100983396Y-123071583D01*
X100907096Y-123051139D01*
X100828104Y-123051139D01*
X100751804Y-123071583D01*
X100683395Y-123111079D01*
X100627540Y-123166934D01*
X100588044Y-123235343D01*
X100567600Y-123311643D01*
X100120998Y-123311643D01*
X99899853Y-123090498D01*
X99899852Y-123090498D01*
X99867600Y-123252643D01*
X93565582Y-123252643D01*
X93565582Y-120718884D01*
X99806959Y-120718884D01*
X99806959Y-120718885D01*
X99969104Y-120751138D01*
X99969107Y-120751139D01*
X100166093Y-120751139D01*
X100328239Y-120718885D01*
X100328239Y-120718884D01*
X100067601Y-120458245D01*
X100067600Y-120458245D01*
X99806959Y-120718884D01*
X93565582Y-120718884D01*
X93565582Y-119652643D01*
X99067600Y-119652643D01*
X99067600Y-119849634D01*
X99099852Y-120011778D01*
X99099853Y-120011778D01*
X99360493Y-119751139D01*
X99360493Y-119751138D01*
X99320998Y-119711643D01*
X99767600Y-119711643D01*
X99767600Y-119790635D01*
X99788044Y-119866935D01*
X99827540Y-119935344D01*
X99883395Y-119991199D01*
X99951804Y-120030695D01*
X100028104Y-120051139D01*
X100107096Y-120051139D01*
X100183396Y-120030695D01*
X100251805Y-119991199D01*
X100307660Y-119935344D01*
X100347156Y-119866935D01*
X100367600Y-119790635D01*
X100367600Y-119711643D01*
X100347156Y-119635343D01*
X100307660Y-119566934D01*
X100251805Y-119511079D01*
X100183396Y-119471583D01*
X100107096Y-119451139D01*
X100028104Y-119451139D01*
X99951804Y-119471583D01*
X99883395Y-119511079D01*
X99827540Y-119566934D01*
X99788044Y-119635343D01*
X99767600Y-119711643D01*
X99320998Y-119711643D01*
X99099853Y-119490498D01*
X99099852Y-119490498D01*
X99067600Y-119652643D01*
X93565582Y-119652643D01*
X93565582Y-118783391D01*
X99806959Y-118783391D01*
X99806959Y-118783392D01*
X100067600Y-119044032D01*
X100067601Y-119044032D01*
X100328239Y-118783392D01*
X100328239Y-118783391D01*
X100166095Y-118751139D01*
X99969104Y-118751139D01*
X99806959Y-118783391D01*
X93565582Y-118783391D01*
X93565582Y-117318884D01*
X100506959Y-117318884D01*
X100506959Y-117318885D01*
X100669104Y-117351138D01*
X100669107Y-117351139D01*
X100866092Y-117351139D01*
X100866095Y-117351138D01*
X101059281Y-117312711D01*
X101059289Y-117312709D01*
X101136799Y-117280604D01*
X101206268Y-117273135D01*
X101268748Y-117304410D01*
X101304400Y-117364499D01*
X101304027Y-117427258D01*
X101174484Y-117910719D01*
X101174478Y-117910745D01*
X101071016Y-118430887D01*
X101071014Y-118430898D01*
X101001788Y-118956718D01*
X100987182Y-119179559D01*
X100967100Y-119485956D01*
X100967100Y-119485967D01*
X100967100Y-119507383D01*
X100947415Y-119574422D01*
X100930781Y-119595064D01*
X100774706Y-119751138D01*
X100930781Y-119907212D01*
X100964266Y-119968535D01*
X100967100Y-119994894D01*
X100967100Y-120016322D01*
X100989008Y-120350572D01*
X101001788Y-120545559D01*
X101071014Y-121071379D01*
X101071016Y-121071390D01*
X101174478Y-121591532D01*
X101174482Y-121591550D01*
X101311753Y-122103851D01*
X101311755Y-122103859D01*
X101361584Y-122250649D01*
X101364494Y-122320459D01*
X101329199Y-122380759D01*
X101266907Y-122412405D01*
X101197395Y-122405349D01*
X101196713Y-122405069D01*
X101159293Y-122389569D01*
X101159281Y-122389566D01*
X100966095Y-122351139D01*
X100769104Y-122351139D01*
X100606959Y-122383391D01*
X100606959Y-122383392D01*
X101836122Y-123612555D01*
X101902552Y-123611962D01*
X101961665Y-123649210D01*
X101976068Y-123669246D01*
X102184947Y-124031035D01*
X102184963Y-124031060D01*
X102398833Y-124351139D01*
X102479608Y-124472027D01*
X102802475Y-124892794D01*
X103152169Y-125291545D01*
X103527194Y-125666570D01*
X103925945Y-126016264D01*
X104346712Y-126339131D01*
X104346718Y-126339135D01*
X104787678Y-126633775D01*
X104787703Y-126633791D01*
X105247004Y-126898969D01*
X105347597Y-126948576D01*
X105399016Y-126995881D01*
X105416698Y-127063476D01*
X105395028Y-127129901D01*
X105340887Y-127174065D01*
X105316944Y-127181405D01*
X105306959Y-127183391D01*
X105306959Y-127183392D01*
X106535345Y-128411778D01*
X106535346Y-128411778D01*
X106567600Y-128249632D01*
X106567600Y-128052647D01*
X106567599Y-128052643D01*
X106529172Y-127859457D01*
X106529169Y-127859445D01*
X106453792Y-127677467D01*
X106453785Y-127677454D01*
X106432818Y-127646075D01*
X106411940Y-127579398D01*
X106430424Y-127512018D01*
X106482403Y-127465327D01*
X106551373Y-127454151D01*
X106575779Y-127459765D01*
X106714879Y-127506983D01*
X106714883Y-127506984D01*
X106714889Y-127506986D01*
X107227183Y-127644255D01*
X107227187Y-127644255D01*
X107227188Y-127644256D01*
X107227206Y-127644260D01*
X107734364Y-127745139D01*
X107747358Y-127747724D01*
X108273187Y-127816951D01*
X108726730Y-127846678D01*
X108792335Y-127870704D01*
X108806298Y-127882731D01*
X109067599Y-128144031D01*
X109328899Y-127882731D01*
X109390222Y-127849246D01*
X109408456Y-127846679D01*
X109862013Y-127816951D01*
X110387842Y-127747724D01*
X110741114Y-127677454D01*
X110907993Y-127644260D01*
X110908002Y-127644257D01*
X110908017Y-127644255D01*
X111396642Y-127513328D01*
X111466489Y-127514991D01*
X111524352Y-127554153D01*
X111551856Y-127618382D01*
X111540270Y-127687284D01*
X111531836Y-127701993D01*
X111481413Y-127777456D01*
X111481407Y-127777467D01*
X111406030Y-127959445D01*
X111406027Y-127959457D01*
X111367600Y-128152643D01*
X111367600Y-128349634D01*
X111399852Y-128511778D01*
X111399853Y-128511778D01*
X111699990Y-128211643D01*
X112067600Y-128211643D01*
X112067600Y-128290635D01*
X112088044Y-128366935D01*
X112127540Y-128435344D01*
X112183395Y-128491199D01*
X112251804Y-128530695D01*
X112328104Y-128551139D01*
X112407096Y-128551139D01*
X112483396Y-128530695D01*
X112551805Y-128491199D01*
X112607660Y-128435344D01*
X112647156Y-128366935D01*
X112667600Y-128290635D01*
X112667600Y-128251138D01*
X113074706Y-128251138D01*
X113074706Y-128251139D01*
X113335345Y-128511778D01*
X113335346Y-128511778D01*
X113367600Y-128349632D01*
X113367600Y-128152645D01*
X113367599Y-128152643D01*
X113335346Y-127990498D01*
X113335345Y-127990498D01*
X113074706Y-128251138D01*
X112667600Y-128251138D01*
X112667600Y-128211643D01*
X112647156Y-128135343D01*
X112607660Y-128066934D01*
X112551805Y-128011079D01*
X112483396Y-127971583D01*
X112407096Y-127951139D01*
X112328104Y-127951139D01*
X112251804Y-127971583D01*
X112183395Y-128011079D01*
X112127540Y-128066934D01*
X112088044Y-128135343D01*
X112067600Y-128211643D01*
X111699990Y-128211643D01*
X111799537Y-128112096D01*
X112014047Y-127897586D01*
X112628239Y-127283392D01*
X112628239Y-127283391D01*
X112616274Y-127281011D01*
X112554363Y-127248626D01*
X112519789Y-127187910D01*
X112523528Y-127118141D01*
X112564395Y-127061469D01*
X112585621Y-127048182D01*
X112888195Y-126898969D01*
X113347496Y-126633791D01*
X113347505Y-126633786D01*
X113788488Y-126339131D01*
X114209255Y-126016264D01*
X114608006Y-125666570D01*
X114919614Y-125354962D01*
X116467473Y-125354962D01*
X118067599Y-126955087D01*
X119667725Y-125354962D01*
X154728473Y-125354962D01*
X156328599Y-126955087D01*
X157928725Y-125354962D01*
X157593461Y-125216091D01*
X157240864Y-125109132D01*
X157240853Y-125109129D01*
X156879509Y-125037255D01*
X156879492Y-125037252D01*
X156512823Y-125001139D01*
X156144377Y-125001139D01*
X155777707Y-125037252D01*
X155777690Y-125037255D01*
X155416346Y-125109129D01*
X155416335Y-125109132D01*
X155063738Y-125216091D01*
X154728473Y-125354962D01*
X119667725Y-125354962D01*
X119332461Y-125216091D01*
X118979864Y-125109132D01*
X118979853Y-125109129D01*
X118618509Y-125037255D01*
X118618492Y-125037252D01*
X118251823Y-125001139D01*
X117883377Y-125001139D01*
X117516707Y-125037252D01*
X117516690Y-125037255D01*
X117155346Y-125109129D01*
X117155335Y-125109132D01*
X116802738Y-125216091D01*
X116467473Y-125354962D01*
X114919614Y-125354962D01*
X114983031Y-125291545D01*
X115332725Y-124892794D01*
X115655592Y-124472027D01*
X115757918Y-124318884D01*
X156867959Y-124318884D01*
X156867959Y-124318885D01*
X157030104Y-124351138D01*
X157030107Y-124351139D01*
X157227093Y-124351139D01*
X157389239Y-124318885D01*
X157389239Y-124318884D01*
X157128601Y-124058245D01*
X157128600Y-124058245D01*
X156867959Y-124318884D01*
X115757918Y-124318884D01*
X115776630Y-124290880D01*
X115824737Y-124218884D01*
X117106959Y-124218884D01*
X117106959Y-124218885D01*
X117269104Y-124251138D01*
X117269107Y-124251139D01*
X117466093Y-124251139D01*
X117628239Y-124218885D01*
X117628239Y-124218884D01*
X117367601Y-123958245D01*
X117367600Y-123958245D01*
X117106959Y-124218884D01*
X115824737Y-124218884D01*
X115894239Y-124114867D01*
X115950236Y-124031060D01*
X115950247Y-124031044D01*
X116215430Y-123571734D01*
X116218612Y-123565280D01*
X116265914Y-123513858D01*
X116333508Y-123496172D01*
X116365823Y-123501456D01*
X116399853Y-123511778D01*
X116699990Y-123211643D01*
X117067600Y-123211643D01*
X117067600Y-123290635D01*
X117088044Y-123366935D01*
X117127540Y-123435344D01*
X117183395Y-123491199D01*
X117251804Y-123530695D01*
X117328104Y-123551139D01*
X117407096Y-123551139D01*
X117483396Y-123530695D01*
X117551805Y-123491199D01*
X117607660Y-123435344D01*
X117647156Y-123366935D01*
X117667600Y-123290635D01*
X117667600Y-123251138D01*
X118074706Y-123251138D01*
X118074706Y-123251139D01*
X118335345Y-123511778D01*
X118335346Y-123511778D01*
X118367600Y-123349632D01*
X118367600Y-123252643D01*
X156128600Y-123252643D01*
X156128600Y-123449634D01*
X156160852Y-123611778D01*
X156160853Y-123611778D01*
X156421493Y-123351139D01*
X156421493Y-123351138D01*
X156381998Y-123311643D01*
X156828600Y-123311643D01*
X156828600Y-123390635D01*
X156849044Y-123466935D01*
X156888540Y-123535344D01*
X156944395Y-123591199D01*
X157012804Y-123630695D01*
X157089104Y-123651139D01*
X157168096Y-123651139D01*
X157244396Y-123630695D01*
X157312805Y-123591199D01*
X157368660Y-123535344D01*
X157408156Y-123466935D01*
X157428600Y-123390635D01*
X157428600Y-123311643D01*
X157408156Y-123235343D01*
X157368660Y-123166934D01*
X157312805Y-123111079D01*
X157244396Y-123071583D01*
X157168096Y-123051139D01*
X157089104Y-123051139D01*
X157012804Y-123071583D01*
X156944395Y-123111079D01*
X156888540Y-123166934D01*
X156849044Y-123235343D01*
X156828600Y-123311643D01*
X156381998Y-123311643D01*
X156160853Y-123090498D01*
X156160852Y-123090498D01*
X156128600Y-123252643D01*
X118367600Y-123252643D01*
X118367600Y-123152645D01*
X118367599Y-123152643D01*
X118335346Y-122990498D01*
X118335345Y-122990498D01*
X118074706Y-123251138D01*
X117667600Y-123251138D01*
X117667600Y-123211643D01*
X117647156Y-123135343D01*
X117607660Y-123066934D01*
X117551805Y-123011079D01*
X117483396Y-122971583D01*
X117407096Y-122951139D01*
X117328104Y-122951139D01*
X117251804Y-122971583D01*
X117183395Y-123011079D01*
X117127540Y-123066934D01*
X117088044Y-123135343D01*
X117067600Y-123211643D01*
X116699990Y-123211643D01*
X116799537Y-123112096D01*
X117014047Y-122897586D01*
X117628239Y-122283392D01*
X117628239Y-122283391D01*
X117466095Y-122251139D01*
X117269104Y-122251139D01*
X117075918Y-122289566D01*
X117075906Y-122289569D01*
X116961625Y-122336906D01*
X116892156Y-122344375D01*
X116829677Y-122313100D01*
X116794025Y-122253011D01*
X116796519Y-122183185D01*
X116796754Y-122182486D01*
X116823444Y-122103858D01*
X116823447Y-122103850D01*
X116960716Y-121591556D01*
X117064185Y-121071381D01*
X117106346Y-120751138D01*
X117110592Y-120718884D01*
X117806959Y-120718884D01*
X117806959Y-120718885D01*
X117969104Y-120751138D01*
X117969107Y-120751139D01*
X118166093Y-120751139D01*
X118328239Y-120718885D01*
X118328239Y-120718884D01*
X156067959Y-120718884D01*
X156067959Y-120718885D01*
X156230104Y-120751138D01*
X156230107Y-120751139D01*
X156427093Y-120751139D01*
X156589239Y-120718885D01*
X156589239Y-120718884D01*
X156328601Y-120458245D01*
X156328600Y-120458245D01*
X156067959Y-120718884D01*
X118328239Y-120718884D01*
X118067601Y-120458245D01*
X118067600Y-120458245D01*
X117806959Y-120718884D01*
X117110592Y-120718884D01*
X117117348Y-120667573D01*
X117133411Y-120545559D01*
X117133412Y-120545552D01*
X117168100Y-120016322D01*
X117168100Y-119994894D01*
X117187785Y-119927855D01*
X117204419Y-119907213D01*
X117360493Y-119751139D01*
X117360493Y-119751138D01*
X117320998Y-119711643D01*
X117767600Y-119711643D01*
X117767600Y-119790635D01*
X117788044Y-119866935D01*
X117827540Y-119935344D01*
X117883395Y-119991199D01*
X117951804Y-120030695D01*
X118028104Y-120051139D01*
X118107096Y-120051139D01*
X118183396Y-120030695D01*
X118251805Y-119991199D01*
X118307660Y-119935344D01*
X118347156Y-119866935D01*
X118367600Y-119790635D01*
X118367600Y-119751138D01*
X118774706Y-119751138D01*
X118774706Y-119751139D01*
X119035345Y-120011778D01*
X119035346Y-120011778D01*
X119067600Y-119849632D01*
X119067600Y-119652645D01*
X119067599Y-119652643D01*
X155328600Y-119652643D01*
X155328600Y-119849634D01*
X155360852Y-120011778D01*
X155360853Y-120011778D01*
X155621493Y-119751139D01*
X155621493Y-119751138D01*
X155581998Y-119711643D01*
X156028600Y-119711643D01*
X156028600Y-119790635D01*
X156049044Y-119866935D01*
X156088540Y-119935344D01*
X156144395Y-119991199D01*
X156212804Y-120030695D01*
X156289104Y-120051139D01*
X156368096Y-120051139D01*
X156444396Y-120030695D01*
X156512805Y-119991199D01*
X156568660Y-119935344D01*
X156608156Y-119866935D01*
X156628600Y-119790635D01*
X156628600Y-119711643D01*
X156608156Y-119635343D01*
X156568660Y-119566934D01*
X156512805Y-119511079D01*
X156444396Y-119471583D01*
X156368096Y-119451139D01*
X156289104Y-119451139D01*
X156212804Y-119471583D01*
X156144395Y-119511079D01*
X156088540Y-119566934D01*
X156049044Y-119635343D01*
X156028600Y-119711643D01*
X155581998Y-119711643D01*
X155360853Y-119490498D01*
X155360852Y-119490498D01*
X155328600Y-119652643D01*
X119067599Y-119652643D01*
X119035346Y-119490498D01*
X119035345Y-119490498D01*
X118774706Y-119751138D01*
X118367600Y-119751138D01*
X118367600Y-119711643D01*
X118347156Y-119635343D01*
X118307660Y-119566934D01*
X118251805Y-119511079D01*
X118183396Y-119471583D01*
X118107096Y-119451139D01*
X118028104Y-119451139D01*
X117951804Y-119471583D01*
X117883395Y-119511079D01*
X117827540Y-119566934D01*
X117788044Y-119635343D01*
X117767600Y-119711643D01*
X117320998Y-119711643D01*
X117204419Y-119595064D01*
X117170934Y-119533741D01*
X117168100Y-119507383D01*
X117168100Y-119485967D01*
X117168100Y-119485956D01*
X117133412Y-118956726D01*
X117133411Y-118956718D01*
X117117348Y-118834704D01*
X117110592Y-118783391D01*
X117806959Y-118783391D01*
X117806959Y-118783392D01*
X118067600Y-119044032D01*
X118067601Y-119044032D01*
X118328239Y-118783392D01*
X118328239Y-118783391D01*
X156067959Y-118783391D01*
X156067959Y-118783392D01*
X156328600Y-119044032D01*
X156328601Y-119044032D01*
X156589239Y-118783392D01*
X156589239Y-118783391D01*
X156427095Y-118751139D01*
X156230104Y-118751139D01*
X156067959Y-118783391D01*
X118328239Y-118783391D01*
X118166095Y-118751139D01*
X117969104Y-118751139D01*
X117806959Y-118783391D01*
X117110592Y-118783391D01*
X117064185Y-118430898D01*
X117064185Y-118430897D01*
X116960716Y-117910722D01*
X116823447Y-117398428D01*
X116811930Y-117364499D01*
X116798053Y-117323616D01*
X116796447Y-117318884D01*
X156767959Y-117318884D01*
X156767959Y-117318885D01*
X156930104Y-117351138D01*
X156930107Y-117351139D01*
X157127092Y-117351139D01*
X157127095Y-117351138D01*
X157320281Y-117312711D01*
X157320289Y-117312709D01*
X157397799Y-117280604D01*
X157467268Y-117273135D01*
X157529748Y-117304410D01*
X157565400Y-117364499D01*
X157565027Y-117427258D01*
X157435484Y-117910719D01*
X157435478Y-117910745D01*
X157332016Y-118430887D01*
X157332014Y-118430898D01*
X157262788Y-118956718D01*
X157248182Y-119179559D01*
X157228100Y-119485956D01*
X157228100Y-119485967D01*
X157228100Y-119507383D01*
X157208415Y-119574422D01*
X157191781Y-119595064D01*
X157035706Y-119751138D01*
X157191781Y-119907212D01*
X157225266Y-119968535D01*
X157228100Y-119994894D01*
X157228100Y-120016322D01*
X157250008Y-120350572D01*
X157262788Y-120545559D01*
X157332014Y-121071379D01*
X157332016Y-121071390D01*
X157435478Y-121591532D01*
X157435482Y-121591550D01*
X157572753Y-122103851D01*
X157572755Y-122103859D01*
X157622584Y-122250649D01*
X157625494Y-122320459D01*
X157590199Y-122380759D01*
X157527907Y-122412405D01*
X157458395Y-122405349D01*
X157457713Y-122405069D01*
X157420293Y-122389569D01*
X157420281Y-122389566D01*
X157227095Y-122351139D01*
X157030104Y-122351139D01*
X156867959Y-122383391D01*
X156867959Y-122383392D01*
X158097122Y-123612555D01*
X158163552Y-123611962D01*
X158222665Y-123649210D01*
X158237068Y-123669246D01*
X158445947Y-124031035D01*
X158445963Y-124031060D01*
X158659833Y-124351139D01*
X158740608Y-124472027D01*
X159063475Y-124892794D01*
X159413169Y-125291545D01*
X159788194Y-125666570D01*
X160186945Y-126016264D01*
X160607712Y-126339131D01*
X160607718Y-126339135D01*
X161048678Y-126633775D01*
X161048703Y-126633791D01*
X161508004Y-126898969D01*
X161608597Y-126948576D01*
X161660016Y-126995881D01*
X161677698Y-127063476D01*
X161656028Y-127129901D01*
X161601887Y-127174065D01*
X161577944Y-127181405D01*
X161567959Y-127183391D01*
X161567959Y-127183392D01*
X162796345Y-128411778D01*
X162796346Y-128411778D01*
X162828600Y-128249632D01*
X162828600Y-128052647D01*
X162828599Y-128052643D01*
X162790172Y-127859457D01*
X162790169Y-127859445D01*
X162714792Y-127677467D01*
X162714785Y-127677454D01*
X162693818Y-127646075D01*
X162672940Y-127579398D01*
X162691424Y-127512018D01*
X162743403Y-127465327D01*
X162812373Y-127454151D01*
X162836779Y-127459765D01*
X162975879Y-127506983D01*
X162975883Y-127506984D01*
X162975889Y-127506986D01*
X163488183Y-127644255D01*
X163488187Y-127644255D01*
X163488188Y-127644256D01*
X163488206Y-127644260D01*
X163995364Y-127745139D01*
X164008358Y-127747724D01*
X164534187Y-127816951D01*
X164987730Y-127846678D01*
X165053335Y-127870704D01*
X165067298Y-127882731D01*
X165328599Y-128144031D01*
X165589899Y-127882731D01*
X165651222Y-127849246D01*
X165669456Y-127846679D01*
X166123013Y-127816951D01*
X166648842Y-127747724D01*
X167002114Y-127677454D01*
X167168993Y-127644260D01*
X167169002Y-127644257D01*
X167169017Y-127644255D01*
X167657642Y-127513328D01*
X167727489Y-127514991D01*
X167785352Y-127554153D01*
X167812856Y-127618382D01*
X167801270Y-127687284D01*
X167792836Y-127701993D01*
X167742413Y-127777456D01*
X167742407Y-127777467D01*
X167667030Y-127959445D01*
X167667027Y-127959457D01*
X167628600Y-128152643D01*
X167628600Y-128349634D01*
X167660852Y-128511778D01*
X167660853Y-128511778D01*
X167960990Y-128211643D01*
X168328600Y-128211643D01*
X168328600Y-128290635D01*
X168349044Y-128366935D01*
X168388540Y-128435344D01*
X168444395Y-128491199D01*
X168512804Y-128530695D01*
X168589104Y-128551139D01*
X168668096Y-128551139D01*
X168744396Y-128530695D01*
X168812805Y-128491199D01*
X168868660Y-128435344D01*
X168908156Y-128366935D01*
X168928600Y-128290635D01*
X168928600Y-128251138D01*
X169335706Y-128251138D01*
X169335706Y-128251139D01*
X169596345Y-128511778D01*
X169596346Y-128511778D01*
X169628600Y-128349632D01*
X169628600Y-128152645D01*
X169628599Y-128152643D01*
X169596346Y-127990498D01*
X169596345Y-127990498D01*
X169335706Y-128251138D01*
X168928600Y-128251138D01*
X168928600Y-128211643D01*
X168908156Y-128135343D01*
X168868660Y-128066934D01*
X168812805Y-128011079D01*
X168744396Y-127971583D01*
X168668096Y-127951139D01*
X168589104Y-127951139D01*
X168512804Y-127971583D01*
X168444395Y-128011079D01*
X168388540Y-128066934D01*
X168349044Y-128135343D01*
X168328600Y-128211643D01*
X167960990Y-128211643D01*
X168060537Y-128112096D01*
X168275047Y-127897586D01*
X168889239Y-127283392D01*
X168889239Y-127283391D01*
X168877274Y-127281011D01*
X168815363Y-127248626D01*
X168780789Y-127187910D01*
X168784528Y-127118141D01*
X168825395Y-127061469D01*
X168846621Y-127048182D01*
X169149195Y-126898969D01*
X169608496Y-126633791D01*
X169608505Y-126633786D01*
X170049488Y-126339131D01*
X170470255Y-126016264D01*
X170869006Y-125666570D01*
X171180614Y-125354962D01*
X172728473Y-125354962D01*
X174328599Y-126955087D01*
X175928725Y-125354962D01*
X175593461Y-125216091D01*
X175240864Y-125109132D01*
X175240853Y-125109129D01*
X174879509Y-125037255D01*
X174879492Y-125037252D01*
X174512823Y-125001139D01*
X174144377Y-125001139D01*
X173777707Y-125037252D01*
X173777690Y-125037255D01*
X173416346Y-125109129D01*
X173416335Y-125109132D01*
X173063738Y-125216091D01*
X172728473Y-125354962D01*
X171180614Y-125354962D01*
X171244031Y-125291545D01*
X171593725Y-124892794D01*
X171916592Y-124472027D01*
X172037630Y-124290880D01*
X172085737Y-124218884D01*
X173367959Y-124218884D01*
X173367959Y-124218885D01*
X173530104Y-124251138D01*
X173530107Y-124251139D01*
X173727093Y-124251139D01*
X173889239Y-124218885D01*
X173889239Y-124218884D01*
X173628601Y-123958245D01*
X173628600Y-123958245D01*
X173367959Y-124218884D01*
X172085737Y-124218884D01*
X172155239Y-124114867D01*
X172211236Y-124031060D01*
X172211247Y-124031044D01*
X172476430Y-123571734D01*
X172479612Y-123565280D01*
X172526914Y-123513858D01*
X172594508Y-123496172D01*
X172626823Y-123501456D01*
X172660853Y-123511778D01*
X172960990Y-123211643D01*
X173328600Y-123211643D01*
X173328600Y-123290635D01*
X173349044Y-123366935D01*
X173388540Y-123435344D01*
X173444395Y-123491199D01*
X173512804Y-123530695D01*
X173589104Y-123551139D01*
X173668096Y-123551139D01*
X173744396Y-123530695D01*
X173812805Y-123491199D01*
X173868660Y-123435344D01*
X173908156Y-123366935D01*
X173928600Y-123290635D01*
X173928600Y-123251138D01*
X174335706Y-123251138D01*
X174335706Y-123251139D01*
X174596345Y-123511778D01*
X174596346Y-123511778D01*
X174628600Y-123349632D01*
X174628600Y-123152645D01*
X174628599Y-123152643D01*
X174596346Y-122990498D01*
X174596345Y-122990498D01*
X174335706Y-123251138D01*
X173928600Y-123251138D01*
X173928600Y-123211643D01*
X173908156Y-123135343D01*
X173868660Y-123066934D01*
X173812805Y-123011079D01*
X173744396Y-122971583D01*
X173668096Y-122951139D01*
X173589104Y-122951139D01*
X173512804Y-122971583D01*
X173444395Y-123011079D01*
X173388540Y-123066934D01*
X173349044Y-123135343D01*
X173328600Y-123211643D01*
X172960990Y-123211643D01*
X173060537Y-123112096D01*
X173275047Y-122897586D01*
X173889239Y-122283392D01*
X173889239Y-122283391D01*
X173727095Y-122251139D01*
X173530104Y-122251139D01*
X173336918Y-122289566D01*
X173336906Y-122289569D01*
X173222625Y-122336906D01*
X173153156Y-122344375D01*
X173090677Y-122313100D01*
X173055025Y-122253011D01*
X173057519Y-122183185D01*
X173057754Y-122182486D01*
X173084444Y-122103858D01*
X173084447Y-122103850D01*
X173221716Y-121591556D01*
X173325185Y-121071381D01*
X173367346Y-120751138D01*
X173371592Y-120718884D01*
X174067959Y-120718884D01*
X174067959Y-120718885D01*
X174230104Y-120751138D01*
X174230107Y-120751139D01*
X174427093Y-120751139D01*
X174589239Y-120718885D01*
X174589239Y-120718884D01*
X174328601Y-120458245D01*
X174328600Y-120458245D01*
X174067959Y-120718884D01*
X173371592Y-120718884D01*
X173378348Y-120667573D01*
X173394411Y-120545559D01*
X173394412Y-120545552D01*
X173429100Y-120016322D01*
X173429100Y-119994894D01*
X173448785Y-119927855D01*
X173465419Y-119907213D01*
X173621493Y-119751139D01*
X173621493Y-119751138D01*
X173581998Y-119711643D01*
X174028600Y-119711643D01*
X174028600Y-119790635D01*
X174049044Y-119866935D01*
X174088540Y-119935344D01*
X174144395Y-119991199D01*
X174212804Y-120030695D01*
X174289104Y-120051139D01*
X174368096Y-120051139D01*
X174444396Y-120030695D01*
X174512805Y-119991199D01*
X174568660Y-119935344D01*
X174608156Y-119866935D01*
X174628600Y-119790635D01*
X174628600Y-119751138D01*
X175035706Y-119751138D01*
X175035706Y-119751139D01*
X175296345Y-120011778D01*
X175296346Y-120011778D01*
X175328600Y-119849632D01*
X175328600Y-119652645D01*
X175328599Y-119652643D01*
X175296346Y-119490498D01*
X175296345Y-119490498D01*
X175035706Y-119751138D01*
X174628600Y-119751138D01*
X174628600Y-119711643D01*
X174608156Y-119635343D01*
X174568660Y-119566934D01*
X174512805Y-119511079D01*
X174444396Y-119471583D01*
X174368096Y-119451139D01*
X174289104Y-119451139D01*
X174212804Y-119471583D01*
X174144395Y-119511079D01*
X174088540Y-119566934D01*
X174049044Y-119635343D01*
X174028600Y-119711643D01*
X173581998Y-119711643D01*
X173465419Y-119595064D01*
X173431934Y-119533741D01*
X173429100Y-119507383D01*
X173429100Y-119485967D01*
X173429100Y-119485956D01*
X173394412Y-118956726D01*
X173394411Y-118956718D01*
X173378348Y-118834704D01*
X173371592Y-118783391D01*
X174067959Y-118783391D01*
X174067959Y-118783392D01*
X174328600Y-119044032D01*
X174328601Y-119044032D01*
X174589239Y-118783392D01*
X174589239Y-118783391D01*
X174427095Y-118751139D01*
X174230104Y-118751139D01*
X174067959Y-118783391D01*
X173371592Y-118783391D01*
X173325185Y-118430898D01*
X173325185Y-118430897D01*
X173221716Y-117910722D01*
X173084447Y-117398428D01*
X173068394Y-117351138D01*
X173021786Y-117213835D01*
X172913967Y-116896209D01*
X172711005Y-116406215D01*
X172476430Y-115930544D01*
X172476430Y-115930543D01*
X172211252Y-115471242D01*
X172211236Y-115471217D01*
X171916596Y-115030257D01*
X171916592Y-115030251D01*
X171593725Y-114609484D01*
X171244031Y-114210733D01*
X171180612Y-114147314D01*
X172728473Y-114147314D01*
X173063734Y-114286185D01*
X173416335Y-114393145D01*
X173416346Y-114393148D01*
X173777690Y-114465022D01*
X173777707Y-114465025D01*
X174144377Y-114501139D01*
X174512823Y-114501139D01*
X174879492Y-114465025D01*
X174879509Y-114465022D01*
X175240853Y-114393148D01*
X175240864Y-114393145D01*
X175593465Y-114286185D01*
X175928725Y-114147314D01*
X174328600Y-112547190D01*
X172728473Y-114147314D01*
X171180612Y-114147314D01*
X170869006Y-113835708D01*
X170470255Y-113486014D01*
X170049488Y-113163147D01*
X170049481Y-113163142D01*
X169608521Y-112868502D01*
X169608496Y-112868486D01*
X169149195Y-112603308D01*
X168673527Y-112368735D01*
X168183538Y-112165775D01*
X168183527Y-112165771D01*
X167681320Y-111995294D01*
X167681312Y-111995292D01*
X167169011Y-111858021D01*
X167168993Y-111858017D01*
X166648851Y-111754555D01*
X166648840Y-111754553D01*
X166123020Y-111685327D01*
X165917201Y-111671837D01*
X165593783Y-111650639D01*
X165063417Y-111650639D01*
X164757020Y-111670721D01*
X164534179Y-111685327D01*
X164008359Y-111754553D01*
X164008348Y-111754555D01*
X163488206Y-111858017D01*
X163488188Y-111858021D01*
X162975887Y-111995292D01*
X162975879Y-111995294D01*
X162473672Y-112165771D01*
X162473661Y-112165775D01*
X161983672Y-112368735D01*
X161508004Y-112603308D01*
X161048703Y-112868486D01*
X161048678Y-112868502D01*
X160607718Y-113163142D01*
X160433298Y-113296979D01*
X160186945Y-113486014D01*
X160186939Y-113486018D01*
X160186934Y-113486023D01*
X159788189Y-113835712D01*
X159413173Y-114210728D01*
X159063484Y-114609473D01*
X159063479Y-114609478D01*
X159063475Y-114609484D01*
X158874440Y-114855837D01*
X158740603Y-115030257D01*
X158445963Y-115471217D01*
X158445947Y-115471242D01*
X158180769Y-115930543D01*
X158134686Y-116023991D01*
X158087380Y-116075411D01*
X158019785Y-116093092D01*
X157997411Y-116089432D01*
X157382153Y-116704692D01*
X156767959Y-117318884D01*
X116796447Y-117318884D01*
X116705512Y-117051004D01*
X116652967Y-116896209D01*
X116450005Y-116406215D01*
X116450003Y-116406211D01*
X116398316Y-116301400D01*
X116374272Y-116252643D01*
X156028600Y-116252643D01*
X156028600Y-116449634D01*
X156060852Y-116611778D01*
X156060853Y-116611778D01*
X156321493Y-116351139D01*
X156321493Y-116351138D01*
X156281998Y-116311643D01*
X156728600Y-116311643D01*
X156728600Y-116390635D01*
X156749044Y-116466935D01*
X156788540Y-116535344D01*
X156844395Y-116591199D01*
X156912804Y-116630695D01*
X156989104Y-116651139D01*
X157068096Y-116651139D01*
X157144396Y-116630695D01*
X157212805Y-116591199D01*
X157268660Y-116535344D01*
X157308156Y-116466935D01*
X157328600Y-116390635D01*
X157328600Y-116311643D01*
X157308156Y-116235343D01*
X157268660Y-116166934D01*
X157212805Y-116111079D01*
X157144396Y-116071583D01*
X157068096Y-116051139D01*
X156989104Y-116051139D01*
X156912804Y-116071583D01*
X156844395Y-116111079D01*
X156788540Y-116166934D01*
X156749044Y-116235343D01*
X156728600Y-116311643D01*
X156281998Y-116311643D01*
X156060853Y-116090498D01*
X156060852Y-116090498D01*
X156028600Y-116252643D01*
X116374272Y-116252643D01*
X116215430Y-115930543D01*
X115955608Y-115480519D01*
X115955607Y-115480518D01*
X115950246Y-115471232D01*
X115950236Y-115471217D01*
X115891553Y-115383391D01*
X156767959Y-115383391D01*
X156767959Y-115383392D01*
X157028600Y-115644032D01*
X157028601Y-115644032D01*
X157289239Y-115383392D01*
X157289239Y-115383391D01*
X157127095Y-115351139D01*
X156930104Y-115351139D01*
X156767959Y-115383391D01*
X115891553Y-115383391D01*
X115655596Y-115030257D01*
X115655592Y-115030251D01*
X115332725Y-114609484D01*
X114983031Y-114210733D01*
X114919612Y-114147314D01*
X116467473Y-114147314D01*
X116802734Y-114286185D01*
X117155335Y-114393145D01*
X117155346Y-114393148D01*
X117516690Y-114465022D01*
X117516707Y-114465025D01*
X117883377Y-114501139D01*
X118251823Y-114501139D01*
X118618492Y-114465025D01*
X118618509Y-114465022D01*
X118979853Y-114393148D01*
X118979864Y-114393145D01*
X119332465Y-114286185D01*
X119667725Y-114147314D01*
X154728473Y-114147314D01*
X155063734Y-114286185D01*
X155416335Y-114393145D01*
X155416346Y-114393148D01*
X155777690Y-114465022D01*
X155777707Y-114465025D01*
X156144377Y-114501139D01*
X156512823Y-114501139D01*
X156879492Y-114465025D01*
X156879509Y-114465022D01*
X157240853Y-114393148D01*
X157240864Y-114393145D01*
X157593465Y-114286185D01*
X157928725Y-114147314D01*
X156328600Y-112547190D01*
X154728473Y-114147314D01*
X119667725Y-114147314D01*
X118067600Y-112547190D01*
X116467473Y-114147314D01*
X114919612Y-114147314D01*
X114608006Y-113835708D01*
X114209255Y-113486014D01*
X113788488Y-113163147D01*
X113788481Y-113163142D01*
X113347521Y-112868502D01*
X113347496Y-112868486D01*
X112888195Y-112603308D01*
X112412527Y-112368735D01*
X111922538Y-112165775D01*
X111922527Y-112165771D01*
X111420320Y-111995294D01*
X111420312Y-111995292D01*
X110908011Y-111858021D01*
X110907993Y-111858017D01*
X110387851Y-111754555D01*
X110387840Y-111754553D01*
X109862020Y-111685327D01*
X109656201Y-111671837D01*
X109332783Y-111650639D01*
X108802417Y-111650639D01*
X108496020Y-111670721D01*
X108273179Y-111685327D01*
X107747359Y-111754553D01*
X107747348Y-111754555D01*
X107227206Y-111858017D01*
X107227188Y-111858021D01*
X106714887Y-111995292D01*
X106714879Y-111995294D01*
X106212672Y-112165771D01*
X106212661Y-112165775D01*
X105722672Y-112368735D01*
X105247004Y-112603308D01*
X104787703Y-112868486D01*
X104787678Y-112868502D01*
X104346718Y-113163142D01*
X104172298Y-113296979D01*
X103925945Y-113486014D01*
X103925939Y-113486018D01*
X103925934Y-113486023D01*
X103527189Y-113835712D01*
X103152173Y-114210728D01*
X102802484Y-114609473D01*
X102802479Y-114609478D01*
X102802475Y-114609484D01*
X102613440Y-114855837D01*
X102479603Y-115030257D01*
X102184963Y-115471217D01*
X102184947Y-115471242D01*
X101919769Y-115930543D01*
X101873686Y-116023991D01*
X101826380Y-116075411D01*
X101758785Y-116093092D01*
X101736411Y-116089432D01*
X101121153Y-116704692D01*
X100506959Y-117318884D01*
X93565582Y-117318884D01*
X93565582Y-116252643D01*
X99767600Y-116252643D01*
X99767600Y-116449634D01*
X99799852Y-116611778D01*
X99799853Y-116611778D01*
X100060493Y-116351139D01*
X100060493Y-116351138D01*
X100020998Y-116311643D01*
X100467600Y-116311643D01*
X100467600Y-116390635D01*
X100488044Y-116466935D01*
X100527540Y-116535344D01*
X100583395Y-116591199D01*
X100651804Y-116630695D01*
X100728104Y-116651139D01*
X100807096Y-116651139D01*
X100883396Y-116630695D01*
X100951805Y-116591199D01*
X101007660Y-116535344D01*
X101047156Y-116466935D01*
X101067600Y-116390635D01*
X101067600Y-116311643D01*
X101047156Y-116235343D01*
X101007660Y-116166934D01*
X100951805Y-116111079D01*
X100883396Y-116071583D01*
X100807096Y-116051139D01*
X100728104Y-116051139D01*
X100651804Y-116071583D01*
X100583395Y-116111079D01*
X100527540Y-116166934D01*
X100488044Y-116235343D01*
X100467600Y-116311643D01*
X100020998Y-116311643D01*
X99799853Y-116090498D01*
X99799852Y-116090498D01*
X99767600Y-116252643D01*
X93565582Y-116252643D01*
X93565582Y-115383391D01*
X100506959Y-115383391D01*
X100506959Y-115383392D01*
X100767600Y-115644032D01*
X100767601Y-115644032D01*
X101028239Y-115383392D01*
X101028239Y-115383391D01*
X100866095Y-115351139D01*
X100669104Y-115351139D01*
X100506959Y-115383391D01*
X93565582Y-115383391D01*
X93565582Y-114147314D01*
X98467473Y-114147314D01*
X98802734Y-114286185D01*
X99155335Y-114393145D01*
X99155346Y-114393148D01*
X99516690Y-114465022D01*
X99516707Y-114465025D01*
X99883377Y-114501139D01*
X100251823Y-114501139D01*
X100618492Y-114465025D01*
X100618509Y-114465022D01*
X100979853Y-114393148D01*
X100979864Y-114393145D01*
X101332465Y-114286185D01*
X101667725Y-114147314D01*
X100067600Y-112547190D01*
X98467473Y-114147314D01*
X93565582Y-114147314D01*
X93565582Y-110566916D01*
X96317600Y-110566916D01*
X96317600Y-110935361D01*
X96353713Y-111302031D01*
X96353716Y-111302048D01*
X96425590Y-111663392D01*
X96425593Y-111663403D01*
X96532552Y-112016000D01*
X96671423Y-112351264D01*
X98271548Y-110751140D01*
X98271548Y-110751138D01*
X98156848Y-110636438D01*
X98317600Y-110636438D01*
X98317600Y-110865840D01*
X98347543Y-111093280D01*
X98406917Y-111314865D01*
X98494705Y-111526805D01*
X98609406Y-111725473D01*
X98749057Y-111907470D01*
X98911269Y-112069682D01*
X99093266Y-112209333D01*
X99291934Y-112324034D01*
X99503874Y-112411822D01*
X99725459Y-112471196D01*
X99952899Y-112501139D01*
X100182301Y-112501139D01*
X100409741Y-112471196D01*
X100631326Y-112411822D01*
X100843266Y-112324034D01*
X101041934Y-112209333D01*
X101223931Y-112069682D01*
X101386143Y-111907470D01*
X101525794Y-111725473D01*
X101640495Y-111526805D01*
X101728283Y-111314865D01*
X101787657Y-111093280D01*
X101817600Y-110865840D01*
X101817600Y-110751138D01*
X101863651Y-110751138D01*
X101863651Y-110751140D01*
X103463775Y-112351264D01*
X103602646Y-112016004D01*
X103709606Y-111663403D01*
X103709609Y-111663392D01*
X103781483Y-111302048D01*
X103781486Y-111302031D01*
X103817600Y-110935361D01*
X103817600Y-110566916D01*
X103781486Y-110200246D01*
X103781483Y-110200229D01*
X103709609Y-109838885D01*
X103709606Y-109838874D01*
X103602646Y-109486273D01*
X103463775Y-109151012D01*
X101863651Y-110751138D01*
X101817600Y-110751138D01*
X101817600Y-110636438D01*
X101787657Y-110408998D01*
X101728283Y-110187413D01*
X101640495Y-109975473D01*
X101525794Y-109776805D01*
X101386143Y-109594808D01*
X101223931Y-109432596D01*
X101041934Y-109292945D01*
X100843266Y-109178244D01*
X100631326Y-109090456D01*
X100625414Y-109088872D01*
X107067100Y-109088872D01*
X107067100Y-109351127D01*
X107084894Y-109486277D01*
X107101330Y-109611116D01*
X107169202Y-109864418D01*
X107169205Y-109864428D01*
X107269553Y-110106690D01*
X107269558Y-110106700D01*
X107400675Y-110333803D01*
X107560318Y-110541851D01*
X107560326Y-110541860D01*
X107745740Y-110727274D01*
X107745748Y-110727281D01*
X107953796Y-110886924D01*
X108180899Y-111018041D01*
X108180909Y-111018046D01*
X108423171Y-111118394D01*
X108423181Y-111118398D01*
X108676484Y-111186270D01*
X108936480Y-111220500D01*
X108936487Y-111220500D01*
X109198713Y-111220500D01*
X109198720Y-111220500D01*
X109458716Y-111186270D01*
X109712019Y-111118398D01*
X109954297Y-111018043D01*
X110181403Y-110886924D01*
X110389451Y-110727282D01*
X110389455Y-110727277D01*
X110389460Y-110727274D01*
X110549818Y-110566916D01*
X114317600Y-110566916D01*
X114317600Y-110935361D01*
X114353713Y-111302031D01*
X114353716Y-111302048D01*
X114425590Y-111663392D01*
X114425593Y-111663403D01*
X114532552Y-112016000D01*
X114671423Y-112351264D01*
X116271548Y-110751140D01*
X116271548Y-110751138D01*
X116156848Y-110636438D01*
X116317600Y-110636438D01*
X116317600Y-110865840D01*
X116347543Y-111093280D01*
X116406917Y-111314865D01*
X116494705Y-111526805D01*
X116609406Y-111725473D01*
X116749057Y-111907470D01*
X116911269Y-112069682D01*
X117093266Y-112209333D01*
X117291934Y-112324034D01*
X117503874Y-112411822D01*
X117725459Y-112471196D01*
X117952899Y-112501139D01*
X118182301Y-112501139D01*
X118409741Y-112471196D01*
X118631326Y-112411822D01*
X118843266Y-112324034D01*
X119041934Y-112209333D01*
X119223931Y-112069682D01*
X119386143Y-111907470D01*
X119525794Y-111725473D01*
X119640495Y-111526805D01*
X119728283Y-111314865D01*
X119787657Y-111093280D01*
X119817600Y-110865840D01*
X119817600Y-110751138D01*
X119863651Y-110751138D01*
X119863651Y-110751139D01*
X121463775Y-112351264D01*
X121602646Y-112016004D01*
X121709606Y-111663403D01*
X121709609Y-111663392D01*
X121781483Y-111302048D01*
X121781486Y-111302031D01*
X121817600Y-110935361D01*
X121817600Y-110566916D01*
X152578600Y-110566916D01*
X152578600Y-110935361D01*
X152614713Y-111302031D01*
X152614716Y-111302048D01*
X152686590Y-111663392D01*
X152686593Y-111663403D01*
X152793552Y-112016000D01*
X152932423Y-112351264D01*
X154532548Y-110751139D01*
X154532548Y-110751138D01*
X154417848Y-110636438D01*
X154578600Y-110636438D01*
X154578600Y-110865840D01*
X154608543Y-111093280D01*
X154667917Y-111314865D01*
X154755705Y-111526805D01*
X154870406Y-111725473D01*
X155010057Y-111907470D01*
X155172269Y-112069682D01*
X155354266Y-112209333D01*
X155552934Y-112324034D01*
X155764874Y-112411822D01*
X155986459Y-112471196D01*
X156213899Y-112501139D01*
X156443301Y-112501139D01*
X156670741Y-112471196D01*
X156892326Y-112411822D01*
X157104266Y-112324034D01*
X157302934Y-112209333D01*
X157484931Y-112069682D01*
X157647143Y-111907470D01*
X157786794Y-111725473D01*
X157901495Y-111526805D01*
X157989283Y-111314865D01*
X158048657Y-111093280D01*
X158078600Y-110865840D01*
X158078600Y-110751138D01*
X158124651Y-110751138D01*
X158124651Y-110751140D01*
X159724775Y-112351264D01*
X159863646Y-112016004D01*
X159970606Y-111663403D01*
X159970609Y-111663392D01*
X160042483Y-111302048D01*
X160042486Y-111302031D01*
X160078600Y-110935361D01*
X160078600Y-110566916D01*
X160042486Y-110200246D01*
X160042483Y-110200229D01*
X159970609Y-109838885D01*
X159970606Y-109838874D01*
X159863646Y-109486273D01*
X159724775Y-109151012D01*
X158124651Y-110751138D01*
X158078600Y-110751138D01*
X158078600Y-110636438D01*
X158048657Y-110408998D01*
X157989283Y-110187413D01*
X157901495Y-109975473D01*
X157786794Y-109776805D01*
X157647143Y-109594808D01*
X157484931Y-109432596D01*
X157302934Y-109292945D01*
X157104266Y-109178244D01*
X156892326Y-109090456D01*
X156670741Y-109031082D01*
X156443301Y-109001139D01*
X156213899Y-109001139D01*
X155986459Y-109031082D01*
X155764874Y-109090456D01*
X155552934Y-109178244D01*
X155354266Y-109292945D01*
X155172269Y-109432596D01*
X155010057Y-109594808D01*
X154870406Y-109776805D01*
X154755705Y-109975473D01*
X154667917Y-110187413D01*
X154608543Y-110408998D01*
X154578600Y-110636438D01*
X154417848Y-110636438D01*
X152932423Y-109151012D01*
X152793552Y-109486277D01*
X152686593Y-109838874D01*
X152686590Y-109838885D01*
X152614716Y-110200229D01*
X152614713Y-110200246D01*
X152578600Y-110566916D01*
X121817600Y-110566916D01*
X121781486Y-110200246D01*
X121781483Y-110200229D01*
X121709609Y-109838885D01*
X121709606Y-109838874D01*
X121602646Y-109486273D01*
X121463775Y-109151012D01*
X119863651Y-110751138D01*
X119817600Y-110751138D01*
X119817600Y-110636438D01*
X119787657Y-110408998D01*
X119728283Y-110187413D01*
X119640495Y-109975473D01*
X119525794Y-109776805D01*
X119386143Y-109594808D01*
X119223931Y-109432596D01*
X119041934Y-109292945D01*
X118843266Y-109178244D01*
X118631326Y-109090456D01*
X118409741Y-109031082D01*
X118182301Y-109001139D01*
X117952899Y-109001139D01*
X117725459Y-109031082D01*
X117503874Y-109090456D01*
X117291934Y-109178244D01*
X117093266Y-109292945D01*
X116911269Y-109432596D01*
X116749057Y-109594808D01*
X116609406Y-109776805D01*
X116494705Y-109975473D01*
X116406917Y-110187413D01*
X116347543Y-110408998D01*
X116317600Y-110636438D01*
X116156848Y-110636438D01*
X114671423Y-109151012D01*
X114532552Y-109486277D01*
X114425593Y-109838874D01*
X114425590Y-109838885D01*
X114353716Y-110200229D01*
X114353713Y-110200246D01*
X114317600Y-110566916D01*
X110549818Y-110566916D01*
X110574874Y-110541860D01*
X110574879Y-110541854D01*
X110574882Y-110541851D01*
X110734524Y-110333803D01*
X110865643Y-110106697D01*
X110965998Y-109864419D01*
X111033870Y-109611116D01*
X111068100Y-109351120D01*
X111068100Y-109088880D01*
X111033870Y-108828884D01*
X110965998Y-108575581D01*
X110930193Y-108489140D01*
X110865646Y-108333309D01*
X110865641Y-108333299D01*
X110734524Y-108106196D01*
X110574881Y-107898148D01*
X110574874Y-107898140D01*
X110389460Y-107712726D01*
X110389451Y-107712718D01*
X110181403Y-107553075D01*
X110094953Y-107503164D01*
X109954300Y-107421958D01*
X109954290Y-107421953D01*
X109792559Y-107354962D01*
X116467473Y-107354962D01*
X118067599Y-108955087D01*
X119667725Y-107354962D01*
X154728473Y-107354962D01*
X156328599Y-108955087D01*
X156702815Y-108580872D01*
X163328100Y-108580872D01*
X163328100Y-108843127D01*
X163342841Y-108955087D01*
X163362330Y-109103116D01*
X163428782Y-109351120D01*
X163430202Y-109356418D01*
X163430205Y-109356428D01*
X163530553Y-109598690D01*
X163530558Y-109598700D01*
X163661675Y-109825803D01*
X163821318Y-110033851D01*
X163821326Y-110033860D01*
X164006740Y-110219274D01*
X164006748Y-110219281D01*
X164214796Y-110378924D01*
X164441899Y-110510041D01*
X164441909Y-110510046D01*
X164579206Y-110566916D01*
X164684181Y-110610398D01*
X164937484Y-110678270D01*
X165197480Y-110712500D01*
X165197487Y-110712500D01*
X165459713Y-110712500D01*
X165459720Y-110712500D01*
X165719716Y-110678270D01*
X165973019Y-110610398D01*
X166077994Y-110566916D01*
X170578600Y-110566916D01*
X170578600Y-110935361D01*
X170614713Y-111302031D01*
X170614716Y-111302048D01*
X170686590Y-111663392D01*
X170686593Y-111663403D01*
X170793552Y-112016000D01*
X170932423Y-112351264D01*
X172532548Y-110751140D01*
X172532548Y-110751137D01*
X172417849Y-110636438D01*
X172578600Y-110636438D01*
X172578600Y-110865840D01*
X172608543Y-111093280D01*
X172667917Y-111314865D01*
X172755705Y-111526805D01*
X172870406Y-111725473D01*
X173010057Y-111907470D01*
X173172269Y-112069682D01*
X173354266Y-112209333D01*
X173552934Y-112324034D01*
X173764874Y-112411822D01*
X173986459Y-112471196D01*
X174213899Y-112501139D01*
X174443301Y-112501139D01*
X174670741Y-112471196D01*
X174892326Y-112411822D01*
X175104266Y-112324034D01*
X175302934Y-112209333D01*
X175484931Y-112069682D01*
X175647143Y-111907470D01*
X175786794Y-111725473D01*
X175901495Y-111526805D01*
X175989283Y-111314865D01*
X176048657Y-111093280D01*
X176078600Y-110865840D01*
X176078600Y-110751138D01*
X176124651Y-110751138D01*
X176124651Y-110751140D01*
X177724775Y-112351264D01*
X177863646Y-112016004D01*
X177970606Y-111663403D01*
X177970609Y-111663392D01*
X178042483Y-111302048D01*
X178042486Y-111302031D01*
X178078600Y-110935361D01*
X178078600Y-110566916D01*
X178042486Y-110200246D01*
X178042483Y-110200229D01*
X177970609Y-109838885D01*
X177970606Y-109838874D01*
X177863646Y-109486273D01*
X177724775Y-109151012D01*
X176124651Y-110751138D01*
X176078600Y-110751138D01*
X176078600Y-110636438D01*
X176048657Y-110408998D01*
X175989283Y-110187413D01*
X175901495Y-109975473D01*
X175786794Y-109776805D01*
X175647143Y-109594808D01*
X175484931Y-109432596D01*
X175302934Y-109292945D01*
X175104266Y-109178244D01*
X174892326Y-109090456D01*
X174670741Y-109031082D01*
X174443301Y-109001139D01*
X174213899Y-109001139D01*
X173986459Y-109031082D01*
X173764874Y-109090456D01*
X173552934Y-109178244D01*
X173354266Y-109292945D01*
X173172269Y-109432596D01*
X173010057Y-109594808D01*
X172870406Y-109776805D01*
X172755705Y-109975473D01*
X172667917Y-110187413D01*
X172608543Y-110408998D01*
X172578600Y-110636438D01*
X172417849Y-110636438D01*
X170932423Y-109151012D01*
X170793552Y-109486277D01*
X170686593Y-109838874D01*
X170686590Y-109838885D01*
X170614716Y-110200229D01*
X170614713Y-110200246D01*
X170578600Y-110566916D01*
X166077994Y-110566916D01*
X166215297Y-110510043D01*
X166442403Y-110378924D01*
X166650451Y-110219282D01*
X166650455Y-110219277D01*
X166650460Y-110219274D01*
X166835874Y-110033860D01*
X166835877Y-110033855D01*
X166835882Y-110033851D01*
X166995524Y-109825803D01*
X167126643Y-109598697D01*
X167226998Y-109356419D01*
X167294870Y-109103116D01*
X167329100Y-108843120D01*
X167329100Y-108580880D01*
X167294870Y-108320884D01*
X167226998Y-108067581D01*
X167156817Y-107898149D01*
X167126646Y-107825309D01*
X167126641Y-107825299D01*
X166995524Y-107598196D01*
X166898126Y-107471267D01*
X166835882Y-107390149D01*
X166835876Y-107390143D01*
X166835873Y-107390139D01*
X166800696Y-107354962D01*
X172728473Y-107354962D01*
X174328599Y-108955087D01*
X175928725Y-107354962D01*
X175593461Y-107216091D01*
X175240864Y-107109132D01*
X175240853Y-107109129D01*
X174879509Y-107037255D01*
X174879492Y-107037252D01*
X174512823Y-107001139D01*
X174144377Y-107001139D01*
X173777707Y-107037252D01*
X173777690Y-107037255D01*
X173416346Y-107109129D01*
X173416335Y-107109132D01*
X173063738Y-107216091D01*
X172728473Y-107354962D01*
X166800696Y-107354962D01*
X166650460Y-107204726D01*
X166650451Y-107204718D01*
X166442403Y-107045075D01*
X166215300Y-106913958D01*
X166215290Y-106913953D01*
X165973028Y-106813605D01*
X165973021Y-106813603D01*
X165973019Y-106813602D01*
X165719716Y-106745730D01*
X165661939Y-106738123D01*
X165459727Y-106711500D01*
X165459720Y-106711500D01*
X165197480Y-106711500D01*
X165197472Y-106711500D01*
X164966372Y-106741926D01*
X164937484Y-106745730D01*
X164684181Y-106813602D01*
X164684171Y-106813605D01*
X164441909Y-106913953D01*
X164441899Y-106913958D01*
X164214796Y-107045075D01*
X164006748Y-107204718D01*
X163821318Y-107390148D01*
X163661675Y-107598196D01*
X163530558Y-107825299D01*
X163530553Y-107825309D01*
X163430205Y-108067571D01*
X163430202Y-108067581D01*
X163362330Y-108320884D01*
X163360695Y-108333303D01*
X163328100Y-108580872D01*
X156702815Y-108580872D01*
X156794547Y-108489140D01*
X157928725Y-107354962D01*
X157593461Y-107216091D01*
X157240864Y-107109132D01*
X157240853Y-107109129D01*
X156879509Y-107037255D01*
X156879492Y-107037252D01*
X156512823Y-107001139D01*
X156144377Y-107001139D01*
X155777707Y-107037252D01*
X155777690Y-107037255D01*
X155416346Y-107109129D01*
X155416335Y-107109132D01*
X155063738Y-107216091D01*
X154728473Y-107354962D01*
X119667725Y-107354962D01*
X119332461Y-107216091D01*
X118979864Y-107109132D01*
X118979853Y-107109129D01*
X118618509Y-107037255D01*
X118618492Y-107037252D01*
X118251823Y-107001139D01*
X117883377Y-107001139D01*
X117516707Y-107037252D01*
X117516690Y-107037255D01*
X117155346Y-107109129D01*
X117155335Y-107109132D01*
X116802738Y-107216091D01*
X116467473Y-107354962D01*
X109792559Y-107354962D01*
X109712028Y-107321605D01*
X109712021Y-107321603D01*
X109712019Y-107321602D01*
X109458716Y-107253730D01*
X109400939Y-107246123D01*
X109198727Y-107219500D01*
X109198720Y-107219500D01*
X108936480Y-107219500D01*
X108936472Y-107219500D01*
X108705372Y-107249926D01*
X108676484Y-107253730D01*
X108423181Y-107321602D01*
X108423171Y-107321605D01*
X108180909Y-107421953D01*
X108180899Y-107421958D01*
X107953796Y-107553075D01*
X107745748Y-107712718D01*
X107560318Y-107898148D01*
X107400675Y-108106196D01*
X107269558Y-108333299D01*
X107269553Y-108333309D01*
X107169205Y-108575571D01*
X107169202Y-108575581D01*
X107101330Y-108828885D01*
X107067100Y-109088872D01*
X100625414Y-109088872D01*
X100409741Y-109031082D01*
X100182301Y-109001139D01*
X99952899Y-109001139D01*
X99725459Y-109031082D01*
X99503874Y-109090456D01*
X99291934Y-109178244D01*
X99093266Y-109292945D01*
X98911269Y-109432596D01*
X98749057Y-109594808D01*
X98609406Y-109776805D01*
X98494705Y-109975473D01*
X98406917Y-110187413D01*
X98347543Y-110408998D01*
X98317600Y-110636438D01*
X98156848Y-110636438D01*
X96671423Y-109151012D01*
X96532552Y-109486277D01*
X96425593Y-109838874D01*
X96425590Y-109838885D01*
X96353716Y-110200229D01*
X96353713Y-110200246D01*
X96317600Y-110566916D01*
X93565582Y-110566916D01*
X93565582Y-107354962D01*
X98467473Y-107354962D01*
X100067599Y-108955087D01*
X101667725Y-107354962D01*
X101332461Y-107216091D01*
X100979864Y-107109132D01*
X100979853Y-107109129D01*
X100618509Y-107037255D01*
X100618492Y-107037252D01*
X100251823Y-107001139D01*
X99883377Y-107001139D01*
X99516707Y-107037252D01*
X99516690Y-107037255D01*
X99155346Y-107109129D01*
X99155335Y-107109132D01*
X98802738Y-107216091D01*
X98467473Y-107354962D01*
X93565582Y-107354962D01*
X93565582Y-103631902D01*
X107559500Y-103631902D01*
X107559500Y-103868097D01*
X107596446Y-104101368D01*
X107669433Y-104325996D01*
X107776657Y-104536433D01*
X107915483Y-104727510D01*
X108082490Y-104894517D01*
X108273567Y-105033343D01*
X108372991Y-105084002D01*
X108484003Y-105140566D01*
X108484005Y-105140566D01*
X108484008Y-105140568D01*
X108604412Y-105179689D01*
X108708631Y-105213553D01*
X108941903Y-105250500D01*
X108941908Y-105250500D01*
X109178097Y-105250500D01*
X109411368Y-105213553D01*
X109635992Y-105140568D01*
X109846433Y-105033343D01*
X110037510Y-104894517D01*
X110204517Y-104727510D01*
X110343343Y-104536433D01*
X110450568Y-104325992D01*
X110523553Y-104101368D01*
X110529318Y-104064968D01*
X110560500Y-103868097D01*
X110560500Y-103631902D01*
X112559500Y-103631902D01*
X112559500Y-103868097D01*
X112596446Y-104101368D01*
X112669433Y-104325996D01*
X112776657Y-104536433D01*
X112915483Y-104727510D01*
X113082490Y-104894517D01*
X113273567Y-105033343D01*
X113372991Y-105084002D01*
X113484003Y-105140566D01*
X113484005Y-105140566D01*
X113484008Y-105140568D01*
X113604412Y-105179689D01*
X113708631Y-105213553D01*
X113941903Y-105250500D01*
X113941908Y-105250500D01*
X114178097Y-105250500D01*
X114411368Y-105213553D01*
X114635992Y-105140568D01*
X114846433Y-105033343D01*
X115037510Y-104894517D01*
X115204517Y-104727510D01*
X115343343Y-104536433D01*
X115450568Y-104325992D01*
X115523553Y-104101368D01*
X115529318Y-104064968D01*
X115560500Y-103868097D01*
X115560500Y-103631902D01*
X117559500Y-103631902D01*
X117559500Y-103868097D01*
X117596446Y-104101368D01*
X117669433Y-104325996D01*
X117776657Y-104536433D01*
X117915483Y-104727510D01*
X118082490Y-104894517D01*
X118273567Y-105033343D01*
X118372991Y-105084002D01*
X118484003Y-105140566D01*
X118484005Y-105140566D01*
X118484008Y-105140568D01*
X118604412Y-105179689D01*
X118708631Y-105213553D01*
X118941903Y-105250500D01*
X118941908Y-105250500D01*
X119178097Y-105250500D01*
X119411368Y-105213553D01*
X119635992Y-105140568D01*
X119846433Y-105033343D01*
X120037510Y-104894517D01*
X120204517Y-104727510D01*
X120343343Y-104536433D01*
X120450568Y-104325992D01*
X120523553Y-104101368D01*
X120529318Y-104064968D01*
X120560500Y-103868097D01*
X120560500Y-103631902D01*
X132559500Y-103631902D01*
X132559500Y-103868097D01*
X132596446Y-104101368D01*
X132669433Y-104325996D01*
X132776657Y-104536433D01*
X132915483Y-104727510D01*
X133082490Y-104894517D01*
X133273567Y-105033343D01*
X133372991Y-105084002D01*
X133484003Y-105140566D01*
X133484005Y-105140566D01*
X133484008Y-105140568D01*
X133604412Y-105179689D01*
X133708631Y-105213553D01*
X133941903Y-105250500D01*
X133941908Y-105250500D01*
X134178097Y-105250500D01*
X134411368Y-105213553D01*
X134635992Y-105140568D01*
X134846433Y-105033343D01*
X135037510Y-104894517D01*
X135204517Y-104727510D01*
X135343343Y-104536433D01*
X135450568Y-104325992D01*
X135523553Y-104101368D01*
X135529318Y-104064968D01*
X135559932Y-103871682D01*
X136159499Y-103871682D01*
X136197947Y-104064968D01*
X136197950Y-104064978D01*
X136273364Y-104247046D01*
X136273371Y-104247059D01*
X136382860Y-104410920D01*
X136382863Y-104410924D01*
X136522214Y-104550275D01*
X136522218Y-104550278D01*
X136686079Y-104659767D01*
X136686092Y-104659774D01*
X136868160Y-104735188D01*
X136868165Y-104735190D01*
X136868169Y-104735190D01*
X136868170Y-104735191D01*
X137061456Y-104773639D01*
X137061459Y-104773639D01*
X137258543Y-104773639D01*
X137388582Y-104747771D01*
X137451835Y-104735190D01*
X137633914Y-104659771D01*
X137797782Y-104550278D01*
X137937139Y-104410921D01*
X138046632Y-104247053D01*
X138122051Y-104064974D01*
X138160500Y-103871680D01*
X138160500Y-103674598D01*
X138160500Y-102702135D01*
X138849500Y-102702135D01*
X138849500Y-104797870D01*
X138849501Y-104797876D01*
X138855908Y-104857483D01*
X138906202Y-104992328D01*
X138906206Y-104992335D01*
X138992452Y-105107544D01*
X138992455Y-105107547D01*
X139107664Y-105193793D01*
X139107671Y-105193797D01*
X139242517Y-105244091D01*
X139242516Y-105244091D01*
X139249444Y-105244835D01*
X139302127Y-105250500D01*
X141397872Y-105250499D01*
X141457483Y-105244091D01*
X141592331Y-105193796D01*
X141707546Y-105107546D01*
X141793796Y-104992331D01*
X141844091Y-104857483D01*
X141850500Y-104797873D01*
X141850499Y-103631902D01*
X153849500Y-103631902D01*
X153849500Y-103868097D01*
X153886446Y-104101368D01*
X153959433Y-104325996D01*
X154066657Y-104536433D01*
X154205483Y-104727510D01*
X154372490Y-104894517D01*
X154563567Y-105033343D01*
X154662991Y-105084002D01*
X154774003Y-105140566D01*
X154774005Y-105140566D01*
X154774008Y-105140568D01*
X154894412Y-105179689D01*
X154998631Y-105213553D01*
X155231903Y-105250500D01*
X155231908Y-105250500D01*
X155468097Y-105250500D01*
X155701368Y-105213553D01*
X155925992Y-105140568D01*
X156136433Y-105033343D01*
X156327510Y-104894517D01*
X156494517Y-104727510D01*
X156633343Y-104536433D01*
X156740568Y-104325992D01*
X156813553Y-104101368D01*
X156819318Y-104064968D01*
X156850500Y-103868097D01*
X156850500Y-103631902D01*
X158849500Y-103631902D01*
X158849500Y-103868097D01*
X158886446Y-104101368D01*
X158959433Y-104325996D01*
X159066657Y-104536433D01*
X159205483Y-104727510D01*
X159372490Y-104894517D01*
X159563567Y-105033343D01*
X159662991Y-105084002D01*
X159774003Y-105140566D01*
X159774005Y-105140566D01*
X159774008Y-105140568D01*
X159894412Y-105179689D01*
X159998631Y-105213553D01*
X160231903Y-105250500D01*
X160231908Y-105250500D01*
X160468097Y-105250500D01*
X160701368Y-105213553D01*
X160925992Y-105140568D01*
X161136433Y-105033343D01*
X161327510Y-104894517D01*
X161494517Y-104727510D01*
X161633343Y-104536433D01*
X161740568Y-104325992D01*
X161813553Y-104101368D01*
X161819318Y-104064968D01*
X161850500Y-103868097D01*
X161850500Y-103631902D01*
X163849500Y-103631902D01*
X163849500Y-103868097D01*
X163886446Y-104101368D01*
X163959433Y-104325996D01*
X164066657Y-104536433D01*
X164205483Y-104727510D01*
X164372490Y-104894517D01*
X164563567Y-105033343D01*
X164662991Y-105084002D01*
X164774003Y-105140566D01*
X164774005Y-105140566D01*
X164774008Y-105140568D01*
X164894412Y-105179689D01*
X164998631Y-105213553D01*
X165231903Y-105250500D01*
X165231908Y-105250500D01*
X165468097Y-105250500D01*
X165701368Y-105213553D01*
X165925992Y-105140568D01*
X166136433Y-105033343D01*
X166327510Y-104894517D01*
X166494517Y-104727510D01*
X166633343Y-104536433D01*
X166740568Y-104325992D01*
X166813553Y-104101368D01*
X166819318Y-104064968D01*
X166850500Y-103868097D01*
X166850500Y-103631902D01*
X166813553Y-103398631D01*
X166740566Y-103174003D01*
X166633342Y-102963566D01*
X166494517Y-102772490D01*
X166327510Y-102605483D01*
X166136433Y-102466657D01*
X165925996Y-102359433D01*
X165701368Y-102286446D01*
X165468097Y-102249500D01*
X165468092Y-102249500D01*
X165231908Y-102249500D01*
X165231903Y-102249500D01*
X164998631Y-102286446D01*
X164774003Y-102359433D01*
X164563566Y-102466657D01*
X164507119Y-102507669D01*
X164372490Y-102605483D01*
X164372488Y-102605485D01*
X164372487Y-102605485D01*
X164205485Y-102772487D01*
X164205485Y-102772488D01*
X164205483Y-102772490D01*
X164145862Y-102854550D01*
X164066657Y-102963566D01*
X163959433Y-103174003D01*
X163886446Y-103398631D01*
X163849500Y-103631902D01*
X161850500Y-103631902D01*
X161813553Y-103398631D01*
X161740566Y-103174003D01*
X161633342Y-102963566D01*
X161494517Y-102772490D01*
X161327510Y-102605483D01*
X161136433Y-102466657D01*
X160925996Y-102359433D01*
X160701368Y-102286446D01*
X160468097Y-102249500D01*
X160468092Y-102249500D01*
X160231908Y-102249500D01*
X160231903Y-102249500D01*
X159998631Y-102286446D01*
X159774003Y-102359433D01*
X159563566Y-102466657D01*
X159507119Y-102507669D01*
X159372490Y-102605483D01*
X159372488Y-102605485D01*
X159372487Y-102605485D01*
X159205485Y-102772487D01*
X159205485Y-102772488D01*
X159205483Y-102772490D01*
X159145862Y-102854550D01*
X159066657Y-102963566D01*
X158959433Y-103174003D01*
X158886446Y-103398631D01*
X158849500Y-103631902D01*
X156850500Y-103631902D01*
X156813553Y-103398631D01*
X156740566Y-103174003D01*
X156633342Y-102963566D01*
X156494517Y-102772490D01*
X156327510Y-102605483D01*
X156136433Y-102466657D01*
X155925996Y-102359433D01*
X155701368Y-102286446D01*
X155468097Y-102249500D01*
X155468092Y-102249500D01*
X155231908Y-102249500D01*
X155231903Y-102249500D01*
X154998631Y-102286446D01*
X154774003Y-102359433D01*
X154563566Y-102466657D01*
X154507119Y-102507669D01*
X154372490Y-102605483D01*
X154372488Y-102605485D01*
X154372487Y-102605485D01*
X154205485Y-102772487D01*
X154205485Y-102772488D01*
X154205483Y-102772490D01*
X154145862Y-102854550D01*
X154066657Y-102963566D01*
X153959433Y-103174003D01*
X153886446Y-103398631D01*
X153849500Y-103631902D01*
X141850499Y-103631902D01*
X141850499Y-102702128D01*
X141844091Y-102642517D01*
X141830278Y-102605483D01*
X141793797Y-102507671D01*
X141793793Y-102507664D01*
X141707547Y-102392455D01*
X141707544Y-102392452D01*
X141592335Y-102306206D01*
X141592328Y-102306202D01*
X141457482Y-102255908D01*
X141457483Y-102255908D01*
X141397883Y-102249501D01*
X141397881Y-102249500D01*
X141397873Y-102249500D01*
X141397864Y-102249500D01*
X139302129Y-102249500D01*
X139302123Y-102249501D01*
X139242516Y-102255908D01*
X139107671Y-102306202D01*
X139107664Y-102306206D01*
X138992455Y-102392452D01*
X138992452Y-102392455D01*
X138906206Y-102507664D01*
X138906202Y-102507671D01*
X138855908Y-102642517D01*
X138849501Y-102702116D01*
X138849501Y-102702123D01*
X138849500Y-102702135D01*
X138160500Y-102702135D01*
X138160500Y-96131902D01*
X138849500Y-96131902D01*
X138849500Y-96368097D01*
X138886446Y-96601368D01*
X138959433Y-96825996D01*
X139066657Y-97036433D01*
X139205483Y-97227510D01*
X139372490Y-97394517D01*
X139563567Y-97533343D01*
X139662991Y-97584002D01*
X139774003Y-97640566D01*
X139774005Y-97640566D01*
X139774008Y-97640568D01*
X139894412Y-97679689D01*
X139998631Y-97713553D01*
X140231903Y-97750500D01*
X140231908Y-97750500D01*
X140468097Y-97750500D01*
X140701368Y-97713553D01*
X140925992Y-97640568D01*
X141136433Y-97533343D01*
X141327510Y-97394517D01*
X141494517Y-97227510D01*
X141633343Y-97036433D01*
X141740568Y-96825992D01*
X141813553Y-96601368D01*
X141850500Y-96368097D01*
X141850500Y-96131902D01*
X153849500Y-96131902D01*
X153849500Y-96368097D01*
X153886446Y-96601368D01*
X153959433Y-96825996D01*
X154066657Y-97036433D01*
X154205483Y-97227510D01*
X154372490Y-97394517D01*
X154563567Y-97533343D01*
X154662991Y-97584002D01*
X154774003Y-97640566D01*
X154774005Y-97640566D01*
X154774008Y-97640568D01*
X154894412Y-97679689D01*
X154998631Y-97713553D01*
X155231903Y-97750500D01*
X155231908Y-97750500D01*
X155468097Y-97750500D01*
X155701368Y-97713553D01*
X155925992Y-97640568D01*
X156136433Y-97533343D01*
X156327510Y-97394517D01*
X156494517Y-97227510D01*
X156633343Y-97036433D01*
X156740568Y-96825992D01*
X156813553Y-96601368D01*
X156850500Y-96368097D01*
X156850500Y-96131902D01*
X158849500Y-96131902D01*
X158849500Y-96368097D01*
X158886446Y-96601368D01*
X158959433Y-96825996D01*
X159066657Y-97036433D01*
X159205483Y-97227510D01*
X159372490Y-97394517D01*
X159563567Y-97533343D01*
X159662991Y-97584002D01*
X159774003Y-97640566D01*
X159774005Y-97640566D01*
X159774008Y-97640568D01*
X159894412Y-97679689D01*
X159998631Y-97713553D01*
X160231903Y-97750500D01*
X160231908Y-97750500D01*
X160468097Y-97750500D01*
X160701368Y-97713553D01*
X160925992Y-97640568D01*
X161136433Y-97533343D01*
X161327510Y-97394517D01*
X161494517Y-97227510D01*
X161633343Y-97036433D01*
X161740568Y-96825992D01*
X161813553Y-96601368D01*
X161850500Y-96368097D01*
X161850500Y-96131902D01*
X163849500Y-96131902D01*
X163849500Y-96368097D01*
X163886446Y-96601368D01*
X163959433Y-96825996D01*
X164066657Y-97036433D01*
X164205483Y-97227510D01*
X164372490Y-97394517D01*
X164563567Y-97533343D01*
X164662991Y-97584002D01*
X164774003Y-97640566D01*
X164774005Y-97640566D01*
X164774008Y-97640568D01*
X164894412Y-97679689D01*
X164998631Y-97713553D01*
X165231903Y-97750500D01*
X165231908Y-97750500D01*
X165468097Y-97750500D01*
X165701368Y-97713553D01*
X165925992Y-97640568D01*
X166136433Y-97533343D01*
X166327510Y-97394517D01*
X166494517Y-97227510D01*
X166633343Y-97036433D01*
X166740568Y-96825992D01*
X166813553Y-96601368D01*
X166850500Y-96368097D01*
X166850500Y-96131902D01*
X166813553Y-95898631D01*
X166740566Y-95674003D01*
X166633342Y-95463566D01*
X166494517Y-95272490D01*
X166327510Y-95105483D01*
X166136433Y-94966657D01*
X165925996Y-94859433D01*
X165701368Y-94786446D01*
X165468097Y-94749500D01*
X165468092Y-94749500D01*
X165231908Y-94749500D01*
X165231903Y-94749500D01*
X164998631Y-94786446D01*
X164774003Y-94859433D01*
X164563566Y-94966657D01*
X164507119Y-95007669D01*
X164372490Y-95105483D01*
X164372488Y-95105485D01*
X164372487Y-95105485D01*
X164205485Y-95272487D01*
X164205485Y-95272488D01*
X164205483Y-95272490D01*
X164145862Y-95354550D01*
X164066657Y-95463566D01*
X163959433Y-95674003D01*
X163886446Y-95898631D01*
X163849500Y-96131902D01*
X161850500Y-96131902D01*
X161813553Y-95898631D01*
X161740566Y-95674003D01*
X161633342Y-95463566D01*
X161494517Y-95272490D01*
X161327510Y-95105483D01*
X161136433Y-94966657D01*
X160925996Y-94859433D01*
X160701368Y-94786446D01*
X160468097Y-94749500D01*
X160468092Y-94749500D01*
X160231908Y-94749500D01*
X160231903Y-94749500D01*
X159998631Y-94786446D01*
X159774003Y-94859433D01*
X159563566Y-94966657D01*
X159507119Y-95007669D01*
X159372490Y-95105483D01*
X159372488Y-95105485D01*
X159372487Y-95105485D01*
X159205485Y-95272487D01*
X159205485Y-95272488D01*
X159205483Y-95272490D01*
X159145862Y-95354550D01*
X159066657Y-95463566D01*
X158959433Y-95674003D01*
X158886446Y-95898631D01*
X158849500Y-96131902D01*
X156850500Y-96131902D01*
X156813553Y-95898631D01*
X156740566Y-95674003D01*
X156633342Y-95463566D01*
X156494517Y-95272490D01*
X156327510Y-95105483D01*
X156136433Y-94966657D01*
X155925996Y-94859433D01*
X155701368Y-94786446D01*
X155468097Y-94749500D01*
X155468092Y-94749500D01*
X155231908Y-94749500D01*
X155231903Y-94749500D01*
X154998631Y-94786446D01*
X154774003Y-94859433D01*
X154563566Y-94966657D01*
X154507119Y-95007669D01*
X154372490Y-95105483D01*
X154372488Y-95105485D01*
X154372487Y-95105485D01*
X154205485Y-95272487D01*
X154205485Y-95272488D01*
X154205483Y-95272490D01*
X154145862Y-95354550D01*
X154066657Y-95463566D01*
X153959433Y-95674003D01*
X153886446Y-95898631D01*
X153849500Y-96131902D01*
X141850500Y-96131902D01*
X141813553Y-95898631D01*
X141740566Y-95674003D01*
X141633342Y-95463566D01*
X141494517Y-95272490D01*
X141327510Y-95105483D01*
X141136433Y-94966657D01*
X140925996Y-94859433D01*
X140701368Y-94786446D01*
X140468097Y-94749500D01*
X140468092Y-94749500D01*
X140231908Y-94749500D01*
X140231903Y-94749500D01*
X139998631Y-94786446D01*
X139774003Y-94859433D01*
X139563566Y-94966657D01*
X139507119Y-95007669D01*
X139372490Y-95105483D01*
X139372488Y-95105485D01*
X139372487Y-95105485D01*
X139205485Y-95272487D01*
X139205485Y-95272488D01*
X139205483Y-95272490D01*
X139145862Y-95354550D01*
X139066657Y-95463566D01*
X138959433Y-95674003D01*
X138886446Y-95898631D01*
X138849500Y-96131902D01*
X138160500Y-96131902D01*
X138160500Y-94643459D01*
X138160500Y-94643456D01*
X138122052Y-94450170D01*
X138122051Y-94450169D01*
X138122051Y-94450165D01*
X138122049Y-94450160D01*
X138046635Y-94268092D01*
X138046628Y-94268079D01*
X137937139Y-94104218D01*
X137937136Y-94104214D01*
X137797785Y-93964863D01*
X137797781Y-93964860D01*
X137633920Y-93855371D01*
X137633907Y-93855364D01*
X137451839Y-93779950D01*
X137451829Y-93779947D01*
X137258543Y-93741500D01*
X137258541Y-93741500D01*
X137061459Y-93741500D01*
X137061457Y-93741500D01*
X136868170Y-93779947D01*
X136868160Y-93779950D01*
X136686092Y-93855364D01*
X136686079Y-93855371D01*
X136522218Y-93964860D01*
X136522214Y-93964863D01*
X136382863Y-94104214D01*
X136382860Y-94104218D01*
X136273371Y-94268079D01*
X136273364Y-94268092D01*
X136197950Y-94450160D01*
X136197947Y-94450170D01*
X136159500Y-94643456D01*
X136159500Y-94643459D01*
X136159500Y-103674598D01*
X136159500Y-103871680D01*
X136159500Y-103871682D01*
X136159499Y-103871682D01*
X135559932Y-103871682D01*
X135560500Y-103868097D01*
X135560500Y-103631902D01*
X135523553Y-103398631D01*
X135450566Y-103174003D01*
X135343342Y-102963566D01*
X135204517Y-102772490D01*
X135037510Y-102605483D01*
X134846433Y-102466657D01*
X134635996Y-102359433D01*
X134411368Y-102286446D01*
X134178097Y-102249500D01*
X134178092Y-102249500D01*
X133941908Y-102249500D01*
X133941903Y-102249500D01*
X133708631Y-102286446D01*
X133484003Y-102359433D01*
X133273566Y-102466657D01*
X133217119Y-102507669D01*
X133082490Y-102605483D01*
X133082488Y-102605485D01*
X133082487Y-102605485D01*
X132915485Y-102772487D01*
X132915485Y-102772488D01*
X132915483Y-102772490D01*
X132855862Y-102854550D01*
X132776657Y-102963566D01*
X132669433Y-103174003D01*
X132596446Y-103398631D01*
X132559500Y-103631902D01*
X120560500Y-103631902D01*
X120523553Y-103398631D01*
X120450566Y-103174003D01*
X120343342Y-102963566D01*
X120204517Y-102772490D01*
X120037510Y-102605483D01*
X119846433Y-102466657D01*
X119635996Y-102359433D01*
X119411368Y-102286446D01*
X119178097Y-102249500D01*
X119178092Y-102249500D01*
X118941908Y-102249500D01*
X118941903Y-102249500D01*
X118708631Y-102286446D01*
X118484003Y-102359433D01*
X118273566Y-102466657D01*
X118217119Y-102507669D01*
X118082490Y-102605483D01*
X118082488Y-102605485D01*
X118082487Y-102605485D01*
X117915485Y-102772487D01*
X117915485Y-102772488D01*
X117915483Y-102772490D01*
X117855862Y-102854550D01*
X117776657Y-102963566D01*
X117669433Y-103174003D01*
X117596446Y-103398631D01*
X117559500Y-103631902D01*
X115560500Y-103631902D01*
X115523553Y-103398631D01*
X115450566Y-103174003D01*
X115343342Y-102963566D01*
X115204517Y-102772490D01*
X115037510Y-102605483D01*
X114846433Y-102466657D01*
X114635996Y-102359433D01*
X114411368Y-102286446D01*
X114178097Y-102249500D01*
X114178092Y-102249500D01*
X113941908Y-102249500D01*
X113941903Y-102249500D01*
X113708631Y-102286446D01*
X113484003Y-102359433D01*
X113273566Y-102466657D01*
X113217119Y-102507669D01*
X113082490Y-102605483D01*
X113082488Y-102605485D01*
X113082487Y-102605485D01*
X112915485Y-102772487D01*
X112915485Y-102772488D01*
X112915483Y-102772490D01*
X112855862Y-102854550D01*
X112776657Y-102963566D01*
X112669433Y-103174003D01*
X112596446Y-103398631D01*
X112559500Y-103631902D01*
X110560500Y-103631902D01*
X110523553Y-103398631D01*
X110450566Y-103174003D01*
X110343342Y-102963566D01*
X110204517Y-102772490D01*
X110037510Y-102605483D01*
X109846433Y-102466657D01*
X109635996Y-102359433D01*
X109411368Y-102286446D01*
X109178097Y-102249500D01*
X109178092Y-102249500D01*
X108941908Y-102249500D01*
X108941903Y-102249500D01*
X108708631Y-102286446D01*
X108484003Y-102359433D01*
X108273566Y-102466657D01*
X108217119Y-102507669D01*
X108082490Y-102605483D01*
X108082488Y-102605485D01*
X108082487Y-102605485D01*
X107915485Y-102772487D01*
X107915485Y-102772488D01*
X107915483Y-102772490D01*
X107855862Y-102854550D01*
X107776657Y-102963566D01*
X107669433Y-103174003D01*
X107596446Y-103398631D01*
X107559500Y-103631902D01*
X93565582Y-103631902D01*
X93565582Y-96131902D01*
X107559500Y-96131902D01*
X107559500Y-96368097D01*
X107596446Y-96601368D01*
X107669433Y-96825996D01*
X107776657Y-97036433D01*
X107915483Y-97227510D01*
X108082490Y-97394517D01*
X108273567Y-97533343D01*
X108372991Y-97584002D01*
X108484003Y-97640566D01*
X108484005Y-97640566D01*
X108484008Y-97640568D01*
X108604412Y-97679689D01*
X108708631Y-97713553D01*
X108941903Y-97750500D01*
X108941908Y-97750500D01*
X109178097Y-97750500D01*
X109411368Y-97713553D01*
X109635992Y-97640568D01*
X109846433Y-97533343D01*
X110037510Y-97394517D01*
X110204517Y-97227510D01*
X110343343Y-97036433D01*
X110450568Y-96825992D01*
X110523553Y-96601368D01*
X110560500Y-96368097D01*
X110560500Y-96131902D01*
X112559500Y-96131902D01*
X112559500Y-96368097D01*
X112596446Y-96601368D01*
X112669433Y-96825996D01*
X112776657Y-97036433D01*
X112915483Y-97227510D01*
X113082490Y-97394517D01*
X113273567Y-97533343D01*
X113372991Y-97584002D01*
X113484003Y-97640566D01*
X113484005Y-97640566D01*
X113484008Y-97640568D01*
X113604412Y-97679689D01*
X113708631Y-97713553D01*
X113941903Y-97750500D01*
X113941908Y-97750500D01*
X114178097Y-97750500D01*
X114411368Y-97713553D01*
X114635992Y-97640568D01*
X114846433Y-97533343D01*
X115037510Y-97394517D01*
X115204517Y-97227510D01*
X115343343Y-97036433D01*
X115450568Y-96825992D01*
X115523553Y-96601368D01*
X115560500Y-96368097D01*
X115560500Y-96131902D01*
X117559500Y-96131902D01*
X117559500Y-96368097D01*
X117596446Y-96601368D01*
X117669433Y-96825996D01*
X117776657Y-97036433D01*
X117915483Y-97227510D01*
X118082490Y-97394517D01*
X118273567Y-97533343D01*
X118372991Y-97584002D01*
X118484003Y-97640566D01*
X118484005Y-97640566D01*
X118484008Y-97640568D01*
X118604412Y-97679689D01*
X118708631Y-97713553D01*
X118941903Y-97750500D01*
X118941908Y-97750500D01*
X119178097Y-97750500D01*
X119411368Y-97713553D01*
X119635992Y-97640568D01*
X119846433Y-97533343D01*
X120037510Y-97394517D01*
X120204517Y-97227510D01*
X120343343Y-97036433D01*
X120450568Y-96825992D01*
X120523553Y-96601368D01*
X120560500Y-96368097D01*
X120560500Y-96131902D01*
X120523553Y-95898631D01*
X120450566Y-95674003D01*
X120343342Y-95463566D01*
X120204517Y-95272490D01*
X120134162Y-95202135D01*
X132559500Y-95202135D01*
X132559500Y-97297870D01*
X132559501Y-97297876D01*
X132565908Y-97357483D01*
X132616202Y-97492328D01*
X132616206Y-97492335D01*
X132702452Y-97607544D01*
X132702455Y-97607547D01*
X132817664Y-97693793D01*
X132817671Y-97693797D01*
X132952517Y-97744091D01*
X132952516Y-97744091D01*
X132959444Y-97744835D01*
X133012127Y-97750500D01*
X135107872Y-97750499D01*
X135167483Y-97744091D01*
X135302331Y-97693796D01*
X135417546Y-97607546D01*
X135503796Y-97492331D01*
X135554091Y-97357483D01*
X135560500Y-97297873D01*
X135560499Y-95202128D01*
X135554091Y-95142517D01*
X135540278Y-95105483D01*
X135503797Y-95007671D01*
X135503793Y-95007664D01*
X135417547Y-94892455D01*
X135417544Y-94892452D01*
X135302335Y-94806206D01*
X135302328Y-94806202D01*
X135167482Y-94755908D01*
X135167483Y-94755908D01*
X135107883Y-94749501D01*
X135107881Y-94749500D01*
X135107873Y-94749500D01*
X135107864Y-94749500D01*
X133012129Y-94749500D01*
X133012123Y-94749501D01*
X132952516Y-94755908D01*
X132817671Y-94806202D01*
X132817664Y-94806206D01*
X132702455Y-94892452D01*
X132702452Y-94892455D01*
X132616206Y-95007664D01*
X132616202Y-95007671D01*
X132565908Y-95142517D01*
X132559501Y-95202116D01*
X132559501Y-95202123D01*
X132559500Y-95202135D01*
X120134162Y-95202135D01*
X120037510Y-95105483D01*
X119846433Y-94966657D01*
X119635996Y-94859433D01*
X119411368Y-94786446D01*
X119178097Y-94749500D01*
X119178092Y-94749500D01*
X118941908Y-94749500D01*
X118941903Y-94749500D01*
X118708631Y-94786446D01*
X118484003Y-94859433D01*
X118273566Y-94966657D01*
X118217119Y-95007669D01*
X118082490Y-95105483D01*
X118082488Y-95105485D01*
X118082487Y-95105485D01*
X117915485Y-95272487D01*
X117915485Y-95272488D01*
X117915483Y-95272490D01*
X117855862Y-95354550D01*
X117776657Y-95463566D01*
X117669433Y-95674003D01*
X117596446Y-95898631D01*
X117559500Y-96131902D01*
X115560500Y-96131902D01*
X115523553Y-95898631D01*
X115450566Y-95674003D01*
X115343342Y-95463566D01*
X115204517Y-95272490D01*
X115037510Y-95105483D01*
X114846433Y-94966657D01*
X114635996Y-94859433D01*
X114411368Y-94786446D01*
X114178097Y-94749500D01*
X114178092Y-94749500D01*
X113941908Y-94749500D01*
X113941903Y-94749500D01*
X113708631Y-94786446D01*
X113484003Y-94859433D01*
X113273566Y-94966657D01*
X113217119Y-95007669D01*
X113082490Y-95105483D01*
X113082488Y-95105485D01*
X113082487Y-95105485D01*
X112915485Y-95272487D01*
X112915485Y-95272488D01*
X112915483Y-95272490D01*
X112855862Y-95354550D01*
X112776657Y-95463566D01*
X112669433Y-95674003D01*
X112596446Y-95898631D01*
X112559500Y-96131902D01*
X110560500Y-96131902D01*
X110523553Y-95898631D01*
X110450566Y-95674003D01*
X110343342Y-95463566D01*
X110204517Y-95272490D01*
X110037510Y-95105483D01*
X109846433Y-94966657D01*
X109635996Y-94859433D01*
X109411368Y-94786446D01*
X109178097Y-94749500D01*
X109178092Y-94749500D01*
X108941908Y-94749500D01*
X108941903Y-94749500D01*
X108708631Y-94786446D01*
X108484003Y-94859433D01*
X108273566Y-94966657D01*
X108217119Y-95007669D01*
X108082490Y-95105483D01*
X108082488Y-95105485D01*
X108082487Y-95105485D01*
X107915485Y-95272487D01*
X107915485Y-95272488D01*
X107915483Y-95272490D01*
X107855862Y-95354550D01*
X107776657Y-95463566D01*
X107669433Y-95674003D01*
X107596446Y-95898631D01*
X107559500Y-96131902D01*
X93565582Y-96131902D01*
X93565582Y-92740164D01*
X103585691Y-92740164D01*
X103920952Y-92879035D01*
X104273553Y-92985995D01*
X104273564Y-92985998D01*
X104634908Y-93057872D01*
X104634925Y-93057875D01*
X105001595Y-93093989D01*
X105370041Y-93093989D01*
X105736710Y-93057875D01*
X105736727Y-93057872D01*
X106098071Y-92985998D01*
X106098082Y-92985995D01*
X106450683Y-92879035D01*
X106785943Y-92740164D01*
X105438280Y-91392502D01*
X105354650Y-91308872D01*
X112045500Y-91308872D01*
X112045500Y-91571127D01*
X112072123Y-91773339D01*
X112079730Y-91831116D01*
X112147602Y-92084418D01*
X112147605Y-92084428D01*
X112247953Y-92326690D01*
X112247958Y-92326700D01*
X112379075Y-92553803D01*
X112538718Y-92761851D01*
X112538726Y-92761860D01*
X112724140Y-92947274D01*
X112724148Y-92947281D01*
X112932196Y-93106924D01*
X113159299Y-93238041D01*
X113159309Y-93238046D01*
X113401571Y-93338394D01*
X113401581Y-93338398D01*
X113654884Y-93406270D01*
X113914880Y-93440500D01*
X113914887Y-93440500D01*
X114177113Y-93440500D01*
X114177120Y-93440500D01*
X114437116Y-93406270D01*
X114690419Y-93338398D01*
X114932697Y-93238043D01*
X115159803Y-93106924D01*
X115367851Y-92947282D01*
X115367855Y-92947277D01*
X115367860Y-92947274D01*
X115553274Y-92761860D01*
X115553277Y-92761855D01*
X115553282Y-92761851D01*
X115569923Y-92740164D01*
X121585691Y-92740164D01*
X121920952Y-92879035D01*
X122273553Y-92985995D01*
X122273564Y-92985998D01*
X122634908Y-93057872D01*
X122634925Y-93057875D01*
X123001595Y-93093989D01*
X123370041Y-93093989D01*
X123736710Y-93057875D01*
X123736727Y-93057872D01*
X124098071Y-92985998D01*
X124098082Y-92985995D01*
X124450683Y-92879035D01*
X124785943Y-92740164D01*
X124528010Y-92482231D01*
X124481143Y-92435364D01*
X149559691Y-92435364D01*
X149894952Y-92574235D01*
X150247553Y-92681195D01*
X150247564Y-92681198D01*
X150608908Y-92753072D01*
X150608925Y-92753075D01*
X150975595Y-92789189D01*
X151344041Y-92789189D01*
X151710710Y-92753075D01*
X151710727Y-92753072D01*
X152072071Y-92681198D01*
X152072082Y-92681195D01*
X152424683Y-92574235D01*
X152759943Y-92435364D01*
X151717080Y-91392502D01*
X151633450Y-91308872D01*
X158299500Y-91308872D01*
X158299500Y-91571127D01*
X158326123Y-91773339D01*
X158333730Y-91831116D01*
X158401602Y-92084418D01*
X158401605Y-92084428D01*
X158501953Y-92326690D01*
X158501958Y-92326700D01*
X158633075Y-92553803D01*
X158792718Y-92761851D01*
X158792726Y-92761860D01*
X158978140Y-92947274D01*
X158978148Y-92947281D01*
X159186196Y-93106924D01*
X159413299Y-93238041D01*
X159413309Y-93238046D01*
X159655571Y-93338394D01*
X159655581Y-93338398D01*
X159908884Y-93406270D01*
X160168880Y-93440500D01*
X160168887Y-93440500D01*
X160431113Y-93440500D01*
X160431120Y-93440500D01*
X160691116Y-93406270D01*
X160944419Y-93338398D01*
X161186697Y-93238043D01*
X161413803Y-93106924D01*
X161621851Y-92947282D01*
X161621855Y-92947277D01*
X161621860Y-92947274D01*
X161807274Y-92761860D01*
X161807277Y-92761855D01*
X161807282Y-92761851D01*
X161966924Y-92553803D01*
X162008246Y-92482231D01*
X162035305Y-92435364D01*
X167559691Y-92435364D01*
X167894952Y-92574235D01*
X168247553Y-92681195D01*
X168247564Y-92681198D01*
X168608908Y-92753072D01*
X168608925Y-92753075D01*
X168975595Y-92789189D01*
X169344041Y-92789189D01*
X169710710Y-92753075D01*
X169710727Y-92753072D01*
X170072071Y-92681198D01*
X170072082Y-92681195D01*
X170424683Y-92574235D01*
X170759943Y-92435364D01*
X169159818Y-90835240D01*
X167559691Y-92435364D01*
X162035305Y-92435364D01*
X162094664Y-92332550D01*
X162094664Y-92332549D01*
X162098043Y-92326697D01*
X162198398Y-92084419D01*
X162266270Y-91831116D01*
X162300500Y-91571120D01*
X162300500Y-91308880D01*
X162266270Y-91048884D01*
X162198398Y-90795581D01*
X162158754Y-90699872D01*
X162098046Y-90553309D01*
X162098041Y-90553299D01*
X161966924Y-90326196D01*
X161844424Y-90166554D01*
X161807282Y-90118149D01*
X161807281Y-90118148D01*
X161807274Y-90118140D01*
X161621860Y-89932726D01*
X161621851Y-89932718D01*
X161413803Y-89773075D01*
X161186700Y-89641958D01*
X161186690Y-89641953D01*
X160944428Y-89541605D01*
X160944421Y-89541603D01*
X160944419Y-89541602D01*
X160691116Y-89473730D01*
X160633339Y-89466123D01*
X160431127Y-89439500D01*
X160431120Y-89439500D01*
X160168880Y-89439500D01*
X160168872Y-89439500D01*
X159937772Y-89469926D01*
X159908884Y-89473730D01*
X159705557Y-89528211D01*
X159655581Y-89541602D01*
X159655571Y-89541605D01*
X159413309Y-89641953D01*
X159413299Y-89641958D01*
X159186196Y-89773075D01*
X158978148Y-89932718D01*
X158792718Y-90118148D01*
X158633075Y-90326196D01*
X158501958Y-90553299D01*
X158501953Y-90553309D01*
X158401605Y-90795571D01*
X158401602Y-90795581D01*
X158333730Y-91048885D01*
X158299500Y-91308872D01*
X151633450Y-91308872D01*
X151159818Y-90835240D01*
X149559691Y-92435364D01*
X124481143Y-92435364D01*
X123185818Y-91140040D01*
X121585691Y-92740164D01*
X115569923Y-92740164D01*
X115712924Y-92553803D01*
X115844043Y-92326697D01*
X115944398Y-92084419D01*
X116012270Y-91831116D01*
X116046500Y-91571120D01*
X116046500Y-91308880D01*
X116012270Y-91048884D01*
X115944398Y-90795581D01*
X115904754Y-90699872D01*
X115844046Y-90553309D01*
X115844041Y-90553299D01*
X115712924Y-90326196D01*
X115590424Y-90166554D01*
X115553282Y-90118149D01*
X115553281Y-90118148D01*
X115553274Y-90118140D01*
X115367860Y-89932726D01*
X115367851Y-89932718D01*
X115159803Y-89773075D01*
X114932700Y-89641958D01*
X114932690Y-89641953D01*
X114690428Y-89541605D01*
X114690421Y-89541603D01*
X114690419Y-89541602D01*
X114437116Y-89473730D01*
X114379339Y-89466123D01*
X114177127Y-89439500D01*
X114177120Y-89439500D01*
X113914880Y-89439500D01*
X113914872Y-89439500D01*
X113683772Y-89469926D01*
X113654884Y-89473730D01*
X113451557Y-89528211D01*
X113401581Y-89541602D01*
X113401571Y-89541605D01*
X113159309Y-89641953D01*
X113159299Y-89641958D01*
X112932196Y-89773075D01*
X112724148Y-89932718D01*
X112538718Y-90118148D01*
X112379075Y-90326196D01*
X112247958Y-90553299D01*
X112247953Y-90553309D01*
X112147605Y-90795571D01*
X112147602Y-90795581D01*
X112079730Y-91048885D01*
X112045500Y-91308872D01*
X105354650Y-91308872D01*
X105185818Y-91140040D01*
X103585691Y-92740164D01*
X93565582Y-92740164D01*
X93565582Y-89159766D01*
X101435818Y-89159766D01*
X101435818Y-89528211D01*
X101471931Y-89894881D01*
X101471934Y-89894898D01*
X101543808Y-90256242D01*
X101543811Y-90256253D01*
X101650770Y-90608850D01*
X101789641Y-90944114D01*
X103389766Y-89343990D01*
X103389766Y-89343988D01*
X103275066Y-89229288D01*
X103435818Y-89229288D01*
X103435818Y-89458690D01*
X103465761Y-89686130D01*
X103525135Y-89907715D01*
X103612923Y-90119655D01*
X103727624Y-90318323D01*
X103867275Y-90500320D01*
X104029487Y-90662532D01*
X104211484Y-90802183D01*
X104410152Y-90916884D01*
X104622092Y-91004672D01*
X104843677Y-91064046D01*
X105071117Y-91093989D01*
X105300519Y-91093989D01*
X105527959Y-91064046D01*
X105749544Y-91004672D01*
X105961484Y-90916884D01*
X106160152Y-90802183D01*
X106342149Y-90662532D01*
X106504361Y-90500320D01*
X106644012Y-90318323D01*
X106758713Y-90119655D01*
X106846501Y-89907715D01*
X106905875Y-89686130D01*
X106935818Y-89458690D01*
X106935818Y-89343988D01*
X106981869Y-89343988D01*
X106981869Y-89343989D01*
X108581993Y-90944114D01*
X108720864Y-90608854D01*
X108827824Y-90256253D01*
X108827827Y-90256242D01*
X108899701Y-89894898D01*
X108899704Y-89894881D01*
X108935818Y-89528211D01*
X108935818Y-89159766D01*
X119435818Y-89159766D01*
X119435818Y-89528211D01*
X119471931Y-89894881D01*
X119471934Y-89894898D01*
X119543808Y-90256242D01*
X119543811Y-90256253D01*
X119650770Y-90608850D01*
X119789641Y-90944114D01*
X121389766Y-89343990D01*
X121389766Y-89343988D01*
X121275066Y-89229288D01*
X121435818Y-89229288D01*
X121435818Y-89458690D01*
X121465761Y-89686130D01*
X121525135Y-89907715D01*
X121612923Y-90119655D01*
X121727624Y-90318323D01*
X121867275Y-90500320D01*
X122029487Y-90662532D01*
X122211484Y-90802183D01*
X122410152Y-90916884D01*
X122622092Y-91004672D01*
X122843677Y-91064046D01*
X123071117Y-91093989D01*
X123300519Y-91093989D01*
X123527959Y-91064046D01*
X123749544Y-91004672D01*
X123961484Y-90916884D01*
X124160152Y-90802183D01*
X124342149Y-90662532D01*
X124504361Y-90500320D01*
X124644012Y-90318323D01*
X124758713Y-90119655D01*
X124846501Y-89907715D01*
X124905875Y-89686130D01*
X124935818Y-89458690D01*
X124935818Y-89343988D01*
X124981869Y-89343988D01*
X124981869Y-89343989D01*
X126581993Y-90944114D01*
X126720864Y-90608854D01*
X126827824Y-90256253D01*
X126827827Y-90256242D01*
X126899701Y-89894898D01*
X126899704Y-89894881D01*
X126935818Y-89528211D01*
X126935818Y-89159766D01*
X126906695Y-88864073D01*
X126905798Y-88854966D01*
X147409818Y-88854966D01*
X147409818Y-89223411D01*
X147445931Y-89590081D01*
X147445934Y-89590098D01*
X147517808Y-89951442D01*
X147517811Y-89951453D01*
X147624770Y-90304050D01*
X147763641Y-90639314D01*
X149363766Y-89039190D01*
X149363766Y-89039188D01*
X149249066Y-88924488D01*
X149409818Y-88924488D01*
X149409818Y-89153890D01*
X149439761Y-89381330D01*
X149499135Y-89602915D01*
X149586923Y-89814855D01*
X149701624Y-90013523D01*
X149841275Y-90195520D01*
X150003487Y-90357732D01*
X150185484Y-90497383D01*
X150384152Y-90612084D01*
X150596092Y-90699872D01*
X150817677Y-90759246D01*
X151045117Y-90789189D01*
X151274519Y-90789189D01*
X151501959Y-90759246D01*
X151723544Y-90699872D01*
X151935484Y-90612084D01*
X152134152Y-90497383D01*
X152316149Y-90357732D01*
X152478361Y-90195520D01*
X152618012Y-90013523D01*
X152732713Y-89814855D01*
X152820501Y-89602915D01*
X152879875Y-89381330D01*
X152909818Y-89153890D01*
X152909818Y-89039188D01*
X152955869Y-89039188D01*
X152955869Y-89039190D01*
X154555993Y-90639314D01*
X154694864Y-90304054D01*
X154801824Y-89951453D01*
X154801827Y-89951442D01*
X154873701Y-89590098D01*
X154873704Y-89590081D01*
X154909818Y-89223411D01*
X154909818Y-88854966D01*
X165409818Y-88854966D01*
X165409818Y-89223411D01*
X165445931Y-89590081D01*
X165445934Y-89590098D01*
X165517808Y-89951442D01*
X165517811Y-89951453D01*
X165624770Y-90304050D01*
X165763641Y-90639314D01*
X167363766Y-89039190D01*
X167363766Y-89039188D01*
X167249066Y-88924488D01*
X167409818Y-88924488D01*
X167409818Y-89153890D01*
X167439761Y-89381330D01*
X167499135Y-89602915D01*
X167586923Y-89814855D01*
X167701624Y-90013523D01*
X167841275Y-90195520D01*
X168003487Y-90357732D01*
X168185484Y-90497383D01*
X168384152Y-90612084D01*
X168596092Y-90699872D01*
X168817677Y-90759246D01*
X169045117Y-90789189D01*
X169274519Y-90789189D01*
X169501959Y-90759246D01*
X169723544Y-90699872D01*
X169935484Y-90612084D01*
X170134152Y-90497383D01*
X170316149Y-90357732D01*
X170478361Y-90195520D01*
X170618012Y-90013523D01*
X170732713Y-89814855D01*
X170820501Y-89602915D01*
X170879875Y-89381330D01*
X170909818Y-89153890D01*
X170909818Y-89039188D01*
X170955869Y-89039188D01*
X170955869Y-89039190D01*
X172555993Y-90639314D01*
X172694864Y-90304054D01*
X172801824Y-89951453D01*
X172801827Y-89951442D01*
X172873701Y-89590098D01*
X172873704Y-89590081D01*
X172909818Y-89223411D01*
X172909818Y-88854966D01*
X172873704Y-88488296D01*
X172873701Y-88488279D01*
X172801827Y-88126935D01*
X172801824Y-88126924D01*
X172694864Y-87774323D01*
X172555993Y-87439062D01*
X170955869Y-89039188D01*
X170909818Y-89039188D01*
X170909818Y-88924488D01*
X170879875Y-88697048D01*
X170820501Y-88475463D01*
X170732713Y-88263523D01*
X170618012Y-88064855D01*
X170478361Y-87882858D01*
X170316149Y-87720646D01*
X170134152Y-87580995D01*
X169935484Y-87466294D01*
X169723544Y-87378506D01*
X169501959Y-87319132D01*
X169274519Y-87289189D01*
X169045117Y-87289189D01*
X168817677Y-87319132D01*
X168596092Y-87378506D01*
X168384152Y-87466294D01*
X168185484Y-87580995D01*
X168003487Y-87720646D01*
X167841275Y-87882858D01*
X167701624Y-88064855D01*
X167586923Y-88263523D01*
X167499135Y-88475463D01*
X167439761Y-88697048D01*
X167409818Y-88924488D01*
X167249066Y-88924488D01*
X165763641Y-87439062D01*
X165624770Y-87774327D01*
X165517811Y-88126924D01*
X165517808Y-88126935D01*
X165445934Y-88488279D01*
X165445931Y-88488296D01*
X165409818Y-88854966D01*
X154909818Y-88854966D01*
X154873704Y-88488296D01*
X154873701Y-88488279D01*
X154801827Y-88126935D01*
X154801824Y-88126924D01*
X154694864Y-87774323D01*
X154555993Y-87439062D01*
X152955869Y-89039188D01*
X152909818Y-89039188D01*
X152909818Y-88924488D01*
X152879875Y-88697048D01*
X152820501Y-88475463D01*
X152732713Y-88263523D01*
X152618012Y-88064855D01*
X152478361Y-87882858D01*
X152316149Y-87720646D01*
X152134152Y-87580995D01*
X151935484Y-87466294D01*
X151723544Y-87378506D01*
X151501959Y-87319132D01*
X151274519Y-87289189D01*
X151045117Y-87289189D01*
X150817677Y-87319132D01*
X150596092Y-87378506D01*
X150384152Y-87466294D01*
X150185484Y-87580995D01*
X150003487Y-87720646D01*
X149841275Y-87882858D01*
X149701624Y-88064855D01*
X149586923Y-88263523D01*
X149499135Y-88475463D01*
X149439761Y-88697048D01*
X149409818Y-88924488D01*
X149249066Y-88924488D01*
X147763641Y-87439062D01*
X147624770Y-87774327D01*
X147517811Y-88126924D01*
X147517808Y-88126935D01*
X147445934Y-88488279D01*
X147445931Y-88488296D01*
X147409818Y-88854966D01*
X126905798Y-88854966D01*
X126899704Y-88793096D01*
X126899701Y-88793079D01*
X126827827Y-88431735D01*
X126827824Y-88431724D01*
X126720864Y-88079123D01*
X126581993Y-87743862D01*
X124981869Y-89343988D01*
X124935818Y-89343988D01*
X124935818Y-89229288D01*
X124905875Y-89001848D01*
X124846501Y-88780263D01*
X124758713Y-88568323D01*
X124644012Y-88369655D01*
X124504361Y-88187658D01*
X124342149Y-88025446D01*
X124160152Y-87885795D01*
X123961484Y-87771094D01*
X123749544Y-87683306D01*
X123527959Y-87623932D01*
X123300519Y-87593989D01*
X123071117Y-87593989D01*
X122843677Y-87623932D01*
X122622092Y-87683306D01*
X122410152Y-87771094D01*
X122211484Y-87885795D01*
X122029487Y-88025446D01*
X121867275Y-88187658D01*
X121727624Y-88369655D01*
X121612923Y-88568323D01*
X121525135Y-88780263D01*
X121465761Y-89001848D01*
X121435818Y-89229288D01*
X121275066Y-89229288D01*
X119789641Y-87743862D01*
X119650770Y-88079127D01*
X119543811Y-88431724D01*
X119543808Y-88431735D01*
X119471934Y-88793079D01*
X119471931Y-88793096D01*
X119435818Y-89159766D01*
X108935818Y-89159766D01*
X108899704Y-88793096D01*
X108899701Y-88793079D01*
X108827827Y-88431735D01*
X108827824Y-88431724D01*
X108720864Y-88079123D01*
X108581993Y-87743862D01*
X106981869Y-89343988D01*
X106935818Y-89343988D01*
X106935818Y-89229288D01*
X106905875Y-89001848D01*
X106846501Y-88780263D01*
X106758713Y-88568323D01*
X106644012Y-88369655D01*
X106504361Y-88187658D01*
X106342149Y-88025446D01*
X106160152Y-87885795D01*
X105961484Y-87771094D01*
X105749544Y-87683306D01*
X105527959Y-87623932D01*
X105300519Y-87593989D01*
X105071117Y-87593989D01*
X104843677Y-87623932D01*
X104622092Y-87683306D01*
X104410152Y-87771094D01*
X104211484Y-87885795D01*
X104029487Y-88025446D01*
X103867275Y-88187658D01*
X103727624Y-88369655D01*
X103612923Y-88568323D01*
X103525135Y-88780263D01*
X103465761Y-89001848D01*
X103435818Y-89229288D01*
X103275066Y-89229288D01*
X101789641Y-87743862D01*
X101650770Y-88079127D01*
X101543811Y-88431724D01*
X101543808Y-88431735D01*
X101471934Y-88793079D01*
X101471931Y-88793096D01*
X101435818Y-89159766D01*
X93565582Y-89159766D01*
X93565582Y-85947812D01*
X103585691Y-85947812D01*
X105185817Y-87547937D01*
X106785943Y-85947812D01*
X106450679Y-85808941D01*
X106098082Y-85701982D01*
X106098071Y-85701979D01*
X105736727Y-85630105D01*
X105736710Y-85630102D01*
X105370041Y-85593989D01*
X105001595Y-85593989D01*
X104634925Y-85630102D01*
X104634908Y-85630105D01*
X104273564Y-85701979D01*
X104273553Y-85701982D01*
X103920956Y-85808941D01*
X103585691Y-85947812D01*
X93565582Y-85947812D01*
X93565582Y-81311734D01*
X104925177Y-81311734D01*
X104925177Y-81311735D01*
X105087322Y-81343988D01*
X105087325Y-81343989D01*
X105284311Y-81343989D01*
X105446457Y-81311735D01*
X105446457Y-81311734D01*
X105185819Y-81051095D01*
X105185818Y-81051095D01*
X104925177Y-81311734D01*
X93565582Y-81311734D01*
X93565582Y-80245493D01*
X104185818Y-80245493D01*
X104185818Y-80442484D01*
X104218070Y-80604628D01*
X104218071Y-80604628D01*
X104478711Y-80343989D01*
X104478711Y-80343988D01*
X104439216Y-80304493D01*
X104885818Y-80304493D01*
X104885818Y-80383485D01*
X104906262Y-80459785D01*
X104945758Y-80528194D01*
X105001613Y-80584049D01*
X105070022Y-80623545D01*
X105146322Y-80643989D01*
X105225314Y-80643989D01*
X105301614Y-80623545D01*
X105370023Y-80584049D01*
X105425878Y-80528194D01*
X105465374Y-80459785D01*
X105485818Y-80383485D01*
X105485818Y-80304493D01*
X105465374Y-80228193D01*
X105425878Y-80159784D01*
X105370023Y-80103929D01*
X105301614Y-80064433D01*
X105225314Y-80043989D01*
X105146322Y-80043989D01*
X105070022Y-80064433D01*
X105001613Y-80103929D01*
X104945758Y-80159784D01*
X104906262Y-80228193D01*
X104885818Y-80304493D01*
X104439216Y-80304493D01*
X104218071Y-80083348D01*
X104218070Y-80083348D01*
X104185818Y-80245493D01*
X93565582Y-80245493D01*
X93565582Y-79376241D01*
X104925177Y-79376241D01*
X104925177Y-79376242D01*
X105185818Y-79636882D01*
X105185819Y-79636882D01*
X105446457Y-79376242D01*
X105446457Y-79376241D01*
X105284313Y-79343989D01*
X105087322Y-79343989D01*
X104925177Y-79376241D01*
X93565582Y-79376241D01*
X93565582Y-77811734D01*
X105625177Y-77811734D01*
X105625177Y-77811735D01*
X105787322Y-77843988D01*
X105787325Y-77843989D01*
X105984310Y-77843989D01*
X105984313Y-77843988D01*
X106177499Y-77805561D01*
X106177507Y-77805559D01*
X106291791Y-77758221D01*
X106361260Y-77750752D01*
X106423739Y-77782027D01*
X106459392Y-77842115D01*
X106456899Y-77911940D01*
X106456664Y-77912639D01*
X106429971Y-77991276D01*
X106292700Y-78503577D01*
X106292696Y-78503595D01*
X106189234Y-79023737D01*
X106189232Y-79023748D01*
X106120006Y-79549568D01*
X106112114Y-79669984D01*
X106085318Y-80078806D01*
X106085318Y-80078817D01*
X106085318Y-80100233D01*
X106065633Y-80167272D01*
X106048999Y-80187914D01*
X105892924Y-80343988D01*
X106048999Y-80500062D01*
X106082484Y-80561385D01*
X106085318Y-80587744D01*
X106085318Y-80609172D01*
X106094306Y-80746295D01*
X106120006Y-81138409D01*
X106189232Y-81664229D01*
X106189234Y-81664240D01*
X106292696Y-82184382D01*
X106292700Y-82184400D01*
X106429971Y-82696701D01*
X106429973Y-82696709D01*
X106600450Y-83198916D01*
X106600454Y-83198927D01*
X106803414Y-83688916D01*
X107037987Y-84164584D01*
X107303165Y-84623885D01*
X107303181Y-84623910D01*
X107394165Y-84760077D01*
X107597826Y-85064877D01*
X107920693Y-85485644D01*
X108270387Y-85884395D01*
X108645412Y-86259420D01*
X109044163Y-86609114D01*
X109464930Y-86931981D01*
X109464936Y-86931985D01*
X109905896Y-87226625D01*
X109905921Y-87226641D01*
X110365222Y-87491819D01*
X110634387Y-87624556D01*
X110840894Y-87726394D01*
X111330888Y-87929356D01*
X111613961Y-88025446D01*
X111833097Y-88099833D01*
X111833101Y-88099834D01*
X111833107Y-88099836D01*
X112345401Y-88237105D01*
X112345405Y-88237105D01*
X112345406Y-88237106D01*
X112345424Y-88237110D01*
X112852582Y-88337989D01*
X112865576Y-88340574D01*
X113391405Y-88409801D01*
X113920635Y-88444489D01*
X113920646Y-88444489D01*
X114450990Y-88444489D01*
X114451001Y-88444489D01*
X114980231Y-88409801D01*
X115506060Y-88340574D01*
X115756402Y-88290777D01*
X116026211Y-88237110D01*
X116026220Y-88237107D01*
X116026235Y-88237105D01*
X116538529Y-88099836D01*
X117040748Y-87929356D01*
X117530742Y-87726394D01*
X118006413Y-87491819D01*
X118465723Y-87226636D01*
X118906706Y-86931981D01*
X119327473Y-86609114D01*
X119726224Y-86259420D01*
X120037832Y-85947812D01*
X121585691Y-85947812D01*
X123185817Y-87547937D01*
X124785943Y-85947812D01*
X124450679Y-85808941D01*
X124429404Y-85802488D01*
X124098082Y-85701982D01*
X124098071Y-85701979D01*
X123801616Y-85643012D01*
X149559691Y-85643012D01*
X151159817Y-87243137D01*
X152759943Y-85643012D01*
X152424679Y-85504141D01*
X152072082Y-85397182D01*
X152072071Y-85397179D01*
X151710727Y-85325305D01*
X151710710Y-85325302D01*
X151344041Y-85289189D01*
X150975595Y-85289189D01*
X150608925Y-85325302D01*
X150608908Y-85325305D01*
X150247564Y-85397179D01*
X150247553Y-85397182D01*
X149894956Y-85504141D01*
X149559691Y-85643012D01*
X123801616Y-85643012D01*
X123736727Y-85630105D01*
X123736710Y-85630102D01*
X123370041Y-85593989D01*
X123001595Y-85593989D01*
X122634925Y-85630102D01*
X122634908Y-85630105D01*
X122273564Y-85701979D01*
X122273553Y-85701982D01*
X121920956Y-85808941D01*
X121585691Y-85947812D01*
X120037832Y-85947812D01*
X120101249Y-85884395D01*
X120450943Y-85485644D01*
X120773810Y-85064877D01*
X121009772Y-84711734D01*
X122225177Y-84711734D01*
X122225177Y-84711735D01*
X122387322Y-84743988D01*
X122387325Y-84743989D01*
X122584311Y-84743989D01*
X122746457Y-84711735D01*
X122746457Y-84711734D01*
X122485819Y-84451095D01*
X122485818Y-84451095D01*
X122225177Y-84711734D01*
X121009772Y-84711734D01*
X121068465Y-84623894D01*
X121071941Y-84617872D01*
X121073828Y-84614606D01*
X121073828Y-84614605D01*
X121333648Y-84164584D01*
X121379732Y-84071134D01*
X121427035Y-84019716D01*
X121494630Y-84002034D01*
X121517006Y-84005693D01*
X121818208Y-83704493D01*
X122185818Y-83704493D01*
X122185818Y-83783485D01*
X122206262Y-83859785D01*
X122245758Y-83928194D01*
X122301613Y-83984049D01*
X122370022Y-84023545D01*
X122446322Y-84043989D01*
X122525314Y-84043989D01*
X122601614Y-84023545D01*
X122670023Y-83984049D01*
X122725878Y-83928194D01*
X122765374Y-83859785D01*
X122785818Y-83783485D01*
X122785818Y-83743988D01*
X123192924Y-83743988D01*
X123192924Y-83743989D01*
X123453563Y-84004628D01*
X123453564Y-84004628D01*
X123485818Y-83842482D01*
X123485818Y-83645495D01*
X123485817Y-83645493D01*
X123453564Y-83483348D01*
X123453563Y-83483348D01*
X123192924Y-83743988D01*
X122785818Y-83743988D01*
X122785818Y-83704493D01*
X122765374Y-83628193D01*
X122725878Y-83559784D01*
X122670023Y-83503929D01*
X122601614Y-83464433D01*
X122525314Y-83443989D01*
X122446322Y-83443989D01*
X122370022Y-83464433D01*
X122301613Y-83503929D01*
X122245758Y-83559784D01*
X122206262Y-83628193D01*
X122185818Y-83704493D01*
X121818208Y-83704493D01*
X121917755Y-83604946D01*
X122132265Y-83390436D01*
X122746457Y-82776242D01*
X122746457Y-82776241D01*
X122584313Y-82743989D01*
X122387322Y-82743989D01*
X122194136Y-82782416D01*
X122194129Y-82782418D01*
X122116616Y-82814524D01*
X122047147Y-82821991D01*
X121984668Y-82790716D01*
X121949016Y-82730626D01*
X121949389Y-82667870D01*
X122078934Y-82184406D01*
X122101592Y-82070499D01*
X122146226Y-81846103D01*
X122182403Y-81664231D01*
X122207606Y-81472795D01*
X122228811Y-81311734D01*
X122925177Y-81311734D01*
X122925177Y-81311735D01*
X123087322Y-81343988D01*
X123087325Y-81343989D01*
X123284311Y-81343989D01*
X123446457Y-81311735D01*
X123446457Y-81311734D01*
X123185819Y-81051095D01*
X123185818Y-81051095D01*
X122925177Y-81311734D01*
X122228811Y-81311734D01*
X122235566Y-81260423D01*
X122251629Y-81138409D01*
X122251630Y-81138402D01*
X122286318Y-80609172D01*
X122286318Y-80587744D01*
X122306003Y-80520705D01*
X122322637Y-80500063D01*
X122478711Y-80343989D01*
X122478711Y-80343988D01*
X122439216Y-80304493D01*
X122885818Y-80304493D01*
X122885818Y-80383485D01*
X122906262Y-80459785D01*
X122945758Y-80528194D01*
X123001613Y-80584049D01*
X123070022Y-80623545D01*
X123146322Y-80643989D01*
X123225314Y-80643989D01*
X123301614Y-80623545D01*
X123370023Y-80584049D01*
X123425878Y-80528194D01*
X123465374Y-80459785D01*
X123485818Y-80383485D01*
X123485818Y-80343988D01*
X123892924Y-80343988D01*
X123892924Y-80343989D01*
X124153563Y-80604628D01*
X124153564Y-80604628D01*
X124185818Y-80442482D01*
X124185818Y-80397973D01*
X135829500Y-80397973D01*
X135829500Y-80642027D01*
X135867679Y-80883076D01*
X135943096Y-81115185D01*
X136043242Y-81311734D01*
X136053896Y-81332642D01*
X136197339Y-81530076D01*
X136197343Y-81530081D01*
X136369918Y-81702656D01*
X136369923Y-81702660D01*
X136488286Y-81788655D01*
X136567361Y-81846106D01*
X136784815Y-81956904D01*
X137016924Y-82032321D01*
X137257973Y-82070500D01*
X137257974Y-82070500D01*
X137502026Y-82070500D01*
X137502027Y-82070500D01*
X137743076Y-82032321D01*
X137975185Y-81956904D01*
X138192639Y-81846106D01*
X138339993Y-81739047D01*
X138405798Y-81715568D01*
X138473852Y-81731393D01*
X138518415Y-81774269D01*
X138527286Y-81788651D01*
X138527289Y-81788655D01*
X138651344Y-81912710D01*
X138651348Y-81912713D01*
X138800662Y-82004812D01*
X138800664Y-82004813D01*
X138800666Y-82004814D01*
X138967203Y-82059999D01*
X139069992Y-82070500D01*
X139069997Y-82070500D01*
X140770003Y-82070500D01*
X140770008Y-82070500D01*
X140872797Y-82059999D01*
X141039334Y-82004814D01*
X141188655Y-81912711D01*
X141312711Y-81788655D01*
X141404814Y-81639334D01*
X141459999Y-81472797D01*
X141470500Y-81370008D01*
X141470500Y-81006934D01*
X150899177Y-81006934D01*
X150899177Y-81006935D01*
X151061322Y-81039188D01*
X151061325Y-81039189D01*
X151258311Y-81039189D01*
X151420457Y-81006935D01*
X151420457Y-81006934D01*
X151159819Y-80746295D01*
X151159818Y-80746295D01*
X150899177Y-81006934D01*
X141470500Y-81006934D01*
X141470500Y-79940693D01*
X150159818Y-79940693D01*
X150159818Y-80137684D01*
X150192070Y-80299828D01*
X150192071Y-80299828D01*
X150452711Y-80039189D01*
X150452711Y-80039188D01*
X150413216Y-79999693D01*
X150859818Y-79999693D01*
X150859818Y-80078685D01*
X150880262Y-80154985D01*
X150919758Y-80223394D01*
X150975613Y-80279249D01*
X151044022Y-80318745D01*
X151120322Y-80339189D01*
X151199314Y-80339189D01*
X151275614Y-80318745D01*
X151344023Y-80279249D01*
X151399878Y-80223394D01*
X151439374Y-80154985D01*
X151459818Y-80078685D01*
X151459818Y-79999693D01*
X151439374Y-79923393D01*
X151399878Y-79854984D01*
X151344023Y-79799129D01*
X151275614Y-79759633D01*
X151199314Y-79739189D01*
X151120322Y-79739189D01*
X151044022Y-79759633D01*
X150975613Y-79799129D01*
X150919758Y-79854984D01*
X150880262Y-79923393D01*
X150859818Y-79999693D01*
X150413216Y-79999693D01*
X150192071Y-79778548D01*
X150192070Y-79778548D01*
X150159818Y-79940693D01*
X141470500Y-79940693D01*
X141470500Y-79669992D01*
X141459999Y-79567203D01*
X141404814Y-79400666D01*
X141389748Y-79376241D01*
X141312713Y-79251348D01*
X141312710Y-79251344D01*
X141188655Y-79127289D01*
X141188651Y-79127286D01*
X141098113Y-79071441D01*
X150899177Y-79071441D01*
X150899177Y-79071442D01*
X151159818Y-79332082D01*
X151159819Y-79332082D01*
X151420457Y-79071442D01*
X151420457Y-79071441D01*
X151258313Y-79039189D01*
X151061322Y-79039189D01*
X150899177Y-79071441D01*
X141098113Y-79071441D01*
X141039337Y-79035187D01*
X141039335Y-79035186D01*
X140956065Y-79007593D01*
X140872797Y-78980001D01*
X140872795Y-78980000D01*
X140770015Y-78969500D01*
X140770008Y-78969500D01*
X139069992Y-78969500D01*
X139069984Y-78969500D01*
X138967204Y-78980000D01*
X138967203Y-78980001D01*
X138800664Y-79035186D01*
X138800662Y-79035187D01*
X138651348Y-79127286D01*
X138651344Y-79127289D01*
X138527289Y-79251344D01*
X138518414Y-79265733D01*
X138466465Y-79312456D01*
X138397502Y-79323676D01*
X138339992Y-79300951D01*
X138192642Y-79193896D01*
X138192641Y-79193895D01*
X138192639Y-79193894D01*
X137975185Y-79083096D01*
X137743076Y-79007679D01*
X137743074Y-79007678D01*
X137743072Y-79007678D01*
X137568320Y-78980000D01*
X137502027Y-78969500D01*
X137257973Y-78969500D01*
X137202093Y-78978350D01*
X137016927Y-79007678D01*
X136784812Y-79083097D01*
X136567357Y-79193896D01*
X136369923Y-79337339D01*
X136369918Y-79337343D01*
X136197343Y-79509918D01*
X136197339Y-79509923D01*
X136053896Y-79707357D01*
X135943097Y-79924812D01*
X135867678Y-80156927D01*
X135838050Y-80343989D01*
X135829500Y-80397973D01*
X124185818Y-80397973D01*
X124185818Y-80245495D01*
X124185817Y-80245493D01*
X124153564Y-80083348D01*
X124153563Y-80083348D01*
X123892924Y-80343988D01*
X123485818Y-80343988D01*
X123485818Y-80304493D01*
X123465374Y-80228193D01*
X123425878Y-80159784D01*
X123370023Y-80103929D01*
X123301614Y-80064433D01*
X123225314Y-80043989D01*
X123146322Y-80043989D01*
X123070022Y-80064433D01*
X123001613Y-80103929D01*
X122945758Y-80159784D01*
X122906262Y-80228193D01*
X122885818Y-80304493D01*
X122439216Y-80304493D01*
X122322637Y-80187914D01*
X122289152Y-80126591D01*
X122286318Y-80100233D01*
X122286318Y-80078817D01*
X122286318Y-80078806D01*
X122251630Y-79549576D01*
X122246409Y-79509917D01*
X122235566Y-79427554D01*
X122228810Y-79376241D01*
X122925177Y-79376241D01*
X122925177Y-79376242D01*
X123185818Y-79636882D01*
X123185819Y-79636882D01*
X123446457Y-79376242D01*
X123446457Y-79376241D01*
X123284313Y-79343989D01*
X123087322Y-79343989D01*
X122925177Y-79376241D01*
X122228810Y-79376241D01*
X122204803Y-79193894D01*
X122182403Y-79023747D01*
X122078934Y-78503572D01*
X121941665Y-77991278D01*
X121891832Y-77844477D01*
X121888923Y-77774669D01*
X121924217Y-77714369D01*
X121986509Y-77682722D01*
X122056022Y-77689777D01*
X122056705Y-77690058D01*
X122094128Y-77705559D01*
X122094136Y-77705561D01*
X122287322Y-77743988D01*
X122287326Y-77743989D01*
X122484311Y-77743989D01*
X122646457Y-77711735D01*
X122646457Y-77711734D01*
X122441657Y-77506934D01*
X151599177Y-77506934D01*
X151599177Y-77506935D01*
X151761322Y-77539188D01*
X151761325Y-77539189D01*
X151958310Y-77539189D01*
X151958313Y-77539188D01*
X152151499Y-77500761D01*
X152151507Y-77500759D01*
X152265791Y-77453421D01*
X152335260Y-77445952D01*
X152397739Y-77477227D01*
X152433392Y-77537315D01*
X152430899Y-77607140D01*
X152430664Y-77607839D01*
X152403971Y-77686476D01*
X152266700Y-78198777D01*
X152266696Y-78198795D01*
X152163234Y-78718937D01*
X152163232Y-78718948D01*
X152094006Y-79244768D01*
X152083788Y-79400664D01*
X152059318Y-79774006D01*
X152059318Y-79774017D01*
X152059318Y-79795433D01*
X152039633Y-79862472D01*
X152022999Y-79883114D01*
X151866924Y-80039188D01*
X152022999Y-80195262D01*
X152056484Y-80256585D01*
X152059318Y-80282944D01*
X152059318Y-80304372D01*
X152078998Y-80604628D01*
X152094006Y-80833609D01*
X152163232Y-81359429D01*
X152163234Y-81359440D01*
X152266696Y-81879582D01*
X152266700Y-81879600D01*
X152403971Y-82391901D01*
X152403973Y-82391909D01*
X152574450Y-82894116D01*
X152574454Y-82894127D01*
X152777414Y-83384116D01*
X153011987Y-83859784D01*
X153277165Y-84319085D01*
X153277181Y-84319110D01*
X153561076Y-84743989D01*
X153571826Y-84760077D01*
X153894693Y-85180844D01*
X154244387Y-85579595D01*
X154619412Y-85954620D01*
X155018163Y-86304314D01*
X155438930Y-86627181D01*
X155438936Y-86627185D01*
X155879896Y-86921825D01*
X155879921Y-86921841D01*
X156339222Y-87187019D01*
X156727520Y-87378506D01*
X156814894Y-87421594D01*
X157304888Y-87624556D01*
X157587961Y-87720646D01*
X157807097Y-87795033D01*
X157807101Y-87795034D01*
X157807107Y-87795036D01*
X158319401Y-87932305D01*
X158319405Y-87932305D01*
X158319406Y-87932306D01*
X158319424Y-87932310D01*
X158826582Y-88033189D01*
X158839576Y-88035774D01*
X159168843Y-88079123D01*
X159326165Y-88099835D01*
X159365405Y-88105001D01*
X159894635Y-88139689D01*
X159894646Y-88139689D01*
X160424990Y-88139689D01*
X160425001Y-88139689D01*
X160954231Y-88105001D01*
X161480060Y-88035774D01*
X161730402Y-87985977D01*
X162000211Y-87932310D01*
X162000220Y-87932307D01*
X162000235Y-87932305D01*
X162512529Y-87795036D01*
X163014748Y-87624556D01*
X163504742Y-87421594D01*
X163980413Y-87187019D01*
X164439723Y-86921836D01*
X164880706Y-86627181D01*
X165301473Y-86304314D01*
X165700224Y-85954620D01*
X166011832Y-85643012D01*
X167559691Y-85643012D01*
X169159817Y-87243137D01*
X170759943Y-85643012D01*
X170424679Y-85504141D01*
X170072082Y-85397182D01*
X170072071Y-85397179D01*
X169710727Y-85325305D01*
X169710710Y-85325302D01*
X169344041Y-85289189D01*
X168975595Y-85289189D01*
X168608925Y-85325302D01*
X168608908Y-85325305D01*
X168247564Y-85397179D01*
X168247553Y-85397182D01*
X167894956Y-85504141D01*
X167559691Y-85643012D01*
X166011832Y-85643012D01*
X166075249Y-85579595D01*
X166424943Y-85180844D01*
X166747810Y-84760077D01*
X166983772Y-84406934D01*
X168199177Y-84406934D01*
X168199177Y-84406935D01*
X168361322Y-84439188D01*
X168361325Y-84439189D01*
X168558311Y-84439189D01*
X168720457Y-84406935D01*
X168720457Y-84406934D01*
X168459819Y-84146295D01*
X168459818Y-84146295D01*
X168199177Y-84406934D01*
X166983772Y-84406934D01*
X167042465Y-84319094D01*
X167045941Y-84313072D01*
X167047828Y-84309806D01*
X167047828Y-84309805D01*
X167131671Y-84164584D01*
X167307648Y-83859784D01*
X167353732Y-83766334D01*
X167401035Y-83714916D01*
X167468630Y-83697234D01*
X167491006Y-83700893D01*
X167792208Y-83399693D01*
X168159818Y-83399693D01*
X168159818Y-83478685D01*
X168180262Y-83554985D01*
X168219758Y-83623394D01*
X168275613Y-83679249D01*
X168344022Y-83718745D01*
X168420322Y-83739189D01*
X168499314Y-83739189D01*
X168575614Y-83718745D01*
X168644023Y-83679249D01*
X168699878Y-83623394D01*
X168739374Y-83554985D01*
X168759818Y-83478685D01*
X168759818Y-83439188D01*
X169166924Y-83439188D01*
X169166924Y-83439189D01*
X169427563Y-83699828D01*
X169427564Y-83699828D01*
X169459818Y-83537682D01*
X169459818Y-83340695D01*
X169459817Y-83340693D01*
X169427564Y-83178548D01*
X169427563Y-83178548D01*
X169166924Y-83439188D01*
X168759818Y-83439188D01*
X168759818Y-83399693D01*
X168739374Y-83323393D01*
X168699878Y-83254984D01*
X168644023Y-83199129D01*
X168575614Y-83159633D01*
X168499314Y-83139189D01*
X168420322Y-83139189D01*
X168344022Y-83159633D01*
X168275613Y-83199129D01*
X168219758Y-83254984D01*
X168180262Y-83323393D01*
X168159818Y-83399693D01*
X167792208Y-83399693D01*
X167891755Y-83300146D01*
X168106265Y-83085636D01*
X168720457Y-82471442D01*
X168720457Y-82471441D01*
X168558313Y-82439189D01*
X168361322Y-82439189D01*
X168168136Y-82477616D01*
X168168129Y-82477618D01*
X168090616Y-82509724D01*
X168021147Y-82517191D01*
X167958668Y-82485916D01*
X167923016Y-82425826D01*
X167923389Y-82363070D01*
X168052934Y-81879606D01*
X168088132Y-81702656D01*
X168133853Y-81472796D01*
X168156403Y-81359431D01*
X168185502Y-81138402D01*
X168202811Y-81006934D01*
X168899177Y-81006934D01*
X168899177Y-81006935D01*
X169061322Y-81039188D01*
X169061325Y-81039189D01*
X169258311Y-81039189D01*
X169420457Y-81006935D01*
X169420457Y-81006934D01*
X169159819Y-80746295D01*
X169159818Y-80746295D01*
X168899177Y-81006934D01*
X168202811Y-81006934D01*
X168209566Y-80955623D01*
X168225629Y-80833609D01*
X168225630Y-80833602D01*
X168260318Y-80304372D01*
X168260318Y-80282944D01*
X168280003Y-80215905D01*
X168296637Y-80195263D01*
X168452711Y-80039189D01*
X168452711Y-80039188D01*
X168413216Y-79999693D01*
X168859818Y-79999693D01*
X168859818Y-80078685D01*
X168880262Y-80154985D01*
X168919758Y-80223394D01*
X168975613Y-80279249D01*
X169044022Y-80318745D01*
X169120322Y-80339189D01*
X169199314Y-80339189D01*
X169275614Y-80318745D01*
X169344023Y-80279249D01*
X169399878Y-80223394D01*
X169439374Y-80154985D01*
X169459818Y-80078685D01*
X169459818Y-80039188D01*
X169866924Y-80039188D01*
X169866924Y-80039189D01*
X170127563Y-80299828D01*
X170127564Y-80299828D01*
X170159818Y-80137682D01*
X170159818Y-79940695D01*
X170159817Y-79940693D01*
X170127564Y-79778548D01*
X170127563Y-79778548D01*
X169866924Y-80039188D01*
X169459818Y-80039188D01*
X169459818Y-79999693D01*
X169439374Y-79923393D01*
X169399878Y-79854984D01*
X169344023Y-79799129D01*
X169275614Y-79759633D01*
X169199314Y-79739189D01*
X169120322Y-79739189D01*
X169044022Y-79759633D01*
X168975613Y-79799129D01*
X168919758Y-79854984D01*
X168880262Y-79923393D01*
X168859818Y-79999693D01*
X168413216Y-79999693D01*
X168296637Y-79883114D01*
X168263152Y-79821791D01*
X168260318Y-79795433D01*
X168260318Y-79774017D01*
X168260318Y-79774006D01*
X168225630Y-79244776D01*
X168225629Y-79244768D01*
X168209566Y-79122754D01*
X168202810Y-79071441D01*
X168899177Y-79071441D01*
X168899177Y-79071442D01*
X169159818Y-79332082D01*
X169159819Y-79332082D01*
X169420457Y-79071442D01*
X169420457Y-79071441D01*
X169258313Y-79039189D01*
X169061322Y-79039189D01*
X168899177Y-79071441D01*
X168202810Y-79071441D01*
X168156403Y-78718948D01*
X168156403Y-78718947D01*
X168113567Y-78503595D01*
X168052939Y-78198795D01*
X168052935Y-78198777D01*
X167997336Y-77991278D01*
X167915665Y-77686478D01*
X167865832Y-77539677D01*
X167862923Y-77469869D01*
X167898217Y-77409569D01*
X167960509Y-77377922D01*
X168030022Y-77384977D01*
X168030705Y-77385258D01*
X168068128Y-77400759D01*
X168068136Y-77400761D01*
X168261322Y-77439188D01*
X168261326Y-77439189D01*
X168458311Y-77439189D01*
X168620457Y-77406935D01*
X168620457Y-77406934D01*
X167613216Y-76399693D01*
X168059818Y-76399693D01*
X168059818Y-76478685D01*
X168080262Y-76554985D01*
X168119758Y-76623394D01*
X168175613Y-76679249D01*
X168244022Y-76718745D01*
X168320322Y-76739189D01*
X168399314Y-76739189D01*
X168475614Y-76718745D01*
X168544023Y-76679249D01*
X168599878Y-76623394D01*
X168639374Y-76554985D01*
X168659818Y-76478685D01*
X168659818Y-76439188D01*
X169066924Y-76439188D01*
X169066924Y-76439189D01*
X169327563Y-76699828D01*
X169327564Y-76699828D01*
X169359818Y-76537682D01*
X169359818Y-76340695D01*
X169359817Y-76340693D01*
X169327564Y-76178548D01*
X169327563Y-76178548D01*
X169066924Y-76439188D01*
X168659818Y-76439188D01*
X168659818Y-76399693D01*
X168639374Y-76323393D01*
X168599878Y-76254984D01*
X168544023Y-76199129D01*
X168475614Y-76159633D01*
X168399314Y-76139189D01*
X168320322Y-76139189D01*
X168244022Y-76159633D01*
X168175613Y-76199129D01*
X168119758Y-76254984D01*
X168080262Y-76323393D01*
X168059818Y-76399693D01*
X167613216Y-76399693D01*
X167391294Y-76177771D01*
X167324863Y-76178364D01*
X167265751Y-76141115D01*
X167251349Y-76121080D01*
X167042470Y-75759292D01*
X167042454Y-75759267D01*
X166919638Y-75575460D01*
X166850135Y-75471441D01*
X168099177Y-75471441D01*
X168099177Y-75471442D01*
X168359818Y-75732082D01*
X168359819Y-75732082D01*
X168620457Y-75471442D01*
X168620457Y-75471441D01*
X168458313Y-75439189D01*
X168261322Y-75439189D01*
X168099177Y-75471441D01*
X166850135Y-75471441D01*
X166747814Y-75318307D01*
X166747810Y-75318301D01*
X166424943Y-74897534D01*
X166075249Y-74498783D01*
X166011830Y-74435364D01*
X167559691Y-74435364D01*
X167894952Y-74574235D01*
X168247553Y-74681195D01*
X168247564Y-74681198D01*
X168608908Y-74753072D01*
X168608925Y-74753075D01*
X168975595Y-74789189D01*
X169344041Y-74789189D01*
X169710710Y-74753075D01*
X169710727Y-74753072D01*
X170072071Y-74681198D01*
X170072082Y-74681195D01*
X170424683Y-74574235D01*
X170759943Y-74435364D01*
X169159818Y-72835240D01*
X167559691Y-74435364D01*
X166011830Y-74435364D01*
X165700224Y-74123758D01*
X165301473Y-73774064D01*
X164880706Y-73451197D01*
X164880699Y-73451192D01*
X164439739Y-73156552D01*
X164439714Y-73156536D01*
X163980413Y-72891358D01*
X163879818Y-72841750D01*
X163828398Y-72794444D01*
X163810717Y-72726849D01*
X163832387Y-72660425D01*
X163886529Y-72616261D01*
X163910471Y-72608921D01*
X163920457Y-72606934D01*
X162913216Y-71599693D01*
X163359818Y-71599693D01*
X163359818Y-71678685D01*
X163380262Y-71754985D01*
X163419758Y-71823394D01*
X163475613Y-71879249D01*
X163544022Y-71918745D01*
X163620322Y-71939189D01*
X163699314Y-71939189D01*
X163775614Y-71918745D01*
X163844023Y-71879249D01*
X163899878Y-71823394D01*
X163939374Y-71754985D01*
X163959818Y-71678685D01*
X163959818Y-71639188D01*
X164366924Y-71639188D01*
X164366924Y-71639189D01*
X164627563Y-71899828D01*
X164627564Y-71899828D01*
X164659818Y-71737682D01*
X164659818Y-71540695D01*
X164659817Y-71540693D01*
X164627564Y-71378548D01*
X164627563Y-71378548D01*
X164366924Y-71639188D01*
X163959818Y-71639188D01*
X163959818Y-71599693D01*
X163939374Y-71523393D01*
X163899878Y-71454984D01*
X163844023Y-71399129D01*
X163775614Y-71359633D01*
X163699314Y-71339189D01*
X163620322Y-71339189D01*
X163544022Y-71359633D01*
X163475613Y-71399129D01*
X163419758Y-71454984D01*
X163380262Y-71523393D01*
X163359818Y-71599693D01*
X162913216Y-71599693D01*
X162692071Y-71378548D01*
X162692070Y-71378548D01*
X162659818Y-71540693D01*
X162659818Y-71737684D01*
X162698245Y-71930870D01*
X162698248Y-71930882D01*
X162773625Y-72112860D01*
X162773635Y-72112878D01*
X162794599Y-72144253D01*
X162815477Y-72210930D01*
X162796992Y-72278310D01*
X162745013Y-72325000D01*
X162676043Y-72336176D01*
X162651639Y-72330562D01*
X162512547Y-72283347D01*
X162512530Y-72283342D01*
X162000229Y-72146071D01*
X162000211Y-72146067D01*
X161480069Y-72042605D01*
X161480058Y-72042603D01*
X160954223Y-71973375D01*
X160500690Y-71943649D01*
X160435081Y-71919622D01*
X160421119Y-71907596D01*
X160159819Y-71646295D01*
X159898515Y-71907597D01*
X159837192Y-71941081D01*
X159818944Y-71943649D01*
X159365413Y-71973375D01*
X159365411Y-71973375D01*
X158839577Y-72042603D01*
X158839566Y-72042605D01*
X158319424Y-72146067D01*
X158319398Y-72146073D01*
X157830777Y-72276999D01*
X157760928Y-72275336D01*
X157703065Y-72236174D01*
X157675561Y-72171945D01*
X157687147Y-72103043D01*
X157695582Y-72088332D01*
X157746006Y-72012867D01*
X157746010Y-72012860D01*
X157821387Y-71830882D01*
X157821390Y-71830870D01*
X157859817Y-71637684D01*
X157859818Y-71637681D01*
X157859818Y-71440695D01*
X157859817Y-71440693D01*
X157827564Y-71278548D01*
X157827563Y-71278548D01*
X157213371Y-71892742D01*
X156599177Y-72506934D01*
X156599177Y-72506935D01*
X156611144Y-72509316D01*
X156673055Y-72541701D01*
X156707629Y-72602416D01*
X156703890Y-72672186D01*
X156663024Y-72728858D01*
X156641797Y-72742145D01*
X156339222Y-72891358D01*
X155879921Y-73156536D01*
X155879896Y-73156552D01*
X155438936Y-73451192D01*
X155264516Y-73585029D01*
X155018163Y-73774064D01*
X155018157Y-73774068D01*
X155018152Y-73774073D01*
X154619407Y-74123762D01*
X154244391Y-74498778D01*
X153894702Y-74897523D01*
X153894697Y-74897528D01*
X153894693Y-74897534D01*
X153826812Y-74985998D01*
X153571821Y-75318307D01*
X153277181Y-75759267D01*
X153277165Y-75759292D01*
X153011986Y-76218595D01*
X153008797Y-76225062D01*
X152961488Y-76276478D01*
X152893891Y-76294155D01*
X152861594Y-76288871D01*
X152827563Y-76278548D01*
X152213371Y-76892742D01*
X151599177Y-77506934D01*
X122441657Y-77506934D01*
X121639216Y-76704493D01*
X122085818Y-76704493D01*
X122085818Y-76783485D01*
X122106262Y-76859785D01*
X122145758Y-76928194D01*
X122201613Y-76984049D01*
X122270022Y-77023545D01*
X122346322Y-77043989D01*
X122425314Y-77043989D01*
X122501614Y-77023545D01*
X122570023Y-76984049D01*
X122625878Y-76928194D01*
X122665374Y-76859785D01*
X122685818Y-76783485D01*
X122685818Y-76743988D01*
X123092924Y-76743988D01*
X123092924Y-76743989D01*
X123353563Y-77004628D01*
X123353564Y-77004628D01*
X123385818Y-76842482D01*
X123385818Y-76645495D01*
X123353564Y-76483348D01*
X123353563Y-76483348D01*
X123092924Y-76743988D01*
X122685818Y-76743988D01*
X122685818Y-76704493D01*
X122665374Y-76628193D01*
X122625878Y-76559784D01*
X122570023Y-76503929D01*
X122501614Y-76464433D01*
X122425314Y-76443989D01*
X122346322Y-76443989D01*
X122270022Y-76464433D01*
X122201613Y-76503929D01*
X122145758Y-76559784D01*
X122106262Y-76628193D01*
X122085818Y-76704493D01*
X121639216Y-76704493D01*
X121417294Y-76482571D01*
X121350863Y-76483164D01*
X121291751Y-76445915D01*
X121287997Y-76440693D01*
X150859818Y-76440693D01*
X150859818Y-76637684D01*
X150892070Y-76799828D01*
X150892071Y-76799828D01*
X151152711Y-76539189D01*
X151152711Y-76539188D01*
X151113216Y-76499693D01*
X151559818Y-76499693D01*
X151559818Y-76578685D01*
X151580262Y-76654985D01*
X151619758Y-76723394D01*
X151675613Y-76779249D01*
X151744022Y-76818745D01*
X151820322Y-76839189D01*
X151899314Y-76839189D01*
X151975614Y-76818745D01*
X152044023Y-76779249D01*
X152099878Y-76723394D01*
X152139374Y-76654985D01*
X152159818Y-76578685D01*
X152159818Y-76499693D01*
X152139374Y-76423393D01*
X152099878Y-76354984D01*
X152044023Y-76299129D01*
X151975614Y-76259633D01*
X151899314Y-76239189D01*
X151820322Y-76239189D01*
X151744022Y-76259633D01*
X151675613Y-76299129D01*
X151619758Y-76354984D01*
X151580262Y-76423393D01*
X151559818Y-76499693D01*
X151113216Y-76499693D01*
X150892071Y-76278548D01*
X150892070Y-76278548D01*
X150859818Y-76440693D01*
X121287997Y-76440693D01*
X121277349Y-76425880D01*
X121068470Y-76064092D01*
X121068454Y-76064067D01*
X120945638Y-75880260D01*
X120876135Y-75776241D01*
X122125177Y-75776241D01*
X122125177Y-75776242D01*
X122385818Y-76036882D01*
X122385819Y-76036882D01*
X122646457Y-75776242D01*
X122646457Y-75776241D01*
X122484313Y-75743989D01*
X122287322Y-75743989D01*
X122125177Y-75776241D01*
X120876135Y-75776241D01*
X120808795Y-75675460D01*
X120808794Y-75675459D01*
X120773811Y-75623103D01*
X120773810Y-75623101D01*
X120734170Y-75571441D01*
X151599177Y-75571441D01*
X151599177Y-75571442D01*
X151859818Y-75832082D01*
X151859819Y-75832082D01*
X152120457Y-75571442D01*
X152120457Y-75571441D01*
X151958313Y-75539189D01*
X151761322Y-75539189D01*
X151599177Y-75571441D01*
X120734170Y-75571441D01*
X120450943Y-75202334D01*
X120101249Y-74803583D01*
X120037830Y-74740164D01*
X121585691Y-74740164D01*
X121920952Y-74879035D01*
X122273553Y-74985995D01*
X122273564Y-74985998D01*
X122634908Y-75057872D01*
X122634925Y-75057875D01*
X123001595Y-75093989D01*
X123370041Y-75093989D01*
X123736710Y-75057875D01*
X123736727Y-75057872D01*
X124098071Y-74985998D01*
X124098082Y-74985995D01*
X124450683Y-74879035D01*
X124785943Y-74740164D01*
X124528010Y-74482231D01*
X124481143Y-74435364D01*
X149559691Y-74435364D01*
X149894952Y-74574235D01*
X150247553Y-74681195D01*
X150247564Y-74681198D01*
X150608908Y-74753072D01*
X150608925Y-74753075D01*
X150975595Y-74789189D01*
X151344041Y-74789189D01*
X151710710Y-74753075D01*
X151710727Y-74753072D01*
X152072071Y-74681198D01*
X152072082Y-74681195D01*
X152424683Y-74574235D01*
X152759943Y-74435364D01*
X151159818Y-72835240D01*
X149559691Y-74435364D01*
X124481143Y-74435364D01*
X123185818Y-73140040D01*
X121585691Y-74740164D01*
X120037830Y-74740164D01*
X119726224Y-74428558D01*
X119327473Y-74078864D01*
X118906706Y-73755997D01*
X118906699Y-73755992D01*
X118465739Y-73461352D01*
X118465714Y-73461336D01*
X118006413Y-73196158D01*
X117905818Y-73146550D01*
X117854398Y-73099244D01*
X117836717Y-73031649D01*
X117858387Y-72965225D01*
X117912529Y-72921061D01*
X117936471Y-72913721D01*
X117946457Y-72911734D01*
X116939216Y-71904493D01*
X117385818Y-71904493D01*
X117385818Y-71983485D01*
X117406262Y-72059785D01*
X117445758Y-72128194D01*
X117501613Y-72184049D01*
X117570022Y-72223545D01*
X117646322Y-72243989D01*
X117725314Y-72243989D01*
X117801614Y-72223545D01*
X117870023Y-72184049D01*
X117925878Y-72128194D01*
X117965374Y-72059785D01*
X117985818Y-71983485D01*
X117985818Y-71943988D01*
X118392924Y-71943988D01*
X118392924Y-71943989D01*
X118653563Y-72204628D01*
X118653564Y-72204628D01*
X118685818Y-72042482D01*
X118685818Y-71845495D01*
X118685817Y-71845493D01*
X118653564Y-71683348D01*
X118653563Y-71683348D01*
X118392924Y-71943988D01*
X117985818Y-71943988D01*
X117985818Y-71904493D01*
X117965374Y-71828193D01*
X117925878Y-71759784D01*
X117870023Y-71703929D01*
X117801614Y-71664433D01*
X117725314Y-71643989D01*
X117646322Y-71643989D01*
X117570022Y-71664433D01*
X117501613Y-71703929D01*
X117445758Y-71759784D01*
X117406262Y-71828193D01*
X117385818Y-71904493D01*
X116939216Y-71904493D01*
X116718071Y-71683348D01*
X116718070Y-71683348D01*
X116685818Y-71845493D01*
X116685818Y-72042484D01*
X116724245Y-72235670D01*
X116724248Y-72235682D01*
X116799625Y-72417660D01*
X116799635Y-72417678D01*
X116820599Y-72449053D01*
X116841477Y-72515730D01*
X116822992Y-72583110D01*
X116771013Y-72629800D01*
X116702043Y-72640976D01*
X116677639Y-72635362D01*
X116538547Y-72588147D01*
X116538530Y-72588142D01*
X116026229Y-72450871D01*
X116026211Y-72450867D01*
X115506069Y-72347405D01*
X115506058Y-72347403D01*
X114980223Y-72278175D01*
X114526690Y-72248449D01*
X114461081Y-72224422D01*
X114447119Y-72212396D01*
X114185819Y-71951095D01*
X113924515Y-72212397D01*
X113863192Y-72245881D01*
X113844944Y-72248449D01*
X113391413Y-72278175D01*
X113391411Y-72278175D01*
X112865577Y-72347403D01*
X112865566Y-72347405D01*
X112345424Y-72450867D01*
X112345398Y-72450873D01*
X111856777Y-72581799D01*
X111786928Y-72580136D01*
X111729065Y-72540974D01*
X111701561Y-72476745D01*
X111713147Y-72407843D01*
X111721582Y-72393132D01*
X111772006Y-72317667D01*
X111772010Y-72317660D01*
X111847387Y-72135682D01*
X111847390Y-72135670D01*
X111885817Y-71942484D01*
X111885818Y-71942481D01*
X111885818Y-71745495D01*
X111885817Y-71745493D01*
X111853564Y-71583348D01*
X111853563Y-71583348D01*
X111239371Y-72197542D01*
X110625177Y-72811734D01*
X110625177Y-72811735D01*
X110637144Y-72814116D01*
X110699055Y-72846501D01*
X110733629Y-72907216D01*
X110729890Y-72976986D01*
X110689024Y-73033658D01*
X110667797Y-73046945D01*
X110365222Y-73196158D01*
X109905921Y-73461336D01*
X109905896Y-73461352D01*
X109464936Y-73755992D01*
X109441373Y-73774073D01*
X109044163Y-74078864D01*
X109044157Y-74078868D01*
X109044152Y-74078873D01*
X108645407Y-74428562D01*
X108270391Y-74803578D01*
X107920702Y-75202323D01*
X107920697Y-75202328D01*
X107920693Y-75202334D01*
X107738947Y-75439189D01*
X107597821Y-75623107D01*
X107303181Y-76064067D01*
X107303165Y-76064092D01*
X107037986Y-76523395D01*
X107034797Y-76529862D01*
X106987488Y-76581278D01*
X106919891Y-76598955D01*
X106887594Y-76593671D01*
X106853563Y-76583348D01*
X106239371Y-77197542D01*
X105625177Y-77811734D01*
X93565582Y-77811734D01*
X93565582Y-76745493D01*
X104885818Y-76745493D01*
X104885818Y-76942484D01*
X104918070Y-77104628D01*
X104918071Y-77104628D01*
X105178711Y-76843989D01*
X105178711Y-76843988D01*
X105139216Y-76804493D01*
X105585818Y-76804493D01*
X105585818Y-76883485D01*
X105606262Y-76959785D01*
X105645758Y-77028194D01*
X105701613Y-77084049D01*
X105770022Y-77123545D01*
X105846322Y-77143989D01*
X105925314Y-77143989D01*
X106001614Y-77123545D01*
X106070023Y-77084049D01*
X106125878Y-77028194D01*
X106165374Y-76959785D01*
X106185818Y-76883485D01*
X106185818Y-76804493D01*
X106165374Y-76728193D01*
X106125878Y-76659784D01*
X106070023Y-76603929D01*
X106001614Y-76564433D01*
X105925314Y-76543989D01*
X105846322Y-76543989D01*
X105770022Y-76564433D01*
X105701613Y-76603929D01*
X105645758Y-76659784D01*
X105606262Y-76728193D01*
X105585818Y-76804493D01*
X105139216Y-76804493D01*
X104918071Y-76583348D01*
X104918070Y-76583348D01*
X104885818Y-76745493D01*
X93565582Y-76745493D01*
X93565582Y-75876241D01*
X105625177Y-75876241D01*
X105625177Y-75876242D01*
X105885818Y-76136882D01*
X105885819Y-76136882D01*
X106146457Y-75876242D01*
X106146457Y-75876241D01*
X105984313Y-75843989D01*
X105787322Y-75843989D01*
X105625177Y-75876241D01*
X93565582Y-75876241D01*
X93565582Y-74740164D01*
X103585691Y-74740164D01*
X103920952Y-74879035D01*
X104273553Y-74985995D01*
X104273564Y-74985998D01*
X104634908Y-75057872D01*
X104634925Y-75057875D01*
X105001595Y-75093989D01*
X105370041Y-75093989D01*
X105736710Y-75057875D01*
X105736727Y-75057872D01*
X106098071Y-74985998D01*
X106098082Y-74985995D01*
X106450683Y-74879035D01*
X106785943Y-74740164D01*
X105185818Y-73140040D01*
X103585691Y-74740164D01*
X93565582Y-74740164D01*
X93565582Y-71399847D01*
X93565581Y-71399844D01*
X93564520Y-71391786D01*
X93565567Y-71391648D01*
X93563172Y-71372074D01*
X93567239Y-71159766D01*
X101435818Y-71159766D01*
X101435818Y-71528211D01*
X101471931Y-71894881D01*
X101471934Y-71894898D01*
X101543808Y-72256242D01*
X101543811Y-72256253D01*
X101650770Y-72608850D01*
X101789641Y-72944114D01*
X103389766Y-71343990D01*
X103389766Y-71343988D01*
X103275066Y-71229288D01*
X103435818Y-71229288D01*
X103435818Y-71458690D01*
X103465761Y-71686130D01*
X103525135Y-71907715D01*
X103612923Y-72119655D01*
X103727624Y-72318323D01*
X103867275Y-72500320D01*
X104029487Y-72662532D01*
X104211484Y-72802183D01*
X104410152Y-72916884D01*
X104622092Y-73004672D01*
X104843677Y-73064046D01*
X105071117Y-73093989D01*
X105300519Y-73093989D01*
X105527959Y-73064046D01*
X105749544Y-73004672D01*
X105961484Y-72916884D01*
X106160152Y-72802183D01*
X106342149Y-72662532D01*
X106504361Y-72500320D01*
X106644012Y-72318323D01*
X106758713Y-72119655D01*
X106846501Y-71907715D01*
X106905875Y-71686130D01*
X106935818Y-71458690D01*
X106935818Y-71343988D01*
X106981869Y-71343988D01*
X106981869Y-71343989D01*
X108581993Y-72944114D01*
X108720864Y-72608854D01*
X108827824Y-72256253D01*
X108827827Y-72256242D01*
X108899701Y-71894898D01*
X108899704Y-71894882D01*
X108914417Y-71745493D01*
X109885818Y-71745493D01*
X109885818Y-71942484D01*
X109918070Y-72104628D01*
X109918071Y-72104628D01*
X110178711Y-71843989D01*
X110178711Y-71843988D01*
X110139216Y-71804493D01*
X110585818Y-71804493D01*
X110585818Y-71883485D01*
X110606262Y-71959785D01*
X110645758Y-72028194D01*
X110701613Y-72084049D01*
X110770022Y-72123545D01*
X110846322Y-72143989D01*
X110925314Y-72143989D01*
X111001614Y-72123545D01*
X111070023Y-72084049D01*
X111125878Y-72028194D01*
X111165374Y-71959785D01*
X111185818Y-71883485D01*
X111185818Y-71804493D01*
X111165374Y-71728193D01*
X111125878Y-71659784D01*
X111070023Y-71603929D01*
X111001614Y-71564433D01*
X110925314Y-71543989D01*
X110846322Y-71543989D01*
X110770022Y-71564433D01*
X110701613Y-71603929D01*
X110645758Y-71659784D01*
X110606262Y-71728193D01*
X110585818Y-71804493D01*
X110139216Y-71804493D01*
X109918071Y-71583348D01*
X109918070Y-71583348D01*
X109885818Y-71745493D01*
X108914417Y-71745493D01*
X108916214Y-71727252D01*
X108935818Y-71528211D01*
X108935818Y-71159766D01*
X108934412Y-71145493D01*
X113185818Y-71145493D01*
X113185818Y-71342484D01*
X113218070Y-71504628D01*
X113218071Y-71504628D01*
X113478711Y-71243989D01*
X113478711Y-71243988D01*
X113439216Y-71204493D01*
X113885818Y-71204493D01*
X113885818Y-71283485D01*
X113906262Y-71359785D01*
X113945758Y-71428194D01*
X114001613Y-71484049D01*
X114070022Y-71523545D01*
X114146322Y-71543989D01*
X114225314Y-71543989D01*
X114301614Y-71523545D01*
X114370023Y-71484049D01*
X114425878Y-71428194D01*
X114465374Y-71359785D01*
X114485818Y-71283485D01*
X114485818Y-71243988D01*
X114892924Y-71243988D01*
X114892924Y-71243989D01*
X115153563Y-71504628D01*
X115153564Y-71504628D01*
X115185818Y-71342482D01*
X115185818Y-71145495D01*
X115185817Y-71145493D01*
X115163951Y-71035560D01*
X115153565Y-70983348D01*
X115153563Y-70983348D01*
X114892924Y-71243988D01*
X114485818Y-71243988D01*
X114485818Y-71204493D01*
X114465374Y-71128193D01*
X114425878Y-71059784D01*
X114370023Y-71003929D01*
X114322066Y-70976241D01*
X117425177Y-70976241D01*
X117425177Y-70976242D01*
X117685818Y-71236882D01*
X117685819Y-71236882D01*
X117762935Y-71159766D01*
X119435818Y-71159766D01*
X119435818Y-71528211D01*
X119471931Y-71894881D01*
X119471934Y-71894898D01*
X119543808Y-72256242D01*
X119543811Y-72256253D01*
X119650770Y-72608850D01*
X119789641Y-72944114D01*
X121389766Y-71343990D01*
X121389766Y-71343988D01*
X121275066Y-71229288D01*
X121435818Y-71229288D01*
X121435818Y-71458690D01*
X121465761Y-71686130D01*
X121525135Y-71907715D01*
X121612923Y-72119655D01*
X121727624Y-72318323D01*
X121867275Y-72500320D01*
X122029487Y-72662532D01*
X122211484Y-72802183D01*
X122410152Y-72916884D01*
X122622092Y-73004672D01*
X122843677Y-73064046D01*
X123071117Y-73093989D01*
X123300519Y-73093989D01*
X123527959Y-73064046D01*
X123749544Y-73004672D01*
X123961484Y-72916884D01*
X124160152Y-72802183D01*
X124342149Y-72662532D01*
X124504361Y-72500320D01*
X124644012Y-72318323D01*
X124758713Y-72119655D01*
X124846501Y-71907715D01*
X124905875Y-71686130D01*
X124935818Y-71458690D01*
X124935818Y-71343988D01*
X124981869Y-71343988D01*
X124981869Y-71343989D01*
X126581993Y-72944114D01*
X126720864Y-72608854D01*
X126827824Y-72256253D01*
X126827827Y-72256242D01*
X126899701Y-71894898D01*
X126899704Y-71894881D01*
X126935818Y-71528211D01*
X126935818Y-71159766D01*
X126906695Y-70864073D01*
X126905798Y-70854966D01*
X147409818Y-70854966D01*
X147409818Y-71223411D01*
X147445931Y-71590081D01*
X147445934Y-71590098D01*
X147517808Y-71951442D01*
X147517811Y-71951453D01*
X147624770Y-72304050D01*
X147763641Y-72639314D01*
X149363766Y-71039190D01*
X149363766Y-71039188D01*
X149249066Y-70924488D01*
X149409818Y-70924488D01*
X149409818Y-71153890D01*
X149439761Y-71381330D01*
X149499135Y-71602915D01*
X149586923Y-71814855D01*
X149701624Y-72013523D01*
X149841275Y-72195520D01*
X150003487Y-72357732D01*
X150185484Y-72497383D01*
X150384152Y-72612084D01*
X150596092Y-72699872D01*
X150817677Y-72759246D01*
X151045117Y-72789189D01*
X151274519Y-72789189D01*
X151501959Y-72759246D01*
X151723544Y-72699872D01*
X151935484Y-72612084D01*
X152134152Y-72497383D01*
X152316149Y-72357732D01*
X152478361Y-72195520D01*
X152618012Y-72013523D01*
X152732713Y-71814855D01*
X152820501Y-71602915D01*
X152879875Y-71381330D01*
X152909818Y-71153890D01*
X152909818Y-71039188D01*
X152955869Y-71039188D01*
X152955869Y-71039190D01*
X154555993Y-72639314D01*
X154694864Y-72304054D01*
X154801824Y-71951453D01*
X154801827Y-71951442D01*
X154873701Y-71590098D01*
X154873704Y-71590082D01*
X154888417Y-71440693D01*
X155859818Y-71440693D01*
X155859818Y-71637684D01*
X155892070Y-71799828D01*
X155892071Y-71799828D01*
X156152711Y-71539189D01*
X156152711Y-71539188D01*
X156113216Y-71499693D01*
X156559818Y-71499693D01*
X156559818Y-71578685D01*
X156580262Y-71654985D01*
X156619758Y-71723394D01*
X156675613Y-71779249D01*
X156744022Y-71818745D01*
X156820322Y-71839189D01*
X156899314Y-71839189D01*
X156975614Y-71818745D01*
X157044023Y-71779249D01*
X157099878Y-71723394D01*
X157139374Y-71654985D01*
X157159818Y-71578685D01*
X157159818Y-71499693D01*
X157139374Y-71423393D01*
X157099878Y-71354984D01*
X157044023Y-71299129D01*
X156975614Y-71259633D01*
X156899314Y-71239189D01*
X156820322Y-71239189D01*
X156744022Y-71259633D01*
X156675613Y-71299129D01*
X156619758Y-71354984D01*
X156580262Y-71423393D01*
X156559818Y-71499693D01*
X156113216Y-71499693D01*
X155892071Y-71278548D01*
X155892070Y-71278548D01*
X155859818Y-71440693D01*
X154888417Y-71440693D01*
X154890214Y-71422452D01*
X154909818Y-71223411D01*
X154909818Y-70854966D01*
X154908412Y-70840693D01*
X159159818Y-70840693D01*
X159159818Y-71037684D01*
X159192070Y-71199828D01*
X159192071Y-71199828D01*
X159452711Y-70939189D01*
X159452711Y-70939188D01*
X159413216Y-70899693D01*
X159859818Y-70899693D01*
X159859818Y-70978685D01*
X159880262Y-71054985D01*
X159919758Y-71123394D01*
X159975613Y-71179249D01*
X160044022Y-71218745D01*
X160120322Y-71239189D01*
X160199314Y-71239189D01*
X160275614Y-71218745D01*
X160344023Y-71179249D01*
X160399878Y-71123394D01*
X160439374Y-71054985D01*
X160459818Y-70978685D01*
X160459818Y-70939188D01*
X160866924Y-70939188D01*
X160866924Y-70939189D01*
X161127563Y-71199828D01*
X161127564Y-71199828D01*
X161159818Y-71037682D01*
X161159818Y-70840695D01*
X161159817Y-70840693D01*
X161137951Y-70730760D01*
X161127565Y-70678548D01*
X161127563Y-70678548D01*
X160866924Y-70939188D01*
X160459818Y-70939188D01*
X160459818Y-70899693D01*
X160439374Y-70823393D01*
X160399878Y-70754984D01*
X160344023Y-70699129D01*
X160296066Y-70671441D01*
X163399177Y-70671441D01*
X163399177Y-70671442D01*
X163659818Y-70932082D01*
X163659819Y-70932082D01*
X163736935Y-70854966D01*
X165409818Y-70854966D01*
X165409818Y-71223411D01*
X165445931Y-71590081D01*
X165445934Y-71590098D01*
X165517808Y-71951442D01*
X165517811Y-71951453D01*
X165624770Y-72304050D01*
X165763641Y-72639314D01*
X167363766Y-71039190D01*
X167363766Y-71039188D01*
X167249066Y-70924488D01*
X167409818Y-70924488D01*
X167409818Y-71153890D01*
X167439761Y-71381330D01*
X167499135Y-71602915D01*
X167586923Y-71814855D01*
X167701624Y-72013523D01*
X167841275Y-72195520D01*
X168003487Y-72357732D01*
X168185484Y-72497383D01*
X168384152Y-72612084D01*
X168596092Y-72699872D01*
X168817677Y-72759246D01*
X169045117Y-72789189D01*
X169274519Y-72789189D01*
X169501959Y-72759246D01*
X169723544Y-72699872D01*
X169935484Y-72612084D01*
X170134152Y-72497383D01*
X170316149Y-72357732D01*
X170478361Y-72195520D01*
X170618012Y-72013523D01*
X170732713Y-71814855D01*
X170820501Y-71602915D01*
X170879875Y-71381330D01*
X170909818Y-71153890D01*
X170909818Y-71039188D01*
X170955869Y-71039188D01*
X170955869Y-71039190D01*
X172555993Y-72639314D01*
X172694864Y-72304054D01*
X172801824Y-71951453D01*
X172801827Y-71951442D01*
X172873701Y-71590098D01*
X172873704Y-71590081D01*
X172909818Y-71223411D01*
X172909818Y-70854966D01*
X172873704Y-70488296D01*
X172873701Y-70488279D01*
X172801827Y-70126935D01*
X172801824Y-70126924D01*
X172694864Y-69774323D01*
X172555993Y-69439062D01*
X170955869Y-71039188D01*
X170909818Y-71039188D01*
X170909818Y-70924488D01*
X170879875Y-70697048D01*
X170820501Y-70475463D01*
X170732713Y-70263523D01*
X170618012Y-70064855D01*
X170478361Y-69882858D01*
X170316149Y-69720646D01*
X170134152Y-69580995D01*
X169935484Y-69466294D01*
X169723544Y-69378506D01*
X169501959Y-69319132D01*
X169274519Y-69289189D01*
X169045117Y-69289189D01*
X168817677Y-69319132D01*
X168596092Y-69378506D01*
X168384152Y-69466294D01*
X168185484Y-69580995D01*
X168003487Y-69720646D01*
X167841275Y-69882858D01*
X167701624Y-70064855D01*
X167586923Y-70263523D01*
X167499135Y-70475463D01*
X167439761Y-70697048D01*
X167409818Y-70924488D01*
X167249066Y-70924488D01*
X165763641Y-69439062D01*
X165624770Y-69774327D01*
X165517811Y-70126924D01*
X165517808Y-70126935D01*
X165445934Y-70488279D01*
X165445931Y-70488296D01*
X165409818Y-70854966D01*
X163736935Y-70854966D01*
X163827662Y-70764238D01*
X163920457Y-70671442D01*
X163920457Y-70671441D01*
X163758313Y-70639189D01*
X163561322Y-70639189D01*
X163399177Y-70671441D01*
X160296066Y-70671441D01*
X160275614Y-70659633D01*
X160199314Y-70639189D01*
X160120322Y-70639189D01*
X160044022Y-70659633D01*
X159975613Y-70699129D01*
X159919758Y-70754984D01*
X159880262Y-70823393D01*
X159859818Y-70899693D01*
X159413216Y-70899693D01*
X159192071Y-70678548D01*
X159192070Y-70678548D01*
X159159818Y-70840693D01*
X154908412Y-70840693D01*
X154886550Y-70618723D01*
X154881893Y-70571441D01*
X156599177Y-70571441D01*
X156599177Y-70571442D01*
X156859818Y-70832082D01*
X156859819Y-70832082D01*
X156944976Y-70746925D01*
X157120457Y-70571442D01*
X157120457Y-70571441D01*
X156958313Y-70539189D01*
X156761322Y-70539189D01*
X156599177Y-70571441D01*
X154881893Y-70571441D01*
X154873704Y-70488295D01*
X154873701Y-70488279D01*
X154801827Y-70126935D01*
X154801824Y-70126924D01*
X154776234Y-70042564D01*
X154754659Y-69971441D01*
X159899177Y-69971441D01*
X159899177Y-69971442D01*
X160159818Y-70232082D01*
X160159819Y-70232082D01*
X160420457Y-69971442D01*
X160420457Y-69971441D01*
X160258313Y-69939189D01*
X160061322Y-69939189D01*
X159899177Y-69971441D01*
X154754659Y-69971441D01*
X154694864Y-69774323D01*
X154555993Y-69439062D01*
X152955869Y-71039188D01*
X152909818Y-71039188D01*
X152909818Y-70924488D01*
X152879875Y-70697048D01*
X152820501Y-70475463D01*
X152732713Y-70263523D01*
X152618012Y-70064855D01*
X152478361Y-69882858D01*
X152316149Y-69720646D01*
X152134152Y-69580995D01*
X151935484Y-69466294D01*
X151723544Y-69378506D01*
X151501959Y-69319132D01*
X151274519Y-69289189D01*
X151045117Y-69289189D01*
X150817677Y-69319132D01*
X150596092Y-69378506D01*
X150384152Y-69466294D01*
X150185484Y-69580995D01*
X150003487Y-69720646D01*
X149841275Y-69882858D01*
X149701624Y-70064855D01*
X149586923Y-70263523D01*
X149499135Y-70475463D01*
X149439761Y-70697048D01*
X149409818Y-70924488D01*
X149249066Y-70924488D01*
X147763641Y-69439062D01*
X147624770Y-69774327D01*
X147517811Y-70126924D01*
X147517808Y-70126935D01*
X147445934Y-70488279D01*
X147445931Y-70488296D01*
X147409818Y-70854966D01*
X126905798Y-70854966D01*
X126899704Y-70793096D01*
X126899701Y-70793079D01*
X126827827Y-70431735D01*
X126827824Y-70431724D01*
X126720864Y-70079123D01*
X126581993Y-69743862D01*
X124981869Y-71343988D01*
X124935818Y-71343988D01*
X124935818Y-71229288D01*
X124905875Y-71001848D01*
X124846501Y-70780263D01*
X124758713Y-70568323D01*
X124644012Y-70369655D01*
X124504361Y-70187658D01*
X124342149Y-70025446D01*
X124160152Y-69885795D01*
X123961484Y-69771094D01*
X123749544Y-69683306D01*
X123527959Y-69623932D01*
X123300519Y-69593989D01*
X123071117Y-69593989D01*
X122843677Y-69623932D01*
X122622092Y-69683306D01*
X122410152Y-69771094D01*
X122211484Y-69885795D01*
X122029487Y-70025446D01*
X121867275Y-70187658D01*
X121727624Y-70369655D01*
X121612923Y-70568323D01*
X121525135Y-70780263D01*
X121465761Y-71001848D01*
X121435818Y-71229288D01*
X121275066Y-71229288D01*
X119789641Y-69743862D01*
X119650770Y-70079127D01*
X119543811Y-70431724D01*
X119543808Y-70431735D01*
X119471934Y-70793079D01*
X119471931Y-70793096D01*
X119435818Y-71159766D01*
X117762935Y-71159766D01*
X117853662Y-71069038D01*
X117946457Y-70976242D01*
X117946457Y-70976241D01*
X117784313Y-70943989D01*
X117587322Y-70943989D01*
X117425177Y-70976241D01*
X114322066Y-70976241D01*
X114301614Y-70964433D01*
X114225314Y-70943989D01*
X114146322Y-70943989D01*
X114070022Y-70964433D01*
X114001613Y-71003929D01*
X113945758Y-71059784D01*
X113906262Y-71128193D01*
X113885818Y-71204493D01*
X113439216Y-71204493D01*
X113218071Y-70983348D01*
X113218070Y-70983348D01*
X113185818Y-71145493D01*
X108934412Y-71145493D01*
X108912550Y-70923523D01*
X108907893Y-70876241D01*
X110625177Y-70876241D01*
X110625177Y-70876242D01*
X110885818Y-71136882D01*
X110885819Y-71136882D01*
X110970976Y-71051725D01*
X111146457Y-70876242D01*
X111146457Y-70876241D01*
X110984313Y-70843989D01*
X110787322Y-70843989D01*
X110625177Y-70876241D01*
X108907893Y-70876241D01*
X108899704Y-70793095D01*
X108899701Y-70793079D01*
X108827827Y-70431735D01*
X108827824Y-70431724D01*
X108802234Y-70347364D01*
X108780659Y-70276241D01*
X113925177Y-70276241D01*
X113925177Y-70276242D01*
X114185818Y-70536882D01*
X114185819Y-70536882D01*
X114446457Y-70276242D01*
X114446457Y-70276241D01*
X114284313Y-70243989D01*
X114087322Y-70243989D01*
X113925177Y-70276241D01*
X108780659Y-70276241D01*
X108720864Y-70079123D01*
X108581993Y-69743862D01*
X106981869Y-71343988D01*
X106935818Y-71343988D01*
X106935818Y-71229288D01*
X106905875Y-71001848D01*
X106846501Y-70780263D01*
X106758713Y-70568323D01*
X106644012Y-70369655D01*
X106504361Y-70187658D01*
X106342149Y-70025446D01*
X106160152Y-69885795D01*
X105961484Y-69771094D01*
X105749544Y-69683306D01*
X105527959Y-69623932D01*
X105300519Y-69593989D01*
X105071117Y-69593989D01*
X104843677Y-69623932D01*
X104622092Y-69683306D01*
X104410152Y-69771094D01*
X104211484Y-69885795D01*
X104029487Y-70025446D01*
X103867275Y-70187658D01*
X103727624Y-70369655D01*
X103612923Y-70568323D01*
X103525135Y-70780263D01*
X103465761Y-71001848D01*
X103435818Y-71229288D01*
X103275066Y-71229288D01*
X101789641Y-69743862D01*
X101650770Y-70079127D01*
X101543811Y-70431724D01*
X101543808Y-70431735D01*
X101471934Y-70793079D01*
X101471931Y-70793096D01*
X101435818Y-71159766D01*
X93567239Y-71159766D01*
X93570881Y-70969664D01*
X93571414Y-70960317D01*
X93617025Y-70480235D01*
X93618258Y-70470989D01*
X93699986Y-69995720D01*
X93701916Y-69986579D01*
X93819297Y-69518830D01*
X93821916Y-69509847D01*
X93845487Y-69439062D01*
X93974277Y-69052297D01*
X93977550Y-69043582D01*
X94164024Y-68598832D01*
X94167954Y-68590370D01*
X94387471Y-68160979D01*
X94392047Y-68152808D01*
X94416804Y-68112261D01*
X94517213Y-67947812D01*
X103585691Y-67947812D01*
X105185817Y-69547937D01*
X106785943Y-67947812D01*
X121585691Y-67947812D01*
X123185817Y-69547937D01*
X124785943Y-67947812D01*
X124450679Y-67808941D01*
X124429404Y-67802488D01*
X124098082Y-67701982D01*
X124098071Y-67701979D01*
X123801616Y-67643012D01*
X149559691Y-67643012D01*
X151159817Y-69243137D01*
X152759943Y-67643012D01*
X167559691Y-67643012D01*
X169159817Y-69243137D01*
X170759943Y-67643012D01*
X170424679Y-67504141D01*
X170072082Y-67397182D01*
X170072071Y-67397179D01*
X169710727Y-67325305D01*
X169710710Y-67325302D01*
X169344041Y-67289189D01*
X168975595Y-67289189D01*
X168608925Y-67325302D01*
X168608908Y-67325305D01*
X168247564Y-67397179D01*
X168247553Y-67397182D01*
X167894956Y-67504141D01*
X167559691Y-67643012D01*
X152759943Y-67643012D01*
X152424679Y-67504141D01*
X152072082Y-67397182D01*
X152072071Y-67397179D01*
X151710727Y-67325305D01*
X151710710Y-67325302D01*
X151344041Y-67289189D01*
X150975595Y-67289189D01*
X150608925Y-67325302D01*
X150608908Y-67325305D01*
X150247564Y-67397179D01*
X150247553Y-67397182D01*
X149894956Y-67504141D01*
X149559691Y-67643012D01*
X123801616Y-67643012D01*
X123736727Y-67630105D01*
X123736710Y-67630102D01*
X123370041Y-67593989D01*
X123001595Y-67593989D01*
X122634925Y-67630102D01*
X122634908Y-67630105D01*
X122273564Y-67701979D01*
X122273553Y-67701982D01*
X121920956Y-67808941D01*
X121585691Y-67947812D01*
X106785943Y-67947812D01*
X106450679Y-67808941D01*
X106098082Y-67701982D01*
X106098071Y-67701979D01*
X105736727Y-67630105D01*
X105736710Y-67630102D01*
X105370041Y-67593989D01*
X105001595Y-67593989D01*
X104634925Y-67630102D01*
X104634908Y-67630105D01*
X104273564Y-67701979D01*
X104273553Y-67701982D01*
X103920956Y-67808941D01*
X103585691Y-67947812D01*
X94517213Y-67947812D01*
X94643356Y-67741217D01*
X94648505Y-67733460D01*
X94930173Y-67342019D01*
X94935928Y-67334628D01*
X94982222Y-67279589D01*
X95246342Y-66965574D01*
X95252606Y-66958673D01*
X95590014Y-66614095D01*
X95596800Y-66607669D01*
X95959239Y-66289568D01*
X95966489Y-66283674D01*
X96351923Y-65993836D01*
X96359587Y-65988515D01*
X96765827Y-65728590D01*
X96773857Y-65723870D01*
X97198548Y-65495367D01*
X97206900Y-65491271D01*
X97647656Y-65295474D01*
X97656317Y-65292012D01*
X98110553Y-65130067D01*
X98119478Y-65127262D01*
X98584640Y-65000075D01*
X98593746Y-64997951D01*
X99067192Y-64906246D01*
X99076412Y-64904820D01*
X99555445Y-64849121D01*
X99564737Y-64848394D01*
X100048821Y-64828934D01*
X100053800Y-64828835D01*
X174392046Y-64837826D01*
G37*
%TD.AperFunction*%
%TD*%
M02*
