M48
; DRILL file {KiCad 9.0.2-9.0.2-0~ubuntu24.04.1} date 2025-07-07T13:30:36-0400
; FORMAT={-:-/ absolute / inch / decimal}
; #@! TF.CreationDate,2025-07-07T13:30:36-04:00
; #@! TF.GenerationSoftware,Kicad,Pcbnew,9.0.2-9.0.2-0~ubuntu24.04.1
; #@! TF.FileFunction,Plated,1,2,PTH
FMAT,2
INCH
; #@! TA.AperFunction,Plated,PTH,ViaDrill
T1C0.0197
; #@! TA.AperFunction,Plated,PTH,ComponentDrill
T2C0.0236
; #@! TA.AperFunction,Plated,PTH,ComponentDrill
T3C0.0433
; #@! TA.AperFunction,Plated,PTH,ComponentDrill
T4C0.0512
; #@! TA.AperFunction,Plated,PTH,ComponentDrill
T5C0.0787
; #@! TA.AperFunction,Plated,PTH,ComponentDrill
T6C0.1378
%
G90
G05
T1
X3.7126Y-3.9213
X3.7126Y-4.1181
X3.7165Y-2.7835
X3.7165Y-3.4882
X3.7165Y-4.3504
X3.7205Y-3.1457
X3.7205Y-4.7244
X3.7756Y-5.2244
X3.8071Y-2.6575
X4.0551Y-3.9409
X4.124Y-4.1882
X4.1264Y-4.0831
X4.1276Y-3.7222
X4.1276Y-3.8122
X4.1457Y-2.5866
X4.2953Y-5.2874
X4.4537Y-4.3793
X4.4803Y-2.5827
X4.6467Y-3.5195
X4.8307Y-5.2829
X4.8465Y-2.5827
X4.8602Y-4.1039
X4.8612Y-3.7787
X4.9502Y-4.1039
X4.9512Y-3.7787
X5.0315Y-2.5838
X5.0402Y-4.1039
X5.0412Y-3.7787
X5.1302Y-4.1039
X5.1312Y-3.7787
X5.2622Y-3.6201
X5.3976Y-5.2795
X5.4Y-3.73
X5.4Y-4.0856
X5.4646Y-2.5787
X5.6496Y-3.62
X5.6756Y-4.1067
X5.6772Y-3.7756
X5.7656Y-4.1067
X5.7672Y-3.7756
X5.7677Y-2.5956
X5.8556Y-4.1067
X5.8572Y-3.7756
X5.9456Y-4.1067
X5.9472Y-3.7756
X5.9488Y-2.5906
X5.9488Y-5.2795
X6.1508Y-3.5114
X6.315Y-2.5906
X6.3457Y-4.3673
X6.474Y-3.6291
X6.4961Y-5.2913
X6.6417Y-3.6878
X6.6575Y-2.5945
X6.6772Y-4.1874
X6.6811Y-4.0732
X6.6815Y-3.8067
X6.7697Y-3.94
X6.9297Y-4.1417
X7.0039Y-2.6457
X7.0236Y-5.2205
X7.0787Y-3.9331
X7.0787Y-4.1417
X7.0827Y-2.7953
X7.0827Y-3.5
X7.0827Y-4.3622
X7.0866Y-3.1575
X7.0866Y-4.7126
T2
X3.9397Y-4.7146
X3.9672Y-4.5808
X3.9712Y-4.8563
X4.1412Y-3.1631
X4.1562Y-5.0453
X4.1687Y-3.0254
X4.1687Y-3.297
X4.294Y-5.0729
X4.3656Y-2.8285
X4.4239Y-5.0493
X4.4955Y-2.8049
X4.6208Y-4.5808
X4.6208Y-4.8524
X4.6333Y-2.8324
X4.6483Y-4.7146
X4.8183Y-3.0214
X4.8223Y-3.297
X4.8498Y-3.1631
X5.9512Y-3.1511
X5.9787Y-3.0134
X5.9787Y-3.285
X6.1547Y-4.7146
X6.1756Y-2.8165
X6.1822Y-4.5808
X6.1862Y-4.8563
X6.3055Y-2.7929
X6.3712Y-5.0453
X6.4433Y-2.8204
X6.509Y-5.0729
X6.6283Y-3.0094
X6.6323Y-3.285
X6.6389Y-5.0493
X6.6598Y-3.1511
X6.8358Y-4.5808
X6.8358Y-4.8524
X6.8633Y-4.7146
T3
X5.4087Y-3.1701
X5.5087Y-3.1701
T4
X4.2937Y-3.7894
X4.2937Y-4.0846
X4.4906Y-3.7894
X4.4906Y-4.0846
X4.6874Y-3.7894
X4.6874Y-4.0846
X5.278Y-3.7894
X5.278Y-4.0846
X5.5256Y-3.7894
X5.5256Y-4.0846
X6.1161Y-3.7894
X6.1161Y-4.0846
X6.313Y-3.7894
X6.313Y-4.0846
X6.5098Y-3.7894
X6.5098Y-4.0846
T5
X4.294Y-4.3
X4.49Y-3.6
X6.311Y-3.6
X6.509Y-4.28
T6
X3.9397Y-4.3603
X3.9397Y-5.0689
X4.1412Y-2.8088
X4.1412Y-3.5175
X4.6483Y-4.3603
X4.6483Y-5.0689
X4.8498Y-2.8088
X4.8498Y-3.5175
X5.9512Y-2.7968
X5.9512Y-3.5055
X6.1547Y-4.3603
X6.1547Y-5.0689
X6.6598Y-2.7968
X6.6598Y-3.5055
X6.8633Y-4.3603
X6.8633Y-5.0689
M30
