%TF.GenerationSoftware,KiCad,Pcbnew,9.0.3-9.0.3-0~ubuntu24.04.1*%
%TF.CreationDate,2025-07-11T09:40:36-04:00*%
%TF.ProjectId,SO4R_Interlock,534f3452-5f49-46e7-9465-726c6f636b2e,rev?*%
%TF.SameCoordinates,Original*%
%TF.FileFunction,Soldermask,Top*%
%TF.FilePolarity,Negative*%
%FSLAX46Y46*%
G04 Gerber Fmt 4.6, Leading zero omitted, Abs format (unit mm)*
G04 Created by KiCad (PCBNEW 9.0.3-9.0.3-0~ubuntu24.04.1) date 2025-07-11 09:40:36*
%MOMM*%
%LPD*%
G01*
G04 APERTURE LIST*
G04 Aperture macros list*
%AMRoundRect*
0 Rectangle with rounded corners*
0 $1 Rounding radius*
0 $2 $3 $4 $5 $6 $7 $8 $9 X,Y pos of 4 corners*
0 Add a 4 corners polygon primitive as box body*
4,1,4,$2,$3,$4,$5,$6,$7,$8,$9,$2,$3,0*
0 Add four circle primitives for the rounded corners*
1,1,$1+$1,$2,$3*
1,1,$1+$1,$4,$5*
1,1,$1+$1,$6,$7*
1,1,$1+$1,$8,$9*
0 Add four rect primitives between the rounded corners*
20,1,$1+$1,$2,$3,$4,$5,0*
20,1,$1+$1,$4,$5,$6,$7,0*
20,1,$1+$1,$6,$7,$8,$9,0*
20,1,$1+$1,$8,$9,$2,$3,0*%
G04 Aperture macros list end*
%ADD10RoundRect,0.140000X-0.140000X-0.170000X0.140000X-0.170000X0.140000X0.170000X-0.140000X0.170000X0*%
%ADD11RoundRect,0.135000X0.135000X0.185000X-0.135000X0.185000X-0.135000X-0.185000X0.135000X-0.185000X0*%
%ADD12RoundRect,0.135000X-0.135000X-0.185000X0.135000X-0.185000X0.135000X0.185000X-0.135000X0.185000X0*%
%ADD13R,1.500000X1.500000*%
%ADD14C,1.500000*%
%ADD15C,2.570000*%
%ADD16RoundRect,0.140000X0.170000X-0.140000X0.170000X0.140000X-0.170000X0.140000X-0.170000X-0.140000X0*%
%ADD17RoundRect,0.147500X0.147500X0.172500X-0.147500X0.172500X-0.147500X-0.172500X0.147500X-0.172500X0*%
%ADD18RoundRect,0.218750X-0.218750X-0.256250X0.218750X-0.256250X0.218750X0.256250X-0.218750X0.256250X0*%
%ADD19RoundRect,0.140000X0.140000X0.170000X-0.140000X0.170000X-0.140000X-0.170000X0.140000X-0.170000X0*%
%ADD20RoundRect,0.150000X-0.512500X-0.150000X0.512500X-0.150000X0.512500X0.150000X-0.512500X0.150000X0*%
%ADD21R,1.700000X1.700000*%
%ADD22C,1.700000*%
%ADD23RoundRect,0.218750X-0.218750X-0.381250X0.218750X-0.381250X0.218750X0.381250X-0.218750X0.381250X0*%
%ADD24RoundRect,0.150000X-0.422500X0.150000X-0.422500X-0.150000X0.422500X-0.150000X0.422500X0.150000X0*%
%ADD25RoundRect,0.150000X-0.470000X0.150000X-0.470000X-0.150000X0.470000X-0.150000X0.470000X0.150000X0*%
%ADD26R,1.240000X0.300000*%
%ADD27O,2.100000X1.000000*%
%ADD28O,1.800000X1.000000*%
%ADD29RoundRect,0.075000X-0.200000X0.075000X-0.200000X-0.075000X0.200000X-0.075000X0.200000X0.075000X0*%
%ADD30RoundRect,0.112500X-0.112500X0.187500X-0.112500X-0.187500X0.112500X-0.187500X0.112500X0.187500X0*%
%ADD31RoundRect,0.140000X-0.170000X0.140000X-0.170000X-0.140000X0.170000X-0.140000X0.170000X0.140000X0*%
%ADD32RoundRect,0.150000X-0.587500X-0.150000X0.587500X-0.150000X0.587500X0.150000X-0.587500X0.150000X0*%
%ADD33RoundRect,0.112500X0.112500X-0.187500X0.112500X0.187500X-0.112500X0.187500X-0.112500X-0.187500X0*%
%ADD34RoundRect,0.075000X-0.662500X-0.075000X0.662500X-0.075000X0.662500X0.075000X-0.662500X0.075000X0*%
%ADD35RoundRect,0.075000X-0.075000X-0.662500X0.075000X-0.662500X0.075000X0.662500X-0.075000X0.662500X0*%
%ADD36RoundRect,0.218750X0.218750X0.256250X-0.218750X0.256250X-0.218750X-0.256250X0.218750X-0.256250X0*%
%ADD37R,0.400000X1.200000*%
%ADD38C,2.300000*%
G04 APERTURE END LIST*
D10*
%TO.C,C12*%
X116995000Y-100990000D03*
X117955000Y-100990000D03*
%TD*%
%TO.C,C19*%
X150720000Y-131500000D03*
X151680000Y-131500000D03*
%TD*%
D11*
%TO.C,R12*%
X118510000Y-81400000D03*
X117490000Y-81400000D03*
%TD*%
D12*
%TO.C,R33*%
X148100000Y-82100000D03*
X149120000Y-82100000D03*
%TD*%
D13*
%TO.C,J7*%
X160940000Y-115650000D03*
D14*
X162720000Y-114634000D03*
X160940000Y-113618000D03*
X162720000Y-112602000D03*
X160940000Y-111586000D03*
X162720000Y-110570000D03*
X160940000Y-109554000D03*
X162720000Y-108538000D03*
X167540000Y-118950000D03*
X167540000Y-116660000D03*
X167540000Y-107520000D03*
X167540000Y-105230000D03*
X160940000Y-99900000D03*
X162720000Y-98884000D03*
X160940000Y-97868000D03*
X162720000Y-96852000D03*
X160940000Y-95836000D03*
X162720000Y-94820000D03*
X160940000Y-93804000D03*
X162720000Y-92788000D03*
X167540000Y-103200000D03*
X167540000Y-100910000D03*
X167540000Y-91770000D03*
X167540000Y-89480000D03*
X160940000Y-84150000D03*
X162720000Y-83134000D03*
X160940000Y-82118000D03*
X162720000Y-81102000D03*
X160940000Y-80086000D03*
X162720000Y-79070000D03*
X160940000Y-78054000D03*
X162720000Y-77038000D03*
X167540000Y-87450000D03*
X167540000Y-85160000D03*
X167540000Y-76020000D03*
X167540000Y-73730000D03*
X160940000Y-68400000D03*
X162720000Y-67384000D03*
X160940000Y-66368000D03*
X162720000Y-65352000D03*
X160940000Y-64336000D03*
X162720000Y-63320000D03*
X160940000Y-62304000D03*
X162720000Y-61288000D03*
X167540000Y-71700000D03*
X167540000Y-69410000D03*
X167540000Y-60270000D03*
X167540000Y-57980000D03*
D15*
X161830000Y-120220000D03*
X168560000Y-96340000D03*
X168560000Y-80590000D03*
X161830000Y-56720000D03*
%TD*%
D10*
%TO.C,C37*%
X150800000Y-84100000D03*
X151760000Y-84100000D03*
%TD*%
D16*
%TO.C,C7*%
X114600000Y-95780000D03*
X114600000Y-94820000D03*
%TD*%
D11*
%TO.C,R43*%
X151710000Y-70300000D03*
X150690000Y-70300000D03*
%TD*%
D17*
%TO.C,D7*%
X116047500Y-118162500D03*
X115077500Y-118162500D03*
%TD*%
D12*
%TO.C,R20*%
X123475000Y-116500000D03*
X124495000Y-116500000D03*
%TD*%
D10*
%TO.C,C10*%
X117020000Y-69300000D03*
X117980000Y-69300000D03*
%TD*%
D11*
%TO.C,R21*%
X119310000Y-107820000D03*
X118290000Y-107820000D03*
%TD*%
%TO.C,R9*%
X117972500Y-116562500D03*
X116952500Y-116562500D03*
%TD*%
D18*
%TO.C,D15*%
X118012500Y-106220000D03*
X119587500Y-106220000D03*
%TD*%
%TO.C,D13*%
X117562500Y-118162500D03*
X119137500Y-118162500D03*
%TD*%
D11*
%TO.C,R10*%
X118720000Y-65100000D03*
X117700000Y-65100000D03*
%TD*%
D10*
%TO.C,C36*%
X150720000Y-68400000D03*
X151680000Y-68400000D03*
%TD*%
D19*
%TO.C,C16*%
X122680000Y-107620000D03*
X121720000Y-107620000D03*
%TD*%
D20*
%TO.C,U6*%
X122700000Y-72800000D03*
X122700000Y-73750000D03*
X122700000Y-74700000D03*
X124975000Y-74700000D03*
X124975000Y-72800000D03*
%TD*%
D21*
%TO.C,J5*%
X133110000Y-109890000D03*
D22*
X130570000Y-109890000D03*
X128030000Y-109890000D03*
%TD*%
D23*
%TO.C,FB4*%
X113100000Y-69300000D03*
X115225000Y-69300000D03*
%TD*%
D17*
%TO.C,D5*%
X116385000Y-86600000D03*
X115415000Y-86600000D03*
%TD*%
D12*
%TO.C,R29*%
X148200000Y-66400000D03*
X149220000Y-66400000D03*
%TD*%
%TO.C,R27*%
X148190000Y-62300000D03*
X149210000Y-62300000D03*
%TD*%
D24*
%TO.C,J4*%
X111172500Y-108880000D03*
D25*
X111125000Y-109680000D03*
D26*
X111125000Y-110830000D03*
X111125000Y-111830000D03*
X111125000Y-112330000D03*
X111125000Y-113330000D03*
D25*
X111125000Y-114480000D03*
D24*
X111172500Y-115280000D03*
X111172500Y-115280000D03*
D25*
X111125000Y-114480000D03*
D26*
X111125000Y-113830000D03*
X111125000Y-112830000D03*
X111125000Y-111330000D03*
X111125000Y-110330000D03*
D25*
X111125000Y-109680000D03*
D24*
X111172500Y-108880000D03*
D27*
X110525000Y-107760000D03*
D28*
X106325000Y-107760000D03*
D27*
X110525000Y-116400000D03*
D28*
X106325000Y-116400000D03*
%TD*%
D29*
%TO.C,U10*%
X145415000Y-80100000D03*
X145415000Y-80600000D03*
X145415000Y-81100000D03*
X145415000Y-81600000D03*
X145415000Y-82100000D03*
X146185000Y-82100000D03*
X146185000Y-81600000D03*
X146185000Y-81100000D03*
X146185000Y-80600000D03*
X146185000Y-80100000D03*
%TD*%
D11*
%TO.C,R13*%
X118510000Y-80000000D03*
X117490000Y-80000000D03*
%TD*%
D10*
%TO.C,C21*%
X150640000Y-133550000D03*
X151600000Y-133550000D03*
%TD*%
D19*
%TO.C,C15*%
X123880000Y-91700000D03*
X122920000Y-91700000D03*
%TD*%
D11*
%TO.C,R16*%
X118125000Y-112720000D03*
X117105000Y-112720000D03*
%TD*%
D10*
%TO.C,C26*%
X150600000Y-93800000D03*
X151560000Y-93800000D03*
%TD*%
D12*
%TO.C,R4*%
X105990000Y-74470000D03*
X107010000Y-74470000D03*
%TD*%
D30*
%TO.C,D11*%
X116100000Y-97240000D03*
X116100000Y-99340000D03*
%TD*%
D31*
%TO.C,C1*%
X114700000Y-65120000D03*
X114700000Y-66080000D03*
%TD*%
D10*
%TO.C,C32*%
X150720000Y-66400000D03*
X151680000Y-66400000D03*
%TD*%
D11*
%TO.C,R23*%
X125910000Y-76100000D03*
X124890000Y-76100000D03*
%TD*%
D10*
%TO.C,C22*%
X150640000Y-135600000D03*
X151600000Y-135600000D03*
%TD*%
D12*
%TO.C,R18*%
X124190000Y-106900000D03*
X125210000Y-106900000D03*
%TD*%
D11*
%TO.C,R49*%
X151610000Y-117650000D03*
X150590000Y-117650000D03*
%TD*%
D16*
%TO.C,C6*%
X114500000Y-80000000D03*
X114500000Y-79040000D03*
%TD*%
D12*
%TO.C,R39*%
X148000000Y-109600000D03*
X149020000Y-109600000D03*
%TD*%
D16*
%TO.C,C17*%
X143650000Y-89780000D03*
X143650000Y-88820000D03*
%TD*%
D32*
%TO.C,Q4*%
X146312500Y-134650000D03*
X146312500Y-136550000D03*
X148187500Y-135600000D03*
%TD*%
D11*
%TO.C,R24*%
X126110000Y-91700000D03*
X125090000Y-91700000D03*
%TD*%
D23*
%TO.C,FB1*%
X113000000Y-85060000D03*
X115125000Y-85060000D03*
%TD*%
D12*
%TO.C,R40*%
X148000000Y-111600000D03*
X149020000Y-111600000D03*
%TD*%
D23*
%TO.C,FB2*%
X113100000Y-100990000D03*
X115225000Y-100990000D03*
%TD*%
D12*
%TO.C,R1*%
X108700000Y-58600000D03*
X109720000Y-58600000D03*
%TD*%
D17*
%TO.C,D6*%
X116185000Y-102400000D03*
X115215000Y-102400000D03*
%TD*%
D32*
%TO.C,Q8*%
X141312500Y-95350000D03*
X141312500Y-97250000D03*
X143187500Y-96300000D03*
%TD*%
D30*
%TO.C,D10*%
X116000000Y-81410000D03*
X116000000Y-83510000D03*
%TD*%
D32*
%TO.C,Q6*%
X141312500Y-63850000D03*
X141312500Y-65750000D03*
X143187500Y-64800000D03*
%TD*%
D11*
%TO.C,R26*%
X151700000Y-127500000D03*
X150680000Y-127500000D03*
%TD*%
D24*
%TO.C,J2*%
X111172500Y-77480000D03*
D25*
X111125000Y-78280000D03*
D26*
X111125000Y-79430000D03*
X111125000Y-80430000D03*
X111125000Y-80930000D03*
X111125000Y-81930000D03*
D25*
X111125000Y-83080000D03*
D24*
X111172500Y-83880000D03*
X111172500Y-83880000D03*
D25*
X111125000Y-83080000D03*
D26*
X111125000Y-82430000D03*
X111125000Y-81430000D03*
X111125000Y-79930000D03*
X111125000Y-78930000D03*
D25*
X111125000Y-78280000D03*
D24*
X111172500Y-77480000D03*
D27*
X110525000Y-76360000D03*
D28*
X106325000Y-76360000D03*
D27*
X110525000Y-85000000D03*
D28*
X106325000Y-85000000D03*
%TD*%
D19*
%TO.C,C23*%
X137980000Y-82150000D03*
X137020000Y-82150000D03*
%TD*%
D10*
%TO.C,C24*%
X150720000Y-62300000D03*
X151680000Y-62300000D03*
%TD*%
D12*
%TO.C,R2*%
X106065000Y-58600000D03*
X107085000Y-58600000D03*
%TD*%
D10*
%TO.C,C31*%
X150620000Y-111600000D03*
X151580000Y-111600000D03*
%TD*%
D12*
%TO.C,R41*%
X147990000Y-113600000D03*
X149010000Y-113600000D03*
%TD*%
D19*
%TO.C,C13*%
X123880000Y-60000000D03*
X122920000Y-60000000D03*
%TD*%
D12*
%TO.C,R38*%
X147800000Y-99900000D03*
X148820000Y-99900000D03*
%TD*%
%TO.C,R32*%
X148080000Y-80100000D03*
X149100000Y-80100000D03*
%TD*%
D10*
%TO.C,C27*%
X150600000Y-109600000D03*
X151560000Y-109600000D03*
%TD*%
%TO.C,C29*%
X150700000Y-80100000D03*
X151660000Y-80100000D03*
%TD*%
D12*
%TO.C,R35*%
X147900000Y-93800000D03*
X148920000Y-93800000D03*
%TD*%
D31*
%TO.C,C3*%
X114600000Y-97220000D03*
X114600000Y-98180000D03*
%TD*%
D10*
%TO.C,C11*%
X116895000Y-85060000D03*
X117855000Y-85060000D03*
%TD*%
D11*
%TO.C,R15*%
X118610000Y-95900000D03*
X117590000Y-95900000D03*
%TD*%
D10*
%TO.C,C25*%
X150720000Y-78100000D03*
X151680000Y-78100000D03*
%TD*%
D33*
%TO.C,D2*%
X116000000Y-80010000D03*
X116000000Y-77910000D03*
%TD*%
D20*
%TO.C,U7*%
X122825000Y-87600000D03*
X122825000Y-88550000D03*
X122825000Y-89500000D03*
X125100000Y-89500000D03*
X125100000Y-87600000D03*
%TD*%
D11*
%TO.C,R17*%
X118125000Y-111520000D03*
X117105000Y-111520000D03*
%TD*%
D10*
%TO.C,C39*%
X150600000Y-115600000D03*
X151560000Y-115600000D03*
%TD*%
D12*
%TO.C,R28*%
X148200000Y-64300000D03*
X149220000Y-64300000D03*
%TD*%
%TO.C,R6*%
X106190000Y-89700000D03*
X107210000Y-89700000D03*
%TD*%
D16*
%TO.C,C8*%
X114115000Y-111400000D03*
X114115000Y-110440000D03*
%TD*%
D33*
%TO.C,D1*%
X116200000Y-63800000D03*
X116200000Y-61700000D03*
%TD*%
D34*
%TO.C,U8*%
X133337500Y-85587500D03*
X133337500Y-86087500D03*
X133337500Y-86587500D03*
X133337500Y-87087500D03*
X133337500Y-87587500D03*
X133337500Y-88087500D03*
X133337500Y-88587500D03*
X133337500Y-89087500D03*
X133337500Y-89587500D03*
X133337500Y-90087500D03*
X133337500Y-90587500D03*
X133337500Y-91087500D03*
D35*
X134750000Y-92500000D03*
X135250000Y-92500000D03*
X135750000Y-92500000D03*
X136250000Y-92500000D03*
X136750000Y-92500000D03*
X137250000Y-92500000D03*
X137750000Y-92500000D03*
X138250000Y-92500000D03*
X138750000Y-92500000D03*
X139250000Y-92500000D03*
X139750000Y-92500000D03*
X140250000Y-92500000D03*
D34*
X141662500Y-91087500D03*
X141662500Y-90587500D03*
X141662500Y-90087500D03*
X141662500Y-89587500D03*
X141662500Y-89087500D03*
X141662500Y-88587500D03*
X141662500Y-88087500D03*
X141662500Y-87587500D03*
X141662500Y-87087500D03*
X141662500Y-86587500D03*
X141662500Y-86087500D03*
X141662500Y-85587500D03*
D35*
X140250000Y-84175000D03*
X139750000Y-84175000D03*
X139250000Y-84175000D03*
X138750000Y-84175000D03*
X138250000Y-84175000D03*
X137750000Y-84175000D03*
X137250000Y-84175000D03*
X136750000Y-84175000D03*
X136250000Y-84175000D03*
X135750000Y-84175000D03*
X135250000Y-84175000D03*
X134750000Y-84175000D03*
%TD*%
D16*
%TO.C,C5*%
X114700000Y-63780000D03*
X114700000Y-62820000D03*
%TD*%
D10*
%TO.C,C30*%
X150600000Y-95800000D03*
X151560000Y-95800000D03*
%TD*%
D32*
%TO.C,Q5*%
X141312500Y-111250000D03*
X141312500Y-113150000D03*
X143187500Y-112200000D03*
%TD*%
D36*
%TO.C,D14*%
X124475000Y-117800000D03*
X122900000Y-117800000D03*
%TD*%
D12*
%TO.C,R34*%
X148100000Y-84100000D03*
X149120000Y-84100000D03*
%TD*%
%TO.C,R30*%
X148190000Y-68400000D03*
X149210000Y-68400000D03*
%TD*%
D37*
%TO.C,U4*%
X124222500Y-109490000D03*
X123587500Y-109490000D03*
X122952500Y-109490000D03*
X122317500Y-109490000D03*
X121682500Y-109490000D03*
X121047500Y-109490000D03*
X120412500Y-109490000D03*
X119777500Y-109490000D03*
X119777500Y-114690000D03*
X120412500Y-114690000D03*
X121047500Y-114690000D03*
X121682500Y-114690000D03*
X122317500Y-114690000D03*
X122952500Y-114690000D03*
X123587500Y-114690000D03*
X124222500Y-114690000D03*
%TD*%
D17*
%TO.C,D8*%
X116285000Y-70800000D03*
X115315000Y-70800000D03*
%TD*%
D37*
%TO.C,U1*%
X125322500Y-62000000D03*
X124687500Y-62000000D03*
X124052500Y-62000000D03*
X123417500Y-62000000D03*
X122782500Y-62000000D03*
X122147500Y-62000000D03*
X121512500Y-62000000D03*
X120877500Y-62000000D03*
X120877500Y-67200000D03*
X121512500Y-67200000D03*
X122147500Y-67200000D03*
X122782500Y-67200000D03*
X123417500Y-67200000D03*
X124052500Y-67200000D03*
X124687500Y-67200000D03*
X125322500Y-67200000D03*
%TD*%
D12*
%TO.C,R36*%
X147880000Y-95800000D03*
X148900000Y-95800000D03*
%TD*%
D31*
%TO.C,C4*%
X114115000Y-112740000D03*
X114115000Y-113700000D03*
%TD*%
D11*
%TO.C,R48*%
X151610000Y-92300000D03*
X150590000Y-92300000D03*
%TD*%
D10*
%TO.C,C33*%
X150700000Y-82100000D03*
X151660000Y-82100000D03*
%TD*%
D12*
%TO.C,R31*%
X148110000Y-78100000D03*
X149130000Y-78100000D03*
%TD*%
D10*
%TO.C,C35*%
X150620000Y-113600000D03*
X151580000Y-113600000D03*
%TD*%
D11*
%TO.C,R22*%
X125920000Y-60000000D03*
X124900000Y-60000000D03*
%TD*%
D31*
%TO.C,C2*%
X114500000Y-81420000D03*
X114500000Y-82380000D03*
%TD*%
D29*
%TO.C,U12*%
X145415000Y-111700000D03*
X145415000Y-112200000D03*
X145415000Y-112700000D03*
X145415000Y-113200000D03*
X145415000Y-113700000D03*
X146185000Y-113700000D03*
X146185000Y-113200000D03*
X146185000Y-112700000D03*
X146185000Y-112200000D03*
X146185000Y-111700000D03*
%TD*%
D10*
%TO.C,C9*%
X121405000Y-116466250D03*
X122365000Y-116466250D03*
%TD*%
D24*
%TO.C,J1*%
X111172500Y-61700000D03*
D25*
X111125000Y-62500000D03*
D26*
X111125000Y-63650000D03*
X111125000Y-64650000D03*
X111125000Y-65150000D03*
X111125000Y-66150000D03*
D25*
X111125000Y-67300000D03*
D24*
X111172500Y-68100000D03*
X111172500Y-68100000D03*
D25*
X111125000Y-67300000D03*
D26*
X111125000Y-66650000D03*
X111125000Y-65650000D03*
X111125000Y-64150000D03*
X111125000Y-63150000D03*
D25*
X111125000Y-62500000D03*
D24*
X111172500Y-61700000D03*
D27*
X110525000Y-60580000D03*
D28*
X106325000Y-60580000D03*
D27*
X110525000Y-69220000D03*
D28*
X106325000Y-69220000D03*
%TD*%
D10*
%TO.C,C34*%
X150600000Y-97900000D03*
X151560000Y-97900000D03*
%TD*%
%TO.C,C38*%
X150540000Y-99900000D03*
X151500000Y-99900000D03*
%TD*%
D24*
%TO.C,J3*%
X111172500Y-93280000D03*
D25*
X111125000Y-94080000D03*
D26*
X111125000Y-95230000D03*
X111125000Y-96230000D03*
X111125000Y-96730000D03*
X111125000Y-97730000D03*
D25*
X111125000Y-98880000D03*
D24*
X111172500Y-99680000D03*
X111172500Y-99680000D03*
D25*
X111125000Y-98880000D03*
D26*
X111125000Y-98230000D03*
X111125000Y-97230000D03*
X111125000Y-95730000D03*
X111125000Y-94730000D03*
D25*
X111125000Y-94080000D03*
D24*
X111172500Y-93280000D03*
D27*
X110525000Y-92160000D03*
D28*
X106325000Y-92160000D03*
D27*
X110525000Y-100800000D03*
D28*
X106325000Y-100800000D03*
%TD*%
D32*
%TO.C,Q2*%
X146312500Y-127050000D03*
X146312500Y-128950000D03*
X148187500Y-128000000D03*
%TD*%
D12*
%TO.C,R19*%
X124190000Y-108000000D03*
X125210000Y-108000000D03*
%TD*%
D11*
%TO.C,R14*%
X118610000Y-97200000D03*
X117590000Y-97200000D03*
%TD*%
D33*
%TO.C,D4*%
X115610000Y-111440000D03*
X115610000Y-109340000D03*
%TD*%
D10*
%TO.C,C28*%
X150720000Y-64300000D03*
X151680000Y-64300000D03*
%TD*%
D12*
%TO.C,R5*%
X109100000Y-89700000D03*
X110120000Y-89700000D03*
%TD*%
D29*
%TO.C,U11*%
X145415000Y-95774328D03*
X145415000Y-96274328D03*
X145415000Y-96774328D03*
X145415000Y-97274328D03*
X145415000Y-97774328D03*
X146185000Y-97774328D03*
X146185000Y-97274328D03*
X146185000Y-96774328D03*
X146185000Y-96274328D03*
X146185000Y-95774328D03*
%TD*%
D11*
%TO.C,R44*%
X151710000Y-60400000D03*
X150690000Y-60400000D03*
%TD*%
D19*
%TO.C,C14*%
X123880000Y-76100000D03*
X122920000Y-76100000D03*
%TD*%
D29*
%TO.C,U9*%
X145415000Y-64300000D03*
X145415000Y-64800000D03*
X145415000Y-65300000D03*
X145415000Y-65800000D03*
X145415000Y-66300000D03*
X146185000Y-66300000D03*
X146185000Y-65800000D03*
X146185000Y-65300000D03*
X146185000Y-64800000D03*
X146185000Y-64300000D03*
%TD*%
D37*
%TO.C,U3*%
X125322500Y-93890000D03*
X124687500Y-93890000D03*
X124052500Y-93890000D03*
X123417500Y-93890000D03*
X122782500Y-93890000D03*
X122147500Y-93890000D03*
X121512500Y-93890000D03*
X120877500Y-93890000D03*
X120877500Y-99090000D03*
X121512500Y-99090000D03*
X122147500Y-99090000D03*
X122782500Y-99090000D03*
X123417500Y-99090000D03*
X124052500Y-99090000D03*
X124687500Y-99090000D03*
X125322500Y-99090000D03*
%TD*%
D12*
%TO.C,R42*%
X147990000Y-115600000D03*
X149010000Y-115600000D03*
%TD*%
D30*
%TO.C,D9*%
X116200000Y-65100000D03*
X116200000Y-67200000D03*
%TD*%
D12*
%TO.C,R3*%
X108837500Y-74470000D03*
X109857500Y-74470000D03*
%TD*%
D11*
%TO.C,R11*%
X118710000Y-63800000D03*
X117690000Y-63800000D03*
%TD*%
D23*
%TO.C,FB3*%
X113000000Y-116562500D03*
X115125000Y-116562500D03*
%TD*%
D10*
%TO.C,C18*%
X150740000Y-129500000D03*
X151700000Y-129500000D03*
%TD*%
D13*
%TO.C,J6*%
X160940000Y-135590000D03*
D14*
X162720000Y-134574000D03*
X160940000Y-133558000D03*
X162720000Y-132542000D03*
X160940000Y-131526000D03*
X162720000Y-130510000D03*
X160940000Y-129494000D03*
X162720000Y-128478000D03*
X167540000Y-138890000D03*
X167540000Y-136600000D03*
X167540000Y-127460000D03*
X167540000Y-125170000D03*
D38*
X161830000Y-140160000D03*
X161830000Y-123900000D03*
%TD*%
D12*
%TO.C,R8*%
X105290000Y-105800000D03*
X106310000Y-105800000D03*
%TD*%
D10*
%TO.C,C20*%
X134720000Y-94600000D03*
X135680000Y-94600000D03*
%TD*%
D32*
%TO.C,Q7*%
X141312500Y-79650000D03*
X141312500Y-81550000D03*
X143187500Y-80600000D03*
%TD*%
D11*
%TO.C,R45*%
X151760000Y-86000000D03*
X150740000Y-86000000D03*
%TD*%
D33*
%TO.C,D3*%
X116100000Y-95840000D03*
X116100000Y-93740000D03*
%TD*%
D11*
%TO.C,R25*%
X151610000Y-137950000D03*
X150590000Y-137950000D03*
%TD*%
%TO.C,R46*%
X151710000Y-76100000D03*
X150690000Y-76100000D03*
%TD*%
D32*
%TO.C,Q1*%
X146312500Y-123200000D03*
X146312500Y-125100000D03*
X148187500Y-124150000D03*
%TD*%
D12*
%TO.C,R37*%
X147900000Y-97900000D03*
X148920000Y-97900000D03*
%TD*%
D37*
%TO.C,U2*%
X125322500Y-78160000D03*
X124687500Y-78160000D03*
X124052500Y-78160000D03*
X123417500Y-78160000D03*
X122782500Y-78160000D03*
X122147500Y-78160000D03*
X121512500Y-78160000D03*
X120877500Y-78160000D03*
X120877500Y-83360000D03*
X121512500Y-83360000D03*
X122147500Y-83360000D03*
X122782500Y-83360000D03*
X123417500Y-83360000D03*
X124052500Y-83360000D03*
X124687500Y-83360000D03*
X125322500Y-83360000D03*
%TD*%
D32*
%TO.C,Q3*%
X146312500Y-130850000D03*
X146312500Y-132750000D03*
X148187500Y-131800000D03*
%TD*%
D30*
%TO.C,D12*%
X115610000Y-112740000D03*
X115610000Y-114840000D03*
%TD*%
D12*
%TO.C,R7*%
X108315000Y-105800000D03*
X109335000Y-105800000D03*
%TD*%
D20*
%TO.C,U5*%
X122800000Y-56600000D03*
X122800000Y-57550000D03*
X122800000Y-58500000D03*
X125075000Y-58500000D03*
X125075000Y-56600000D03*
%TD*%
D11*
%TO.C,R47*%
X151510000Y-101200000D03*
X150490000Y-101200000D03*
%TD*%
%TO.C,R50*%
X151610000Y-107500000D03*
X150590000Y-107500000D03*
%TD*%
M02*
