%TF.GenerationSoftware,KiCad,Pcbnew,9.0.3-9.0.3-0~ubuntu24.04.1*%
%TF.CreationDate,2025-07-11T09:40:36-04:00*%
%TF.ProjectId,SO4R_Interlock,534f3452-5f49-46e7-9465-726c6f636b2e,rev?*%
%TF.SameCoordinates,Original*%
%TF.FileFunction,Legend,Top*%
%TF.FilePolarity,Positive*%
%FSLAX46Y46*%
G04 Gerber Fmt 4.6, Leading zero omitted, Abs format (unit mm)*
G04 Created by KiCad (PCBNEW 9.0.3-9.0.3-0~ubuntu24.04.1) date 2025-07-11 09:40:36*
%MOMM*%
%LPD*%
G01*
G04 APERTURE LIST*
G04 Aperture macros list*
%AMRoundRect*
0 Rectangle with rounded corners*
0 $1 Rounding radius*
0 $2 $3 $4 $5 $6 $7 $8 $9 X,Y pos of 4 corners*
0 Add a 4 corners polygon primitive as box body*
4,1,4,$2,$3,$4,$5,$6,$7,$8,$9,$2,$3,0*
0 Add four circle primitives for the rounded corners*
1,1,$1+$1,$2,$3*
1,1,$1+$1,$4,$5*
1,1,$1+$1,$6,$7*
1,1,$1+$1,$8,$9*
0 Add four rect primitives between the rounded corners*
20,1,$1+$1,$2,$3,$4,$5,0*
20,1,$1+$1,$4,$5,$6,$7,0*
20,1,$1+$1,$6,$7,$8,$9,0*
20,1,$1+$1,$8,$9,$2,$3,0*%
G04 Aperture macros list end*
%ADD10C,0.300000*%
%ADD11C,0.150000*%
%ADD12C,0.120000*%
%ADD13C,0.100000*%
%ADD14RoundRect,0.140000X-0.140000X-0.170000X0.140000X-0.170000X0.140000X0.170000X-0.140000X0.170000X0*%
%ADD15RoundRect,0.135000X0.135000X0.185000X-0.135000X0.185000X-0.135000X-0.185000X0.135000X-0.185000X0*%
%ADD16RoundRect,0.135000X-0.135000X-0.185000X0.135000X-0.185000X0.135000X0.185000X-0.135000X0.185000X0*%
%ADD17C,3.250000*%
%ADD18R,1.500000X1.500000*%
%ADD19C,1.500000*%
%ADD20C,2.570000*%
%ADD21RoundRect,0.140000X0.170000X-0.140000X0.170000X0.140000X-0.170000X0.140000X-0.170000X-0.140000X0*%
%ADD22RoundRect,0.147500X0.147500X0.172500X-0.147500X0.172500X-0.147500X-0.172500X0.147500X-0.172500X0*%
%ADD23RoundRect,0.218750X-0.218750X-0.256250X0.218750X-0.256250X0.218750X0.256250X-0.218750X0.256250X0*%
%ADD24RoundRect,0.140000X0.140000X0.170000X-0.140000X0.170000X-0.140000X-0.170000X0.140000X-0.170000X0*%
%ADD25RoundRect,0.150000X-0.512500X-0.150000X0.512500X-0.150000X0.512500X0.150000X-0.512500X0.150000X0*%
%ADD26R,1.700000X1.700000*%
%ADD27C,1.700000*%
%ADD28RoundRect,0.218750X-0.218750X-0.381250X0.218750X-0.381250X0.218750X0.381250X-0.218750X0.381250X0*%
%ADD29C,0.650000*%
%ADD30RoundRect,0.150000X-0.422500X0.150000X-0.422500X-0.150000X0.422500X-0.150000X0.422500X0.150000X0*%
%ADD31RoundRect,0.150000X-0.470000X0.150000X-0.470000X-0.150000X0.470000X-0.150000X0.470000X0.150000X0*%
%ADD32R,1.240000X0.300000*%
%ADD33O,2.100000X1.000000*%
%ADD34O,1.800000X1.000000*%
%ADD35RoundRect,0.075000X-0.200000X0.075000X-0.200000X-0.075000X0.200000X-0.075000X0.200000X0.075000X0*%
%ADD36RoundRect,0.112500X-0.112500X0.187500X-0.112500X-0.187500X0.112500X-0.187500X0.112500X0.187500X0*%
%ADD37RoundRect,0.140000X-0.170000X0.140000X-0.170000X-0.140000X0.170000X-0.140000X0.170000X0.140000X0*%
%ADD38RoundRect,0.150000X-0.587500X-0.150000X0.587500X-0.150000X0.587500X0.150000X-0.587500X0.150000X0*%
%ADD39RoundRect,0.112500X0.112500X-0.187500X0.112500X0.187500X-0.112500X0.187500X-0.112500X-0.187500X0*%
%ADD40RoundRect,0.075000X-0.662500X-0.075000X0.662500X-0.075000X0.662500X0.075000X-0.662500X0.075000X0*%
%ADD41RoundRect,0.075000X-0.075000X-0.662500X0.075000X-0.662500X0.075000X0.662500X-0.075000X0.662500X0*%
%ADD42RoundRect,0.218750X0.218750X0.256250X-0.218750X0.256250X-0.218750X-0.256250X0.218750X-0.256250X0*%
%ADD43R,0.400000X1.200000*%
%ADD44C,2.300000*%
G04 APERTURE END LIST*
D10*
X108533082Y-131449568D02*
X108747368Y-131520996D01*
X108747368Y-131520996D02*
X109104510Y-131520996D01*
X109104510Y-131520996D02*
X109247368Y-131449568D01*
X109247368Y-131449568D02*
X109318796Y-131378139D01*
X109318796Y-131378139D02*
X109390225Y-131235282D01*
X109390225Y-131235282D02*
X109390225Y-131092425D01*
X109390225Y-131092425D02*
X109318796Y-130949568D01*
X109318796Y-130949568D02*
X109247368Y-130878139D01*
X109247368Y-130878139D02*
X109104510Y-130806710D01*
X109104510Y-130806710D02*
X108818796Y-130735282D01*
X108818796Y-130735282D02*
X108675939Y-130663853D01*
X108675939Y-130663853D02*
X108604510Y-130592425D01*
X108604510Y-130592425D02*
X108533082Y-130449568D01*
X108533082Y-130449568D02*
X108533082Y-130306710D01*
X108533082Y-130306710D02*
X108604510Y-130163853D01*
X108604510Y-130163853D02*
X108675939Y-130092425D01*
X108675939Y-130092425D02*
X108818796Y-130020996D01*
X108818796Y-130020996D02*
X109175939Y-130020996D01*
X109175939Y-130020996D02*
X109390225Y-130092425D01*
X110318796Y-130020996D02*
X110604510Y-130020996D01*
X110604510Y-130020996D02*
X110747367Y-130092425D01*
X110747367Y-130092425D02*
X110890224Y-130235282D01*
X110890224Y-130235282D02*
X110961653Y-130520996D01*
X110961653Y-130520996D02*
X110961653Y-131020996D01*
X110961653Y-131020996D02*
X110890224Y-131306710D01*
X110890224Y-131306710D02*
X110747367Y-131449568D01*
X110747367Y-131449568D02*
X110604510Y-131520996D01*
X110604510Y-131520996D02*
X110318796Y-131520996D01*
X110318796Y-131520996D02*
X110175939Y-131449568D01*
X110175939Y-131449568D02*
X110033081Y-131306710D01*
X110033081Y-131306710D02*
X109961653Y-131020996D01*
X109961653Y-131020996D02*
X109961653Y-130520996D01*
X109961653Y-130520996D02*
X110033081Y-130235282D01*
X110033081Y-130235282D02*
X110175939Y-130092425D01*
X110175939Y-130092425D02*
X110318796Y-130020996D01*
X112247368Y-130520996D02*
X112247368Y-131520996D01*
X111890225Y-129949568D02*
X111533082Y-131020996D01*
X111533082Y-131020996D02*
X112461653Y-131020996D01*
X113890224Y-131520996D02*
X113390224Y-130806710D01*
X113033081Y-131520996D02*
X113033081Y-130020996D01*
X113033081Y-130020996D02*
X113604510Y-130020996D01*
X113604510Y-130020996D02*
X113747367Y-130092425D01*
X113747367Y-130092425D02*
X113818796Y-130163853D01*
X113818796Y-130163853D02*
X113890224Y-130306710D01*
X113890224Y-130306710D02*
X113890224Y-130520996D01*
X113890224Y-130520996D02*
X113818796Y-130663853D01*
X113818796Y-130663853D02*
X113747367Y-130735282D01*
X113747367Y-130735282D02*
X113604510Y-130806710D01*
X113604510Y-130806710D02*
X113033081Y-130806710D01*
X115675938Y-131520996D02*
X115675938Y-130020996D01*
X116390224Y-130520996D02*
X116390224Y-131520996D01*
X116390224Y-130663853D02*
X116461653Y-130592425D01*
X116461653Y-130592425D02*
X116604510Y-130520996D01*
X116604510Y-130520996D02*
X116818796Y-130520996D01*
X116818796Y-130520996D02*
X116961653Y-130592425D01*
X116961653Y-130592425D02*
X117033082Y-130735282D01*
X117033082Y-130735282D02*
X117033082Y-131520996D01*
X117533082Y-130520996D02*
X118104510Y-130520996D01*
X117747367Y-130020996D02*
X117747367Y-131306710D01*
X117747367Y-131306710D02*
X117818796Y-131449568D01*
X117818796Y-131449568D02*
X117961653Y-131520996D01*
X117961653Y-131520996D02*
X118104510Y-131520996D01*
X119175939Y-131449568D02*
X119033082Y-131520996D01*
X119033082Y-131520996D02*
X118747368Y-131520996D01*
X118747368Y-131520996D02*
X118604510Y-131449568D01*
X118604510Y-131449568D02*
X118533082Y-131306710D01*
X118533082Y-131306710D02*
X118533082Y-130735282D01*
X118533082Y-130735282D02*
X118604510Y-130592425D01*
X118604510Y-130592425D02*
X118747368Y-130520996D01*
X118747368Y-130520996D02*
X119033082Y-130520996D01*
X119033082Y-130520996D02*
X119175939Y-130592425D01*
X119175939Y-130592425D02*
X119247368Y-130735282D01*
X119247368Y-130735282D02*
X119247368Y-130878139D01*
X119247368Y-130878139D02*
X118533082Y-131020996D01*
X119890224Y-131520996D02*
X119890224Y-130520996D01*
X119890224Y-130806710D02*
X119961653Y-130663853D01*
X119961653Y-130663853D02*
X120033082Y-130592425D01*
X120033082Y-130592425D02*
X120175939Y-130520996D01*
X120175939Y-130520996D02*
X120318796Y-130520996D01*
X121033081Y-131520996D02*
X120890224Y-131449568D01*
X120890224Y-131449568D02*
X120818795Y-131306710D01*
X120818795Y-131306710D02*
X120818795Y-130020996D01*
X121818795Y-131520996D02*
X121675938Y-131449568D01*
X121675938Y-131449568D02*
X121604509Y-131378139D01*
X121604509Y-131378139D02*
X121533081Y-131235282D01*
X121533081Y-131235282D02*
X121533081Y-130806710D01*
X121533081Y-130806710D02*
X121604509Y-130663853D01*
X121604509Y-130663853D02*
X121675938Y-130592425D01*
X121675938Y-130592425D02*
X121818795Y-130520996D01*
X121818795Y-130520996D02*
X122033081Y-130520996D01*
X122033081Y-130520996D02*
X122175938Y-130592425D01*
X122175938Y-130592425D02*
X122247367Y-130663853D01*
X122247367Y-130663853D02*
X122318795Y-130806710D01*
X122318795Y-130806710D02*
X122318795Y-131235282D01*
X122318795Y-131235282D02*
X122247367Y-131378139D01*
X122247367Y-131378139D02*
X122175938Y-131449568D01*
X122175938Y-131449568D02*
X122033081Y-131520996D01*
X122033081Y-131520996D02*
X121818795Y-131520996D01*
X123604510Y-131449568D02*
X123461652Y-131520996D01*
X123461652Y-131520996D02*
X123175938Y-131520996D01*
X123175938Y-131520996D02*
X123033081Y-131449568D01*
X123033081Y-131449568D02*
X122961652Y-131378139D01*
X122961652Y-131378139D02*
X122890224Y-131235282D01*
X122890224Y-131235282D02*
X122890224Y-130806710D01*
X122890224Y-130806710D02*
X122961652Y-130663853D01*
X122961652Y-130663853D02*
X123033081Y-130592425D01*
X123033081Y-130592425D02*
X123175938Y-130520996D01*
X123175938Y-130520996D02*
X123461652Y-130520996D01*
X123461652Y-130520996D02*
X123604510Y-130592425D01*
X124247366Y-131520996D02*
X124247366Y-130020996D01*
X124390224Y-130949568D02*
X124818795Y-131520996D01*
X124818795Y-130520996D02*
X124247366Y-131092425D01*
X109318796Y-133935912D02*
X108604510Y-133935912D01*
X108604510Y-133935912D02*
X108604510Y-132435912D01*
X109818796Y-133935912D02*
X109818796Y-132935912D01*
X109818796Y-132435912D02*
X109747368Y-132507341D01*
X109747368Y-132507341D02*
X109818796Y-132578769D01*
X109818796Y-132578769D02*
X109890225Y-132507341D01*
X109890225Y-132507341D02*
X109818796Y-132435912D01*
X109818796Y-132435912D02*
X109818796Y-132578769D01*
X111175940Y-133864484D02*
X111033082Y-133935912D01*
X111033082Y-133935912D02*
X110747368Y-133935912D01*
X110747368Y-133935912D02*
X110604511Y-133864484D01*
X110604511Y-133864484D02*
X110533082Y-133793055D01*
X110533082Y-133793055D02*
X110461654Y-133650198D01*
X110461654Y-133650198D02*
X110461654Y-133221626D01*
X110461654Y-133221626D02*
X110533082Y-133078769D01*
X110533082Y-133078769D02*
X110604511Y-133007341D01*
X110604511Y-133007341D02*
X110747368Y-132935912D01*
X110747368Y-132935912D02*
X111033082Y-132935912D01*
X111033082Y-132935912D02*
X111175940Y-133007341D01*
X112390225Y-133864484D02*
X112247368Y-133935912D01*
X112247368Y-133935912D02*
X111961654Y-133935912D01*
X111961654Y-133935912D02*
X111818796Y-133864484D01*
X111818796Y-133864484D02*
X111747368Y-133721626D01*
X111747368Y-133721626D02*
X111747368Y-133150198D01*
X111747368Y-133150198D02*
X111818796Y-133007341D01*
X111818796Y-133007341D02*
X111961654Y-132935912D01*
X111961654Y-132935912D02*
X112247368Y-132935912D01*
X112247368Y-132935912D02*
X112390225Y-133007341D01*
X112390225Y-133007341D02*
X112461654Y-133150198D01*
X112461654Y-133150198D02*
X112461654Y-133293055D01*
X112461654Y-133293055D02*
X111747368Y-133435912D01*
X113104510Y-132935912D02*
X113104510Y-133935912D01*
X113104510Y-133078769D02*
X113175939Y-133007341D01*
X113175939Y-133007341D02*
X113318796Y-132935912D01*
X113318796Y-132935912D02*
X113533082Y-132935912D01*
X113533082Y-132935912D02*
X113675939Y-133007341D01*
X113675939Y-133007341D02*
X113747368Y-133150198D01*
X113747368Y-133150198D02*
X113747368Y-133935912D01*
X114390225Y-133864484D02*
X114533082Y-133935912D01*
X114533082Y-133935912D02*
X114818796Y-133935912D01*
X114818796Y-133935912D02*
X114961653Y-133864484D01*
X114961653Y-133864484D02*
X115033082Y-133721626D01*
X115033082Y-133721626D02*
X115033082Y-133650198D01*
X115033082Y-133650198D02*
X114961653Y-133507341D01*
X114961653Y-133507341D02*
X114818796Y-133435912D01*
X114818796Y-133435912D02*
X114604511Y-133435912D01*
X114604511Y-133435912D02*
X114461653Y-133364484D01*
X114461653Y-133364484D02*
X114390225Y-133221626D01*
X114390225Y-133221626D02*
X114390225Y-133150198D01*
X114390225Y-133150198D02*
X114461653Y-133007341D01*
X114461653Y-133007341D02*
X114604511Y-132935912D01*
X114604511Y-132935912D02*
X114818796Y-132935912D01*
X114818796Y-132935912D02*
X114961653Y-133007341D01*
X116247368Y-133864484D02*
X116104511Y-133935912D01*
X116104511Y-133935912D02*
X115818797Y-133935912D01*
X115818797Y-133935912D02*
X115675939Y-133864484D01*
X115675939Y-133864484D02*
X115604511Y-133721626D01*
X115604511Y-133721626D02*
X115604511Y-133150198D01*
X115604511Y-133150198D02*
X115675939Y-133007341D01*
X115675939Y-133007341D02*
X115818797Y-132935912D01*
X115818797Y-132935912D02*
X116104511Y-132935912D01*
X116104511Y-132935912D02*
X116247368Y-133007341D01*
X116247368Y-133007341D02*
X116318797Y-133150198D01*
X116318797Y-133150198D02*
X116318797Y-133293055D01*
X116318797Y-133293055D02*
X115604511Y-133435912D01*
X118961653Y-133793055D02*
X118890225Y-133864484D01*
X118890225Y-133864484D02*
X118675939Y-133935912D01*
X118675939Y-133935912D02*
X118533082Y-133935912D01*
X118533082Y-133935912D02*
X118318796Y-133864484D01*
X118318796Y-133864484D02*
X118175939Y-133721626D01*
X118175939Y-133721626D02*
X118104510Y-133578769D01*
X118104510Y-133578769D02*
X118033082Y-133293055D01*
X118033082Y-133293055D02*
X118033082Y-133078769D01*
X118033082Y-133078769D02*
X118104510Y-132793055D01*
X118104510Y-132793055D02*
X118175939Y-132650198D01*
X118175939Y-132650198D02*
X118318796Y-132507341D01*
X118318796Y-132507341D02*
X118533082Y-132435912D01*
X118533082Y-132435912D02*
X118675939Y-132435912D01*
X118675939Y-132435912D02*
X118890225Y-132507341D01*
X118890225Y-132507341D02*
X118961653Y-132578769D01*
X120461653Y-133793055D02*
X120390225Y-133864484D01*
X120390225Y-133864484D02*
X120175939Y-133935912D01*
X120175939Y-133935912D02*
X120033082Y-133935912D01*
X120033082Y-133935912D02*
X119818796Y-133864484D01*
X119818796Y-133864484D02*
X119675939Y-133721626D01*
X119675939Y-133721626D02*
X119604510Y-133578769D01*
X119604510Y-133578769D02*
X119533082Y-133293055D01*
X119533082Y-133293055D02*
X119533082Y-133078769D01*
X119533082Y-133078769D02*
X119604510Y-132793055D01*
X119604510Y-132793055D02*
X119675939Y-132650198D01*
X119675939Y-132650198D02*
X119818796Y-132507341D01*
X119818796Y-132507341D02*
X120033082Y-132435912D01*
X120033082Y-132435912D02*
X120175939Y-132435912D01*
X120175939Y-132435912D02*
X120390225Y-132507341D01*
X120390225Y-132507341D02*
X120461653Y-132578769D01*
X122747367Y-133150198D02*
X122961653Y-133221626D01*
X122961653Y-133221626D02*
X123033082Y-133293055D01*
X123033082Y-133293055D02*
X123104510Y-133435912D01*
X123104510Y-133435912D02*
X123104510Y-133650198D01*
X123104510Y-133650198D02*
X123033082Y-133793055D01*
X123033082Y-133793055D02*
X122961653Y-133864484D01*
X122961653Y-133864484D02*
X122818796Y-133935912D01*
X122818796Y-133935912D02*
X122247367Y-133935912D01*
X122247367Y-133935912D02*
X122247367Y-132435912D01*
X122247367Y-132435912D02*
X122747367Y-132435912D01*
X122747367Y-132435912D02*
X122890225Y-132507341D01*
X122890225Y-132507341D02*
X122961653Y-132578769D01*
X122961653Y-132578769D02*
X123033082Y-132721626D01*
X123033082Y-132721626D02*
X123033082Y-132864484D01*
X123033082Y-132864484D02*
X122961653Y-133007341D01*
X122961653Y-133007341D02*
X122890225Y-133078769D01*
X122890225Y-133078769D02*
X122747367Y-133150198D01*
X122747367Y-133150198D02*
X122247367Y-133150198D01*
X124033082Y-133221626D02*
X124033082Y-133935912D01*
X123533082Y-132435912D02*
X124033082Y-133221626D01*
X124033082Y-133221626D02*
X124533082Y-132435912D01*
X125033081Y-133364484D02*
X126175939Y-133364484D01*
X126818796Y-133864484D02*
X127033082Y-133935912D01*
X127033082Y-133935912D02*
X127390224Y-133935912D01*
X127390224Y-133935912D02*
X127533082Y-133864484D01*
X127533082Y-133864484D02*
X127604510Y-133793055D01*
X127604510Y-133793055D02*
X127675939Y-133650198D01*
X127675939Y-133650198D02*
X127675939Y-133507341D01*
X127675939Y-133507341D02*
X127604510Y-133364484D01*
X127604510Y-133364484D02*
X127533082Y-133293055D01*
X127533082Y-133293055D02*
X127390224Y-133221626D01*
X127390224Y-133221626D02*
X127104510Y-133150198D01*
X127104510Y-133150198D02*
X126961653Y-133078769D01*
X126961653Y-133078769D02*
X126890224Y-133007341D01*
X126890224Y-133007341D02*
X126818796Y-132864484D01*
X126818796Y-132864484D02*
X126818796Y-132721626D01*
X126818796Y-132721626D02*
X126890224Y-132578769D01*
X126890224Y-132578769D02*
X126961653Y-132507341D01*
X126961653Y-132507341D02*
X127104510Y-132435912D01*
X127104510Y-132435912D02*
X127461653Y-132435912D01*
X127461653Y-132435912D02*
X127675939Y-132507341D01*
X128247367Y-133507341D02*
X128961653Y-133507341D01*
X128104510Y-133935912D02*
X128604510Y-132435912D01*
X128604510Y-132435912D02*
X129104510Y-133935912D01*
X108461653Y-134850828D02*
X108818796Y-136350828D01*
X108818796Y-136350828D02*
X109104510Y-135279400D01*
X109104510Y-135279400D02*
X109390225Y-136350828D01*
X109390225Y-136350828D02*
X109747368Y-134850828D01*
X110247368Y-135922257D02*
X110961654Y-135922257D01*
X110104511Y-136350828D02*
X110604511Y-134850828D01*
X110604511Y-134850828D02*
X111104511Y-136350828D01*
X112390225Y-136350828D02*
X111533082Y-136350828D01*
X111961653Y-136350828D02*
X111961653Y-134850828D01*
X111961653Y-134850828D02*
X111818796Y-135065114D01*
X111818796Y-135065114D02*
X111675939Y-135207971D01*
X111675939Y-135207971D02*
X111533082Y-135279400D01*
X113033081Y-136350828D02*
X113033081Y-134850828D01*
X113033081Y-135565114D02*
X113890224Y-135565114D01*
X113890224Y-136350828D02*
X113890224Y-134850828D01*
X115461653Y-136207971D02*
X115390225Y-136279400D01*
X115390225Y-136279400D02*
X115175939Y-136350828D01*
X115175939Y-136350828D02*
X115033082Y-136350828D01*
X115033082Y-136350828D02*
X114818796Y-136279400D01*
X114818796Y-136279400D02*
X114675939Y-136136542D01*
X114675939Y-136136542D02*
X114604510Y-135993685D01*
X114604510Y-135993685D02*
X114533082Y-135707971D01*
X114533082Y-135707971D02*
X114533082Y-135493685D01*
X114533082Y-135493685D02*
X114604510Y-135207971D01*
X114604510Y-135207971D02*
X114675939Y-135065114D01*
X114675939Y-135065114D02*
X114818796Y-134922257D01*
X114818796Y-134922257D02*
X115033082Y-134850828D01*
X115033082Y-134850828D02*
X115175939Y-134850828D01*
X115175939Y-134850828D02*
X115390225Y-134922257D01*
X115390225Y-134922257D02*
X115461653Y-134993685D01*
X116390225Y-134850828D02*
X116675939Y-134850828D01*
X116675939Y-134850828D02*
X116818796Y-134922257D01*
X116818796Y-134922257D02*
X116961653Y-135065114D01*
X116961653Y-135065114D02*
X117033082Y-135350828D01*
X117033082Y-135350828D02*
X117033082Y-135850828D01*
X117033082Y-135850828D02*
X116961653Y-136136542D01*
X116961653Y-136136542D02*
X116818796Y-136279400D01*
X116818796Y-136279400D02*
X116675939Y-136350828D01*
X116675939Y-136350828D02*
X116390225Y-136350828D01*
X116390225Y-136350828D02*
X116247368Y-136279400D01*
X116247368Y-136279400D02*
X116104510Y-136136542D01*
X116104510Y-136136542D02*
X116033082Y-135850828D01*
X116033082Y-135850828D02*
X116033082Y-135350828D01*
X116033082Y-135350828D02*
X116104510Y-135065114D01*
X116104510Y-135065114D02*
X116247368Y-134922257D01*
X116247368Y-134922257D02*
X116390225Y-134850828D01*
X118747368Y-134993685D02*
X118818796Y-134922257D01*
X118818796Y-134922257D02*
X118961654Y-134850828D01*
X118961654Y-134850828D02*
X119318796Y-134850828D01*
X119318796Y-134850828D02*
X119461654Y-134922257D01*
X119461654Y-134922257D02*
X119533082Y-134993685D01*
X119533082Y-134993685D02*
X119604511Y-135136542D01*
X119604511Y-135136542D02*
X119604511Y-135279400D01*
X119604511Y-135279400D02*
X119533082Y-135493685D01*
X119533082Y-135493685D02*
X118675939Y-136350828D01*
X118675939Y-136350828D02*
X119604511Y-136350828D01*
X120533082Y-134850828D02*
X120675939Y-134850828D01*
X120675939Y-134850828D02*
X120818796Y-134922257D01*
X120818796Y-134922257D02*
X120890225Y-134993685D01*
X120890225Y-134993685D02*
X120961653Y-135136542D01*
X120961653Y-135136542D02*
X121033082Y-135422257D01*
X121033082Y-135422257D02*
X121033082Y-135779400D01*
X121033082Y-135779400D02*
X120961653Y-136065114D01*
X120961653Y-136065114D02*
X120890225Y-136207971D01*
X120890225Y-136207971D02*
X120818796Y-136279400D01*
X120818796Y-136279400D02*
X120675939Y-136350828D01*
X120675939Y-136350828D02*
X120533082Y-136350828D01*
X120533082Y-136350828D02*
X120390225Y-136279400D01*
X120390225Y-136279400D02*
X120318796Y-136207971D01*
X120318796Y-136207971D02*
X120247367Y-136065114D01*
X120247367Y-136065114D02*
X120175939Y-135779400D01*
X120175939Y-135779400D02*
X120175939Y-135422257D01*
X120175939Y-135422257D02*
X120247367Y-135136542D01*
X120247367Y-135136542D02*
X120318796Y-134993685D01*
X120318796Y-134993685D02*
X120390225Y-134922257D01*
X120390225Y-134922257D02*
X120533082Y-134850828D01*
X121604510Y-134993685D02*
X121675938Y-134922257D01*
X121675938Y-134922257D02*
X121818796Y-134850828D01*
X121818796Y-134850828D02*
X122175938Y-134850828D01*
X122175938Y-134850828D02*
X122318796Y-134922257D01*
X122318796Y-134922257D02*
X122390224Y-134993685D01*
X122390224Y-134993685D02*
X122461653Y-135136542D01*
X122461653Y-135136542D02*
X122461653Y-135279400D01*
X122461653Y-135279400D02*
X122390224Y-135493685D01*
X122390224Y-135493685D02*
X121533081Y-136350828D01*
X121533081Y-136350828D02*
X122461653Y-136350828D01*
X123818795Y-134850828D02*
X123104509Y-134850828D01*
X123104509Y-134850828D02*
X123033081Y-135565114D01*
X123033081Y-135565114D02*
X123104509Y-135493685D01*
X123104509Y-135493685D02*
X123247367Y-135422257D01*
X123247367Y-135422257D02*
X123604509Y-135422257D01*
X123604509Y-135422257D02*
X123747367Y-135493685D01*
X123747367Y-135493685D02*
X123818795Y-135565114D01*
X123818795Y-135565114D02*
X123890224Y-135707971D01*
X123890224Y-135707971D02*
X123890224Y-136065114D01*
X123890224Y-136065114D02*
X123818795Y-136207971D01*
X123818795Y-136207971D02*
X123747367Y-136279400D01*
X123747367Y-136279400D02*
X123604509Y-136350828D01*
X123604509Y-136350828D02*
X123247367Y-136350828D01*
X123247367Y-136350828D02*
X123104509Y-136279400D01*
X123104509Y-136279400D02*
X123033081Y-136207971D01*
D11*
X112354819Y-96813333D02*
X113069104Y-96813333D01*
X113069104Y-96813333D02*
X113211961Y-96860952D01*
X113211961Y-96860952D02*
X113307200Y-96956190D01*
X113307200Y-96956190D02*
X113354819Y-97099047D01*
X113354819Y-97099047D02*
X113354819Y-97194285D01*
X112354819Y-96432380D02*
X112354819Y-95813333D01*
X112354819Y-95813333D02*
X112735771Y-96146666D01*
X112735771Y-96146666D02*
X112735771Y-96003809D01*
X112735771Y-96003809D02*
X112783390Y-95908571D01*
X112783390Y-95908571D02*
X112831009Y-95860952D01*
X112831009Y-95860952D02*
X112926247Y-95813333D01*
X112926247Y-95813333D02*
X113164342Y-95813333D01*
X113164342Y-95813333D02*
X113259580Y-95860952D01*
X113259580Y-95860952D02*
X113307200Y-95908571D01*
X113307200Y-95908571D02*
X113354819Y-96003809D01*
X113354819Y-96003809D02*
X113354819Y-96289523D01*
X113354819Y-96289523D02*
X113307200Y-96384761D01*
X113307200Y-96384761D02*
X113259580Y-96432380D01*
D12*
%TO.C,C12*%
X117367164Y-100630000D02*
X117582836Y-100630000D01*
X117367164Y-101350000D02*
X117582836Y-101350000D01*
%TO.C,C19*%
X151092164Y-131140000D02*
X151307836Y-131140000D01*
X151092164Y-131860000D02*
X151307836Y-131860000D01*
%TO.C,R12*%
X118153641Y-81020000D02*
X117846359Y-81020000D01*
X118153641Y-81780000D02*
X117846359Y-81780000D01*
%TO.C,R33*%
X148456359Y-81720000D02*
X148763641Y-81720000D01*
X148456359Y-82480000D02*
X148763641Y-82480000D01*
%TO.C,J7*%
X152830000Y-56475000D02*
X160300000Y-56475000D01*
X152830000Y-120455000D02*
X152830000Y-56475000D01*
X152830000Y-120455000D02*
X160300000Y-120455000D01*
X159590000Y-121150000D02*
X160090000Y-120650000D01*
X160090000Y-120650000D02*
X160590000Y-121150000D01*
X160590000Y-121150000D02*
X159590000Y-121150000D01*
X168800000Y-56475000D02*
X163340000Y-56475000D01*
X168800000Y-79060000D02*
X168800000Y-56475000D01*
X168800000Y-82120000D02*
X168800000Y-94810000D01*
X168800000Y-120455000D02*
X163360000Y-120455000D01*
X168800000Y-120455000D02*
X168800000Y-97870000D01*
%TO.C,C37*%
X151172164Y-83740000D02*
X151387836Y-83740000D01*
X151172164Y-84460000D02*
X151387836Y-84460000D01*
%TO.C,C7*%
X114240000Y-95407836D02*
X114240000Y-95192164D01*
X114960000Y-95407836D02*
X114960000Y-95192164D01*
%TO.C,R43*%
X151353641Y-69920000D02*
X151046359Y-69920000D01*
X151353641Y-70680000D02*
X151046359Y-70680000D01*
D13*
%TO.C,D7*%
X116702500Y-118162500D02*
G75*
G02*
X116602500Y-118162500I-50000J0D01*
G01*
X116602500Y-118162500D02*
G75*
G02*
X116702500Y-118162500I50000J0D01*
G01*
D12*
%TO.C,R20*%
X123831359Y-116120000D02*
X124138641Y-116120000D01*
X123831359Y-116880000D02*
X124138641Y-116880000D01*
%TO.C,C10*%
X117392164Y-68940000D02*
X117607836Y-68940000D01*
X117392164Y-69660000D02*
X117607836Y-69660000D01*
%TO.C,R21*%
X118953641Y-107440000D02*
X118646359Y-107440000D01*
X118953641Y-108200000D02*
X118646359Y-108200000D01*
%TO.C,R9*%
X117616141Y-116182500D02*
X117308859Y-116182500D01*
X117616141Y-116942500D02*
X117308859Y-116942500D01*
%TO.C,D15*%
X117315000Y-105485000D02*
X117315000Y-106955000D01*
X117315000Y-106955000D02*
X119600000Y-106955000D01*
X119600000Y-105485000D02*
X117315000Y-105485000D01*
%TO.C,D13*%
X116865000Y-117427500D02*
X116865000Y-118897500D01*
X116865000Y-118897500D02*
X119150000Y-118897500D01*
X119150000Y-117427500D02*
X116865000Y-117427500D01*
%TO.C,R10*%
X118363641Y-64720000D02*
X118056359Y-64720000D01*
X118363641Y-65480000D02*
X118056359Y-65480000D01*
%TO.C,C36*%
X151092164Y-68040000D02*
X151307836Y-68040000D01*
X151092164Y-68760000D02*
X151307836Y-68760000D01*
%TO.C,C16*%
X122307836Y-107260000D02*
X122092164Y-107260000D01*
X122307836Y-107980000D02*
X122092164Y-107980000D01*
%TO.C,U6*%
X123837500Y-72190000D02*
X123037500Y-72190000D01*
X123837500Y-72190000D02*
X124637500Y-72190000D01*
X123837500Y-75310000D02*
X123037500Y-75310000D01*
X123837500Y-75310000D02*
X124637500Y-75310000D01*
X122537500Y-72240000D02*
X122297500Y-71910000D01*
X122777500Y-71910000D01*
X122537500Y-72240000D01*
G36*
X122537500Y-72240000D02*
G01*
X122297500Y-71910000D01*
X122777500Y-71910000D01*
X122537500Y-72240000D01*
G37*
%TO.C,J5*%
X126650000Y-108510000D02*
X126650000Y-111270000D01*
X131840000Y-108510000D02*
X126650000Y-108510000D01*
X131840000Y-108510000D02*
X131840000Y-111270000D01*
X131840000Y-111270000D02*
X126650000Y-111270000D01*
X133110000Y-108510000D02*
X134490000Y-108510000D01*
X134490000Y-108510000D02*
X134490000Y-109890000D01*
%TO.C,FB4*%
X113762878Y-68740000D02*
X114562122Y-68740000D01*
X113762878Y-69860000D02*
X114562122Y-69860000D01*
D13*
%TO.C,D5*%
X117040000Y-86600000D02*
G75*
G02*
X116940000Y-86600000I-50000J0D01*
G01*
X116940000Y-86600000D02*
G75*
G02*
X117040000Y-86600000I50000J0D01*
G01*
D12*
%TO.C,R29*%
X148556359Y-66020000D02*
X148863641Y-66020000D01*
X148556359Y-66780000D02*
X148863641Y-66780000D01*
%TO.C,R27*%
X148546359Y-61920000D02*
X148853641Y-61920000D01*
X148546359Y-62680000D02*
X148853641Y-62680000D01*
%TO.C,J4*%
X103615000Y-107500000D02*
X105320000Y-107500000D01*
X103615000Y-116660000D02*
X103615000Y-107500000D01*
X105320000Y-116660000D02*
X103615000Y-116660000D01*
X107330000Y-116660000D02*
X109250000Y-116660000D01*
X109250000Y-107500000D02*
X107330000Y-107500000D01*
%TO.C,U10*%
X146300000Y-79690000D02*
X145510000Y-79690000D01*
X146300000Y-82510000D02*
X145300000Y-82510000D01*
X145180000Y-79690000D02*
X144900000Y-79690000D01*
X145180000Y-79410000D01*
X145180000Y-79690000D01*
G36*
X145180000Y-79690000D02*
G01*
X144900000Y-79690000D01*
X145180000Y-79410000D01*
X145180000Y-79690000D01*
G37*
%TO.C,R13*%
X118153641Y-79620000D02*
X117846359Y-79620000D01*
X118153641Y-80380000D02*
X117846359Y-80380000D01*
%TO.C,C21*%
X151012164Y-133190000D02*
X151227836Y-133190000D01*
X151012164Y-133910000D02*
X151227836Y-133910000D01*
%TO.C,C15*%
X123507836Y-91340000D02*
X123292164Y-91340000D01*
X123507836Y-92060000D02*
X123292164Y-92060000D01*
%TO.C,R16*%
X117768641Y-112340000D02*
X117461359Y-112340000D01*
X117768641Y-113100000D02*
X117461359Y-113100000D01*
%TO.C,C26*%
X150972164Y-93440000D02*
X151187836Y-93440000D01*
X150972164Y-94160000D02*
X151187836Y-94160000D01*
%TO.C,R4*%
X106346359Y-74090000D02*
X106653641Y-74090000D01*
X106346359Y-74850000D02*
X106653641Y-74850000D01*
%TO.C,D11*%
X115250000Y-96680000D02*
X115250000Y-99340000D01*
X116950000Y-96680000D02*
X115250000Y-96680000D01*
X116950000Y-96680000D02*
X116950000Y-99340000D01*
%TO.C,C1*%
X114340000Y-65492164D02*
X114340000Y-65707836D01*
X115060000Y-65492164D02*
X115060000Y-65707836D01*
%TO.C,C32*%
X151092164Y-66040000D02*
X151307836Y-66040000D01*
X151092164Y-66760000D02*
X151307836Y-66760000D01*
%TO.C,R23*%
X125553641Y-75720000D02*
X125246359Y-75720000D01*
X125553641Y-76480000D02*
X125246359Y-76480000D01*
%TO.C,C22*%
X151012164Y-135240000D02*
X151227836Y-135240000D01*
X151012164Y-135960000D02*
X151227836Y-135960000D01*
%TO.C,R18*%
X124546359Y-106520000D02*
X124853641Y-106520000D01*
X124546359Y-107280000D02*
X124853641Y-107280000D01*
%TO.C,R49*%
X151253641Y-117270000D02*
X150946359Y-117270000D01*
X151253641Y-118030000D02*
X150946359Y-118030000D01*
%TO.C,C6*%
X114140000Y-79627836D02*
X114140000Y-79412164D01*
X114860000Y-79627836D02*
X114860000Y-79412164D01*
%TO.C,R39*%
X148356359Y-109220000D02*
X148663641Y-109220000D01*
X148356359Y-109980000D02*
X148663641Y-109980000D01*
%TO.C,C17*%
X143290000Y-89407836D02*
X143290000Y-89192164D01*
X144010000Y-89407836D02*
X144010000Y-89192164D01*
%TO.C,Q4*%
X147250000Y-134040000D02*
X146600000Y-134040000D01*
X147250000Y-134040000D02*
X147900000Y-134040000D01*
X147250000Y-137160000D02*
X146600000Y-137160000D01*
X147250000Y-137160000D02*
X147900000Y-137160000D01*
X146087500Y-134090000D02*
X145847500Y-133760000D01*
X146327500Y-133760000D01*
X146087500Y-134090000D01*
G36*
X146087500Y-134090000D02*
G01*
X145847500Y-133760000D01*
X146327500Y-133760000D01*
X146087500Y-134090000D01*
G37*
%TO.C,R24*%
X125753641Y-91320000D02*
X125446359Y-91320000D01*
X125753641Y-92080000D02*
X125446359Y-92080000D01*
%TO.C,FB1*%
X113662878Y-84500000D02*
X114462122Y-84500000D01*
X113662878Y-85620000D02*
X114462122Y-85620000D01*
%TO.C,R40*%
X148356359Y-111220000D02*
X148663641Y-111220000D01*
X148356359Y-111980000D02*
X148663641Y-111980000D01*
%TO.C,FB2*%
X113762878Y-100430000D02*
X114562122Y-100430000D01*
X113762878Y-101550000D02*
X114562122Y-101550000D01*
%TO.C,R1*%
X109056359Y-58220000D02*
X109363641Y-58220000D01*
X109056359Y-58980000D02*
X109363641Y-58980000D01*
D13*
%TO.C,D6*%
X116840000Y-102400000D02*
G75*
G02*
X116740000Y-102400000I-50000J0D01*
G01*
X116740000Y-102400000D02*
G75*
G02*
X116840000Y-102400000I50000J0D01*
G01*
D12*
%TO.C,Q8*%
X142250000Y-94740000D02*
X141600000Y-94740000D01*
X142250000Y-94740000D02*
X142900000Y-94740000D01*
X142250000Y-97860000D02*
X141600000Y-97860000D01*
X142250000Y-97860000D02*
X142900000Y-97860000D01*
X141087500Y-94790000D02*
X140847500Y-94460000D01*
X141327500Y-94460000D01*
X141087500Y-94790000D01*
G36*
X141087500Y-94790000D02*
G01*
X140847500Y-94460000D01*
X141327500Y-94460000D01*
X141087500Y-94790000D01*
G37*
%TO.C,D10*%
X115150000Y-80850000D02*
X115150000Y-83510000D01*
X116850000Y-80850000D02*
X115150000Y-80850000D01*
X116850000Y-80850000D02*
X116850000Y-83510000D01*
%TO.C,Q6*%
X142250000Y-63240000D02*
X141600000Y-63240000D01*
X142250000Y-63240000D02*
X142900000Y-63240000D01*
X142250000Y-66360000D02*
X141600000Y-66360000D01*
X142250000Y-66360000D02*
X142900000Y-66360000D01*
X141087500Y-63290000D02*
X140847500Y-62960000D01*
X141327500Y-62960000D01*
X141087500Y-63290000D01*
G36*
X141087500Y-63290000D02*
G01*
X140847500Y-62960000D01*
X141327500Y-62960000D01*
X141087500Y-63290000D01*
G37*
%TO.C,R26*%
X151343641Y-127120000D02*
X151036359Y-127120000D01*
X151343641Y-127880000D02*
X151036359Y-127880000D01*
%TO.C,J2*%
X103615000Y-76100000D02*
X105320000Y-76100000D01*
X103615000Y-85260000D02*
X103615000Y-76100000D01*
X105320000Y-85260000D02*
X103615000Y-85260000D01*
X107330000Y-85260000D02*
X109250000Y-85260000D01*
X109250000Y-76100000D02*
X107330000Y-76100000D01*
%TO.C,C23*%
X137607836Y-81790000D02*
X137392164Y-81790000D01*
X137607836Y-82510000D02*
X137392164Y-82510000D01*
%TO.C,C24*%
X151092164Y-61940000D02*
X151307836Y-61940000D01*
X151092164Y-62660000D02*
X151307836Y-62660000D01*
%TO.C,R2*%
X106421359Y-58220000D02*
X106728641Y-58220000D01*
X106421359Y-58980000D02*
X106728641Y-58980000D01*
%TO.C,C31*%
X150992164Y-111240000D02*
X151207836Y-111240000D01*
X150992164Y-111960000D02*
X151207836Y-111960000D01*
%TO.C,R41*%
X148346359Y-113220000D02*
X148653641Y-113220000D01*
X148346359Y-113980000D02*
X148653641Y-113980000D01*
%TO.C,C13*%
X123507836Y-59640000D02*
X123292164Y-59640000D01*
X123507836Y-60360000D02*
X123292164Y-60360000D01*
%TO.C,R38*%
X148156359Y-99520000D02*
X148463641Y-99520000D01*
X148156359Y-100280000D02*
X148463641Y-100280000D01*
%TO.C,R32*%
X148436359Y-79720000D02*
X148743641Y-79720000D01*
X148436359Y-80480000D02*
X148743641Y-80480000D01*
%TO.C,C27*%
X150972164Y-109240000D02*
X151187836Y-109240000D01*
X150972164Y-109960000D02*
X151187836Y-109960000D01*
%TO.C,C29*%
X151072164Y-79740000D02*
X151287836Y-79740000D01*
X151072164Y-80460000D02*
X151287836Y-80460000D01*
%TO.C,R35*%
X148256359Y-93420000D02*
X148563641Y-93420000D01*
X148256359Y-94180000D02*
X148563641Y-94180000D01*
%TO.C,C3*%
X114240000Y-97592164D02*
X114240000Y-97807836D01*
X114960000Y-97592164D02*
X114960000Y-97807836D01*
%TO.C,C11*%
X117267164Y-84700000D02*
X117482836Y-84700000D01*
X117267164Y-85420000D02*
X117482836Y-85420000D01*
%TO.C,R15*%
X118253641Y-95520000D02*
X117946359Y-95520000D01*
X118253641Y-96280000D02*
X117946359Y-96280000D01*
%TO.C,C25*%
X151092164Y-77740000D02*
X151307836Y-77740000D01*
X151092164Y-78460000D02*
X151307836Y-78460000D01*
%TO.C,D2*%
X115150000Y-80570000D02*
X115150000Y-77910000D01*
X115150000Y-80570000D02*
X116850000Y-80570000D01*
X116850000Y-80570000D02*
X116850000Y-77910000D01*
%TO.C,U7*%
X123962500Y-86990000D02*
X123162500Y-86990000D01*
X123962500Y-86990000D02*
X124762500Y-86990000D01*
X123962500Y-90110000D02*
X123162500Y-90110000D01*
X123962500Y-90110000D02*
X124762500Y-90110000D01*
X122662500Y-87040000D02*
X122422500Y-86710000D01*
X122902500Y-86710000D01*
X122662500Y-87040000D01*
G36*
X122662500Y-87040000D02*
G01*
X122422500Y-86710000D01*
X122902500Y-86710000D01*
X122662500Y-87040000D01*
G37*
%TO.C,R17*%
X117768641Y-111140000D02*
X117461359Y-111140000D01*
X117768641Y-111900000D02*
X117461359Y-111900000D01*
%TO.C,C39*%
X150972164Y-115240000D02*
X151187836Y-115240000D01*
X150972164Y-115960000D02*
X151187836Y-115960000D01*
%TO.C,R28*%
X148556359Y-63920000D02*
X148863641Y-63920000D01*
X148556359Y-64680000D02*
X148863641Y-64680000D01*
%TO.C,R6*%
X106546359Y-89320000D02*
X106853641Y-89320000D01*
X106546359Y-90080000D02*
X106853641Y-90080000D01*
%TO.C,C8*%
X113755000Y-111027836D02*
X113755000Y-110812164D01*
X114475000Y-111027836D02*
X114475000Y-110812164D01*
%TO.C,D1*%
X115350000Y-64360000D02*
X115350000Y-61700000D01*
X115350000Y-64360000D02*
X117050000Y-64360000D01*
X117050000Y-64360000D02*
X117050000Y-61700000D01*
%TO.C,U8*%
X133890000Y-84727500D02*
X133890000Y-85177500D01*
X133890000Y-91947500D02*
X133890000Y-91497500D01*
X134340000Y-84727500D02*
X133890000Y-84727500D01*
X134340000Y-91947500D02*
X133890000Y-91947500D01*
X140660000Y-84727500D02*
X141110000Y-84727500D01*
X140660000Y-91947500D02*
X141110000Y-91947500D01*
X141110000Y-84727500D02*
X141110000Y-85177500D01*
X141110000Y-91947500D02*
X141110000Y-91497500D01*
X133300000Y-85177500D02*
X132960000Y-84707500D01*
X133640000Y-84707500D01*
X133300000Y-85177500D01*
G36*
X133300000Y-85177500D02*
G01*
X132960000Y-84707500D01*
X133640000Y-84707500D01*
X133300000Y-85177500D01*
G37*
%TO.C,C5*%
X114340000Y-63407836D02*
X114340000Y-63192164D01*
X115060000Y-63407836D02*
X115060000Y-63192164D01*
%TO.C,C30*%
X150972164Y-95440000D02*
X151187836Y-95440000D01*
X150972164Y-96160000D02*
X151187836Y-96160000D01*
%TO.C,Q5*%
X142250000Y-110640000D02*
X141600000Y-110640000D01*
X142250000Y-110640000D02*
X142900000Y-110640000D01*
X142250000Y-113760000D02*
X141600000Y-113760000D01*
X142250000Y-113760000D02*
X142900000Y-113760000D01*
X141087500Y-110690000D02*
X140847500Y-110360000D01*
X141327500Y-110360000D01*
X141087500Y-110690000D01*
G36*
X141087500Y-110690000D02*
G01*
X140847500Y-110360000D01*
X141327500Y-110360000D01*
X141087500Y-110690000D01*
G37*
%TO.C,D14*%
X122887500Y-118535000D02*
X125172500Y-118535000D01*
X125172500Y-117065000D02*
X122887500Y-117065000D01*
X125172500Y-118535000D02*
X125172500Y-117065000D01*
%TO.C,R34*%
X148456359Y-83720000D02*
X148763641Y-83720000D01*
X148456359Y-84480000D02*
X148763641Y-84480000D01*
%TO.C,R30*%
X148546359Y-68020000D02*
X148853641Y-68020000D01*
X148546359Y-68780000D02*
X148853641Y-68780000D01*
D11*
%TO.C,U4*%
X119300000Y-110090000D02*
X119300000Y-114090000D01*
X124700000Y-110090000D02*
X124700000Y-114090000D01*
D12*
X125030000Y-109980000D02*
X124700000Y-109740000D01*
X125030000Y-109500000D01*
X125030000Y-109980000D01*
G36*
X125030000Y-109980000D02*
G01*
X124700000Y-109740000D01*
X125030000Y-109500000D01*
X125030000Y-109980000D01*
G37*
D13*
%TO.C,D8*%
X116940000Y-70800000D02*
G75*
G02*
X116840000Y-70800000I-50000J0D01*
G01*
X116840000Y-70800000D02*
G75*
G02*
X116940000Y-70800000I50000J0D01*
G01*
D11*
%TO.C,U1*%
X120400000Y-62600000D02*
X120400000Y-66600000D01*
X125800000Y-62600000D02*
X125800000Y-66600000D01*
D12*
X126130000Y-62490000D02*
X125800000Y-62250000D01*
X126130000Y-62010000D01*
X126130000Y-62490000D01*
G36*
X126130000Y-62490000D02*
G01*
X125800000Y-62250000D01*
X126130000Y-62010000D01*
X126130000Y-62490000D01*
G37*
%TO.C,R36*%
X148236359Y-95420000D02*
X148543641Y-95420000D01*
X148236359Y-96180000D02*
X148543641Y-96180000D01*
%TO.C,C4*%
X113755000Y-113112164D02*
X113755000Y-113327836D01*
X114475000Y-113112164D02*
X114475000Y-113327836D01*
%TO.C,R48*%
X151253641Y-91920000D02*
X150946359Y-91920000D01*
X151253641Y-92680000D02*
X150946359Y-92680000D01*
%TO.C,C33*%
X151072164Y-81740000D02*
X151287836Y-81740000D01*
X151072164Y-82460000D02*
X151287836Y-82460000D01*
%TO.C,R31*%
X148466359Y-77720000D02*
X148773641Y-77720000D01*
X148466359Y-78480000D02*
X148773641Y-78480000D01*
%TO.C,C35*%
X150992164Y-113240000D02*
X151207836Y-113240000D01*
X150992164Y-113960000D02*
X151207836Y-113960000D01*
%TO.C,R22*%
X125563641Y-59620000D02*
X125256359Y-59620000D01*
X125563641Y-60380000D02*
X125256359Y-60380000D01*
%TO.C,C2*%
X114140000Y-81792164D02*
X114140000Y-82007836D01*
X114860000Y-81792164D02*
X114860000Y-82007836D01*
%TO.C,U12*%
X146300000Y-111290000D02*
X145510000Y-111290000D01*
X146300000Y-114110000D02*
X145300000Y-114110000D01*
X145180000Y-111290000D02*
X144900000Y-111290000D01*
X145180000Y-111010000D01*
X145180000Y-111290000D01*
G36*
X145180000Y-111290000D02*
G01*
X144900000Y-111290000D01*
X145180000Y-111010000D01*
X145180000Y-111290000D01*
G37*
%TO.C,C9*%
X121777164Y-116106250D02*
X121992836Y-116106250D01*
X121777164Y-116826250D02*
X121992836Y-116826250D01*
%TO.C,J1*%
X103615000Y-60320000D02*
X105320000Y-60320000D01*
X103615000Y-69480000D02*
X103615000Y-60320000D01*
X105320000Y-69480000D02*
X103615000Y-69480000D01*
X107330000Y-69480000D02*
X109250000Y-69480000D01*
X109250000Y-60320000D02*
X107330000Y-60320000D01*
%TO.C,C34*%
X150972164Y-97540000D02*
X151187836Y-97540000D01*
X150972164Y-98260000D02*
X151187836Y-98260000D01*
%TO.C,C38*%
X150912164Y-99540000D02*
X151127836Y-99540000D01*
X150912164Y-100260000D02*
X151127836Y-100260000D01*
%TO.C,J3*%
X103615000Y-91900000D02*
X105320000Y-91900000D01*
X103615000Y-101060000D02*
X103615000Y-91900000D01*
X105320000Y-101060000D02*
X103615000Y-101060000D01*
X107330000Y-101060000D02*
X109250000Y-101060000D01*
X109250000Y-91900000D02*
X107330000Y-91900000D01*
%TO.C,Q2*%
X147250000Y-126440000D02*
X146600000Y-126440000D01*
X147250000Y-126440000D02*
X147900000Y-126440000D01*
X147250000Y-129560000D02*
X146600000Y-129560000D01*
X147250000Y-129560000D02*
X147900000Y-129560000D01*
X146087500Y-126490000D02*
X145847500Y-126160000D01*
X146327500Y-126160000D01*
X146087500Y-126490000D01*
G36*
X146087500Y-126490000D02*
G01*
X145847500Y-126160000D01*
X146327500Y-126160000D01*
X146087500Y-126490000D01*
G37*
%TO.C,R19*%
X124546359Y-107620000D02*
X124853641Y-107620000D01*
X124546359Y-108380000D02*
X124853641Y-108380000D01*
%TO.C,R14*%
X118253641Y-96820000D02*
X117946359Y-96820000D01*
X118253641Y-97580000D02*
X117946359Y-97580000D01*
%TO.C,D4*%
X114760000Y-112000000D02*
X114760000Y-109340000D01*
X114760000Y-112000000D02*
X116460000Y-112000000D01*
X116460000Y-112000000D02*
X116460000Y-109340000D01*
%TO.C,C28*%
X151092164Y-63940000D02*
X151307836Y-63940000D01*
X151092164Y-64660000D02*
X151307836Y-64660000D01*
%TO.C,R5*%
X109456359Y-89320000D02*
X109763641Y-89320000D01*
X109456359Y-90080000D02*
X109763641Y-90080000D01*
%TO.C,U11*%
X146300000Y-95364328D02*
X145510000Y-95364328D01*
X146300000Y-98184328D02*
X145300000Y-98184328D01*
X145180000Y-95364328D02*
X144900000Y-95364328D01*
X145180000Y-95084328D01*
X145180000Y-95364328D01*
G36*
X145180000Y-95364328D02*
G01*
X144900000Y-95364328D01*
X145180000Y-95084328D01*
X145180000Y-95364328D01*
G37*
%TO.C,R44*%
X151353641Y-60020000D02*
X151046359Y-60020000D01*
X151353641Y-60780000D02*
X151046359Y-60780000D01*
%TO.C,C14*%
X123507836Y-75740000D02*
X123292164Y-75740000D01*
X123507836Y-76460000D02*
X123292164Y-76460000D01*
%TO.C,U9*%
X146300000Y-63890000D02*
X145510000Y-63890000D01*
X146300000Y-66710000D02*
X145300000Y-66710000D01*
X145180000Y-63890000D02*
X144900000Y-63890000D01*
X145180000Y-63610000D01*
X145180000Y-63890000D01*
G36*
X145180000Y-63890000D02*
G01*
X144900000Y-63890000D01*
X145180000Y-63610000D01*
X145180000Y-63890000D01*
G37*
D11*
%TO.C,U3*%
X120400000Y-94490000D02*
X120400000Y-98490000D01*
X125800000Y-94490000D02*
X125800000Y-98490000D01*
D12*
X126130000Y-94380000D02*
X125800000Y-94140000D01*
X126130000Y-93900000D01*
X126130000Y-94380000D01*
G36*
X126130000Y-94380000D02*
G01*
X125800000Y-94140000D01*
X126130000Y-93900000D01*
X126130000Y-94380000D01*
G37*
%TO.C,R42*%
X148346359Y-115220000D02*
X148653641Y-115220000D01*
X148346359Y-115980000D02*
X148653641Y-115980000D01*
%TO.C,D9*%
X115350000Y-64540000D02*
X115350000Y-67200000D01*
X117050000Y-64540000D02*
X115350000Y-64540000D01*
X117050000Y-64540000D02*
X117050000Y-67200000D01*
%TO.C,R3*%
X109193859Y-74090000D02*
X109501141Y-74090000D01*
X109193859Y-74850000D02*
X109501141Y-74850000D01*
%TO.C,R11*%
X118353641Y-63420000D02*
X118046359Y-63420000D01*
X118353641Y-64180000D02*
X118046359Y-64180000D01*
%TO.C,FB3*%
X113662878Y-116002500D02*
X114462122Y-116002500D01*
X113662878Y-117122500D02*
X114462122Y-117122500D01*
%TO.C,C18*%
X151112164Y-129140000D02*
X151327836Y-129140000D01*
X151112164Y-129860000D02*
X151327836Y-129860000D01*
%TO.C,J6*%
X152830000Y-123665000D02*
X160440000Y-123665000D01*
X152830000Y-140395000D02*
X152830000Y-123665000D01*
X152830000Y-140395000D02*
X160440000Y-140395000D01*
X159740000Y-141090000D02*
X160240000Y-140590000D01*
X160240000Y-140590000D02*
X160740000Y-141090000D01*
X160740000Y-141090000D02*
X159740000Y-141090000D01*
X168800000Y-123665000D02*
X163240000Y-123665000D01*
X168800000Y-140395000D02*
X163240000Y-140395000D01*
X168800000Y-140395000D02*
X168800000Y-123665000D01*
%TO.C,R8*%
X105646359Y-105420000D02*
X105953641Y-105420000D01*
X105646359Y-106180000D02*
X105953641Y-106180000D01*
%TO.C,C20*%
X135092164Y-94240000D02*
X135307836Y-94240000D01*
X135092164Y-94960000D02*
X135307836Y-94960000D01*
%TO.C,Q7*%
X142250000Y-79040000D02*
X141600000Y-79040000D01*
X142250000Y-79040000D02*
X142900000Y-79040000D01*
X142250000Y-82160000D02*
X141600000Y-82160000D01*
X142250000Y-82160000D02*
X142900000Y-82160000D01*
X141087500Y-79090000D02*
X140847500Y-78760000D01*
X141327500Y-78760000D01*
X141087500Y-79090000D01*
G36*
X141087500Y-79090000D02*
G01*
X140847500Y-78760000D01*
X141327500Y-78760000D01*
X141087500Y-79090000D01*
G37*
%TO.C,R45*%
X151403641Y-85620000D02*
X151096359Y-85620000D01*
X151403641Y-86380000D02*
X151096359Y-86380000D01*
%TO.C,D3*%
X115250000Y-96400000D02*
X115250000Y-93740000D01*
X115250000Y-96400000D02*
X116950000Y-96400000D01*
X116950000Y-96400000D02*
X116950000Y-93740000D01*
%TO.C,R25*%
X151253641Y-137570000D02*
X150946359Y-137570000D01*
X151253641Y-138330000D02*
X150946359Y-138330000D01*
%TO.C,R46*%
X151353641Y-75720000D02*
X151046359Y-75720000D01*
X151353641Y-76480000D02*
X151046359Y-76480000D01*
%TO.C,Q1*%
X147250000Y-122590000D02*
X146600000Y-122590000D01*
X147250000Y-122590000D02*
X147900000Y-122590000D01*
X147250000Y-125710000D02*
X146600000Y-125710000D01*
X147250000Y-125710000D02*
X147900000Y-125710000D01*
X146087500Y-122640000D02*
X145847500Y-122310000D01*
X146327500Y-122310000D01*
X146087500Y-122640000D01*
G36*
X146087500Y-122640000D02*
G01*
X145847500Y-122310000D01*
X146327500Y-122310000D01*
X146087500Y-122640000D01*
G37*
%TO.C,R37*%
X148256359Y-97520000D02*
X148563641Y-97520000D01*
X148256359Y-98280000D02*
X148563641Y-98280000D01*
D11*
%TO.C,U2*%
X120400000Y-78760000D02*
X120400000Y-82760000D01*
X125800000Y-78760000D02*
X125800000Y-82760000D01*
D12*
X126130000Y-78650000D02*
X125800000Y-78410000D01*
X126130000Y-78170000D01*
X126130000Y-78650000D01*
G36*
X126130000Y-78650000D02*
G01*
X125800000Y-78410000D01*
X126130000Y-78170000D01*
X126130000Y-78650000D01*
G37*
%TO.C,Q3*%
X147250000Y-130240000D02*
X146600000Y-130240000D01*
X147250000Y-130240000D02*
X147900000Y-130240000D01*
X147250000Y-133360000D02*
X146600000Y-133360000D01*
X147250000Y-133360000D02*
X147900000Y-133360000D01*
X146087500Y-130290000D02*
X145847500Y-129960000D01*
X146327500Y-129960000D01*
X146087500Y-130290000D01*
G36*
X146087500Y-130290000D02*
G01*
X145847500Y-129960000D01*
X146327500Y-129960000D01*
X146087500Y-130290000D01*
G37*
%TO.C,D12*%
X114760000Y-112180000D02*
X114760000Y-114840000D01*
X116460000Y-112180000D02*
X114760000Y-112180000D01*
X116460000Y-112180000D02*
X116460000Y-114840000D01*
%TO.C,R7*%
X108671359Y-105420000D02*
X108978641Y-105420000D01*
X108671359Y-106180000D02*
X108978641Y-106180000D01*
%TO.C,U5*%
X123937500Y-55990000D02*
X123137500Y-55990000D01*
X123937500Y-55990000D02*
X124737500Y-55990000D01*
X123937500Y-59110000D02*
X123137500Y-59110000D01*
X123937500Y-59110000D02*
X124737500Y-59110000D01*
X122637500Y-56040000D02*
X122397500Y-55710000D01*
X122877500Y-55710000D01*
X122637500Y-56040000D01*
G36*
X122637500Y-56040000D02*
G01*
X122397500Y-55710000D01*
X122877500Y-55710000D01*
X122637500Y-56040000D01*
G37*
%TO.C,R47*%
X151153641Y-100820000D02*
X150846359Y-100820000D01*
X151153641Y-101580000D02*
X150846359Y-101580000D01*
%TO.C,R50*%
X151253641Y-107120000D02*
X150946359Y-107120000D01*
X151253641Y-107880000D02*
X150946359Y-107880000D01*
%TD*%
%LPC*%
D14*
%TO.C,C12*%
X116995000Y-100990000D03*
X117955000Y-100990000D03*
%TD*%
%TO.C,C19*%
X150720000Y-131500000D03*
X151680000Y-131500000D03*
%TD*%
D15*
%TO.C,R12*%
X118510000Y-81400000D03*
X117490000Y-81400000D03*
%TD*%
D16*
%TO.C,R33*%
X148100000Y-82100000D03*
X149120000Y-82100000D03*
%TD*%
D17*
%TO.C,J7*%
X158400000Y-118440000D03*
X158400000Y-58500000D03*
D18*
X160940000Y-115650000D03*
D19*
X162720000Y-114634000D03*
X160940000Y-113618000D03*
X162720000Y-112602000D03*
X160940000Y-111586000D03*
X162720000Y-110570000D03*
X160940000Y-109554000D03*
X162720000Y-108538000D03*
X167540000Y-118950000D03*
X167540000Y-116660000D03*
X167540000Y-107520000D03*
X167540000Y-105230000D03*
X160940000Y-99900000D03*
X162720000Y-98884000D03*
X160940000Y-97868000D03*
X162720000Y-96852000D03*
X160940000Y-95836000D03*
X162720000Y-94820000D03*
X160940000Y-93804000D03*
X162720000Y-92788000D03*
X167540000Y-103200000D03*
X167540000Y-100910000D03*
X167540000Y-91770000D03*
X167540000Y-89480000D03*
X160940000Y-84150000D03*
X162720000Y-83134000D03*
X160940000Y-82118000D03*
X162720000Y-81102000D03*
X160940000Y-80086000D03*
X162720000Y-79070000D03*
X160940000Y-78054000D03*
X162720000Y-77038000D03*
X167540000Y-87450000D03*
X167540000Y-85160000D03*
X167540000Y-76020000D03*
X167540000Y-73730000D03*
X160940000Y-68400000D03*
X162720000Y-67384000D03*
X160940000Y-66368000D03*
X162720000Y-65352000D03*
X160940000Y-64336000D03*
X162720000Y-63320000D03*
X160940000Y-62304000D03*
X162720000Y-61288000D03*
X167540000Y-71700000D03*
X167540000Y-69410000D03*
X167540000Y-60270000D03*
X167540000Y-57980000D03*
D20*
X161830000Y-120220000D03*
X168560000Y-96340000D03*
X168560000Y-80590000D03*
X161830000Y-56720000D03*
%TD*%
D14*
%TO.C,C37*%
X150800000Y-84100000D03*
X151760000Y-84100000D03*
%TD*%
D21*
%TO.C,C7*%
X114600000Y-95780000D03*
X114600000Y-94820000D03*
%TD*%
D15*
%TO.C,R43*%
X151710000Y-70300000D03*
X150690000Y-70300000D03*
%TD*%
D22*
%TO.C,D7*%
X116047500Y-118162500D03*
X115077500Y-118162500D03*
%TD*%
D16*
%TO.C,R20*%
X123475000Y-116500000D03*
X124495000Y-116500000D03*
%TD*%
D14*
%TO.C,C10*%
X117020000Y-69300000D03*
X117980000Y-69300000D03*
%TD*%
D15*
%TO.C,R21*%
X119310000Y-107820000D03*
X118290000Y-107820000D03*
%TD*%
%TO.C,R9*%
X117972500Y-116562500D03*
X116952500Y-116562500D03*
%TD*%
D23*
%TO.C,D15*%
X118012500Y-106220000D03*
X119587500Y-106220000D03*
%TD*%
%TO.C,D13*%
X117562500Y-118162500D03*
X119137500Y-118162500D03*
%TD*%
D15*
%TO.C,R10*%
X118720000Y-65100000D03*
X117700000Y-65100000D03*
%TD*%
D14*
%TO.C,C36*%
X150720000Y-68400000D03*
X151680000Y-68400000D03*
%TD*%
D24*
%TO.C,C16*%
X122680000Y-107620000D03*
X121720000Y-107620000D03*
%TD*%
D25*
%TO.C,U6*%
X122700000Y-72800000D03*
X122700000Y-73750000D03*
X122700000Y-74700000D03*
X124975000Y-74700000D03*
X124975000Y-72800000D03*
%TD*%
D26*
%TO.C,J5*%
X133110000Y-109890000D03*
D27*
X130570000Y-109890000D03*
X128030000Y-109890000D03*
%TD*%
D28*
%TO.C,FB4*%
X113100000Y-69300000D03*
X115225000Y-69300000D03*
%TD*%
D22*
%TO.C,D5*%
X116385000Y-86600000D03*
X115415000Y-86600000D03*
%TD*%
D16*
%TO.C,R29*%
X148200000Y-66400000D03*
X149220000Y-66400000D03*
%TD*%
%TO.C,R27*%
X148190000Y-62300000D03*
X149210000Y-62300000D03*
%TD*%
D29*
%TO.C,J4*%
X110005000Y-109190000D03*
X110005000Y-114970000D03*
D30*
X111172500Y-108880000D03*
D31*
X111125000Y-109680000D03*
D32*
X111125000Y-110830000D03*
X111125000Y-111830000D03*
X111125000Y-112330000D03*
X111125000Y-113330000D03*
D31*
X111125000Y-114480000D03*
D30*
X111172500Y-115280000D03*
X111172500Y-115280000D03*
D31*
X111125000Y-114480000D03*
D32*
X111125000Y-113830000D03*
X111125000Y-112830000D03*
X111125000Y-111330000D03*
X111125000Y-110330000D03*
D31*
X111125000Y-109680000D03*
D30*
X111172500Y-108880000D03*
D33*
X110525000Y-107760000D03*
D34*
X106325000Y-107760000D03*
D33*
X110525000Y-116400000D03*
D34*
X106325000Y-116400000D03*
%TD*%
D35*
%TO.C,U10*%
X145415000Y-80100000D03*
X145415000Y-80600000D03*
X145415000Y-81100000D03*
X145415000Y-81600000D03*
X145415000Y-82100000D03*
X146185000Y-82100000D03*
X146185000Y-81600000D03*
X146185000Y-81100000D03*
X146185000Y-80600000D03*
X146185000Y-80100000D03*
%TD*%
D15*
%TO.C,R13*%
X118510000Y-80000000D03*
X117490000Y-80000000D03*
%TD*%
D14*
%TO.C,C21*%
X150640000Y-133550000D03*
X151600000Y-133550000D03*
%TD*%
D24*
%TO.C,C15*%
X123880000Y-91700000D03*
X122920000Y-91700000D03*
%TD*%
D15*
%TO.C,R16*%
X118125000Y-112720000D03*
X117105000Y-112720000D03*
%TD*%
D14*
%TO.C,C26*%
X150600000Y-93800000D03*
X151560000Y-93800000D03*
%TD*%
D16*
%TO.C,R4*%
X105990000Y-74470000D03*
X107010000Y-74470000D03*
%TD*%
D36*
%TO.C,D11*%
X116100000Y-97240000D03*
X116100000Y-99340000D03*
%TD*%
D37*
%TO.C,C1*%
X114700000Y-65120000D03*
X114700000Y-66080000D03*
%TD*%
D14*
%TO.C,C32*%
X150720000Y-66400000D03*
X151680000Y-66400000D03*
%TD*%
D15*
%TO.C,R23*%
X125910000Y-76100000D03*
X124890000Y-76100000D03*
%TD*%
D14*
%TO.C,C22*%
X150640000Y-135600000D03*
X151600000Y-135600000D03*
%TD*%
D16*
%TO.C,R18*%
X124190000Y-106900000D03*
X125210000Y-106900000D03*
%TD*%
D15*
%TO.C,R49*%
X151610000Y-117650000D03*
X150590000Y-117650000D03*
%TD*%
D21*
%TO.C,C6*%
X114500000Y-80000000D03*
X114500000Y-79040000D03*
%TD*%
D16*
%TO.C,R39*%
X148000000Y-109600000D03*
X149020000Y-109600000D03*
%TD*%
D21*
%TO.C,C17*%
X143650000Y-89780000D03*
X143650000Y-88820000D03*
%TD*%
D38*
%TO.C,Q4*%
X146312500Y-134650000D03*
X146312500Y-136550000D03*
X148187500Y-135600000D03*
%TD*%
D15*
%TO.C,R24*%
X126110000Y-91700000D03*
X125090000Y-91700000D03*
%TD*%
D28*
%TO.C,FB1*%
X113000000Y-85060000D03*
X115125000Y-85060000D03*
%TD*%
D16*
%TO.C,R40*%
X148000000Y-111600000D03*
X149020000Y-111600000D03*
%TD*%
D28*
%TO.C,FB2*%
X113100000Y-100990000D03*
X115225000Y-100990000D03*
%TD*%
D16*
%TO.C,R1*%
X108700000Y-58600000D03*
X109720000Y-58600000D03*
%TD*%
D22*
%TO.C,D6*%
X116185000Y-102400000D03*
X115215000Y-102400000D03*
%TD*%
D38*
%TO.C,Q8*%
X141312500Y-95350000D03*
X141312500Y-97250000D03*
X143187500Y-96300000D03*
%TD*%
D36*
%TO.C,D10*%
X116000000Y-81410000D03*
X116000000Y-83510000D03*
%TD*%
D38*
%TO.C,Q6*%
X141312500Y-63850000D03*
X141312500Y-65750000D03*
X143187500Y-64800000D03*
%TD*%
D15*
%TO.C,R26*%
X151700000Y-127500000D03*
X150680000Y-127500000D03*
%TD*%
D29*
%TO.C,J2*%
X110005000Y-77790000D03*
X110005000Y-83570000D03*
D30*
X111172500Y-77480000D03*
D31*
X111125000Y-78280000D03*
D32*
X111125000Y-79430000D03*
X111125000Y-80430000D03*
X111125000Y-80930000D03*
X111125000Y-81930000D03*
D31*
X111125000Y-83080000D03*
D30*
X111172500Y-83880000D03*
X111172500Y-83880000D03*
D31*
X111125000Y-83080000D03*
D32*
X111125000Y-82430000D03*
X111125000Y-81430000D03*
X111125000Y-79930000D03*
X111125000Y-78930000D03*
D31*
X111125000Y-78280000D03*
D30*
X111172500Y-77480000D03*
D33*
X110525000Y-76360000D03*
D34*
X106325000Y-76360000D03*
D33*
X110525000Y-85000000D03*
D34*
X106325000Y-85000000D03*
%TD*%
D24*
%TO.C,C23*%
X137980000Y-82150000D03*
X137020000Y-82150000D03*
%TD*%
D14*
%TO.C,C24*%
X150720000Y-62300000D03*
X151680000Y-62300000D03*
%TD*%
D16*
%TO.C,R2*%
X106065000Y-58600000D03*
X107085000Y-58600000D03*
%TD*%
D14*
%TO.C,C31*%
X150620000Y-111600000D03*
X151580000Y-111600000D03*
%TD*%
D16*
%TO.C,R41*%
X147990000Y-113600000D03*
X149010000Y-113600000D03*
%TD*%
D24*
%TO.C,C13*%
X123880000Y-60000000D03*
X122920000Y-60000000D03*
%TD*%
D16*
%TO.C,R38*%
X147800000Y-99900000D03*
X148820000Y-99900000D03*
%TD*%
%TO.C,R32*%
X148080000Y-80100000D03*
X149100000Y-80100000D03*
%TD*%
D14*
%TO.C,C27*%
X150600000Y-109600000D03*
X151560000Y-109600000D03*
%TD*%
%TO.C,C29*%
X150700000Y-80100000D03*
X151660000Y-80100000D03*
%TD*%
D16*
%TO.C,R35*%
X147900000Y-93800000D03*
X148920000Y-93800000D03*
%TD*%
D37*
%TO.C,C3*%
X114600000Y-97220000D03*
X114600000Y-98180000D03*
%TD*%
D14*
%TO.C,C11*%
X116895000Y-85060000D03*
X117855000Y-85060000D03*
%TD*%
D15*
%TO.C,R15*%
X118610000Y-95900000D03*
X117590000Y-95900000D03*
%TD*%
D14*
%TO.C,C25*%
X150720000Y-78100000D03*
X151680000Y-78100000D03*
%TD*%
D39*
%TO.C,D2*%
X116000000Y-80010000D03*
X116000000Y-77910000D03*
%TD*%
D25*
%TO.C,U7*%
X122825000Y-87600000D03*
X122825000Y-88550000D03*
X122825000Y-89500000D03*
X125100000Y-89500000D03*
X125100000Y-87600000D03*
%TD*%
D15*
%TO.C,R17*%
X118125000Y-111520000D03*
X117105000Y-111520000D03*
%TD*%
D14*
%TO.C,C39*%
X150600000Y-115600000D03*
X151560000Y-115600000D03*
%TD*%
D16*
%TO.C,R28*%
X148200000Y-64300000D03*
X149220000Y-64300000D03*
%TD*%
%TO.C,R6*%
X106190000Y-89700000D03*
X107210000Y-89700000D03*
%TD*%
D21*
%TO.C,C8*%
X114115000Y-111400000D03*
X114115000Y-110440000D03*
%TD*%
D39*
%TO.C,D1*%
X116200000Y-63800000D03*
X116200000Y-61700000D03*
%TD*%
D40*
%TO.C,U8*%
X133337500Y-85587500D03*
X133337500Y-86087500D03*
X133337500Y-86587500D03*
X133337500Y-87087500D03*
X133337500Y-87587500D03*
X133337500Y-88087500D03*
X133337500Y-88587500D03*
X133337500Y-89087500D03*
X133337500Y-89587500D03*
X133337500Y-90087500D03*
X133337500Y-90587500D03*
X133337500Y-91087500D03*
D41*
X134750000Y-92500000D03*
X135250000Y-92500000D03*
X135750000Y-92500000D03*
X136250000Y-92500000D03*
X136750000Y-92500000D03*
X137250000Y-92500000D03*
X137750000Y-92500000D03*
X138250000Y-92500000D03*
X138750000Y-92500000D03*
X139250000Y-92500000D03*
X139750000Y-92500000D03*
X140250000Y-92500000D03*
D40*
X141662500Y-91087500D03*
X141662500Y-90587500D03*
X141662500Y-90087500D03*
X141662500Y-89587500D03*
X141662500Y-89087500D03*
X141662500Y-88587500D03*
X141662500Y-88087500D03*
X141662500Y-87587500D03*
X141662500Y-87087500D03*
X141662500Y-86587500D03*
X141662500Y-86087500D03*
X141662500Y-85587500D03*
D41*
X140250000Y-84175000D03*
X139750000Y-84175000D03*
X139250000Y-84175000D03*
X138750000Y-84175000D03*
X138250000Y-84175000D03*
X137750000Y-84175000D03*
X137250000Y-84175000D03*
X136750000Y-84175000D03*
X136250000Y-84175000D03*
X135750000Y-84175000D03*
X135250000Y-84175000D03*
X134750000Y-84175000D03*
%TD*%
D21*
%TO.C,C5*%
X114700000Y-63780000D03*
X114700000Y-62820000D03*
%TD*%
D14*
%TO.C,C30*%
X150600000Y-95800000D03*
X151560000Y-95800000D03*
%TD*%
D38*
%TO.C,Q5*%
X141312500Y-111250000D03*
X141312500Y-113150000D03*
X143187500Y-112200000D03*
%TD*%
D42*
%TO.C,D14*%
X124475000Y-117800000D03*
X122900000Y-117800000D03*
%TD*%
D16*
%TO.C,R34*%
X148100000Y-84100000D03*
X149120000Y-84100000D03*
%TD*%
%TO.C,R30*%
X148190000Y-68400000D03*
X149210000Y-68400000D03*
%TD*%
D43*
%TO.C,U4*%
X124222500Y-109490000D03*
X123587500Y-109490000D03*
X122952500Y-109490000D03*
X122317500Y-109490000D03*
X121682500Y-109490000D03*
X121047500Y-109490000D03*
X120412500Y-109490000D03*
X119777500Y-109490000D03*
X119777500Y-114690000D03*
X120412500Y-114690000D03*
X121047500Y-114690000D03*
X121682500Y-114690000D03*
X122317500Y-114690000D03*
X122952500Y-114690000D03*
X123587500Y-114690000D03*
X124222500Y-114690000D03*
%TD*%
D22*
%TO.C,D8*%
X116285000Y-70800000D03*
X115315000Y-70800000D03*
%TD*%
D43*
%TO.C,U1*%
X125322500Y-62000000D03*
X124687500Y-62000000D03*
X124052500Y-62000000D03*
X123417500Y-62000000D03*
X122782500Y-62000000D03*
X122147500Y-62000000D03*
X121512500Y-62000000D03*
X120877500Y-62000000D03*
X120877500Y-67200000D03*
X121512500Y-67200000D03*
X122147500Y-67200000D03*
X122782500Y-67200000D03*
X123417500Y-67200000D03*
X124052500Y-67200000D03*
X124687500Y-67200000D03*
X125322500Y-67200000D03*
%TD*%
D16*
%TO.C,R36*%
X147880000Y-95800000D03*
X148900000Y-95800000D03*
%TD*%
D37*
%TO.C,C4*%
X114115000Y-112740000D03*
X114115000Y-113700000D03*
%TD*%
D15*
%TO.C,R48*%
X151610000Y-92300000D03*
X150590000Y-92300000D03*
%TD*%
D14*
%TO.C,C33*%
X150700000Y-82100000D03*
X151660000Y-82100000D03*
%TD*%
D16*
%TO.C,R31*%
X148110000Y-78100000D03*
X149130000Y-78100000D03*
%TD*%
D14*
%TO.C,C35*%
X150620000Y-113600000D03*
X151580000Y-113600000D03*
%TD*%
D15*
%TO.C,R22*%
X125920000Y-60000000D03*
X124900000Y-60000000D03*
%TD*%
D37*
%TO.C,C2*%
X114500000Y-81420000D03*
X114500000Y-82380000D03*
%TD*%
D35*
%TO.C,U12*%
X145415000Y-111700000D03*
X145415000Y-112200000D03*
X145415000Y-112700000D03*
X145415000Y-113200000D03*
X145415000Y-113700000D03*
X146185000Y-113700000D03*
X146185000Y-113200000D03*
X146185000Y-112700000D03*
X146185000Y-112200000D03*
X146185000Y-111700000D03*
%TD*%
D14*
%TO.C,C9*%
X121405000Y-116466250D03*
X122365000Y-116466250D03*
%TD*%
D29*
%TO.C,J1*%
X110005000Y-62010000D03*
X110005000Y-67790000D03*
D30*
X111172500Y-61700000D03*
D31*
X111125000Y-62500000D03*
D32*
X111125000Y-63650000D03*
X111125000Y-64650000D03*
X111125000Y-65150000D03*
X111125000Y-66150000D03*
D31*
X111125000Y-67300000D03*
D30*
X111172500Y-68100000D03*
X111172500Y-68100000D03*
D31*
X111125000Y-67300000D03*
D32*
X111125000Y-66650000D03*
X111125000Y-65650000D03*
X111125000Y-64150000D03*
X111125000Y-63150000D03*
D31*
X111125000Y-62500000D03*
D30*
X111172500Y-61700000D03*
D33*
X110525000Y-60580000D03*
D34*
X106325000Y-60580000D03*
D33*
X110525000Y-69220000D03*
D34*
X106325000Y-69220000D03*
%TD*%
D14*
%TO.C,C34*%
X150600000Y-97900000D03*
X151560000Y-97900000D03*
%TD*%
%TO.C,C38*%
X150540000Y-99900000D03*
X151500000Y-99900000D03*
%TD*%
D29*
%TO.C,J3*%
X110005000Y-93590000D03*
X110005000Y-99370000D03*
D30*
X111172500Y-93280000D03*
D31*
X111125000Y-94080000D03*
D32*
X111125000Y-95230000D03*
X111125000Y-96230000D03*
X111125000Y-96730000D03*
X111125000Y-97730000D03*
D31*
X111125000Y-98880000D03*
D30*
X111172500Y-99680000D03*
X111172500Y-99680000D03*
D31*
X111125000Y-98880000D03*
D32*
X111125000Y-98230000D03*
X111125000Y-97230000D03*
X111125000Y-95730000D03*
X111125000Y-94730000D03*
D31*
X111125000Y-94080000D03*
D30*
X111172500Y-93280000D03*
D33*
X110525000Y-92160000D03*
D34*
X106325000Y-92160000D03*
D33*
X110525000Y-100800000D03*
D34*
X106325000Y-100800000D03*
%TD*%
D38*
%TO.C,Q2*%
X146312500Y-127050000D03*
X146312500Y-128950000D03*
X148187500Y-128000000D03*
%TD*%
D16*
%TO.C,R19*%
X124190000Y-108000000D03*
X125210000Y-108000000D03*
%TD*%
D15*
%TO.C,R14*%
X118610000Y-97200000D03*
X117590000Y-97200000D03*
%TD*%
D39*
%TO.C,D4*%
X115610000Y-111440000D03*
X115610000Y-109340000D03*
%TD*%
D14*
%TO.C,C28*%
X150720000Y-64300000D03*
X151680000Y-64300000D03*
%TD*%
D16*
%TO.C,R5*%
X109100000Y-89700000D03*
X110120000Y-89700000D03*
%TD*%
D35*
%TO.C,U11*%
X145415000Y-95774328D03*
X145415000Y-96274328D03*
X145415000Y-96774328D03*
X145415000Y-97274328D03*
X145415000Y-97774328D03*
X146185000Y-97774328D03*
X146185000Y-97274328D03*
X146185000Y-96774328D03*
X146185000Y-96274328D03*
X146185000Y-95774328D03*
%TD*%
D15*
%TO.C,R44*%
X151710000Y-60400000D03*
X150690000Y-60400000D03*
%TD*%
D24*
%TO.C,C14*%
X123880000Y-76100000D03*
X122920000Y-76100000D03*
%TD*%
D35*
%TO.C,U9*%
X145415000Y-64300000D03*
X145415000Y-64800000D03*
X145415000Y-65300000D03*
X145415000Y-65800000D03*
X145415000Y-66300000D03*
X146185000Y-66300000D03*
X146185000Y-65800000D03*
X146185000Y-65300000D03*
X146185000Y-64800000D03*
X146185000Y-64300000D03*
%TD*%
D43*
%TO.C,U3*%
X125322500Y-93890000D03*
X124687500Y-93890000D03*
X124052500Y-93890000D03*
X123417500Y-93890000D03*
X122782500Y-93890000D03*
X122147500Y-93890000D03*
X121512500Y-93890000D03*
X120877500Y-93890000D03*
X120877500Y-99090000D03*
X121512500Y-99090000D03*
X122147500Y-99090000D03*
X122782500Y-99090000D03*
X123417500Y-99090000D03*
X124052500Y-99090000D03*
X124687500Y-99090000D03*
X125322500Y-99090000D03*
%TD*%
D16*
%TO.C,R42*%
X147990000Y-115600000D03*
X149010000Y-115600000D03*
%TD*%
D36*
%TO.C,D9*%
X116200000Y-65100000D03*
X116200000Y-67200000D03*
%TD*%
D16*
%TO.C,R3*%
X108837500Y-74470000D03*
X109857500Y-74470000D03*
%TD*%
D15*
%TO.C,R11*%
X118710000Y-63800000D03*
X117690000Y-63800000D03*
%TD*%
D28*
%TO.C,FB3*%
X113000000Y-116562500D03*
X115125000Y-116562500D03*
%TD*%
D14*
%TO.C,C18*%
X150740000Y-129500000D03*
X151700000Y-129500000D03*
%TD*%
D17*
%TO.C,J6*%
X158400000Y-138380000D03*
X158400000Y-125680000D03*
D18*
X160940000Y-135590000D03*
D19*
X162720000Y-134574000D03*
X160940000Y-133558000D03*
X162720000Y-132542000D03*
X160940000Y-131526000D03*
X162720000Y-130510000D03*
X160940000Y-129494000D03*
X162720000Y-128478000D03*
X167540000Y-138890000D03*
X167540000Y-136600000D03*
X167540000Y-127460000D03*
X167540000Y-125170000D03*
D44*
X161830000Y-140160000D03*
X161830000Y-123900000D03*
%TD*%
D16*
%TO.C,R8*%
X105290000Y-105800000D03*
X106310000Y-105800000D03*
%TD*%
D14*
%TO.C,C20*%
X134720000Y-94600000D03*
X135680000Y-94600000D03*
%TD*%
D38*
%TO.C,Q7*%
X141312500Y-79650000D03*
X141312500Y-81550000D03*
X143187500Y-80600000D03*
%TD*%
D15*
%TO.C,R45*%
X151760000Y-86000000D03*
X150740000Y-86000000D03*
%TD*%
D39*
%TO.C,D3*%
X116100000Y-95840000D03*
X116100000Y-93740000D03*
%TD*%
D15*
%TO.C,R25*%
X151610000Y-137950000D03*
X150590000Y-137950000D03*
%TD*%
%TO.C,R46*%
X151710000Y-76100000D03*
X150690000Y-76100000D03*
%TD*%
D38*
%TO.C,Q1*%
X146312500Y-123200000D03*
X146312500Y-125100000D03*
X148187500Y-124150000D03*
%TD*%
D16*
%TO.C,R37*%
X147900000Y-97900000D03*
X148920000Y-97900000D03*
%TD*%
D43*
%TO.C,U2*%
X125322500Y-78160000D03*
X124687500Y-78160000D03*
X124052500Y-78160000D03*
X123417500Y-78160000D03*
X122782500Y-78160000D03*
X122147500Y-78160000D03*
X121512500Y-78160000D03*
X120877500Y-78160000D03*
X120877500Y-83360000D03*
X121512500Y-83360000D03*
X122147500Y-83360000D03*
X122782500Y-83360000D03*
X123417500Y-83360000D03*
X124052500Y-83360000D03*
X124687500Y-83360000D03*
X125322500Y-83360000D03*
%TD*%
D38*
%TO.C,Q3*%
X146312500Y-130850000D03*
X146312500Y-132750000D03*
X148187500Y-131800000D03*
%TD*%
D36*
%TO.C,D12*%
X115610000Y-112740000D03*
X115610000Y-114840000D03*
%TD*%
D16*
%TO.C,R7*%
X108315000Y-105800000D03*
X109335000Y-105800000D03*
%TD*%
D25*
%TO.C,U5*%
X122800000Y-56600000D03*
X122800000Y-57550000D03*
X122800000Y-58500000D03*
X125075000Y-58500000D03*
X125075000Y-56600000D03*
%TD*%
D15*
%TO.C,R47*%
X151510000Y-101200000D03*
X150490000Y-101200000D03*
%TD*%
%TO.C,R50*%
X151610000Y-107500000D03*
X150590000Y-107500000D03*
%TD*%
%LPD*%
M02*
