%TF.GenerationSoftware,KiCad,Pcbnew,9.0.1*%
%TF.CreationDate,2025-07-28T12:05:53-04:00*%
%TF.ProjectId,SO4R_Interlock,534f3452-5f49-46e7-9465-726c6f636b2e,rev?*%
%TF.SameCoordinates,Original*%
%TF.FileFunction,Legend,Bot*%
%TF.FilePolarity,Positive*%
%FSLAX46Y46*%
G04 Gerber Fmt 4.6, Leading zero omitted, Abs format (unit mm)*
G04 Created by KiCad (PCBNEW 9.0.1) date 2025-07-28 12:05:53*
%MOMM*%
%LPD*%
G01*
G04 APERTURE LIST*
%ADD10C,3.250000*%
%ADD11R,1.500000X1.500000*%
%ADD12C,1.500000*%
%ADD13C,2.570000*%
%ADD14C,2.300000*%
%ADD15R,1.700000X1.700000*%
%ADD16C,1.700000*%
%ADD17C,0.650000*%
%ADD18O,2.100000X1.000000*%
%ADD19O,1.800000X1.000000*%
%ADD20R,2.000000X4.500000*%
%ADD21O,2.000000X4.000000*%
%ADD22O,4.000000X2.000000*%
G04 APERTURE END LIST*
%LPC*%
D10*
%TO.C,J8*%
X164100000Y-58475000D03*
X164100000Y-118415000D03*
D11*
X161560000Y-61265000D03*
D12*
X159780000Y-62281000D03*
X161560000Y-63297000D03*
X159780000Y-64313000D03*
X161560000Y-65329000D03*
X159780000Y-66345000D03*
X161560000Y-67361000D03*
X159780000Y-68377000D03*
X154960000Y-57965000D03*
X154960000Y-60255000D03*
X154960000Y-69395000D03*
X154960000Y-71685000D03*
X161560000Y-77015000D03*
X159780000Y-78031000D03*
X161560000Y-79047000D03*
X159780000Y-80063000D03*
X161560000Y-81079000D03*
X159780000Y-82095000D03*
X161560000Y-83111000D03*
X159780000Y-84127000D03*
X154960000Y-73715000D03*
X154960000Y-76005000D03*
X154960000Y-85145000D03*
X154960000Y-87435000D03*
X161560000Y-92765000D03*
X159780000Y-93781000D03*
X161560000Y-94797000D03*
X159780000Y-95813000D03*
X161560000Y-96829000D03*
X159780000Y-97845000D03*
X161560000Y-98861000D03*
X159780000Y-99877000D03*
X154960000Y-89465000D03*
X154960000Y-91755000D03*
X154960000Y-100895000D03*
X154960000Y-103185000D03*
X161560000Y-108515000D03*
X159780000Y-109531000D03*
X161560000Y-110547000D03*
X159780000Y-111563000D03*
X161560000Y-112579000D03*
X159780000Y-113595000D03*
X161560000Y-114611000D03*
X159780000Y-115627000D03*
X154960000Y-105215000D03*
X154960000Y-107505000D03*
X154960000Y-116645000D03*
X154960000Y-118935000D03*
D13*
X160670000Y-56695000D03*
X153940000Y-80575000D03*
X153940000Y-96325000D03*
X160670000Y-120195000D03*
%TD*%
D10*
%TO.C,J7*%
X164125000Y-125750000D03*
X164125000Y-138450000D03*
D11*
X161585000Y-128540000D03*
D12*
X159805000Y-129556000D03*
X161585000Y-130572000D03*
X159805000Y-131588000D03*
X161585000Y-132604000D03*
X159805000Y-133620000D03*
X161585000Y-134636000D03*
X159805000Y-135652000D03*
X154985000Y-125240000D03*
X154985000Y-127530000D03*
X154985000Y-136670000D03*
X154985000Y-138960000D03*
D14*
X160695000Y-123970000D03*
X160695000Y-140230000D03*
%TD*%
D15*
%TO.C,J6*%
X127500000Y-115040000D03*
D16*
X127500000Y-112500000D03*
X127500000Y-109960000D03*
%TD*%
D17*
%TO.C,J5*%
X110005000Y-109190000D03*
X110005000Y-114970000D03*
D18*
X110525000Y-107760000D03*
D19*
X106325000Y-107760000D03*
D18*
X110525000Y-116400000D03*
D19*
X106325000Y-116400000D03*
%TD*%
D17*
%TO.C,J4*%
X110005000Y-93590000D03*
X110005000Y-99370000D03*
D18*
X110525000Y-92160000D03*
D19*
X106325000Y-92160000D03*
D18*
X110525000Y-100800000D03*
D19*
X106325000Y-100800000D03*
%TD*%
D17*
%TO.C,J3*%
X110005000Y-77790000D03*
X110005000Y-83570000D03*
D18*
X110525000Y-76360000D03*
D19*
X106325000Y-76360000D03*
D18*
X110525000Y-85000000D03*
D19*
X106325000Y-85000000D03*
%TD*%
D17*
%TO.C,J2*%
X110005000Y-62010000D03*
X110005000Y-67790000D03*
D18*
X110525000Y-60580000D03*
D19*
X106325000Y-60580000D03*
D18*
X110525000Y-69220000D03*
D19*
X106325000Y-69220000D03*
%TD*%
D20*
%TO.C,J1*%
X117650000Y-126650000D03*
D21*
X111450000Y-126650000D03*
D22*
X114450000Y-131350000D03*
%TD*%
%LPD*%
M02*
