M48
; DRILL file {KiCad 9.0.3-9.0.3-0~ubuntu24.04.1} date 2025-08-10T13:26:28-0400
; FORMAT={-:-/ absolute / inch / decimal}
; #@! TF.CreationDate,2025-08-10T13:26:28-04:00
; #@! TF.GenerationSoftware,Kicad,Pcbnew,9.0.3-9.0.3-0~ubuntu24.04.1
; #@! TF.FileFunction,Plated,1,4,PTH
FMAT,2
INCH
; #@! TA.AperFunction,Plated,PTH,ViaDrill
T1C0.0118
; #@! TA.AperFunction,Plated,PTH,ComponentDrill
T2C0.0236
; #@! TA.AperFunction,Plated,PTH,ComponentDrill
T3C0.0350
; #@! TA.AperFunction,Plated,PTH,ComponentDrill
T4C0.0394
; #@! TA.AperFunction,Plated,PTH,ComponentDrill
T5C0.0618
; #@! TA.AperFunction,Plated,PTH,ViaDrill
T6C0.1339
%
G90
G05
T1
X4.0984Y-2.1654
X4.1142Y-4.1654
X4.1417Y-2.3071
X4.1417Y-2.9319
X4.1457Y-3.5315
X4.2323Y-4.1654
X4.2524Y-2.3071
X4.2538Y-2.9331
X4.2642Y-3.5319
X4.2776Y-3.2337
X4.2795Y-4.4705
X4.2904Y-3.8539
X4.296Y-2.6181
X4.2972Y-4.326
X4.301Y-3.0868
X4.3014Y-3.7144
X4.3063Y-2.4716
X4.3278Y-3.2337
X4.3287Y-4.4705
X4.3335Y-3.1299
X4.334Y-3.8597
X4.3346Y-4.3634
X4.3372Y-3.7492
X4.3374Y-2.6209
X4.3406Y-2.5059
X4.3976Y-1.9429
X4.4024Y-4.5447
X4.4094Y-3.9252
X4.4094Y-3.0512
X4.4094Y-3.1665
X4.4094Y-3.3031
X4.4094Y-3.6732
X4.4094Y-4.2866
X4.4134Y-4.4016
X4.4146Y-2.5455
X4.4154Y-3.789
X4.4173Y-2.6811
X4.4291Y-2.4291
X4.4528Y-3.1665
X4.4547Y-4.4016
X4.4571Y-3.789
X4.4587Y-2.5455
X4.4927Y-4.3236
X4.4927Y-4.5047
X4.5079Y-3.0827
X4.5079Y-3.2756
X4.5118Y-3.7047
X4.5118Y-3.8898
X4.5516Y-4.2677
X4.5669Y-3.0276
X4.5694Y-4.6836
X4.5709Y-3.6575
X4.5709Y-4.5512
X4.5748Y-2.3937
X4.5748Y-2.6811
X4.5748Y-3.3189
X4.5748Y-3.9449
X4.5748Y-4.063
X4.5787Y-2.8189
X4.6102Y-3.4094
X4.6693Y-3.9764
X4.7028Y-1.9488
X4.7169Y-5.7724
X4.7205Y-5.0846
X4.748Y-4.1819
X4.7514Y-4.5853
X4.7756Y-3.3976
X4.7795Y-3.1811
X4.7874Y-2.9409
X4.7906Y-4.2685
X4.7913Y-2.3031
X4.7913Y-3.5236
X4.7933Y-2.5433
X4.8031Y-4.6378
X4.815Y-2.3622
X4.8189Y-4.5551
X4.8228Y-4.2047
X4.8228Y-4.2685
X4.8307Y-3.0339
X4.8346Y-3.6571
X4.8484Y-3.1201
X4.8559Y-3.3236
X4.8583Y-2.3937
X4.8583Y-2.6929
X4.8583Y-3.9366
X4.859Y-3.6457
X4.8602Y-2.4947
X4.8622Y-3.0315
X4.8804Y-3.1521
X4.9055Y-2.3937
X4.9055Y-3.0315
X4.9055Y-3.6457
X4.9075Y-2.4947
X4.9331Y-3.563
X4.9346Y-3.648
X4.9646Y-2.8661
X4.9646Y-3.1358
X4.9685Y-2.5669
X4.9685Y-3.4488
X4.9724Y-2.2283
X4.9882Y-2.9764
X4.9882Y-3.0157
X4.9921Y-2.3425
X4.9921Y-2.3819
X4.9921Y-3.5531
X4.9921Y-3.6102
X5.0039Y-1.9488
X5.0138Y-2.2559
X5.0217Y-3.6398
X5.022Y-5.7783
X5.0276Y-2.4547
X5.0315Y-3.0787
X5.0315Y-3.748
X5.0354Y-4.063
X5.0571Y-3.3701
X5.0768Y-5.0689
X5.0924Y-4.1122
X5.0924Y-4.1691
X5.0925Y-4.25
X5.1004Y-3.7776
X5.1021Y-3.5079
X5.1021Y-3.409
X5.1063Y-2.7402
X5.1063Y-2.9606
X5.1161Y-3.1319
X5.128Y-4.876
X5.1299Y-3.409
X5.1299Y-3.5079
X5.1319Y-4.25
X5.1457Y-4.1696
X5.1535Y-3.0827
X5.1535Y-3.1752
X5.1535Y-3.2382
X5.1535Y-4.5945
X5.1594Y-4.1122
X5.1654Y-4.437
X5.1772Y-3.5276
X5.2047Y-2.6299
X5.2224Y-5.3701
X5.2385Y-3.6165
X5.25Y-3.315
X5.2521Y-3.7776
X5.2559Y-2.7402
X5.2638Y-4.437
X5.2657Y-3.6457
X5.2697Y-5.2008
X5.2756Y-3.7244
X5.3012Y-1.9488
X5.3071Y-5.3504
X5.3091Y-4.9764
X5.3091Y-5.0056
X5.3091Y-5.3237
X5.3232Y-5.7783
X5.3268Y-3.7913
X5.3445Y-3.689
X5.3484Y-5.3248
X5.3484Y-5.3504
X5.3504Y-3.0827
X5.3504Y-3.2402
X5.3543Y-3.4291
X5.3701Y-3.1752
X5.378Y-2.7362
X5.3839Y-5.2008
X5.4035Y-3.2638
X5.4055Y-2.4291
X5.4055Y-5.4429
X5.4094Y-3.0157
X5.4173Y-4.9764
X5.4173Y-5.0039
X5.437Y-4.2343
X5.4409Y-5.8071
X5.4567Y-4.9528
X5.4567Y-5.0787
X5.4587Y-3.2343
X5.4626Y-3.0295
X5.4823Y-3.5591
X5.4961Y-4.6063
X5.5079Y-4.8622
X5.5118Y-3.3799
X5.5217Y-3.0307
X5.5217Y-4.2343
X5.5315Y-2.5906
X5.5315Y-3.468
X5.5315Y-4.4567
X5.5413Y-3.1417
X5.5413Y-3.2126
X5.5413Y-3.8307
X5.5433Y-3.7165
X5.5453Y-4.3799
X5.5505Y-2.8819
X5.5591Y-4.189
X5.563Y-3.752
X5.5748Y-2.5157
X5.5768Y-4.0945
X5.5965Y-3.6319
X5.6024Y-1.9488
X5.6024Y-3.9252
X5.6205Y-5.7783
X5.622Y-3.6319
X5.622Y-3.9055
X5.626Y-3.5074
X5.6496Y-3.6339
X5.6496Y-3.8858
X5.6555Y-3.563
X5.6701Y-2.3948
X5.6772Y-5.3701
X5.6831Y-2.2992
X5.689Y-4.437
X5.6927Y-3.81
X5.7008Y-2.3642
X5.7008Y-2.9921
X5.7165Y-3.6122
X5.7165Y-4.2343
X5.7244Y-3.1929
X5.7283Y-2.5709
X5.7402Y-2.372
X5.7815Y-4.0591
X5.7949Y-5.3976
X5.8071Y-4.437
X5.8189Y-3.1929
X5.8189Y-3.81
X5.8209Y-3.5492
X5.8228Y-2.5709
X5.8228Y-3.372
X5.8228Y-3.4724
X5.8717Y-5.1004
X5.872Y-5.1811
X5.8732Y-5.2579
X5.874Y-5.3406
X5.8976Y-3.9331
X5.8976Y-3.8543
X5.8976Y-4.315
X5.8976Y-4.3937
X5.8976Y-4.4724
X5.8976Y-4.5512
X5.8996Y-4.2303
X5.9016Y-3.7717
X5.9016Y-3.6929
X5.9024Y-3.0748
X5.9035Y-2.9921
X5.9035Y-3.311
X5.9035Y-3.6122
X5.9055Y-3.1535
X5.9055Y-2.374
X5.9055Y-2.4528
X5.9055Y-2.5315
X5.9055Y-2.6142
X5.9055Y-2.6929
X5.9055Y-3.2323
X5.9173Y-1.9429
X5.9217Y-5.7783
X5.9469Y-2.8346
X5.9941Y-5.2835
X5.9941Y-5.3661
X5.9961Y-5.124
X5.9961Y-5.2067
X6.2185Y-1.9429
T3
X6.1008Y-2.2821
X6.1008Y-2.3722
X6.1008Y-2.7321
X6.1008Y-2.8222
X6.1008Y-2.9022
X6.1008Y-2.9923
X6.1008Y-3.3522
X6.1008Y-3.4423
X6.1008Y-3.5222
X6.1008Y-3.6124
X6.1008Y-3.9722
X6.1008Y-4.0624
X6.1008Y-4.1423
X6.1008Y-4.2325
X6.1008Y-4.5923
X6.1008Y-4.6825
X6.1018Y-4.9307
X6.1018Y-5.0209
X6.1018Y-5.3807
X6.1018Y-5.4709
X6.2906Y-2.452
X6.2906Y-2.532
X6.2906Y-2.612
X6.2906Y-2.692
X6.2906Y-3.0721
X6.2906Y-3.1521
X6.2906Y-3.2321
X6.2906Y-3.3121
X6.2906Y-3.6922
X6.2906Y-3.7722
X6.2906Y-3.8522
X6.2906Y-3.9322
X6.2906Y-4.3122
X6.2906Y-4.3922
X6.2906Y-4.4722
X6.2906Y-4.5522
X6.2915Y-5.1006
X6.2915Y-5.1806
X6.2915Y-5.2606
X6.2915Y-5.3406
X6.3606Y-2.412
X6.3606Y-2.492
X6.3606Y-2.572
X6.3606Y-2.652
X6.3606Y-3.0321
X6.3606Y-3.1121
X6.3606Y-3.1921
X6.3606Y-3.2721
X6.3606Y-3.6522
X6.3606Y-3.7322
X6.3606Y-3.8122
X6.3606Y-3.8922
X6.3606Y-4.2722
X6.3606Y-4.3522
X6.3606Y-4.4322
X6.3606Y-4.5122
X6.3616Y-5.0606
X6.3616Y-5.1406
X6.3616Y-5.2206
X6.3616Y-5.3006
T4
X5.0197Y-4.3291
X5.0197Y-4.4291
X5.0197Y-4.5291
T5
X6.0606Y-3.1722
X6.0606Y-3.7923
X6.3256Y-2.2321
X6.3256Y-4.7321
X6.3266Y-4.8807
X6.3266Y-5.5209
T6
X4.2283Y-2.0433
X4.2283Y-5.6929
X6.3701Y-2.0394
X6.3701Y-5.7004
T2
G00X4.2018Y-2.385
M15
G01X4.1703Y-2.385
M16
G05
G00X4.2018Y-2.7252
M15
G01X4.1703Y-2.7252
M16
G05
G00X4.2018Y-3.0063
M15
G01X4.1703Y-3.0063
M16
G05
G00X4.2018Y-3.3465
M15
G01X4.1703Y-3.3465
M16
G05
G00X4.2018Y-3.6283
M15
G01X4.1703Y-3.6283
M16
G05
G00X4.2018Y-3.9685
M15
G01X4.1703Y-3.9685
M16
G05
G00X4.2018Y-4.2425
M15
G01X4.1703Y-4.2425
M16
G05
G00X4.2018Y-4.5827
M15
G01X4.1703Y-4.5827
M16
G05
G00X4.373Y-2.385
M15
G01X4.3297Y-2.385
M16
G05
G00X4.373Y-2.7252
M15
G01X4.3297Y-2.7252
M16
G05
G00X4.373Y-3.0063
M15
G01X4.3297Y-3.0063
M16
G05
G00X4.373Y-3.3465
M15
G01X4.3297Y-3.3465
M16
G05
G00X4.373Y-3.6283
M15
G01X4.3297Y-3.6283
M16
G05
G00X4.373Y-3.9685
M15
G01X4.3297Y-3.9685
M16
G05
G00X4.373Y-4.2425
M15
G01X4.3297Y-4.2425
M16
G05
G00X4.373Y-4.5827
M15
G01X4.3297Y-4.5827
M16
G05
T4
G00X4.3878Y-4.9469
M15
G01X4.3878Y-5.0256
M16
G05
G00X4.4665Y-5.1713
M15
G01X4.5453Y-5.1713
M16
G05
G00X4.6319Y-4.937
M15
G01X4.6319Y-5.0354
M16
G05
M30
