%TF.GenerationSoftware,KiCad,Pcbnew,9.0.3-9.0.3-0~ubuntu24.04.1*%
%TF.CreationDate,2025-07-27T18:00:46-04:00*%
%TF.ProjectId,SO4R_Interlock,534f3452-5f49-46e7-9465-726c6f636b2e,rev?*%
%TF.SameCoordinates,Original*%
%TF.FileFunction,Soldermask,Top*%
%TF.FilePolarity,Negative*%
%FSLAX46Y46*%
G04 Gerber Fmt 4.6, Leading zero omitted, Abs format (unit mm)*
G04 Created by KiCad (PCBNEW 9.0.3-9.0.3-0~ubuntu24.04.1) date 2025-07-27 18:00:46*
%MOMM*%
%LPD*%
G01*
G04 APERTURE LIST*
G04 Aperture macros list*
%AMRoundRect*
0 Rectangle with rounded corners*
0 $1 Rounding radius*
0 $2 $3 $4 $5 $6 $7 $8 $9 X,Y pos of 4 corners*
0 Add a 4 corners polygon primitive as box body*
4,1,4,$2,$3,$4,$5,$6,$7,$8,$9,$2,$3,0*
0 Add four circle primitives for the rounded corners*
1,1,$1+$1,$2,$3*
1,1,$1+$1,$4,$5*
1,1,$1+$1,$6,$7*
1,1,$1+$1,$8,$9*
0 Add four rect primitives between the rounded corners*
20,1,$1+$1,$2,$3,$4,$5,0*
20,1,$1+$1,$4,$5,$6,$7,0*
20,1,$1+$1,$6,$7,$8,$9,0*
20,1,$1+$1,$8,$9,$2,$3,0*%
G04 Aperture macros list end*
%ADD10R,0.650000X1.300000*%
%ADD11R,6.400000X2.650000*%
%ADD12RoundRect,0.140000X-0.140000X-0.170000X0.140000X-0.170000X0.140000X0.170000X-0.140000X0.170000X0*%
%ADD13RoundRect,0.135000X0.135000X0.185000X-0.135000X0.185000X-0.135000X-0.185000X0.135000X-0.185000X0*%
%ADD14R,1.500000X1.500000*%
%ADD15C,1.500000*%
%ADD16C,2.570000*%
%ADD17RoundRect,0.140000X0.170000X-0.140000X0.170000X0.140000X-0.170000X0.140000X-0.170000X-0.140000X0*%
%ADD18RoundRect,0.150000X-0.150000X-0.200000X0.150000X-0.200000X0.150000X0.200000X-0.150000X0.200000X0*%
%ADD19RoundRect,0.147500X0.147500X0.172500X-0.147500X0.172500X-0.147500X-0.172500X0.147500X-0.172500X0*%
%ADD20RoundRect,0.135000X-0.135000X-0.185000X0.135000X-0.185000X0.135000X0.185000X-0.135000X0.185000X0*%
%ADD21RoundRect,0.218750X-0.218750X-0.256250X0.218750X-0.256250X0.218750X0.256250X-0.218750X0.256250X0*%
%ADD22RoundRect,0.112500X0.187500X0.112500X-0.187500X0.112500X-0.187500X-0.112500X0.187500X-0.112500X0*%
%ADD23R,2.000000X4.500000*%
%ADD24O,2.000000X4.000000*%
%ADD25O,4.000000X2.000000*%
%ADD26RoundRect,0.140000X0.140000X0.170000X-0.140000X0.170000X-0.140000X-0.170000X0.140000X-0.170000X0*%
%ADD27RoundRect,0.150000X-0.512500X-0.150000X0.512500X-0.150000X0.512500X0.150000X-0.512500X0.150000X0*%
%ADD28R,1.700000X1.700000*%
%ADD29C,1.700000*%
%ADD30RoundRect,0.218750X-0.218750X-0.381250X0.218750X-0.381250X0.218750X0.381250X-0.218750X0.381250X0*%
%ADD31RoundRect,0.112500X-0.187500X-0.112500X0.187500X-0.112500X0.187500X0.112500X-0.187500X0.112500X0*%
%ADD32RoundRect,0.150000X-0.422500X0.150000X-0.422500X-0.150000X0.422500X-0.150000X0.422500X0.150000X0*%
%ADD33RoundRect,0.150000X-0.470000X0.150000X-0.470000X-0.150000X0.470000X-0.150000X0.470000X0.150000X0*%
%ADD34R,1.240000X0.300000*%
%ADD35O,2.100000X1.000000*%
%ADD36O,1.800000X1.000000*%
%ADD37RoundRect,0.075000X-0.200000X0.075000X-0.200000X-0.075000X0.200000X-0.075000X0.200000X0.075000X0*%
%ADD38RoundRect,0.150000X0.200000X-0.150000X0.200000X0.150000X-0.200000X0.150000X-0.200000X-0.150000X0*%
%ADD39RoundRect,0.140000X-0.170000X0.140000X-0.170000X-0.140000X0.170000X-0.140000X0.170000X0.140000X0*%
%ADD40RoundRect,0.150000X-0.587500X-0.150000X0.587500X-0.150000X0.587500X0.150000X-0.587500X0.150000X0*%
%ADD41RoundRect,0.150000X-0.200000X0.150000X-0.200000X-0.150000X0.200000X-0.150000X0.200000X0.150000X0*%
%ADD42RoundRect,0.075000X-0.662500X-0.075000X0.662500X-0.075000X0.662500X0.075000X-0.662500X0.075000X0*%
%ADD43RoundRect,0.075000X-0.075000X-0.662500X0.075000X-0.662500X0.075000X0.662500X-0.075000X0.662500X0*%
%ADD44RoundRect,0.218750X0.218750X0.256250X-0.218750X0.256250X-0.218750X-0.256250X0.218750X-0.256250X0*%
%ADD45R,0.400000X1.200000*%
%ADD46RoundRect,0.135000X0.185000X-0.135000X0.185000X0.135000X-0.185000X0.135000X-0.185000X-0.135000X0*%
%ADD47RoundRect,0.135000X-0.185000X0.135000X-0.185000X-0.135000X0.185000X-0.135000X0.185000X0.135000X0*%
%ADD48C,2.300000*%
G04 APERTURE END LIST*
D10*
%TO.C,U8*%
X148027500Y-129255000D03*
X146750000Y-129255000D03*
X145480000Y-129255000D03*
X144222500Y-129255000D03*
X142940000Y-129255000D03*
X141652500Y-129255000D03*
X140367500Y-129255000D03*
X140400000Y-134945000D03*
X141670000Y-134945000D03*
X142940000Y-134945000D03*
X144210000Y-134945000D03*
X145480000Y-134945000D03*
X146750000Y-134945000D03*
X148020000Y-134945000D03*
D11*
X144210000Y-132100000D03*
%TD*%
D12*
%TO.C,C13*%
X116995000Y-100990000D03*
X117955000Y-100990000D03*
%TD*%
D13*
%TO.C,R12*%
X118510000Y-81400000D03*
X117490000Y-81400000D03*
%TD*%
D14*
%TO.C,J8*%
X161560000Y-61265000D03*
D15*
X159780000Y-62281000D03*
X161560000Y-63297000D03*
X159780000Y-64313000D03*
X161560000Y-65329000D03*
X159780000Y-66345000D03*
X161560000Y-67361000D03*
X159780000Y-68377000D03*
X154960000Y-57965000D03*
X154960000Y-60255000D03*
X154960000Y-69395000D03*
X154960000Y-71685000D03*
X161560000Y-77015000D03*
X159780000Y-78031000D03*
X161560000Y-79047000D03*
X159780000Y-80063000D03*
X161560000Y-81079000D03*
X159780000Y-82095000D03*
X161560000Y-83111000D03*
X159780000Y-84127000D03*
X154960000Y-73715000D03*
X154960000Y-76005000D03*
X154960000Y-85145000D03*
X154960000Y-87435000D03*
X161560000Y-92765000D03*
X159780000Y-93781000D03*
X161560000Y-94797000D03*
X159780000Y-95813000D03*
X161560000Y-96829000D03*
X159780000Y-97845000D03*
X161560000Y-98861000D03*
X159780000Y-99877000D03*
X154960000Y-89465000D03*
X154960000Y-91755000D03*
X154960000Y-100895000D03*
X154960000Y-103185000D03*
X161560000Y-108515000D03*
X159780000Y-109531000D03*
X161560000Y-110547000D03*
X159780000Y-111563000D03*
X161560000Y-112579000D03*
X159780000Y-113595000D03*
X161560000Y-114611000D03*
X159780000Y-115627000D03*
X154960000Y-105215000D03*
X154960000Y-107505000D03*
X154960000Y-116645000D03*
X154960000Y-118935000D03*
D16*
X160670000Y-56695000D03*
X153940000Y-80575000D03*
X153940000Y-96325000D03*
X160670000Y-120195000D03*
%TD*%
D12*
%TO.C,C39*%
X150720000Y-84100000D03*
X151680000Y-84100000D03*
%TD*%
D17*
%TO.C,C8*%
X114600000Y-95780000D03*
X114600000Y-94820000D03*
%TD*%
D13*
%TO.C,R60*%
X151710000Y-70300000D03*
X150690000Y-70300000D03*
%TD*%
D18*
%TO.C,D20*%
X143600000Y-113200000D03*
X142200000Y-113200000D03*
%TD*%
D19*
%TO.C,D8*%
X116047500Y-118162500D03*
X115077500Y-118162500D03*
%TD*%
D20*
%TO.C,R20*%
X123475000Y-116500000D03*
X124495000Y-116500000D03*
%TD*%
D12*
%TO.C,C11*%
X117020000Y-69300000D03*
X117980000Y-69300000D03*
%TD*%
D13*
%TO.C,R21*%
X119310000Y-107820000D03*
X118290000Y-107820000D03*
%TD*%
%TO.C,R9*%
X117972500Y-116562500D03*
X116952500Y-116562500D03*
%TD*%
D21*
%TO.C,D16*%
X118012500Y-106220000D03*
X119587500Y-106220000D03*
%TD*%
D22*
%TO.C,D5*%
X123300000Y-126650000D03*
X121200000Y-126650000D03*
%TD*%
D21*
%TO.C,D14*%
X117562500Y-118162500D03*
X119137500Y-118162500D03*
%TD*%
D13*
%TO.C,R10*%
X118720000Y-65100000D03*
X117700000Y-65100000D03*
%TD*%
D12*
%TO.C,C38*%
X150720000Y-68400000D03*
X151680000Y-68400000D03*
%TD*%
D23*
%TO.C,J1*%
X117650000Y-126650000D03*
D24*
X111450000Y-126650000D03*
D25*
X114450000Y-131350000D03*
%TD*%
D26*
%TO.C,C17*%
X122680000Y-107620000D03*
X121720000Y-107620000D03*
%TD*%
D27*
%TO.C,U6*%
X122700000Y-72800000D03*
X122700000Y-73750000D03*
X122700000Y-74700000D03*
X124975000Y-74700000D03*
X124975000Y-72800000D03*
%TD*%
D28*
%TO.C,J6*%
X127500000Y-115040000D03*
D29*
X127500000Y-112500000D03*
X127500000Y-109960000D03*
%TD*%
D30*
%TO.C,FB4*%
X113100000Y-69300000D03*
X115225000Y-69300000D03*
%TD*%
D19*
%TO.C,D6*%
X116385000Y-86600000D03*
X115415000Y-86600000D03*
%TD*%
D12*
%TO.C,C42*%
X151850000Y-135650000D03*
X152810000Y-135650000D03*
%TD*%
D13*
%TO.C,R40*%
X140760000Y-65800000D03*
X139740000Y-65800000D03*
%TD*%
D31*
%TO.C,D22*%
X146800000Y-107550000D03*
X148900000Y-107550000D03*
%TD*%
D20*
%TO.C,R44*%
X148190000Y-62300000D03*
X149210000Y-62300000D03*
%TD*%
D32*
%TO.C,J5*%
X111172500Y-108880000D03*
D33*
X111125000Y-109680000D03*
D34*
X111125000Y-110830000D03*
X111125000Y-111830000D03*
X111125000Y-112330000D03*
X111125000Y-113330000D03*
D33*
X111125000Y-114480000D03*
D32*
X111172500Y-115280000D03*
X111172500Y-115280000D03*
D33*
X111125000Y-114480000D03*
D34*
X111125000Y-113830000D03*
X111125000Y-112830000D03*
X111125000Y-111330000D03*
X111125000Y-110330000D03*
D33*
X111125000Y-109680000D03*
D32*
X111172500Y-108880000D03*
D35*
X110525000Y-107760000D03*
D36*
X106325000Y-107760000D03*
D35*
X110525000Y-116400000D03*
D36*
X106325000Y-116400000D03*
%TD*%
D37*
%TO.C,U11*%
X145415000Y-80100000D03*
X145415000Y-80600000D03*
X145415000Y-81100000D03*
X145415000Y-81600000D03*
X145415000Y-82100000D03*
X146185000Y-82100000D03*
X146185000Y-81600000D03*
X146185000Y-81100000D03*
X146185000Y-80600000D03*
X146185000Y-80100000D03*
%TD*%
D13*
%TO.C,R13*%
X118510000Y-80000000D03*
X117490000Y-80000000D03*
%TD*%
D20*
%TO.C,R25*%
X140030000Y-138250000D03*
X141050000Y-138250000D03*
%TD*%
%TO.C,R32*%
X143190000Y-125550000D03*
X144210000Y-125550000D03*
%TD*%
D26*
%TO.C,C16*%
X123880000Y-91700000D03*
X122920000Y-91700000D03*
%TD*%
D13*
%TO.C,R54*%
X148920000Y-97900000D03*
X147900000Y-97900000D03*
%TD*%
%TO.C,R16*%
X118125000Y-112720000D03*
X117105000Y-112720000D03*
%TD*%
D12*
%TO.C,C24*%
X150600000Y-93800000D03*
X151560000Y-93800000D03*
%TD*%
D20*
%TO.C,R4*%
X105990000Y-74470000D03*
X107010000Y-74470000D03*
%TD*%
D38*
%TO.C,D12*%
X116100000Y-97590000D03*
X116100000Y-98990000D03*
%TD*%
D39*
%TO.C,C2*%
X114700000Y-65120000D03*
X114700000Y-66080000D03*
%TD*%
D12*
%TO.C,C31*%
X150720000Y-66400000D03*
X151680000Y-66400000D03*
%TD*%
D13*
%TO.C,R23*%
X125910000Y-76100000D03*
X124890000Y-76100000D03*
%TD*%
D12*
%TO.C,C45*%
X151870000Y-131600000D03*
X152830000Y-131600000D03*
%TD*%
D20*
%TO.C,R29*%
X138000000Y-134650000D03*
X139020000Y-134650000D03*
%TD*%
D12*
%TO.C,C30*%
X150750000Y-60300000D03*
X151710000Y-60300000D03*
%TD*%
D20*
%TO.C,R18*%
X124190000Y-106900000D03*
X125210000Y-106900000D03*
%TD*%
D13*
%TO.C,R66*%
X151610000Y-117650000D03*
X150590000Y-117650000D03*
%TD*%
D17*
%TO.C,C7*%
X114500000Y-80000000D03*
X114500000Y-79040000D03*
%TD*%
D20*
%TO.C,R56*%
X148000000Y-109600000D03*
X149020000Y-109600000D03*
%TD*%
D17*
%TO.C,C19*%
X143650000Y-89780000D03*
X143650000Y-88820000D03*
%TD*%
D13*
%TO.C,R24*%
X126110000Y-91700000D03*
X125090000Y-91700000D03*
%TD*%
%TO.C,R35*%
X150900000Y-133550000D03*
X149880000Y-133550000D03*
%TD*%
D30*
%TO.C,FB1*%
X113000000Y-85060000D03*
X115125000Y-85060000D03*
%TD*%
D20*
%TO.C,R57*%
X148000000Y-111600000D03*
X149020000Y-111600000D03*
%TD*%
%TO.C,R26*%
X138020000Y-136850000D03*
X139040000Y-136850000D03*
%TD*%
D30*
%TO.C,FB2*%
X113100000Y-100990000D03*
X115225000Y-100990000D03*
%TD*%
D20*
%TO.C,R1*%
X108700000Y-58600000D03*
X109720000Y-58600000D03*
%TD*%
D19*
%TO.C,D7*%
X116185000Y-102400000D03*
X115215000Y-102400000D03*
%TD*%
D40*
%TO.C,Q3*%
X142700000Y-93400000D03*
X142700000Y-95300000D03*
X144575000Y-94350000D03*
%TD*%
D13*
%TO.C,R36*%
X150900000Y-129550000D03*
X149880000Y-129550000D03*
%TD*%
D38*
%TO.C,D11*%
X116000000Y-81760000D03*
X116000000Y-83160000D03*
%TD*%
D40*
%TO.C,Q1*%
X142362500Y-62000000D03*
X142362500Y-63900000D03*
X144237500Y-62950000D03*
%TD*%
D13*
%TO.C,R38*%
X152810000Y-127500000D03*
X151790000Y-127500000D03*
%TD*%
D20*
%TO.C,R27*%
X137850000Y-129250000D03*
X138870000Y-129250000D03*
%TD*%
D32*
%TO.C,J3*%
X111172500Y-77480000D03*
D33*
X111125000Y-78280000D03*
D34*
X111125000Y-79430000D03*
X111125000Y-80430000D03*
X111125000Y-80930000D03*
X111125000Y-81930000D03*
D33*
X111125000Y-83080000D03*
D32*
X111172500Y-83880000D03*
X111172500Y-83880000D03*
D33*
X111125000Y-83080000D03*
D34*
X111125000Y-82430000D03*
X111125000Y-81430000D03*
X111125000Y-79930000D03*
X111125000Y-78930000D03*
D33*
X111125000Y-78280000D03*
D32*
X111172500Y-77480000D03*
D35*
X110525000Y-76360000D03*
D36*
X106325000Y-76360000D03*
D35*
X110525000Y-85000000D03*
D36*
X106325000Y-85000000D03*
%TD*%
D26*
%TO.C,C21*%
X137980000Y-82150000D03*
X137020000Y-82150000D03*
%TD*%
D12*
%TO.C,C22*%
X150720000Y-62300000D03*
X151680000Y-62300000D03*
%TD*%
D20*
%TO.C,R2*%
X106065000Y-58600000D03*
X107085000Y-58600000D03*
%TD*%
D31*
%TO.C,D24*%
X146700000Y-91750000D03*
X148800000Y-91750000D03*
%TD*%
D12*
%TO.C,C29*%
X150620000Y-111600000D03*
X151580000Y-111600000D03*
%TD*%
D26*
%TO.C,C14*%
X123880000Y-60000000D03*
X122920000Y-60000000D03*
%TD*%
D20*
%TO.C,R55*%
X147800000Y-99900000D03*
X148820000Y-99900000D03*
%TD*%
%TO.C,R49*%
X148080000Y-80100000D03*
X149100000Y-80100000D03*
%TD*%
D12*
%TO.C,C25*%
X150600000Y-109600000D03*
X151560000Y-109600000D03*
%TD*%
%TO.C,C32*%
X150690000Y-76000000D03*
X151650000Y-76000000D03*
%TD*%
%TO.C,C27*%
X150700000Y-80100000D03*
X151660000Y-80100000D03*
%TD*%
D31*
%TO.C,D23*%
X146900000Y-76000000D03*
X149000000Y-76000000D03*
%TD*%
D20*
%TO.C,R52*%
X147900000Y-93800000D03*
X148920000Y-93800000D03*
%TD*%
D18*
%TO.C,D17*%
X143800000Y-65800000D03*
X142400000Y-65800000D03*
%TD*%
D39*
%TO.C,C4*%
X114600000Y-97220000D03*
X114600000Y-98180000D03*
%TD*%
D12*
%TO.C,C12*%
X116895000Y-85060000D03*
X117855000Y-85060000D03*
%TD*%
D13*
%TO.C,R15*%
X118610000Y-95900000D03*
X117590000Y-95900000D03*
%TD*%
D12*
%TO.C,C23*%
X150720000Y-78100000D03*
X151680000Y-78100000D03*
%TD*%
D26*
%TO.C,C18*%
X138980000Y-138250000D03*
X138020000Y-138250000D03*
%TD*%
D41*
%TO.C,D2*%
X116000000Y-79660000D03*
X116000000Y-78260000D03*
%TD*%
D27*
%TO.C,U7*%
X122825000Y-87600000D03*
X122825000Y-88550000D03*
X122825000Y-89500000D03*
X125100000Y-89500000D03*
X125100000Y-87600000D03*
%TD*%
D13*
%TO.C,R17*%
X118125000Y-111520000D03*
X117105000Y-111520000D03*
%TD*%
D12*
%TO.C,C41*%
X150600000Y-115600000D03*
X151560000Y-115600000D03*
%TD*%
D20*
%TO.C,R45*%
X148200000Y-64300000D03*
X149220000Y-64300000D03*
%TD*%
%TO.C,R6*%
X106190000Y-89700000D03*
X107210000Y-89700000D03*
%TD*%
D17*
%TO.C,C9*%
X114115000Y-111400000D03*
X114115000Y-110440000D03*
%TD*%
D41*
%TO.C,D1*%
X116200000Y-63450000D03*
X116200000Y-62050000D03*
%TD*%
D42*
%TO.C,U9*%
X133337500Y-85587500D03*
X133337500Y-86087500D03*
X133337500Y-86587500D03*
X133337500Y-87087500D03*
X133337500Y-87587500D03*
X133337500Y-88087500D03*
X133337500Y-88587500D03*
X133337500Y-89087500D03*
X133337500Y-89587500D03*
X133337500Y-90087500D03*
X133337500Y-90587500D03*
X133337500Y-91087500D03*
D43*
X134750000Y-92500000D03*
X135250000Y-92500000D03*
X135750000Y-92500000D03*
X136250000Y-92500000D03*
X136750000Y-92500000D03*
X137250000Y-92500000D03*
X137750000Y-92500000D03*
X138250000Y-92500000D03*
X138750000Y-92500000D03*
X139250000Y-92500000D03*
X139750000Y-92500000D03*
X140250000Y-92500000D03*
D42*
X141662500Y-91087500D03*
X141662500Y-90587500D03*
X141662500Y-90087500D03*
X141662500Y-89587500D03*
X141662500Y-89087500D03*
X141662500Y-88587500D03*
X141662500Y-88087500D03*
X141662500Y-87587500D03*
X141662500Y-87087500D03*
X141662500Y-86587500D03*
X141662500Y-86087500D03*
X141662500Y-85587500D03*
D43*
X140250000Y-84175000D03*
X139750000Y-84175000D03*
X139250000Y-84175000D03*
X138750000Y-84175000D03*
X138250000Y-84175000D03*
X137750000Y-84175000D03*
X137250000Y-84175000D03*
X136750000Y-84175000D03*
X136250000Y-84175000D03*
X135750000Y-84175000D03*
X135250000Y-84175000D03*
X134750000Y-84175000D03*
%TD*%
D13*
%TO.C,R34*%
X150910000Y-135650000D03*
X149890000Y-135650000D03*
%TD*%
D17*
%TO.C,C6*%
X114700000Y-63780000D03*
X114700000Y-62820000D03*
%TD*%
D12*
%TO.C,C28*%
X150600000Y-95800000D03*
X151560000Y-95800000D03*
%TD*%
D40*
%TO.C,Q4*%
X142162500Y-109350000D03*
X142162500Y-111250000D03*
X144037500Y-110300000D03*
%TD*%
D44*
%TO.C,D15*%
X124475000Y-117800000D03*
X122900000Y-117800000D03*
%TD*%
D20*
%TO.C,R51*%
X148100000Y-84100000D03*
X149120000Y-84100000D03*
%TD*%
%TO.C,R47*%
X148190000Y-68400000D03*
X149210000Y-68400000D03*
%TD*%
D45*
%TO.C,U4*%
X124222500Y-109490000D03*
X123587500Y-109490000D03*
X122952500Y-109490000D03*
X122317500Y-109490000D03*
X121682500Y-109490000D03*
X121047500Y-109490000D03*
X120412500Y-109490000D03*
X119777500Y-109490000D03*
X119777500Y-114690000D03*
X120412500Y-114690000D03*
X121047500Y-114690000D03*
X121682500Y-114690000D03*
X122317500Y-114690000D03*
X122952500Y-114690000D03*
X123587500Y-114690000D03*
X124222500Y-114690000D03*
%TD*%
D19*
%TO.C,D9*%
X116285000Y-70800000D03*
X115315000Y-70800000D03*
%TD*%
D45*
%TO.C,U1*%
X125322500Y-62000000D03*
X124687500Y-62000000D03*
X124052500Y-62000000D03*
X123417500Y-62000000D03*
X122782500Y-62000000D03*
X122147500Y-62000000D03*
X121512500Y-62000000D03*
X120877500Y-62000000D03*
X120877500Y-67200000D03*
X121512500Y-67200000D03*
X122147500Y-67200000D03*
X122782500Y-67200000D03*
X123417500Y-67200000D03*
X124052500Y-67200000D03*
X124687500Y-67200000D03*
X125322500Y-67200000D03*
%TD*%
D20*
%TO.C,R53*%
X147880000Y-95800000D03*
X148900000Y-95800000D03*
%TD*%
D39*
%TO.C,C5*%
X114115000Y-112740000D03*
X114115000Y-113700000D03*
%TD*%
D12*
%TO.C,C36*%
X150620000Y-107450000D03*
X151580000Y-107450000D03*
%TD*%
D13*
%TO.C,R50*%
X149100000Y-82150000D03*
X148080000Y-82150000D03*
%TD*%
%TO.C,R65*%
X151710000Y-89350000D03*
X150690000Y-89350000D03*
%TD*%
D20*
%TO.C,R28*%
X140640000Y-127650000D03*
X141660000Y-127650000D03*
%TD*%
D12*
%TO.C,C33*%
X150700000Y-82100000D03*
X151660000Y-82100000D03*
%TD*%
%TO.C,C34*%
X150740000Y-91750000D03*
X151700000Y-91750000D03*
%TD*%
D20*
%TO.C,R31*%
X141890000Y-126600000D03*
X142910000Y-126600000D03*
%TD*%
D18*
%TO.C,D18*%
X143700000Y-81600000D03*
X142300000Y-81600000D03*
%TD*%
D13*
%TO.C,R37*%
X150900000Y-131600000D03*
X149880000Y-131600000D03*
%TD*%
D20*
%TO.C,R48*%
X148110000Y-78100000D03*
X149130000Y-78100000D03*
%TD*%
D12*
%TO.C,C44*%
X151850000Y-129550000D03*
X152810000Y-129550000D03*
%TD*%
%TO.C,C37*%
X150620000Y-113600000D03*
X151580000Y-113600000D03*
%TD*%
D13*
%TO.C,R22*%
X125920000Y-60000000D03*
X124900000Y-60000000D03*
%TD*%
D39*
%TO.C,C1*%
X119900000Y-127420000D03*
X119900000Y-128380000D03*
%TD*%
%TO.C,C3*%
X114500000Y-81420000D03*
X114500000Y-82380000D03*
%TD*%
D13*
%TO.C,R46*%
X149170000Y-66400000D03*
X148150000Y-66400000D03*
%TD*%
D37*
%TO.C,U13*%
X145415000Y-111700000D03*
X145415000Y-112200000D03*
X145415000Y-112700000D03*
X145415000Y-113200000D03*
X145415000Y-113700000D03*
X146185000Y-113700000D03*
X146185000Y-113200000D03*
X146185000Y-112700000D03*
X146185000Y-112200000D03*
X146185000Y-111700000D03*
%TD*%
D12*
%TO.C,C10*%
X121405000Y-116466250D03*
X122365000Y-116466250D03*
%TD*%
D20*
%TO.C,R30*%
X138000000Y-135750000D03*
X139020000Y-135750000D03*
%TD*%
D32*
%TO.C,J2*%
X111172500Y-61700000D03*
D33*
X111125000Y-62500000D03*
D34*
X111125000Y-63650000D03*
X111125000Y-64650000D03*
X111125000Y-65150000D03*
X111125000Y-66150000D03*
D33*
X111125000Y-67300000D03*
D32*
X111172500Y-68100000D03*
X111172500Y-68100000D03*
D33*
X111125000Y-67300000D03*
D34*
X111125000Y-66650000D03*
X111125000Y-65650000D03*
X111125000Y-64150000D03*
X111125000Y-63150000D03*
D33*
X111125000Y-62500000D03*
D32*
X111172500Y-61700000D03*
D35*
X110525000Y-60580000D03*
D36*
X106325000Y-60580000D03*
D35*
X110525000Y-69220000D03*
D36*
X106325000Y-69220000D03*
%TD*%
D46*
%TO.C,R42*%
X140950000Y-96660000D03*
X140950000Y-95640000D03*
%TD*%
D13*
%TO.C,R43*%
X140460000Y-113200000D03*
X139440000Y-113200000D03*
%TD*%
D12*
%TO.C,C35*%
X150600000Y-97900000D03*
X151560000Y-97900000D03*
%TD*%
%TO.C,C40*%
X150540000Y-99900000D03*
X151500000Y-99900000D03*
%TD*%
D32*
%TO.C,J4*%
X111172500Y-93280000D03*
D33*
X111125000Y-94080000D03*
D34*
X111125000Y-95230000D03*
X111125000Y-96230000D03*
X111125000Y-96730000D03*
X111125000Y-97730000D03*
D33*
X111125000Y-98880000D03*
D32*
X111172500Y-99680000D03*
X111172500Y-99680000D03*
D33*
X111125000Y-98880000D03*
D34*
X111125000Y-98230000D03*
X111125000Y-97230000D03*
X111125000Y-95730000D03*
X111125000Y-94730000D03*
D33*
X111125000Y-94080000D03*
D32*
X111172500Y-93280000D03*
D35*
X110525000Y-92160000D03*
D36*
X106325000Y-92160000D03*
D35*
X110525000Y-100800000D03*
D36*
X106325000Y-100800000D03*
%TD*%
D20*
%TO.C,R19*%
X124190000Y-108000000D03*
X125210000Y-108000000D03*
%TD*%
D13*
%TO.C,R14*%
X118610000Y-97200000D03*
X117590000Y-97200000D03*
%TD*%
D41*
%TO.C,D4*%
X115610000Y-111090000D03*
X115610000Y-109690000D03*
%TD*%
D18*
%TO.C,D19*%
X143550000Y-97250000D03*
X142150000Y-97250000D03*
%TD*%
D12*
%TO.C,C26*%
X150720000Y-64300000D03*
X151680000Y-64300000D03*
%TD*%
D20*
%TO.C,R5*%
X109100000Y-89700000D03*
X110120000Y-89700000D03*
%TD*%
D37*
%TO.C,U12*%
X145415000Y-95774328D03*
X145415000Y-96274328D03*
X145415000Y-96774328D03*
X145415000Y-97274328D03*
X145415000Y-97774328D03*
X146185000Y-97774328D03*
X146185000Y-97274328D03*
X146185000Y-96774328D03*
X146185000Y-96274328D03*
X146185000Y-95774328D03*
%TD*%
D13*
%TO.C,R61*%
X151710000Y-57300000D03*
X150690000Y-57300000D03*
%TD*%
D26*
%TO.C,C15*%
X123880000Y-76100000D03*
X122920000Y-76100000D03*
%TD*%
D12*
%TO.C,C43*%
X151850000Y-133550000D03*
X152810000Y-133550000D03*
%TD*%
D37*
%TO.C,U10*%
X145415000Y-64300000D03*
X145415000Y-64800000D03*
X145415000Y-65300000D03*
X145415000Y-65800000D03*
X145415000Y-66300000D03*
X146185000Y-66300000D03*
X146185000Y-65800000D03*
X146185000Y-65300000D03*
X146185000Y-64800000D03*
X146185000Y-64300000D03*
%TD*%
D47*
%TO.C,R41*%
X143700000Y-82840000D03*
X143700000Y-83860000D03*
%TD*%
D45*
%TO.C,U3*%
X125322500Y-93890000D03*
X124687500Y-93890000D03*
X124052500Y-93890000D03*
X123417500Y-93890000D03*
X122782500Y-93890000D03*
X122147500Y-93890000D03*
X121512500Y-93890000D03*
X120877500Y-93890000D03*
X120877500Y-99090000D03*
X121512500Y-99090000D03*
X122147500Y-99090000D03*
X122782500Y-99090000D03*
X123417500Y-99090000D03*
X124052500Y-99090000D03*
X124687500Y-99090000D03*
X125322500Y-99090000D03*
%TD*%
D13*
%TO.C,R58*%
X149010000Y-113600000D03*
X147990000Y-113600000D03*
%TD*%
D20*
%TO.C,R59*%
X147990000Y-115600000D03*
X149010000Y-115600000D03*
%TD*%
D38*
%TO.C,D10*%
X116200000Y-65450000D03*
X116200000Y-66850000D03*
%TD*%
D20*
%TO.C,R3*%
X108837500Y-74470000D03*
X109857500Y-74470000D03*
%TD*%
D13*
%TO.C,R11*%
X118710000Y-63800000D03*
X117690000Y-63800000D03*
%TD*%
D30*
%TO.C,FB3*%
X113000000Y-116562500D03*
X115125000Y-116562500D03*
%TD*%
D14*
%TO.C,J7*%
X161585000Y-128540000D03*
D15*
X159805000Y-129556000D03*
X161585000Y-130572000D03*
X159805000Y-131588000D03*
X161585000Y-132604000D03*
X159805000Y-133620000D03*
X161585000Y-134636000D03*
X159805000Y-135652000D03*
X154985000Y-125240000D03*
X154985000Y-127530000D03*
X154985000Y-136670000D03*
X154985000Y-138960000D03*
D48*
X160695000Y-123970000D03*
X160695000Y-140230000D03*
%TD*%
D20*
%TO.C,R8*%
X105290000Y-105800000D03*
X106310000Y-105800000D03*
%TD*%
D12*
%TO.C,C20*%
X134720000Y-94600000D03*
X135680000Y-94600000D03*
%TD*%
D40*
%TO.C,Q2*%
X142312500Y-77900000D03*
X142312500Y-79800000D03*
X144187500Y-78850000D03*
%TD*%
D13*
%TO.C,R62*%
X151710000Y-87425000D03*
X150690000Y-87425000D03*
%TD*%
D41*
%TO.C,D3*%
X116100000Y-95490000D03*
X116100000Y-94090000D03*
%TD*%
D13*
%TO.C,R39*%
X152760000Y-138950000D03*
X151740000Y-138950000D03*
%TD*%
%TO.C,R63*%
X151710000Y-73650000D03*
X150690000Y-73650000D03*
%TD*%
D45*
%TO.C,U2*%
X125322500Y-78160000D03*
X124687500Y-78160000D03*
X124052500Y-78160000D03*
X123417500Y-78160000D03*
X122782500Y-78160000D03*
X122147500Y-78160000D03*
X121512500Y-78160000D03*
X120877500Y-78160000D03*
X120877500Y-83360000D03*
X121512500Y-83360000D03*
X122147500Y-83360000D03*
X122782500Y-83360000D03*
X123417500Y-83360000D03*
X124052500Y-83360000D03*
X124687500Y-83360000D03*
X125322500Y-83360000D03*
%TD*%
D38*
%TO.C,D13*%
X115610000Y-113090000D03*
X115610000Y-114490000D03*
%TD*%
D31*
%TO.C,D21*%
X146950000Y-60250000D03*
X149050000Y-60250000D03*
%TD*%
D20*
%TO.C,R7*%
X108315000Y-105800000D03*
X109335000Y-105800000D03*
%TD*%
D27*
%TO.C,U5*%
X122800000Y-56600000D03*
X122800000Y-57550000D03*
X122800000Y-58500000D03*
X125075000Y-58500000D03*
X125075000Y-56600000D03*
%TD*%
D13*
%TO.C,R64*%
X151510000Y-101200000D03*
X150490000Y-101200000D03*
%TD*%
%TO.C,R67*%
X151710000Y-105450000D03*
X150690000Y-105450000D03*
%TD*%
D20*
%TO.C,R33*%
X145480000Y-137100000D03*
X146500000Y-137100000D03*
%TD*%
M02*
