%TF.GenerationSoftware,KiCad,Pcbnew,9.0.3-9.0.3-0~ubuntu24.04.1*%
%TF.CreationDate,2025-08-10T13:26:28-04:00*%
%TF.ProjectId,SO4R_Interlock,534f3452-5f49-46e7-9465-726c6f636b2e,rev?*%
%TF.SameCoordinates,Original*%
%TF.FileFunction,Legend,Bot*%
%TF.FilePolarity,Positive*%
%FSLAX46Y46*%
G04 Gerber Fmt 4.6, Leading zero omitted, Abs format (unit mm)*
G04 Created by KiCad (PCBNEW 9.0.3-9.0.3-0~ubuntu24.04.1) date 2025-08-10 13:26:28*
%MOMM*%
%LPD*%
G01*
G04 APERTURE LIST*
%ADD10C,0.300000*%
%ADD11C,3.250000*%
%ADD12R,1.500000X1.500000*%
%ADD13C,1.500000*%
%ADD14C,2.570000*%
%ADD15R,2.000000X4.500000*%
%ADD16O,2.000000X4.000000*%
%ADD17O,4.000000X2.000000*%
%ADD18R,1.700000X1.700000*%
%ADD19C,1.700000*%
%ADD20C,0.650000*%
%ADD21O,2.100000X1.000000*%
%ADD22O,1.800000X1.000000*%
%ADD23C,2.300000*%
G04 APERTURE END LIST*
D10*
X165800828Y-65285715D02*
X166800828Y-65285715D01*
X165229400Y-64928572D02*
X166300828Y-64571429D01*
X166300828Y-64571429D02*
X166300828Y-65500000D01*
X106678328Y-125571429D02*
X106678328Y-124714286D01*
X106678328Y-125142857D02*
X105178328Y-125142857D01*
X105178328Y-125142857D02*
X105392614Y-125000000D01*
X105392614Y-125000000D02*
X105535471Y-124857143D01*
X105535471Y-124857143D02*
X105606900Y-124714286D01*
X105321185Y-126142857D02*
X105249757Y-126214285D01*
X105249757Y-126214285D02*
X105178328Y-126357143D01*
X105178328Y-126357143D02*
X105178328Y-126714285D01*
X105178328Y-126714285D02*
X105249757Y-126857143D01*
X105249757Y-126857143D02*
X105321185Y-126928571D01*
X105321185Y-126928571D02*
X105464042Y-127000000D01*
X105464042Y-127000000D02*
X105606900Y-127000000D01*
X105606900Y-127000000D02*
X105821185Y-126928571D01*
X105821185Y-126928571D02*
X106678328Y-126071428D01*
X106678328Y-126071428D02*
X106678328Y-127000000D01*
X105178328Y-127428571D02*
X106678328Y-127928571D01*
X106678328Y-127928571D02*
X105178328Y-128428571D01*
X105178328Y-65285715D02*
X106178328Y-65285715D01*
X104606900Y-64928572D02*
X105678328Y-64571429D01*
X105678328Y-64571429D02*
X105678328Y-65500000D01*
X104678328Y-80000000D02*
X104678328Y-80928572D01*
X104678328Y-80928572D02*
X105249757Y-80428572D01*
X105249757Y-80428572D02*
X105249757Y-80642857D01*
X105249757Y-80642857D02*
X105321185Y-80785715D01*
X105321185Y-80785715D02*
X105392614Y-80857143D01*
X105392614Y-80857143D02*
X105535471Y-80928572D01*
X105535471Y-80928572D02*
X105892614Y-80928572D01*
X105892614Y-80928572D02*
X106035471Y-80857143D01*
X106035471Y-80857143D02*
X106106900Y-80785715D01*
X106106900Y-80785715D02*
X106178328Y-80642857D01*
X106178328Y-80642857D02*
X106178328Y-80214286D01*
X106178328Y-80214286D02*
X106106900Y-80071429D01*
X106106900Y-80071429D02*
X106035471Y-80000000D01*
X165300828Y-80411653D02*
X165300828Y-81340225D01*
X165300828Y-81340225D02*
X165872257Y-80840225D01*
X165872257Y-80840225D02*
X165872257Y-81054510D01*
X165872257Y-81054510D02*
X165943685Y-81197368D01*
X165943685Y-81197368D02*
X166015114Y-81268796D01*
X166015114Y-81268796D02*
X166157971Y-81340225D01*
X166157971Y-81340225D02*
X166515114Y-81340225D01*
X166515114Y-81340225D02*
X166657971Y-81268796D01*
X166657971Y-81268796D02*
X166729400Y-81197368D01*
X166729400Y-81197368D02*
X166800828Y-81054510D01*
X166800828Y-81054510D02*
X166800828Y-80625939D01*
X166800828Y-80625939D02*
X166729400Y-80483082D01*
X166729400Y-80483082D02*
X166657971Y-80411653D01*
X166300828Y-112428572D02*
X166300828Y-111571429D01*
X166300828Y-112000000D02*
X164800828Y-112000000D01*
X164800828Y-112000000D02*
X165015114Y-111857143D01*
X165015114Y-111857143D02*
X165157971Y-111714286D01*
X165157971Y-111714286D02*
X165229400Y-111571429D01*
X166800828Y-131214285D02*
X166086542Y-130714285D01*
X166800828Y-130357142D02*
X165300828Y-130357142D01*
X165300828Y-130357142D02*
X165300828Y-130928571D01*
X165300828Y-130928571D02*
X165372257Y-131071428D01*
X165372257Y-131071428D02*
X165443685Y-131142857D01*
X165443685Y-131142857D02*
X165586542Y-131214285D01*
X165586542Y-131214285D02*
X165800828Y-131214285D01*
X165800828Y-131214285D02*
X165943685Y-131142857D01*
X165943685Y-131142857D02*
X166015114Y-131071428D01*
X166015114Y-131071428D02*
X166086542Y-130928571D01*
X166086542Y-130928571D02*
X166086542Y-130357142D01*
X166800828Y-132571428D02*
X166800828Y-131857142D01*
X166800828Y-131857142D02*
X165300828Y-131857142D01*
X166086542Y-133357143D02*
X166800828Y-133357143D01*
X165300828Y-132857143D02*
X166086542Y-133357143D01*
X166086542Y-133357143D02*
X165300828Y-133857143D01*
X164943685Y-96483082D02*
X164872257Y-96554510D01*
X164872257Y-96554510D02*
X164800828Y-96697368D01*
X164800828Y-96697368D02*
X164800828Y-97054510D01*
X164800828Y-97054510D02*
X164872257Y-97197368D01*
X164872257Y-97197368D02*
X164943685Y-97268796D01*
X164943685Y-97268796D02*
X165086542Y-97340225D01*
X165086542Y-97340225D02*
X165229400Y-97340225D01*
X165229400Y-97340225D02*
X165443685Y-97268796D01*
X165443685Y-97268796D02*
X166300828Y-96411653D01*
X166300828Y-96411653D02*
X166300828Y-97340225D01*
X106178328Y-112428572D02*
X106178328Y-111571429D01*
X106178328Y-112000000D02*
X104678328Y-112000000D01*
X104678328Y-112000000D02*
X104892614Y-111857143D01*
X104892614Y-111857143D02*
X105035471Y-111714286D01*
X105035471Y-111714286D02*
X105106900Y-111571429D01*
X104821185Y-96071429D02*
X104749757Y-96142857D01*
X104749757Y-96142857D02*
X104678328Y-96285715D01*
X104678328Y-96285715D02*
X104678328Y-96642857D01*
X104678328Y-96642857D02*
X104749757Y-96785715D01*
X104749757Y-96785715D02*
X104821185Y-96857143D01*
X104821185Y-96857143D02*
X104964042Y-96928572D01*
X104964042Y-96928572D02*
X105106900Y-96928572D01*
X105106900Y-96928572D02*
X105321185Y-96857143D01*
X105321185Y-96857143D02*
X106178328Y-96000000D01*
X106178328Y-96000000D02*
X106178328Y-96928572D01*
%LPC*%
D11*
%TO.C,J8*%
X164100000Y-58475000D03*
X164100000Y-118415000D03*
D12*
X161560000Y-61265000D03*
D13*
X159780000Y-62281000D03*
X161560000Y-63297000D03*
X159780000Y-64313000D03*
X161560000Y-65329000D03*
X159780000Y-66345000D03*
X161560000Y-67361000D03*
X159780000Y-68377000D03*
X154960000Y-57965000D03*
X154960000Y-60255000D03*
X154960000Y-69395000D03*
X154960000Y-71685000D03*
X161560000Y-77015000D03*
X159780000Y-78031000D03*
X161560000Y-79047000D03*
X159780000Y-80063000D03*
X161560000Y-81079000D03*
X159780000Y-82095000D03*
X161560000Y-83111000D03*
X159780000Y-84127000D03*
X154960000Y-73715000D03*
X154960000Y-76005000D03*
X154960000Y-85145000D03*
X154960000Y-87435000D03*
X161560000Y-92765000D03*
X159780000Y-93781000D03*
X161560000Y-94797000D03*
X159780000Y-95813000D03*
X161560000Y-96829000D03*
X159780000Y-97845000D03*
X161560000Y-98861000D03*
X159780000Y-99877000D03*
X154960000Y-89465000D03*
X154960000Y-91755000D03*
X154960000Y-100895000D03*
X154960000Y-103185000D03*
X161560000Y-108515000D03*
X159780000Y-109531000D03*
X161560000Y-110547000D03*
X159780000Y-111563000D03*
X161560000Y-112579000D03*
X159780000Y-113595000D03*
X161560000Y-114611000D03*
X159780000Y-115627000D03*
X154960000Y-105215000D03*
X154960000Y-107505000D03*
X154960000Y-116645000D03*
X154960000Y-118935000D03*
D14*
X160670000Y-56695000D03*
X153940000Y-80575000D03*
X153940000Y-96325000D03*
X160670000Y-120195000D03*
%TD*%
D15*
%TO.C,J1*%
X117650000Y-126650000D03*
D16*
X111450000Y-126650000D03*
D17*
X114450000Y-131350000D03*
%TD*%
D18*
%TO.C,J6*%
X127500000Y-115040000D03*
D19*
X127500000Y-112500000D03*
X127500000Y-109960000D03*
%TD*%
D20*
%TO.C,J5*%
X110005000Y-109190000D03*
X110005000Y-114970000D03*
D21*
X110525000Y-107760000D03*
D22*
X106325000Y-107760000D03*
D21*
X110525000Y-116400000D03*
D22*
X106325000Y-116400000D03*
%TD*%
D20*
%TO.C,J3*%
X110005000Y-77790000D03*
X110005000Y-83570000D03*
D21*
X110525000Y-76360000D03*
D22*
X106325000Y-76360000D03*
D21*
X110525000Y-85000000D03*
D22*
X106325000Y-85000000D03*
%TD*%
D20*
%TO.C,J2*%
X110005000Y-62010000D03*
X110005000Y-67790000D03*
D21*
X110525000Y-60580000D03*
D22*
X106325000Y-60580000D03*
D21*
X110525000Y-69220000D03*
D22*
X106325000Y-69220000D03*
%TD*%
D20*
%TO.C,J4*%
X110005000Y-93590000D03*
X110005000Y-99370000D03*
D21*
X110525000Y-92160000D03*
D22*
X106325000Y-92160000D03*
D21*
X110525000Y-100800000D03*
D22*
X106325000Y-100800000D03*
%TD*%
D11*
%TO.C,J7*%
X164125000Y-125750000D03*
X164125000Y-138450000D03*
D12*
X161585000Y-128540000D03*
D13*
X159805000Y-129556000D03*
X161585000Y-130572000D03*
X159805000Y-131588000D03*
X161585000Y-132604000D03*
X159805000Y-133620000D03*
X161585000Y-134636000D03*
X159805000Y-135652000D03*
X154985000Y-125240000D03*
X154985000Y-127530000D03*
X154985000Y-136670000D03*
X154985000Y-138960000D03*
D23*
X160695000Y-123970000D03*
X160695000Y-140230000D03*
%TD*%
%LPD*%
M02*
