%TF.GenerationSoftware,KiCad,Pcbnew,9.0.3-9.0.3-0~ubuntu24.04.1*%
%TF.CreationDate,2025-07-11T09:40:36-04:00*%
%TF.ProjectId,SO4R_Interlock,534f3452-5f49-46e7-9465-726c6f636b2e,rev?*%
%TF.SameCoordinates,Original*%
%TF.FileFunction,Legend,Bot*%
%TF.FilePolarity,Positive*%
%FSLAX46Y46*%
G04 Gerber Fmt 4.6, Leading zero omitted, Abs format (unit mm)*
G04 Created by KiCad (PCBNEW 9.0.3-9.0.3-0~ubuntu24.04.1) date 2025-07-11 09:40:36*
%MOMM*%
%LPD*%
G01*
G04 APERTURE LIST*
%ADD10C,3.250000*%
%ADD11R,1.500000X1.500000*%
%ADD12C,1.500000*%
%ADD13C,2.570000*%
%ADD14R,1.700000X1.700000*%
%ADD15C,1.700000*%
%ADD16C,0.650000*%
%ADD17O,2.100000X1.000000*%
%ADD18O,1.800000X1.000000*%
%ADD19C,2.300000*%
G04 APERTURE END LIST*
%LPC*%
D10*
%TO.C,J7*%
X158400000Y-118440000D03*
X158400000Y-58500000D03*
D11*
X160940000Y-115650000D03*
D12*
X162720000Y-114634000D03*
X160940000Y-113618000D03*
X162720000Y-112602000D03*
X160940000Y-111586000D03*
X162720000Y-110570000D03*
X160940000Y-109554000D03*
X162720000Y-108538000D03*
X167540000Y-118950000D03*
X167540000Y-116660000D03*
X167540000Y-107520000D03*
X167540000Y-105230000D03*
X160940000Y-99900000D03*
X162720000Y-98884000D03*
X160940000Y-97868000D03*
X162720000Y-96852000D03*
X160940000Y-95836000D03*
X162720000Y-94820000D03*
X160940000Y-93804000D03*
X162720000Y-92788000D03*
X167540000Y-103200000D03*
X167540000Y-100910000D03*
X167540000Y-91770000D03*
X167540000Y-89480000D03*
X160940000Y-84150000D03*
X162720000Y-83134000D03*
X160940000Y-82118000D03*
X162720000Y-81102000D03*
X160940000Y-80086000D03*
X162720000Y-79070000D03*
X160940000Y-78054000D03*
X162720000Y-77038000D03*
X167540000Y-87450000D03*
X167540000Y-85160000D03*
X167540000Y-76020000D03*
X167540000Y-73730000D03*
X160940000Y-68400000D03*
X162720000Y-67384000D03*
X160940000Y-66368000D03*
X162720000Y-65352000D03*
X160940000Y-64336000D03*
X162720000Y-63320000D03*
X160940000Y-62304000D03*
X162720000Y-61288000D03*
X167540000Y-71700000D03*
X167540000Y-69410000D03*
X167540000Y-60270000D03*
X167540000Y-57980000D03*
D13*
X161830000Y-120220000D03*
X168560000Y-96340000D03*
X168560000Y-80590000D03*
X161830000Y-56720000D03*
%TD*%
D14*
%TO.C,J5*%
X133110000Y-109890000D03*
D15*
X130570000Y-109890000D03*
X128030000Y-109890000D03*
%TD*%
D16*
%TO.C,J4*%
X110005000Y-109190000D03*
X110005000Y-114970000D03*
D17*
X110525000Y-107760000D03*
D18*
X106325000Y-107760000D03*
D17*
X110525000Y-116400000D03*
D18*
X106325000Y-116400000D03*
%TD*%
D16*
%TO.C,J2*%
X110005000Y-77790000D03*
X110005000Y-83570000D03*
D17*
X110525000Y-76360000D03*
D18*
X106325000Y-76360000D03*
D17*
X110525000Y-85000000D03*
D18*
X106325000Y-85000000D03*
%TD*%
D16*
%TO.C,J1*%
X110005000Y-62010000D03*
X110005000Y-67790000D03*
D17*
X110525000Y-60580000D03*
D18*
X106325000Y-60580000D03*
D17*
X110525000Y-69220000D03*
D18*
X106325000Y-69220000D03*
%TD*%
D16*
%TO.C,J3*%
X110005000Y-93590000D03*
X110005000Y-99370000D03*
D17*
X110525000Y-92160000D03*
D18*
X106325000Y-92160000D03*
D17*
X110525000Y-100800000D03*
D18*
X106325000Y-100800000D03*
%TD*%
D10*
%TO.C,J6*%
X158400000Y-138380000D03*
X158400000Y-125680000D03*
D11*
X160940000Y-135590000D03*
D12*
X162720000Y-134574000D03*
X160940000Y-133558000D03*
X162720000Y-132542000D03*
X160940000Y-131526000D03*
X162720000Y-130510000D03*
X160940000Y-129494000D03*
X162720000Y-128478000D03*
X167540000Y-138890000D03*
X167540000Y-136600000D03*
X167540000Y-127460000D03*
X167540000Y-125170000D03*
D19*
X161830000Y-140160000D03*
X161830000Y-123900000D03*
%TD*%
%LPD*%
M02*
