M48
; DRILL file {KiCad 9.0.3-9.0.3-0~ubuntu24.04.1} date 2025-07-11T09:40:36-0400
; FORMAT={-:-/ absolute / inch / decimal}
; #@! TF.CreationDate,2025-07-11T09:40:36-04:00
; #@! TF.GenerationSoftware,Kicad,Pcbnew,9.0.3-9.0.3-0~ubuntu24.04.1
; #@! TF.FileFunction,Plated,1,4,PTH
FMAT,2
INCH
; #@! TA.AperFunction,Plated,PTH,ViaDrill
T1C0.0118
; #@! TA.AperFunction,Plated,PTH,ComponentDrill
T2C0.0236
; #@! TA.AperFunction,Plated,PTH,ComponentDrill
T3C0.0350
; #@! TA.AperFunction,Plated,PTH,ComponentDrill
T4C0.0394
; #@! TA.AperFunction,Plated,PTH,ComponentDrill
T5C0.0618
; #@! TA.AperFunction,Plated,PTH,ViaDrill
T6C0.1339
%
G90
G05
T1
X4.0984Y-2.1654
X4.1142Y-4.1654
X4.1417Y-2.3071
X4.1417Y-2.9319
X4.1457Y-3.5315
X4.2323Y-4.1654
X4.2524Y-2.3071
X4.2538Y-2.9331
X4.2642Y-3.5319
X4.2776Y-3.2337
X4.2795Y-4.4705
X4.2904Y-3.8539
X4.296Y-2.6181
X4.2972Y-4.326
X4.301Y-3.0868
X4.3014Y-3.7144
X4.3063Y-2.4716
X4.3278Y-3.2337
X4.3287Y-4.4705
X4.3335Y-3.1299
X4.334Y-3.8597
X4.3346Y-4.3634
X4.3372Y-3.7492
X4.3374Y-2.6209
X4.3406Y-2.5059
X4.3976Y-1.9429
X4.4024Y-4.5447
X4.4094Y-3.9252
X4.4094Y-3.0512
X4.4094Y-3.1665
X4.4094Y-3.3031
X4.4094Y-3.6732
X4.4094Y-4.2866
X4.4134Y-4.4016
X4.4146Y-2.5455
X4.4154Y-3.789
X4.4173Y-2.6811
X4.4291Y-2.4291
X4.4547Y-4.4016
X4.4587Y-2.5455
X4.4587Y-3.1665
X4.4626Y-3.7835
X4.4927Y-4.3236
X4.4927Y-4.5047
X4.5079Y-3.0827
X4.5079Y-3.2756
X4.5118Y-3.7047
X4.5118Y-3.8898
X4.5518Y-4.2685
X4.5518Y-4.552
X4.5669Y-3.0354
X4.5669Y-3.3189
X4.5694Y-4.6836
X4.5709Y-3.6575
X4.5709Y-3.9409
X4.5748Y-4.063
X4.5787Y-2.8189
X4.6102Y-3.4094
X4.6693Y-3.9764
X4.7028Y-1.9488
X4.7169Y-5.7724
X4.748Y-4.1819
X4.7514Y-4.5853
X4.7795Y-3.1811
X4.7874Y-2.9409
X4.7906Y-4.2685
X4.7913Y-2.3031
X4.7913Y-3.5236
X4.7933Y-2.5433
X4.8031Y-4.6378
X4.815Y-2.3622
X4.8189Y-4.5551
X4.8228Y-4.2047
X4.8228Y-4.2685
X4.8307Y-3.0339
X4.8346Y-3.6571
X4.8484Y-3.1201
X4.8559Y-3.3236
X4.8583Y-2.3937
X4.8583Y-2.6929
X4.8583Y-3.9366
X4.859Y-3.6457
X4.8602Y-2.4947
X4.8622Y-3.0315
X4.8804Y-3.1521
X4.9055Y-2.3937
X4.9055Y-3.0315
X4.9055Y-3.6457
X4.9075Y-2.4947
X4.9331Y-3.563
X4.9346Y-3.648
X4.9646Y-2.8661
X4.9685Y-2.5669
X4.9685Y-3.4488
X4.9724Y-2.2283
X4.9882Y-2.9764
X4.9882Y-3.0157
X4.9921Y-2.3307
X4.9921Y-2.378
X4.9921Y-3.5531
X4.9921Y-3.6102
X5.0039Y-1.9488
X5.0197Y-2.4213
X5.0217Y-3.6398
X5.022Y-5.7783
X5.0315Y-3.748
X5.0354Y-4.063
X5.0472Y-3.4764
X5.0748Y-3.3622
X5.0787Y-3.1201
X5.0984Y-4.2283
X5.1002Y-4.1122
X5.1004Y-4.0551
X5.1004Y-4.1693
X5.1024Y-3.7402
X5.1083Y-2.7343
X5.122Y-3.4291
X5.122Y-3.5276
X5.124Y-2.998
X5.1436Y-4.2287
X5.1535Y-3.0827
X5.1535Y-3.1752
X5.1535Y-3.2382
X5.1535Y-3.4291
X5.1535Y-3.5276
X5.1575Y-4.1693
X5.1713Y-4.1102
X5.1715Y-4.0544
X5.2108Y-3.7402
X5.2165Y-3.6339
X5.2343Y-4.4823
X5.2421Y-2.6476
X5.248Y-3.6654
X5.252Y-3.9508
X5.2559Y-2.7933
X5.2756Y-3.7244
X5.3012Y-1.9488
X5.3232Y-5.7783
X5.3268Y-3.7913
X5.3406Y-2.8957
X5.3445Y-3.689
X5.3504Y-3.0827
X5.3504Y-3.2402
X5.3543Y-3.4291
X5.3701Y-3.1752
X5.4035Y-3.2638
X5.4311Y-3.0276
X5.4587Y-3.2343
X5.4764Y-2.4114
X5.4823Y-4.5886
X5.4843Y-3.5354
X5.5118Y-2.5886
X5.5354Y-3.0432
X5.5413Y-3.7913
X5.5413Y-5.0394
X5.5433Y-3.8622
X5.563Y-3.248
X5.565Y-4.061
X5.574Y-3.0799
X5.5743Y-2.408
X5.5906Y-3.6909
X5.5906Y-3.8681
X5.6024Y-1.9488
X5.6043Y-2.378
X5.6205Y-5.7783
X5.622Y-3.7343
X5.622Y-3.8248
X5.626Y-3.5074
X5.6319Y-5.4272
X5.6437Y-3.624
X5.6654Y-3.8297
X5.6673Y-3.563
X5.6673Y-3.7441
X5.6713Y-4.3366
X5.6732Y-3.6535
X5.6909Y-4.437
X5.6927Y-3.81
X5.6929Y-3.1929
X5.6969Y-2.5709
X5.6988Y-2.4311
X5.7028Y-2.6949
X5.7087Y-4.9252
X5.7087Y-5.0768
X5.7087Y-5.376
X5.7126Y-5.2264
X5.7343Y-2.9528
X5.7638Y-3.6535
X5.7782Y-3.81
X5.7835Y-2.5709
X5.7835Y-3.4705
X5.7854Y-3.1929
X5.7869Y-4.437
X5.8543Y-2.8287
X5.8976Y-3.9331
X5.8976Y-3.8543
X5.8976Y-4.315
X5.8976Y-4.3937
X5.8976Y-4.4724
X5.8976Y-4.5512
X5.8996Y-5.2579
X5.9016Y-3.7717
X5.9016Y-3.6929
X5.9024Y-3.0748
X5.9055Y-3.1535
X5.9055Y-2.4528
X5.9055Y-2.5315
X5.9055Y-2.6142
X5.9055Y-2.6929
X5.9055Y-3.2323
X5.9055Y-5.0984
X5.9055Y-5.1772
X5.9055Y-5.3386
X5.9094Y-3.311
X5.9173Y-1.9429
X5.9217Y-5.7783
X5.9449Y-4.7205
X5.9508Y-4.1122
X6.2185Y-1.9429
T3
X6.3362Y-2.4529
X6.3362Y-2.5329
X6.3362Y-2.6129
X6.3362Y-2.6929
X6.3362Y-3.073
X6.3362Y-3.153
X6.3362Y-3.233
X6.3362Y-3.313
X6.3362Y-3.6931
X6.3362Y-3.7731
X6.3362Y-3.8531
X6.3362Y-3.9331
X6.3362Y-4.3131
X6.3362Y-4.3931
X6.3362Y-4.4731
X6.3362Y-4.5531
X6.3362Y-5.0982
X6.3362Y-5.1782
X6.3362Y-5.2582
X6.3362Y-5.3382
X6.4063Y-2.4129
X6.4063Y-2.4929
X6.4063Y-2.5729
X6.4063Y-2.6529
X6.4063Y-3.033
X6.4063Y-3.113
X6.4063Y-3.193
X6.4063Y-3.273
X6.4063Y-3.6531
X6.4063Y-3.7331
X6.4063Y-3.8131
X6.4063Y-3.8931
X6.4063Y-4.2731
X6.4063Y-4.3531
X6.4063Y-4.4331
X6.4063Y-4.5131
X6.4063Y-5.0582
X6.4063Y-5.1382
X6.4063Y-5.2182
X6.4063Y-5.2982
X6.5961Y-2.2827
X6.5961Y-2.3728
X6.5961Y-2.7327
X6.5961Y-2.8228
X6.5961Y-2.9028
X6.5961Y-2.9929
X6.5961Y-3.3528
X6.5961Y-3.4429
X6.5961Y-3.5228
X6.5961Y-3.613
X6.5961Y-3.9728
X6.5961Y-4.063
X6.5961Y-4.1429
X6.5961Y-4.2331
X6.5961Y-4.5929
X6.5961Y-4.6831
X6.5961Y-4.928
X6.5961Y-5.0181
X6.5961Y-5.378
X6.5961Y-5.4681
T4
X5.0406Y-4.3264
X5.1406Y-4.3264
X5.2406Y-4.3264
T5
X6.3713Y-2.2331
X6.3713Y-4.7331
X6.3713Y-4.878
X6.3713Y-5.5181
X6.6362Y-3.1728
X6.6362Y-3.7929
T6
X4.2283Y-2.0433
X4.2283Y-5.6929
X6.3701Y-2.0394
X6.3701Y-5.7004
T2
G00X4.2018Y-2.385
M15
G01X4.1703Y-2.385
M16
G05
G00X4.2018Y-2.7252
M15
G01X4.1703Y-2.7252
M16
G05
G00X4.2018Y-3.0063
M15
G01X4.1703Y-3.0063
M16
G05
G00X4.2018Y-3.3465
M15
G01X4.1703Y-3.3465
M16
G05
G00X4.2018Y-3.6283
M15
G01X4.1703Y-3.6283
M16
G05
G00X4.2018Y-3.9685
M15
G01X4.1703Y-3.9685
M16
G05
G00X4.2018Y-4.2425
M15
G01X4.1703Y-4.2425
M16
G05
G00X4.2018Y-4.5827
M15
G01X4.1703Y-4.5827
M16
G05
G00X4.373Y-2.385
M15
G01X4.3297Y-2.385
M16
G05
G00X4.373Y-2.7252
M15
G01X4.3297Y-2.7252
M16
G05
G00X4.373Y-3.0063
M15
G01X4.3297Y-3.0063
M16
G05
G00X4.373Y-3.3465
M15
G01X4.3297Y-3.3465
M16
G05
G00X4.373Y-3.6283
M15
G01X4.3297Y-3.6283
M16
G05
G00X4.373Y-3.9685
M15
G01X4.3297Y-3.9685
M16
G05
G00X4.373Y-4.2425
M15
G01X4.3297Y-4.2425
M16
G05
G00X4.373Y-4.5827
M15
G01X4.3297Y-4.5827
M16
G05
M30
